<?xml version="1.0" encoding="UTF-8"?>
<!-- Generator: Adobe Illustrator 19.0.0, SVG Export Plug-In . SVG Version: 6.00 Build 0)  -->
<!-- Icon made by Freepik (https://www.freepik.com) from www.flaticon.com -->
<svg id="Layer_1" enable-background="new 0 0 460 460" version="1.1" viewBox="0 0 460 460" xml:space="preserve" xmlns="http://www.w3.org/2000/svg">
<g id="XMLID_530_">
<polygon id="XMLID_531_" points="460 403.57 60 403.57 60 0 30 0 30 403.57 0 403.57 0 433.57 30 433.57 30 460 60 460 60 433.57 460 433.57" fill="#354A67"/>
<rect id="XMLID_532_" transform="matrix(-.8835 -.4685 .4685 -.8835 631.7 475.71)" x="360.01" y="52.568" width="30.001" height="213.45" fill="#3897FF"/>
<rect id="XMLID_533_" transform="matrix(-.7433 -.669 .669 -.7433 339.86 547.58)" x="207.72" y="193.58" width="134.54" height="30.001" fill="#8BC0FF"/>
<rect id="XMLID_534_" transform="matrix(-.8682 -.4962 .4962 -.8682 202.33 555.87)" x="159.98" y="150.29" width="30" height="201.56" fill="#BFDCFF"/>
<circle id="XMLID_535_" cx="225" cy="163.57" r="35" fill="#3897FF"/>
<circle id="XMLID_536_" cx="325" cy="253.57" r="35" fill="#354A67"/>
<circle id="XMLID_782_" cx="425" cy="65" r="35" fill="#354A67"/>
<circle id="XMLID_783_" cx="125" cy="338.57" r="35" fill="#3897FF"/>
</g>
</svg>
