<?xml version="1.0" encoding="UTF-8" standalone="no"?>
<!-- Generator: Adobe Illustrator 19.1.0, SVG Export Plug-In . SVG Version: 6.00 Build 0)  -->

<svg
   xmlns:dc="http://purl.org/dc/elements/1.1/"
   xmlns:cc="http://creativecommons.org/ns#"
   xmlns:rdf="http://www.w3.org/1999/02/22-rdf-syntax-ns#"
   xmlns:svg="http://www.w3.org/2000/svg"
   xmlns="http://www.w3.org/2000/svg"
   xmlns:sodipodi="http://sodipodi.sourceforge.net/DTD/sodipodi-0.dtd"
   xmlns:inkscape="http://www.inkscape.org/namespaces/inkscape"
   version="1.1"
   id="Capa_1"
   x="0px"
   y="0px"
   viewBox="0 0 32 32"
   xml:space="preserve"
   inkscape:version="0.91 r13725"
   sodipodi:docname="change.svg"
   width="32"
   height="32"><metadata
     id="metadata4346"><rdf:RDF><cc:Work
         rdf:about=""><dc:format>image/svg+xml</dc:format><dc:type
           rdf:resource="http://purl.org/dc/dcmitype/StillImage" /><dc:title></dc:title></cc:Work></rdf:RDF></metadata><defs
     id="defs4344" /><sodipodi:namedview
     pagecolor="#ffffff"
     bordercolor="#666666"
     borderopacity="1"
     objecttolerance="10"
     gridtolerance="10"
     guidetolerance="10"
     inkscape:pageopacity="0"
     inkscape:pageshadow="2"
     inkscape:window-width="1855"
     inkscape:window-height="1176"
     id="namedview4342"
     showgrid="false"
     inkscape:zoom="17.822023"
     inkscape:cx="12.493711"
     inkscape:cy="12.128686"
     inkscape:window-x="65"
     inkscape:window-y="24"
     inkscape:window-maximized="1"
     inkscape:current-layer="Capa_1" /><path
     d="m 10.749672,25.200653 c -0.312711,-0.312711 -0.8183714,-0.312711 -1.1310825,0 -0.312711,0.312711 -0.312711,0.818372 0,1.131083 l 0.9048665,0.904866 -3.6726921,0 c -2.3885803,0 -4.3247275,-1.942801 -4.3247275,-4.324728 l 0,-2.681331 c 0,-0.439126 -0.3592851,-0.798411 -0.7984113,-0.798411 -0.4391262,0 -0.79841123,0.359285 -0.79841123,0.798411 l 0,2.681331 c 0,3.266833 2.65471733,5.92155 5.92155003,5.92155 l 3.6726921,0 -0.9048665,0.904867 c -0.312711,0.312711 -0.312711,0.818371 0,1.131082 0.1530289,0.153029 0.3592851,0.23287 0.5655415,0.23287 0.206256,0 0.405859,-0.07984 0.565541,-0.23287 l 2.268819,-2.268818 c 0.312711,-0.312712 0.312711,-0.818372 0,-1.131083 l -2.268819,-2.268819 z"
     id="path4274"
     inkscape:connector-curvature="0" /><path
     d="m 14.901411,1.0287531 -13.113905,0 c -0.4391262,0 -0.79841128,0.359285 -0.79841128,0.7984112 l 0,13.1139047 c 0,0.439126 0.35928508,0.798411 0.79841128,0.798411 l 13.113905,0 c 0.439126,0 0.798411,-0.359285 0.798411,-0.798411 l 0,-13.1139047 c 0,-0.4391262 -0.352632,-0.7984112 -0.798411,-0.7984112 z m -0.798412,13.1139049 -11.5170818,0 0,-11.5170825 11.5170818,0 0,11.5170825 z"
     id="path4276"
     inkscape:connector-curvature="0" /><path
     d="m 25.03458,3.2975717 -3.672692,0 0.904866,-0.9048661 c 0.312711,-0.3127111 0.312711,-0.8183715 0,-1.1310826 -0.312711,-0.31271107 -0.818371,-0.31271107 -1.131082,0 l -2.262166,2.2688186 c -0.312711,0.3127111 -0.312711,0.8183715 0,1.1310826 l 2.268819,2.2688186 c 0.153029,0.1530288 0.359285,0.23287 0.565541,0.23287 0.206257,0 0.405859,-0.079841 0.565542,-0.23287 0.312711,-0.3127111 0.312711,-0.8183715 0,-1.1310826 l -0.904866,-0.9048661 3.672691,0 c 2.388581,0 4.324728,1.9428007 4.324728,4.3247276 l 0,2.6813313 c 0,0.439126 0.359285,0.798411 0.798411,0.798411 0.439126,0 0.798411,-0.359285 0.798411,-0.798411 l 0,-2.6813313 c 0,-3.2668327 -2.66137,-5.92155 -5.928203,-5.92155 z"
     id="path4278"
     inkscape:connector-curvature="0" /><path
     d="m 30.104491,29.505421 c -0.212909,0 -0.419166,0.08649 -0.565541,0.23287 -0.146375,0.146375 -0.23287,0.352631 -0.23287,0.565541 0,0.206256 0.08649,0.419166 0.23287,0.565541 0.146375,0.146376 0.352632,0.23287 0.565541,0.23287 0.21291,0 0.419166,-0.08649 0.565542,-0.23287 0.146375,-0.146375 0.23287,-0.352631 0.23287,-0.565541 0,-0.21291 -0.08649,-0.419166 -0.23287,-0.565541 -0.153029,-0.146376 -0.359285,-0.23287 -0.565542,-0.23287 z"
     id="path4280"
     inkscape:connector-curvature="0" /><path
     d="m 26.824352,29.505421 c -0.439126,0 -0.798411,0.359285 -0.798411,0.798411 0,0.439126 0.359285,0.798411 0.798411,0.798411 0.439126,0 0.798411,-0.359285 0.798411,-0.798411 0,-0.439126 -0.359285,-0.798411 -0.798411,-0.798411 z"
     id="path4282"
     inkscape:connector-curvature="0" /><path
     d="m 20.264073,29.505421 c -0.439126,0 -0.798412,0.359285 -0.798412,0.798411 0,0.439126 0.359286,0.798411 0.798412,0.798411 0.439126,0 0.798411,-0.359285 0.798411,-0.798411 0,-0.439126 -0.352632,-0.798411 -0.798411,-0.798411 z"
     id="path4284"
     inkscape:connector-curvature="0" /><path
     d="m 23.544212,29.505421 c -0.439126,0 -0.798411,0.359285 -0.798411,0.798411 0,0.439126 0.359285,0.798411 0.798411,0.798411 0.439126,0 0.798411,-0.359285 0.798411,-0.798411 0,-0.439126 -0.359285,-0.798411 -0.798411,-0.798411 z"
     id="path4286"
     inkscape:connector-curvature="0" /><path
     d="m 16.990653,29.505421 c -0.212909,0 -0.419166,0.08649 -0.565541,0.23287 -0.146376,0.146375 -0.23287,0.352631 -0.23287,0.565541 0,0.206256 0.08649,0.419166 0.23287,0.565541 0.146375,0.146376 0.352632,0.23287 0.565541,0.23287 0.206256,0 0.419166,-0.08649 0.565541,-0.23287 0.146376,-0.146375 0.23287,-0.352631 0.23287,-0.565541 0,-0.21291 -0.08649,-0.419166 -0.23287,-0.565541 -0.146375,-0.146376 -0.359351,-0.23287 -0.565541,-0.23287 z"
     id="path4288"
     inkscape:connector-curvature="0" /><path
     d="m 16.990653,26.225281 c -0.439126,0 -0.798411,0.359285 -0.798411,0.798411 0,0.439127 0.359285,0.798412 0.798411,0.798412 0.439126,0 0.798411,-0.359285 0.798411,-0.798412 0,-0.439126 -0.359351,-0.798411 -0.798411,-0.798411 z"
     id="path4290"
     inkscape:connector-curvature="0" /><path
     d="m 16.990653,22.945142 c -0.439126,0 -0.798411,0.359285 -0.798411,0.798411 0,0.439126 0.359285,0.798411 0.798411,0.798411 0.439126,0 0.798411,-0.359285 0.798411,-0.798411 0,-0.439126 -0.359351,-0.798411 -0.798411,-0.798411 z"
     id="path4292"
     inkscape:connector-curvature="0" /><path
     d="m 16.990653,19.665002 c -0.439126,0 -0.798411,0.359285 -0.798411,0.798411 0,0.439127 0.359285,0.798412 0.798411,0.798412 0.439126,0 0.798411,-0.359285 0.798411,-0.798412 0,-0.439126 -0.359351,-0.798411 -0.798411,-0.798411 z"
     id="path4294"
     inkscape:connector-curvature="0" /><path
     d="m 16.990653,16.391516 c -0.212909,0 -0.419166,0.08649 -0.565541,0.23287 -0.146376,0.146375 -0.23287,0.352632 -0.23287,0.565541 0,0.21291 0.08649,0.419166 0.23287,0.565542 0.146375,0.146375 0.352632,0.232869 0.565541,0.232869 0.206256,0 0.419166,-0.08649 0.565541,-0.232869 0.146376,-0.146376 0.23287,-0.352632 0.23287,-0.565542 0,-0.206256 -0.08649,-0.419166 -0.23287,-0.565541 -0.153095,-0.153029 -0.359351,-0.23287 -0.565541,-0.23287 z"
     id="path4296"
     inkscape:connector-curvature="0" /><path
     d="m 26.824352,16.391516 c -0.439126,0 -0.798411,0.359285 -0.798411,0.798411 0,0.439126 0.359285,0.798411 0.798411,0.798411 0.439126,0 0.798411,-0.359285 0.798411,-0.798411 0,-0.439126 -0.359285,-0.798411 -0.798411,-0.798411 z"
     id="path4298"
     inkscape:connector-curvature="0" /><path
     d="m 23.544212,16.391516 c -0.439126,0 -0.798411,0.359285 -0.798411,0.798411 0,0.439126 0.359285,0.798411 0.798411,0.798411 0.439126,0 0.798411,-0.359285 0.798411,-0.798411 0,-0.439126 -0.359285,-0.798411 -0.798411,-0.798411 z"
     id="path4300"
     inkscape:connector-curvature="0" /><path
     d="m 20.264073,16.391516 c -0.439126,0 -0.798412,0.359285 -0.798412,0.798411 0,0.439126 0.359286,0.798411 0.798412,0.798411 0.439126,0 0.798411,-0.359285 0.798411,-0.798411 0,-0.439126 -0.352632,-0.798411 -0.798411,-0.798411 z"
     id="path4302"
     inkscape:connector-curvature="0" /><path
     d="m 30.104491,16.391516 c -0.212909,0 -0.419166,0.08649 -0.565541,0.23287 -0.146375,0.146375 -0.23287,0.352632 -0.23287,0.565541 0,0.21291 0.08649,0.419166 0.23287,0.565542 0.146375,0.146375 0.352632,0.232869 0.565541,0.232869 0.21291,0 0.419166,-0.08649 0.565542,-0.232869 0.146375,-0.146376 0.23287,-0.352632 0.23287,-0.565542 0,-0.206256 -0.08649,-0.419166 -0.23287,-0.565541 -0.153029,-0.146375 -0.359285,-0.23287 -0.565542,-0.23287 z"
     id="path4304"
     inkscape:connector-curvature="0" /><path
     d="m 30.104491,19.665002 c -0.439126,0 -0.798411,0.359285 -0.798411,0.798411 0,0.439127 0.359285,0.798412 0.798411,0.798412 0.439126,0 0.798412,-0.359285 0.798412,-0.798412 0,-0.439126 -0.359286,-0.798411 -0.798412,-0.798411 z"
     id="path4306"
     inkscape:connector-curvature="0" /><path
     d="m 30.104491,26.225281 c -0.439126,0 -0.798411,0.359285 -0.798411,0.798411 0,0.439127 0.359285,0.798412 0.798411,0.798412 0.439126,0 0.798412,-0.359285 0.798412,-0.798412 0,-0.439126 -0.359286,-0.798411 -0.798412,-0.798411 z"
     id="path4308"
     inkscape:connector-curvature="0" /><path
     d="m 30.104491,22.945142 c -0.439126,0 -0.798411,0.359285 -0.798411,0.798411 0,0.439126 0.359285,0.798411 0.798411,0.798411 0.439126,0 0.798412,-0.359285 0.798412,-0.798411 0,-0.439126 -0.359286,-0.798411 -0.798412,-0.798411 z"
     id="path4310"
     inkscape:connector-curvature="0" />
</svg>
