<?xml version="1.0" encoding="UTF-8" standalone="no"?>
<!-- Generator: Adobe Illustrator 16.0.4, SVG Export Plug-In . SVG Version: 6.00 Build 0)  -->

<svg
   xmlns:dc="http://purl.org/dc/elements/1.1/"
   xmlns:cc="http://creativecommons.org/ns#"
   xmlns:rdf="http://www.w3.org/1999/02/22-rdf-syntax-ns#"
   xmlns:svg="http://www.w3.org/2000/svg"
   xmlns="http://www.w3.org/2000/svg"
   xmlns:sodipodi="http://sodipodi.sourceforge.net/DTD/sodipodi-0.dtd"
   xmlns:inkscape="http://www.inkscape.org/namespaces/inkscape"
   version="1.1"
   id="Layer_1"
   x="0px"
   y="0px"
   width="306px"
   height="344.35px"
   viewBox="0 0 306 344.35"
   enable-background="new 0 0 306 344.35"
   xml:space="preserve"
   sodipodi:docname="cpp-logo-development.svg"
   inkscape:version="0.92.5 (2060ec1f9f, 2020-04-08)"><metadata
   id="metadata4951"><rdf:RDF><cc:Work
       rdf:about=""><dc:format>image/svg+xml</dc:format><dc:type
         rdf:resource="http://purl.org/dc/dcmitype/StillImage" /><dc:title /></cc:Work></rdf:RDF></metadata><defs
   id="defs4949" /><sodipodi:namedview
   pagecolor="#ffffff"
   bordercolor="#666666"
   borderopacity="1"
   objecttolerance="10"
   gridtolerance="10"
   guidetolerance="10"
   inkscape:pageopacity="0"
   inkscape:pageshadow="2"
   inkscape:window-width="1848"
   inkscape:window-height="1016"
   id="namedview4947"
   showgrid="false"
   inkscape:zoom="0.6853492"
   inkscape:cx="-9.6907868"
   inkscape:cy="172.175"
   inkscape:window-x="72"
   inkscape:window-y="27"
   inkscape:window-maximized="1"
   inkscape:current-layer="Layer_1" />





<g
   id="g4906"><path
     style="fill:#ff6600"
     id="path4928"
     d="M 302.107,258.262 C 304.508,254.103 306,249.417 306,245.209 V 99.14 c 0,-4.208 -1.49,-8.893 -3.892,-13.052 L 153,172.175 Z"
     inkscape:connector-curvature="0" /><path
     style="fill:#c83737"
     id="path4930"
     d="m 166.25,341.193 126.5,-73.034 c 3.644,-2.104 6.956,-5.737 9.357,-9.897 L 153,172.175 3.893,258.263 c 2.401,4.159 5.714,7.793 9.357,9.896 l 126.5,73.034 c 7.287,4.208 19.213,4.208 26.5,0 z"
     inkscape:connector-curvature="0" /><path
     id="path4932"
     d="m 302.108,86.087 c -2.402,-4.16 -5.715,-7.793 -9.358,-9.897 L 166.25,3.156 c -7.287,-4.208 -19.213,-4.208 -26.5,0 L 13.25,76.19 C 5.962,80.397 0,90.725 0,99.14 v 146.069 c 0,4.208 1.491,8.894 3.893,13.053 L 153,172.175 Z"
     inkscape:connector-curvature="0"
     style="fill:#659ad2" /><g
     id="g4936">
	<path
   style="fill:#ffffff"
   inkscape:connector-curvature="0"
   id="path4934"
   d="m 153,274.175 c -56.243,0 -102,-45.757 -102,-102 0,-56.243 45.757,-102 102,-102 36.292,0 70.139,19.53 88.331,50.968 l -44.143,25.544 C 188.083,130.951 171.15,121.175 153,121.175 c -28.122,0 -51,22.878 -51,51 0,28.121 22.878,51 51,51 18.152,0 35.085,-9.776 44.191,-25.515 l 44.143,25.543 c -18.192,31.441 -52.04,50.972 -88.334,50.972 z" />
</g><g
     id="g4940">
	<polygon
   style="fill:#ffffff"
   id="polygon4938"
   points="221,166.508 221,177.841 232.334,177.841 232.334,189.175 243.666,189.175 243.666,177.841 255,177.841 255,166.508 243.666,166.508 243.666,155.175 232.334,155.175 232.334,166.508 " />
</g><g
     id="g4944">
	<polygon
   style="fill:#ffffff"
   id="polygon4942"
   points="263.5,166.508 263.5,177.841 274.834,177.841 274.834,189.175 286.166,189.175 286.166,177.841 297.5,177.841 297.5,166.508 286.166,166.508 286.166,155.175 274.834,155.175 274.834,166.508 " />
</g></g>
</svg>
