<?xml version="1.0" encoding="UTF-8" standalone="no"?>
<!-- Generator: Adobe Illustrator 18.1.1, SVG Export Plug-In . SVG Version: 6.00 Build 0)  -->

<!-- Icon made by Freepik (https://www.freepik.com) from www.flaticon.com -->

<svg
   id="Capa_1"
   enable-background="new 0 0 349.557 349.557"
   version="1.1"
   viewBox="0 0 349.56 349.56"
   xml:space="preserve"
   sodipodi:docname="crosshair-available1.svg"
   inkscape:version="1.1.2 (b8e25be8, 2022-02-05)"
   xmlns:inkscape="http://www.inkscape.org/namespaces/inkscape"
   xmlns:sodipodi="http://sodipodi.sourceforge.net/DTD/sodipodi-0.dtd"
   xmlns:xlink="http://www.w3.org/1999/xlink"
   xmlns="http://www.w3.org/2000/svg"
   xmlns:svg="http://www.w3.org/2000/svg"><sodipodi:namedview
   id="namedview846"
   pagecolor="#ffffff"
   bordercolor="#666666"
   borderopacity="1.0"
   inkscape:pageshadow="2"
   inkscape:pageopacity="0.0"
   inkscape:pagecheckerboard="0"
   showgrid="false"
   inkscape:zoom="1.787962"
   inkscape:cx="174.78"
   inkscape:cy="174.78"
   inkscape:window-width="1312"
   inkscape:window-height="847"
   inkscape:window-x="1534"
   inkscape:window-y="39"
   inkscape:window-maximized="0"
   inkscape:current-layer="Capa_1" /><defs
   id="defs846"><linearGradient
     inkscape:collect="always"
     id="linearGradient5125"><stop
       style="stop-color:#00b502;stop-opacity:1;"
       offset="0"
       id="stop5121" /><stop
       style="stop-color:#00b502;stop-opacity:0;"
       offset="1"
       id="stop5123" /></linearGradient><linearGradient
     id="linearGradient1021"><stop
       style="stop-color:#6ff90b;stop-opacity:1;"
       offset="0"
       id="stop1019" /></linearGradient><symbol
     id="Decision"><title
       id="title6982">Decision</title><desc
       id="desc6984">A decision or switching type operation.</desc><path
       d="m 15,75 60,-40 60,40 -60,40 z"
       style="stroke-width:2"
       id="path6986" /></symbol><linearGradient
     inkscape:collect="always"
     xlink:href="#linearGradient1021"
     id="linearGradient2156"
     x1="16.084564"
     y1="268.56"
     x2="272.47357"
     y2="268.56"
     gradientUnits="userSpaceOnUse" /><linearGradient
     inkscape:collect="always"
     xlink:href="#linearGradient5125"
     id="linearGradient5127"
     x1="28.361872"
     y1="268.70131"
     x2="259.46023"
     y2="268.70131"
     gradientUnits="userSpaceOnUse"
     gradientTransform="matrix(0.99347677,0,0,1.0210409,0.18815994,-6.6281359)" /></defs>
<g
   fill="#010002"
   id="g841">
<circle
   cx="174.78"
   cy="174.78"
   r="13.921"
   id="circle831" />
<path
   d="m14.917 189.7h112.71c8.24 0 14.917-6.677 14.917-14.917s-6.677-14.917-14.917-14.917h-112.71c-8.24-1e-3 -14.917 6.676-14.917 14.917s6.677 14.917 14.917 14.917z"
   id="path833" />
<path
   d="m189.69 14.92c0-8.24-6.677-14.917-14.917-14.917s-14.917 6.677-14.917 14.917v112.71c0 8.24 6.677 14.917 14.917 14.917s14.917-6.677 14.917-14.917v-112.71z"
   id="path835" />
<path
   d="m349.56 174.78c0-8.24-6.677-14.917-14.917-14.917h-112.71c-8.24 0-14.917 6.677-14.917 14.917s6.677 14.917 14.917 14.917h112.71c8.234 0 14.917-6.677 14.917-14.917z"
   id="path837" />
<path
   d="m159.86 334.64c0 8.24 6.677 14.917 14.917 14.917s14.917-6.677 14.917-14.917v-112.71c0-8.24-6.677-14.917-14.917-14.917s-14.917 6.677-14.917 14.917v112.71z"
   id="path839" />
</g>
<rect
   style="fill:#04f209;stroke:#00e000;stroke-width:1.20397;stroke-linejoin:bevel"
   id="rect1042"
   width="139.46455"
   height="140.84918"
   x="365.92828"
   y="199.14073"
   transform="matrix(0.91357747,0.40666473,-0.94090441,0.33867226,0,0)" /><path
   style="fill:url(#linearGradient2156);stroke:#00e000;stroke-width:1.00158;stroke-linejoin:bevel;fill-opacity:1.0"
   d="M 79.202533,292.1703 C 44.784085,276.84078 16.540362,264.21528 16.438707,264.11362 16.221,263.89591 145.98405,217.11793 146.83517,217.1073 c 0.63584,-0.008 124.43163,54.94563 125.14334,55.55176 0.34454,0.29342 -53.2832,19.82246 -125.16331,45.57937 l -5.03366,1.80372 z"
   id="path2089" /><path
   style="fill:#2cf209;stroke:#00e000;stroke-width:1.00158;stroke-linejoin:bevel;fill-opacity:1"
   d="m 120.24864,309.64483 c -11.53548,-5.1615 -39.220632,-17.51779 -61.52256,-27.45842 -22.301928,-9.94064 -40.613131,-18.12419 -40.691562,-18.18568 -0.07843,-0.0615 0.928301,-0.43703 2.237184,-0.83454 1.308882,-0.39752 16.222362,-5.7057 33.141066,-11.79596 16.918704,-6.09026 42.087025,-15.13272 55.929602,-20.09436 13.84257,-4.96164 27.9127,-10.00826 31.26694,-11.21471 l 6.09862,-2.19354 5.92624,2.57565 c 18.42872,8.00941 116.08711,51.40439 117.12698,52.04593 0.25307,0.15612 -1.50872,0.98847 -3.91507,1.84965 -2.40636,0.86118 -17.46273,6.34195 -33.45859,12.17949 -40.4079,14.74648 -90.06048,32.56492 -90.663,32.53553 -0.27624,-0.0135 -9.94037,-4.24754 -21.47585,-9.40904 z"
   id="path2166" /><path
   style="fill:#2cf209;fill-opacity:1;stroke:#00e000;stroke-width:1.00158;stroke-linejoin:bevel"
   d="M 140.10365,317.60862 C 139.18081,317.19228 114.6417,306.25626 85.572288,293.30635 56.502879,280.35644 29.862239,268.48211 26.370866,266.91895 l -6.347949,-2.8421 3.551469,-1.26046 c 1.953309,-0.69325 30.264694,-10.84356 62.914191,-22.55623 32.649493,-11.71268 59.730153,-21.29577 60.179243,-21.29577 0.82866,0 30.45593,12.99545 85.16037,37.35404 36.6186,16.30539 36.27724,16.14712 35.65484,16.53177 -0.95371,0.58943 -90.12952,32.88928 -123.74396,44.82058 -1.5907,0.56461 -2.27196,0.55297 -3.63542,-0.0622 z"
   id="path2903" /><path
   style="fill:#2cf209;fill-opacity:1;stroke:#00e000;stroke-width:1.00158;stroke-linejoin:bevel"
   d="M 83.614752,291.67026 C 51.930634,277.54302 25.126373,265.57047 24.049728,265.06459 l -1.957536,-0.91977 9.228384,-3.31996 C 61.246528,250.05885 128.1994,226.1467 136.74991,223.17088 l 10.06937,-3.50442 10.34494,4.46769 c 14.375,6.20817 104.42649,46.18136 106.82349,47.41816 l 1.95754,1.01005 -1.67789,0.6681 c -9.0139,3.58916 -121.57217,44.17847 -122.42648,44.14785 -0.34025,-0.0122 -26.54201,-11.58082 -58.226128,-25.70805 z"
   id="path3044" /><path
   style="fill:#2cf209;fill-opacity:1;stroke:#00e000;stroke-width:1.00158;stroke-linejoin:bevel"
   d="m 89.766953,293.54384 c -28.60796,-12.73943 -54.97175,-24.47192 -58.586201,-26.07221 -3.61445,-1.60029 -6.571728,-3.05372 -6.571728,-3.22984 0,-0.17612 1.195495,-0.71766 2.656656,-1.20342 1.461161,-0.48577 26.56656,-9.43585 55.789776,-19.88907 29.223214,-10.45322 55.524114,-19.83667 58.446434,-20.85212 l 5.31331,-1.84626 8.66909,3.75569 c 4.768,2.06563 31.14376,13.73234 58.61282,25.92602 35.28403,15.66279 49.69383,22.31017 49.09235,22.64678 -1.38867,0.77714 -83.65569,30.58883 -113.85748,41.25936 l -7.55056,2.66766 z"
   id="path3087" /><path
   style="fill:#2cf209;fill-opacity:1;stroke:#00e000;stroke-width:1.00158;stroke-linejoin:bevel"
   d="m 99.580151,292.78378 c -58.61174,-27.68337 -59.310839,-28.01912 -59.310839,-28.4842 0,-0.2038 1.126906,-0.79275 2.504236,-1.30878 1.377329,-0.51603 26.779419,-10.1166 56.449089,-21.33461 43.022323,-16.2666 54.191943,-20.2967 55.165243,-19.90413 1.35463,0.54637 53.10888,24.78837 72.51287,33.96546 23.57066,11.1477 34.32633,16.54235 33.89465,17.00029 -0.7637,0.81019 -110.84733,43.0215 -112.11391,42.98982 -0.32903,-0.008 -22.42464,-10.32396 -49.101339,-22.92385 z"
   id="path3130" /><path
   style="fill:url(#linearGradient5127);fill-opacity:1;stroke:#00e000;stroke-width:1.00158;stroke-linejoin:bevel"
   d="M 136.87746,313.10716 C 134.58541,312.05983 112.20671,301.83904 87.147007,290.39428 27.440372,263.12626 28.462679,263.60518 28.943912,263.12805 29.75837,262.32054 136.48937,223.49741 143.93002,221.30214 l 2.88518,-0.85123 7.67213,3.46351 c 50.97189,23.01089 91.83925,41.80301 98.79831,45.43063 l 4.44518,2.31719 -1.66695,0.6862 c -6.59293,2.71398 -87.53822,32.84296 -105.01739,39.08896 l -10.00166,3.57398 z"
   id="path3173" /></svg>
