<?xml version="1.0" encoding="UTF-8"?>
<!-- Generator: Adobe Illustrator 18.1.1, SVG Export Plug-In . SVG Version: 6.00 Build 0)  -->
<!-- Icon made by Freepik (https://www.freepik.com) from www.flaticon.com -->
<svg id="Capa_1" enable-background="new 0 0 349.557 349.557" version="1.1" viewBox="0 0 349.56 349.56" xml:space="preserve" xmlns="http://www.w3.org/2000/svg">
<g fill="#010002">
<circle cx="174.78" cy="174.78" r="13.921"/>
<path d="m14.917 189.7h112.71c8.24 0 14.917-6.677 14.917-14.917s-6.677-14.917-14.917-14.917h-112.71c-8.24-1e-3 -14.917 6.676-14.917 14.917s6.677 14.917 14.917 14.917z"/>
<path d="m189.69 14.92c0-8.24-6.677-14.917-14.917-14.917s-14.917 6.677-14.917 14.917v112.71c0 8.24 6.677 14.917 14.917 14.917s14.917-6.677 14.917-14.917v-112.71z"/>
<path d="m349.56 174.78c0-8.24-6.677-14.917-14.917-14.917h-112.71c-8.24 0-14.917 6.677-14.917 14.917s6.677 14.917 14.917 14.917h112.71c8.234 0 14.917-6.677 14.917-14.917z"/>
<path d="m159.86 334.64c0 8.24 6.677 14.917 14.917 14.917s14.917-6.677 14.917-14.917v-112.71c0-8.24-6.677-14.917-14.917-14.917s-14.917 6.677-14.917 14.917v112.71z"/>
</g>
</svg>
