<?xml version="1.0" encoding="UTF-8" standalone="no"?>
<!-- Created with Inkscape (http://www.inkscape.org/) -->

<svg
   width="32"
   height="32"
   viewBox="0 0 32 32"
   version="1.1"
   id="SVGRoot"
   sodipodi:docname="data_analysis_2.svg"
   inkscape:version="1.1.2 (b8e25be8, 2022-02-05)"
   xmlns:inkscape="http://www.inkscape.org/namespaces/inkscape"
   xmlns:sodipodi="http://sodipodi.sourceforge.net/DTD/sodipodi-0.dtd"
   xmlns="http://www.w3.org/2000/svg"
   xmlns:svg="http://www.w3.org/2000/svg">
  <sodipodi:namedview
     id="namedview2680"
     pagecolor="#ffffff"
     bordercolor="#666666"
     borderopacity="1.0"
     inkscape:pageshadow="2"
     inkscape:pageopacity="0.0"
     inkscape:pagecheckerboard="0"
     inkscape:document-units="px"
     showgrid="true"
     inkscape:zoom="17.817059"
     inkscape:cx="17.595497"
     inkscape:cy="20.991119"
     inkscape:window-width="1386"
     inkscape:window-height="926"
     inkscape:window-x="1893"
     inkscape:window-y="60"
     inkscape:window-maximized="0"
     inkscape:current-layer="layer1"
     inkscape:snap-global="true">
    <inkscape:grid
       type="xygrid"
       id="grid2750"
       originx="41.340656"
       originy="-318.65935" />
  </sodipodi:namedview>
  <defs
     id="defs2675" />
  <g
     inkscape:label="Layer 1"
     inkscape:groupmode="layer"
     id="layer1"
     transform="translate(41.340656,-318.65935)"
     style="opacity:0.73311897">
    <path
       style="color:#000000;fill:#ff0000;stroke-width:0.0820134;-inkscape-stroke:none"
       d="m -41.237276,332.78915 v 0.28058 0.31792 0.31793 0.31791 0.31793 0.31793 0.31792 -0.31792 h 5.17899 l 4.315825,-10.28606 5.754433,21.2453 4.315825,-17.76681 2.877216,13.35323 3.596521,-11.22114 2.157912,3.74038 h 3.596522 v 0.63585 -0.31793 -0.31792 -0.31793 -0.31791 -0.31793 -0.31792 -0.31793 l -3.596522,-0.28057 -2.157912,-4.41358 -3.596521,11.22115 -2.877216,-13.35324 -4.315825,17.76681 -5.754433,-21.24529 -4.495652,10.62265 z"
       id="path10831"
       sodipodi:nodetypes="ccccccccccccccccccccccccccccccccc" />
    <path
       style="fill:none;stroke:#000000;stroke-width:1.26521;stroke-linecap:butt;stroke-linejoin:miter;stroke-miterlimit:4;stroke-dasharray:none;stroke-opacity:1"
       d="m -41.237276,329.23579 2.890294,-0.18702 4.335443,14.02643 7.948311,-14.96152 3.612868,15.89662 3.61287,-14.96153 4.335441,8.41586 h 5.058017"
       id="path16230"
       sodipodi:nodetypes="cccccccc" />
    <g
       id="path18303-0"
       style="opacity:0.389068"
       transform="translate(-41.948078,318.97205)">
      <path
         style="color:#000000;fill:#000080;stroke-width:0.137;-inkscape-stroke:none"
         d="M 3.1515043,31.267634 C 3.0749844,0.10153548 3.0749844,0.10153548 3.0749844,0.10153548 v 0 l -4.39e-4,-0.17860092"
         id="path19874" />
      <path
         style="color:#000000;fill:#1100f6;-inkscape-stroke:none"
         d="M 3.1425781,-0.078125 3.0058594,-0.0761719 V 0.1015625 L 3.0820313,31.267578 H 3.2207031 L 3.1425781,0.1015625 Z"
         id="path19876" />
    </g>
    <g
       id="path18303-3-8"
       style="opacity:0.389068"
       transform="translate(-41.948078,318.97205)">
      <path
         style="color:#000000;fill:#000080;stroke-width:0.137;-inkscape-stroke:none"
         d="M 5.6550622,31.275611 C 5.5791571,0.35984291 5.5791571,0.35984291 5.5791571,0.35984291 v 0 L 5.5787254,0.18267554"
         id="path19880" />
      <path
         style="color:#000000;fill:#1100f6;-inkscape-stroke:none"
         d="m 5.6464844,0.18164062 -0.1367188,0.001953 V 0.359375 l 0.076172,30.916016 H 5.7226562 L 5.6484375,0.359375 Z"
         id="path19882" />
    </g>
    <g
       id="path18303-32-1"
       style="opacity:0.389068"
       transform="translate(-41.948078,318.97205)">
      <path
         style="color:#000000;fill:#000080;stroke-width:0.137;-inkscape-stroke:none"
         d="m 7.8363709,31.031999 c -0.07652,-31.16609791 -0.07652,-31.16609791 -0.07652,-31.16609791 v 0 L 7.759442,-0.31270014"
         id="path19898" />
      <path
         style="color:#000000;fill:#1100f6;-inkscape-stroke:none"
         d="m 7.6914062,-0.3125 v 0.17773438 L 7.7675781,31.03125 H 7.9042969 L 7.828125,-0.13476562 V -0.3125 Z"
         id="path19900" />
    </g>
    <g
       id="path18303-3-6-7"
       style="opacity:0.389068"
       transform="translate(-41.948078,318.97205)">
      <path
         style="color:#000000;fill:#000080;stroke-width:0.137;-inkscape-stroke:none"
         d="M 10.339929,31.039975 C 10.264023,0.12420851 10.264023,0.12420851 10.264023,0.12420851 v 0 l -4.41e-4,-0.17716861"
         id="path19910" />
      <path
         style="color:#000000;fill:#1100f6;-inkscape-stroke:none"
         d="M 10.195313,-0.05273437 V 0.125 l 0.07617,30.916016 0.136719,-0.002 L 10.332031,0.125 v -0.17773437 z"
         id="path19912" />
    </g>
    <path
       style="opacity:0.389068;fill:#000080;fill-opacity:1;stroke:#1100f6;stroke-width:0.137063;stroke-linecap:butt;stroke-linejoin:miter;stroke-miterlimit:4;stroke-dasharray:none;stroke-opacity:1"
       d="m -29.698981,350.38512 c -0.07652,-31.1661 -0.07652,-31.1661 -0.07652,-31.1661 v 0 l -4.09e-4,-0.1786"
       id="path18303-6-6" />
    <g
       id="path18303-9-7"
       style="opacity:0.389068"
       transform="translate(-41.948078,318.97205)">
      <path
         style="color:#000000;fill:#000080;stroke-width:0.137;-inkscape-stroke:none"
         d="M 21.870517,31.698122 C 21.793997,0.53202264 21.793997,0.53202264 21.793997,0.53202264 v 0 l -4.09e-4,-0.17860123"
         id="path19982" />
      <path
         style="color:#000000;fill:#1100f6;-inkscape-stroke:none"
         d="M 21.724609,0.35351563 V 0.53125 l 0.07813,31.167969 0.136719,-0.002 -0.07617,-31.166016 -0.002,-0.17773437 z"
         id="path19984" />
    </g>
    <g
       id="path18303-3-7-1"
       style="opacity:0.389068"
       transform="translate(-41.948078,318.97205)">
      <path
         style="color:#000000;fill:#000080;stroke-width:0.137;-inkscape-stroke:none"
         d="M 24.374074,31.706098 C 24.298168,0.79033004 24.298168,0.79033004 24.298168,0.79033004 v 0 l -4.42e-4,-0.17716761"
         id="path19976" />
      <path
         style="color:#000000;fill:#1100f6;-inkscape-stroke:none"
         d="m 24.228516,0.61328125 0.002,0.17773437 0.07422,30.91601538 0.138672,-0.002 -0.07617,-30.91406238 V 0.61328125 Z"
         id="path19978" />
    </g>
    <g
       id="path18303-32-72-4"
       style="opacity:0.389068"
       transform="translate(-41.948078,318.97205)">
      <path
         style="color:#000000;fill:#000080;stroke-width:0.137;-inkscape-stroke:none"
         d="M 26.555384,31.462486 C 26.478863,0.29638723 26.478863,0.29638723 26.478863,0.29638723 v 0 L 26.478454,0.117787"
         id="path19994" />
      <path
         style="color:#000000;fill:#1100f6;-inkscape-stroke:none"
         d="M 26.410156,0.1171875 V 0.296875 l 0.07617,31.166016 h 0.136719 L 26.546875,0.296875 V 0.1171875 Z"
         id="path19996" />
    </g>
    <g
       id="path18303-3-6-0-8"
       style="opacity:0.389068"
       transform="translate(-41.948078,318.97205)">
      <path
         style="color:#000000;fill:#000080;stroke-width:0.137;-inkscape-stroke:none"
         d="M 29.058941,31.470462 C 28.983035,0.55469465 28.983035,0.55469465 28.983035,0.55469465 v 0 l -4.42e-4,-0.17716861"
         id="path20000" />
      <path
         style="color:#000000;fill:#1100f6;-inkscape-stroke:none"
         d="M 28.914062,0.37695313 V 0.5546875 l 0.07617,30.9160155 h 0.136719 L 29.050781,0.5546875 V 0.37695313 Z"
         id="path20002" />
    </g>
    <g
       id="path18303-6-9-1"
       style="opacity:0.389068"
       transform="translate(-41.948078,318.97205)">
      <path
         style="color:#000000;fill:#000080;stroke-width:0.137;-inkscape-stroke:none"
         d="M 30.968109,31.843556 C 30.891589,0.67745877 30.891589,0.67745877 30.891589,0.67745877 v 0 L 30.89118,0.49885754"
         id="path20006" />
      <path
         style="color:#000000;fill:#1100f6;-inkscape-stroke:none"
         d="M 30.822266,0.49804688 V 0.67773437 L 30.900391,31.84375 h 0.136718 l -0.07617,-31.16601563 -0.002,-0.17968749 z"
         id="path20008" />
    </g>
    <g
       id="path18303-3-1-8"
       style="opacity:0.389068"
       transform="translate(-41.948078,318.97205)">
      <path
         style="color:#000000;fill:#000080;stroke-width:0.137;-inkscape-stroke:none"
         d="M 14.752655,31.421047 C 14.676749,0.50527905 14.676749,0.50527905 14.676749,0.50527905 v 0 l -4.42e-4,-0.17716761"
         id="path19946" />
      <path
         style="color:#000000;fill:#1100f6;-inkscape-stroke:none"
         d="m 14.607422,0.328125 v 0.17773437 l 0.07617,30.91601563 0.136719,-0.002 -0.07422,-30.91406263 -0.002,-0.17773437 z"
         id="path19948" />
    </g>
    <g
       id="path18303"
       style="opacity:0.389068"
       transform="translate(-40.948078,316.97205)">
      <path
         style="color:#000000;fill:#000080;stroke-width:0.137;-inkscape-stroke:none"
         d="m 0.25176539,3.021185 c 31.16619261,0 31.16619261,0 31.16619261,0 v 0 h 0.178602"
         id="path19862" />
      <path
         style="color:#000000;fill:#1100f6;-inkscape-stroke:none"
         d="M 0.25195313,2.953125 V 3.0898438 H 31.417969 31.595703 V 2.953125 h -0.177734 z"
         id="path19864" />
    </g>
    <g
       id="path18303-3"
       style="opacity:0.389068"
       transform="translate(-40.948078,316.97205)">
      <path
         style="color:#000000;fill:#000080;stroke-width:0.137;-inkscape-stroke:none"
         d="m 0.23764196,5.5247159 c 30.91586104,0 30.91586104,0 30.91586104,0 v 0 h 0.177168"
         id="path19868" />
      <path
         style="color:#000000;fill:#1100f6;-inkscape-stroke:none"
         d="M 0.23828125,5.4570312 V 5.59375 H 31.154297 31.330078 V 5.4570312 h -0.175781 z"
         id="path19870" />
    </g>
    <g
       id="path18303-32"
       style="opacity:0.389068"
       transform="translate(-40.948078,316.97205)">
      <path
         style="color:#000000;fill:#000080;stroke-width:0.137;-inkscape-stroke:none"
         d="m 0.4758979,7.7066162 c 31.1661921,0 31.1661921,0 31.1661921,0 v 0 h 0.178602"
         id="path19886" />
      <path
         style="color:#000000;fill:#1100f6;-inkscape-stroke:none"
         d="M 0.4765625,7.6386719 V 7.7753906 H 31.642578 31.820312 V 7.6386719 h -0.177734 z"
         id="path19888" />
    </g>
    <g
       id="path18303-3-6"
       style="opacity:0.389068"
       transform="translate(-40.948078,316.97205)">
      <path
         style="color:#000000;fill:#000080;stroke-width:0.137;-inkscape-stroke:none"
         d="m 0.4617745,10.210147 c 30.9158605,0 30.9158605,0 30.9158605,0 v 0 h 0.177169"
         id="path19892" />
      <path
         style="color:#000000;fill:#1100f6;-inkscape-stroke:none"
         d="m 0.4609375,10.142578 v 0.136719 h 30.9160155 0.177734 v -0.136719 h -0.177734 z"
         id="path19894" />
    </g>
    <g
       id="path18303-6"
       style="opacity:0.389068"
       transform="translate(-40.948078,316.97205)">
      <path
         style="color:#000000;fill:#000080;stroke-width:0.137;-inkscape-stroke:none"
         d="m 0.0839937,12.118393 c 31.1661923,0 31.1661923,0 31.1661923,0 v 0 h 0.178602"
         id="path19904" />
      <path
         style="color:#000000;fill:#1100f6;-inkscape-stroke:none"
         d="M 0.08398437,12.050781 V 12.1875 H 31.25 31.429687 V 12.050781 H 31.25 Z"
         id="path19906" />
    </g>
    <g
       id="path18303-9"
       style="opacity:0.389068"
       transform="translate(-40.948078,316.97205)">
      <path
         style="color:#000000;fill:#000080;stroke-width:0.137;-inkscape-stroke:none"
         d="m -0.22468,21.739084 c 31.166193,0 31.166193,0 31.166193,0 v 0 h 0.178602"
         id="path19934" />
      <path
         style="color:#000000;fill:#1100f6;-inkscape-stroke:none"
         d="m -0.22460938,21.669922 v 0.136719 H 30.941406 31.119141 v -0.136719 h -0.177735 z"
         id="path19936" />
    </g>
    <g
       id="path18303-3-7"
       style="opacity:0.389068"
       transform="translate(-40.948078,316.97205)">
      <path
         style="color:#000000;fill:#000080;stroke-width:0.137;-inkscape-stroke:none"
         d="m -0.238803,24.242614 c 30.915861,0 30.915861,0 30.915861,0 v 0 h 0.177168"
         id="path19940" />
      <path
         style="color:#000000;fill:#1100f6;-inkscape-stroke:none"
         d="m -0.23828125,24.173828 v 0.136719 H 30.677734 30.853516 v -0.136719 h -0.175782 z"
         id="path19942" />
    </g>
    <g
       id="path18303-32-72"
       style="opacity:0.389068"
       transform="translate(-40.948078,316.97205)">
      <path
         style="color:#000000;fill:#000080;stroke-width:0.137;-inkscape-stroke:none"
         d="m -5.47e-4,26.424515 c 31.166192,0 31.166192,0 31.166192,0 v 0 h 0.178602"
         id="path19958" />
      <path
         style="color:#000000;fill:#1100f6;-inkscape-stroke:none"
         d="m 0,26.355469 v 0.136718 h 31.166016 0.177734 v -0.136718 h -0.177734 z"
         id="path19960" />
    </g>
    <g
       id="path18303-3-6-0"
       style="opacity:0.389068"
       transform="translate(-40.948078,316.97205)">
      <path
         style="color:#000000;fill:#000080;stroke-width:0.137;-inkscape-stroke:none"
         d="m -0.01467,28.928045 c 30.91586,0 30.91586,0 30.91586,0 v 0 h 0.177169"
         id="path19970" />
      <path
         style="color:#000000;fill:#1100f6;-inkscape-stroke:none"
         d="m -0.015625,28.859375 v 0.136719 h 30.916016 0.177734 v -0.136719 h -0.177734 z"
         id="path19972" />
    </g>
    <g
       id="path18303-6-9"
       style="opacity:0.389068"
       transform="translate(-40.948078,316.97205)">
      <path
         style="color:#000000;fill:#000080;stroke-width:0.137;-inkscape-stroke:none"
         d="m -0.392451,30.836292 c 31.166192,0 31.166192,0 31.166192,0 v 0 h 0.178602"
         id="path19988" />
      <path
         style="color:#000000;fill:#1100f6;-inkscape-stroke:none"
         d="m -0.39257813,30.767578 v 0.136719 H 30.773437 30.953125 v -0.136719 h -0.179688 z"
         id="path19990" />
    </g>
    <g
       id="path18303-3-1"
       style="opacity:0.389068"
       transform="translate(-40.948078,316.97205)">
      <path
         style="color:#000000;fill:#000080;stroke-width:0.137;-inkscape-stroke:none"
         d="m 0.0698703,14.621924 c 30.9158607,0 30.9158607,0 30.9158607,0 v 0 h 0.177168"
         id="path19916" />
      <path
         style="color:#000000;fill:#1100f6;-inkscape-stroke:none"
         d="m 0.0703125,14.552734 v 0.136719 h 30.9160155 0.175781 v -0.136719 h -0.175781 z"
         id="path19918" />
    </g>
    <g
       id="path18303-32-7"
       style="opacity:0.389068"
       transform="translate(-40.948078,316.97205)">
      <path
         style="color:#000000;fill:#000080;stroke-width:0.137;-inkscape-stroke:none"
         d="m 0.3081262,16.803824 c 31.1661918,0 31.1661918,0 31.1661918,0 v 0 h 0.178602"
         id="path19922" />
      <path
         style="color:#000000;fill:#1100f6;-inkscape-stroke:none"
         d="m 0.30859375,16.734375 v 0.138672 H 31.474609 31.652344 v -0.138672 h -0.177735 z"
         id="path19924" />
    </g>
    <g
       id="path18303-3-6-3"
       style="opacity:0.389068"
       transform="translate(-40.948078,316.97205)">
      <path
         style="color:#000000;fill:#000080;stroke-width:0.137;-inkscape-stroke:none"
         d="m 0.2940028,19.307355 c 30.9158602,0 30.9158602,0 30.9158602,0 v 0 h 0.177169"
         id="path19928" />
      <path
         style="color:#000000;fill:#1100f6;-inkscape-stroke:none"
         d="M 0.29492188,19.238281 V 19.375 H 31.208984 31.386719 v -0.136719 h -0.177735 z"
         id="path19930" />
    </g>
    <g
       id="path18303-32-7-5"
       style="opacity:0.389068"
       transform="translate(-41.948078,318.97205)">
      <path
         style="color:#000000;fill:#000080;stroke-width:0.137;-inkscape-stroke:none"
         d="M 16.933964,31.177435 C 16.857443,0.01133622 16.857443,0.01133622 16.857443,0.01133622 v 0 l -4.09e-4,-0.17860023"
         id="path19952" />
      <path
         style="color:#000000;fill:#1100f6;-inkscape-stroke:none"
         d="m 16.789062,-0.16796875 v 0.1796875 l 0.07617,31.16601525 h 0.136719 L 16.925781,0.01171875 v -0.1796875 z"
         id="path19954" />
    </g>
    <g
       id="path18303-3-6-3-3"
       style="opacity:0.389068"
       transform="translate(-41.948078,318.97205)">
      <path
         style="color:#000000;fill:#000080;stroke-width:0.137;-inkscape-stroke:none"
         d="M 19.437522,31.185411 C 19.361616,0.26964366 19.361616,0.26964366 19.361616,0.26964366 v 0 l -4.42e-4,-0.17716861"
         id="path19964" />
      <path
         style="color:#000000;fill:#1100f6;-inkscape-stroke:none"
         d="m 19.292969,0.09179687 v 0.17773438 l 0.07617,30.91601575 h 0.136718 L 19.429687,0.26953125 V 0.09179687 Z"
         id="path19966" />
    </g>
  </g>
</svg>
