<?xml version="1.0" encoding="UTF-8" standalone="no"?>
<!-- Created with Inkscape (http://www.inkscape.org/) -->

<svg
   xmlns:dc="http://purl.org/dc/elements/1.1/"
   xmlns:cc="http://creativecommons.org/ns#"
   xmlns:rdf="http://www.w3.org/1999/02/22-rdf-syntax-ns#"
   xmlns:svg="http://www.w3.org/2000/svg"
   xmlns="http://www.w3.org/2000/svg"
   xmlns:xlink="http://www.w3.org/1999/xlink"
   xmlns:sodipodi="http://sodipodi.sourceforge.net/DTD/sodipodi-0.dtd"
   xmlns:inkscape="http://www.inkscape.org/namespaces/inkscape"
   width="32"
   height="32"
   viewBox="0 0 32 32.000001"
   id="svg6882"
   version="1.1"
   inkscape:version="0.91 r13725"
   sodipodi:docname="download.svg">
  <defs
     id="defs6884">
    <linearGradient
       id="linearGradient1789">
      <stop
         id="stop1790"
         offset="0"
         style="stop-color:#a0a0a0;stop-opacity:1;" />
      <stop
         id="stop1791"
         offset="1"
         style="stop-color:#a8a8a8;stop-opacity:1;" />
    </linearGradient>
    <linearGradient
       id="linearGradient5048">
      <stop
         id="stop5050"
         offset="0"
         style="stop-color:black;stop-opacity:0;" />
      <stop
         id="stop5056"
         offset="0.5"
         style="stop-color:black;stop-opacity:1;" />
      <stop
         id="stop5052"
         offset="1"
         style="stop-color:black;stop-opacity:0;" />
    </linearGradient>
    <linearGradient
       id="linearGradient137">
      <stop
         id="stop138"
         offset="0.0000000"
         style="stop-color:#ffffff;stop-opacity:0.70059878;" />
      <stop
         id="stop139"
         offset="1.0000000"
         style="stop-color:#ffffff;stop-opacity:0.0000000;" />
    </linearGradient>
    <linearGradient
       id="linearGradient9766">
      <stop
         id="stop9768"
         offset="0"
         style="stop-color:#729fcf;stop-opacity:1;" />
      <stop
         id="stop9770"
         offset="1"
         style="stop-color:#729fcf;stop-opacity:1;" />
    </linearGradient>
    <linearGradient
       id="linearGradient4747-0">
      <stop
         style="stop-color:#8ae234;stop-opacity:1;"
         offset="0"
         id="stop4749-9" />
      <stop
         style="stop-color:#73d216;stop-opacity:1;"
         offset="1"
         id="stop4751-4" />
    </linearGradient>
    <radialGradient
       inkscape:collect="always"
       xlink:href="#linearGradient1789"
       id="radialGradient3751"
       gradientUnits="userSpaceOnUse"
       gradientTransform="matrix(0.47272097,0,0.04798957,0.46568204,6.2708219,1030.4143)"
       cx="26.106777"
       cy="38.195114"
       fx="26.106777"
       fy="38.195114"
       r="32.259769" />
    <linearGradient
       inkscape:collect="always"
       xlink:href="#linearGradient5048"
       id="linearGradient3695"
       gradientUnits="userSpaceOnUse"
       gradientTransform="matrix(0.0279591,0,0,0.01745416,6.9442337,1039.9089)"
       x1="302.85715"
       y1="366.64789"
       x2="302.85715"
       y2="609.50507" />
    <radialGradient
       inkscape:collect="always"
       xlink:href="#linearGradient5060"
       id="radialGradient3697"
       gradientUnits="userSpaceOnUse"
       gradientTransform="matrix(0.0279591,0,0,0.01745416,6.949736,1039.9089)"
       cx="605.71429"
       cy="486.64789"
       fx="605.71429"
       fy="486.64789"
       r="117.14286" />
    <linearGradient
       id="linearGradient5060"
       inkscape:collect="always">
      <stop
         id="stop5062"
         offset="0"
         style="stop-color:black;stop-opacity:1;" />
      <stop
         id="stop5064"
         offset="1"
         style="stop-color:black;stop-opacity:0;" />
    </linearGradient>
    <radialGradient
       inkscape:collect="always"
       xlink:href="#linearGradient5060"
       id="radialGradient3699"
       gradientUnits="userSpaceOnUse"
       gradientTransform="matrix(-0.0279591,0,0,0.01745416,27.14917,1039.9089)"
       cx="605.71429"
       cy="486.64789"
       fx="605.71429"
       fy="486.64789"
       r="117.14286" />
    <linearGradient
       inkscape:collect="always"
       xlink:href="#linearGradient137"
       id="linearGradient3741"
       gradientUnits="userSpaceOnUse"
       gradientTransform="matrix(0.68080271,0,0.03215244,0.31820949,6.2708219,1030.4532)"
       x1="5.2657914"
       y1="18.725863"
       x2="8.212224"
       y2="52.625851" />
    <linearGradient
       inkscape:collect="always"
       xlink:href="#linearGradient9766"
       id="linearGradient3718"
       gradientUnits="userSpaceOnUse"
       gradientTransform="matrix(0.46544367,0,0,0.47573837,30.500402,1029.8374)"
       x1="22.175976"
       y1="36.987999"
       x2="22.065331"
       y2="32.050499" />
    <linearGradient
       inkscape:collect="always"
       xlink:href="#linearGradient137"
       id="linearGradient3715"
       gradientUnits="userSpaceOnUse"
       gradientTransform="matrix(0.71459557,0,0,0.3031617,7.8772641,1031.5926)"
       x1="14.899379"
       y1="27.059643"
       x2="22.715446"
       y2="41.836895" />
    <linearGradient
       inkscape:collect="always"
       xlink:href="#linearGradient137"
       id="linearGradient3712"
       gradientUnits="userSpaceOnUse"
       gradientTransform="matrix(0.6616456,0,0,0.32742295,6.2708219,1030.4532)"
       x1="19.116116"
       y1="28.946041"
       x2="19.426924"
       y2="51.912693" />
    <linearGradient
       inkscape:collect="always"
       xlink:href="#linearGradient4747-0"
       id="linearGradient4541"
       gradientUnits="userSpaceOnUse"
       gradientTransform="matrix(-0.04184505,-2.4690569e-4,2.4690569e-4,-0.04184505,35.600026,1054.5758)"
       x1="215.56676"
       y1="573.56177"
       x2="566.89117"
       y2="573.56177" />
    <radialGradient
       inkscape:collect="always"
       xlink:href="#linearGradient137"
       id="radialGradient3688"
       gradientUnits="userSpaceOnUse"
       gradientTransform="matrix(-0.00507679,0.86039799,-0.65478368,-0.00386357,28.203767,1011.641)"
       cx="24.53788"
       cy="0.40010813"
       fx="24.53788"
       fy="0.40010813"
       r="17.171415" />
  </defs>
  <sodipodi:namedview
     id="base"
     pagecolor="#ffffff"
     bordercolor="#666666"
     borderopacity="1.0"
     inkscape:pageopacity="0.0"
     inkscape:pageshadow="2"
     inkscape:zoom="22.4"
     inkscape:cx="22.384326"
     inkscape:cy="12.984821"
     inkscape:document-units="px"
     inkscape:current-layer="layer1"
     showgrid="false"
     units="px"
     inkscape:window-width="1855"
     inkscape:window-height="1176"
     inkscape:window-x="65"
     inkscape:window-y="24"
     inkscape:window-maximized="1" />
  <metadata
     id="metadata6887">
    <rdf:RDF>
      <cc:Work
         rdf:about="">
        <dc:format>image/svg+xml</dc:format>
        <dc:type
           rdf:resource="http://purl.org/dc/dcmitype/StillImage" />
        <dc:title></dc:title>
      </cc:Work>
    </rdf:RDF>
  </metadata>
  <g
     inkscape:label="Layer 1"
     inkscape:groupmode="layer"
     id="layer1"
     transform="translate(0,-1020.3622)">
    <g
       id="g7637"
       transform="matrix(1.1502844,0,0,1.1390635,-3.5721996,-144.52793)">
      <path
         inkscape:connector-curvature="0"
         style="display:inline;overflow:visible;visibility:visible;fill:url(#radialGradient3751);fill-opacity:1;fill-rule:nonzero;stroke:#5a5a5a;stroke-width:0.84075648;stroke-linecap:round;stroke-linejoin:round;stroke-miterlimit:4;stroke-dasharray:none;stroke-dashoffset:0;stroke-opacity:1;marker:none"
         sodipodi:nodetypes="ccccccssssccc"
         id="path2375"
         d="m 8.4211864,1048.4431 c 0.01946,0.1957 0.2315071,0.3914 0.4240937,0.3914 l 14.4921329,0 c 0.192587,0 0.365713,-0.1957 0.346253,-0.3914 l -1.255125,-12.6225 c -0.01946,-0.1957 -0.231502,-0.3914 -0.424089,-0.3914 l -5.922037,0 c -0.274864,0 -0.562759,-0.1767 -0.652953,-0.447 l -0.513384,-1.5387 c -0.07878,-0.2361 -0.254668,-0.3424 -0.611812,-0.3424 l -6.9524882,0 c -0.1925866,0 -0.365713,0.1956 -0.3462528,0.3913 l 1.4156614,14.9507 0,0 z" />
      <path
         inkscape:connector-curvature="0"
         style="display:inline;overflow:visible;visibility:visible;opacity:0.11363633;fill:#888a85;fill-opacity:1;fill-rule:nonzero;stroke:#000000;stroke-width:0.46544394;stroke-linecap:round;stroke-linejoin:round;stroke-miterlimit:4;stroke-dasharray:none;stroke-dashoffset:0;stroke-opacity:1;marker:none"
         sodipodi:nodetypes="cc"
         id="path13160"
         d="m 8.7517072,1047.923 13.9576178,0" />
      <path
         inkscape:connector-curvature="0"
         style="display:inline;overflow:visible;visibility:visible;opacity:0.11363633;fill:#555753;fill-opacity:1;fill-rule:nonzero;stroke:#000000;stroke-width:0.46544394;stroke-linecap:round;stroke-linejoin:round;stroke-miterlimit:4;stroke-dasharray:none;stroke-dashoffset:0;stroke-opacity:1;marker:none"
         sodipodi:nodetypes="cc"
         id="path13139"
         d="m 8.7517072,1046.9921 13.9576178,0" />
      <rect
         height="4.2388663"
         id="rect4173"
         style="display:inline;overflow:visible;visibility:visible;opacity:0.40206185;fill:url(#linearGradient3695);fill-opacity:1;fill-rule:nonzero;stroke:none;stroke-width:1;marker:none"
         width="13.500251"
         x="10.299326"
         y="1046.3085" />
      <path
         d="m 23.799577,1046.3086 c 0,0 0,4.2386 0,4.2386 1.439824,0.01 3.480794,-0.9497 3.480794,-2.1196 0,-1.1699 -1.606736,-2.119 -3.480794,-2.119 l 0,0 z"
         id="path5058"
         sodipodi:nodetypes="cccc"
         style="display:inline;overflow:visible;visibility:visible;opacity:0.40206185;fill:url(#radialGradient3697);fill-opacity:1;fill-rule:nonzero;stroke:none;stroke-width:1;marker:none"
         inkscape:connector-curvature="0" />
      <path
         d="m 10.299326,1046.3086 c 0,0 0,4.2386 0,4.2386 -1.439825,0.01 -3.4807949,-0.9497 -3.4807949,-2.1196 0,-1.1699 1.6067355,-2.119 3.4807949,-2.119 l 0,0 z"
         id="path5018"
         sodipodi:nodetypes="cccc"
         style="display:inline;overflow:visible;visibility:visible;opacity:0.40206185;fill:url(#radialGradient3699);fill-opacity:1;fill-rule:nonzero;stroke:none;stroke-width:1;marker:none"
         inkscape:connector-curvature="0" />
      <path
         inkscape:connector-curvature="0"
         style="display:block;overflow:visible;visibility:visible;fill:url(#linearGradient3741);fill-opacity:1;fill-rule:nonzero;stroke:none;stroke-width:1.17341149;marker:none"
         sodipodi:nodetypes="ccccccsscsscccc"
         id="path2380"
         d="m 9.1434247,1048.335 c 0.014596,0.1444 -0.071967,0.2407 -0.2212721,0.1925 l 0,0 c -0.1493048,-0.048 -0.2553282,-0.1444 -0.2699201,-0.2888 L 7.242138,1033.639 c -0.014596,-0.1444 0.072884,-0.2317 0.217325,-0.2317 l 6.86518,-0.043 c 0.247286,0 0.344163,0.025 0.409497,0.2407 0,0 0.505184,1.4488 0.580055,1.7213 -0.241348,0.4006 -0.482695,-0.088 -0.724044,-1.3577 -0.04899,-0.2577 -0.27868,-0.1926 -0.45278,-0.1926 l -6.1109976,0 c -0.1444409,0 -0.2310045,0.096 -0.2164078,0.2407 l 1.3864732,14.3659 -0.053014,-0.048 0,0 z" />
      <path
         inkscape:connector-curvature="0"
         style="display:inline;overflow:visible;visibility:visible;opacity:0.11363633;fill:#555753;fill-opacity:1;fill-rule:nonzero;stroke:#000000;stroke-width:0.46544376;stroke-linecap:round;stroke-linejoin:round;stroke-miterlimit:4;stroke-dasharray:none;stroke-dashoffset:0;stroke-opacity:1;marker:none"
         sodipodi:nodetypes="cc"
         id="path13145"
         d="m 7.3437815,1033.9596 6.8809955,0" />
      <path
         inkscape:connector-curvature="0"
         style="display:inline;overflow:visible;visibility:visible;opacity:0.11363633;fill:#555753;fill-opacity:1;fill-rule:nonzero;stroke:#000000;stroke-width:0.46544385;stroke-linecap:round;stroke-linejoin:round;stroke-miterlimit:4;stroke-dasharray:none;stroke-dashoffset:0;stroke-opacity:1;marker:none"
         sodipodi:nodetypes="cc"
         id="path13115"
         d="m 7.5542085,1035.8214 14.3072215,0" />
      <path
         d="m 22.1593,1036.0289 c -0.01847,-0.2285 -0.02793,-0.3488 -0.239081,-0.3487 l -6.044783,0 c -0.14444,0 -0.163258,-0.069 0,0 0.163257,0.069 0.632459,0.3169 1.084997,0.3375 0,0 5.198941,0.01 5.198867,0.01 l 0,0 z"
         id="path2382"
         sodipodi:nodetypes="cscscs"
         style="fill:#ffffff;fill-opacity:0.5803109;fill-rule:nonzero;stroke:none;stroke-miterlimit:4"
         inkscape:connector-curvature="0" />
      <path
         inkscape:connector-curvature="0"
         style="display:inline;overflow:visible;visibility:visible;opacity:0.11363633;fill:#555753;fill-opacity:1;fill-rule:nonzero;stroke:#000000;stroke-width:0.46544379;stroke-linecap:round;stroke-linejoin:round;stroke-miterlimit:4;stroke-dasharray:none;stroke-dashoffset:0;stroke-opacity:1;marker:none"
         sodipodi:nodetypes="cc"
         id="path13123"
         d="m 7.7429741,1037.6832 14.3498889,0" />
      <path
         inkscape:connector-curvature="0"
         style="display:inline;overflow:visible;visibility:visible;opacity:0.11363633;fill:#555753;fill-opacity:1;fill-rule:nonzero;stroke:#000000;stroke-width:0.465444;stroke-linecap:round;stroke-linejoin:round;stroke-miterlimit:4;stroke-dasharray:none;stroke-dashoffset:0;stroke-opacity:1;marker:none"
         sodipodi:nodetypes="cc"
         id="path13119"
         d="m 8.535583,1045.1303 14.013917,0" />
      <path
         inkscape:connector-curvature="0"
         style="display:inline;overflow:visible;visibility:visible;opacity:0.11363633;fill:#555753;fill-opacity:1;fill-rule:nonzero;stroke:#000000;stroke-width:0.465444;stroke-linecap:round;stroke-linejoin:round;stroke-miterlimit:4;stroke-dasharray:none;stroke-dashoffset:0;stroke-opacity:1;marker:none"
         sodipodi:nodetypes="cc"
         id="path13137"
         d="m 8.348079,1043.2685 14.042072,0" />
      <path
         inkscape:connector-curvature="0"
         style="display:inline;overflow:visible;visibility:visible;opacity:0.11363633;fill:#555753;fill-opacity:1;fill-rule:nonzero;stroke:#000000;stroke-width:0.46544394;stroke-linecap:round;stroke-linejoin:round;stroke-miterlimit:4;stroke-dasharray:none;stroke-dashoffset:0;stroke-opacity:1;marker:none"
         sodipodi:nodetypes="cc"
         id="path13133"
         d="m 8.1435445,1041.4067 14.0869265,0" />
      <path
         d="m 22.1593,1036.0289 c -0.01847,-0.2285 -0.02794,-0.3466 -0.239081,-0.3487 l -6.192409,-0.061 c -0.14444,0 -0.275598,-0.3366 -0.451519,-0.3152 -0.333229,0.041 -0.317398,0.6092 1.684142,0.7183 0,0 5.198941,0.01 5.198867,0.01 l 0,0 z"
         id="path1855"
         sodipodi:nodetypes="cscscs"
         style="fill:#ffffff;fill-opacity:0.5803109;fill-rule:nonzero;stroke:none;stroke-miterlimit:4"
         inkscape:connector-curvature="0" />
      <path
         inkscape:connector-curvature="0"
         style="display:inline;overflow:visible;visibility:visible;opacity:0.11363633;fill:#555753;fill-opacity:1;fill-rule:nonzero;stroke:#000000;stroke-width:0.46544385;stroke-linecap:round;stroke-linejoin:round;stroke-miterlimit:4;stroke-dasharray:none;stroke-dashoffset:0;stroke-opacity:1;marker:none"
         sodipodi:nodetypes="cc"
         id="path13125"
         d="m 7.9703527,1039.545 14.1009923,0" />
      <path
         inkscape:connector-curvature="0"
         style="display:block;overflow:visible;visibility:visible;fill:url(#linearGradient3718);fill-opacity:1;fill-rule:nonzero;stroke:#3465a4;stroke-width:0.84075648;stroke-linecap:butt;stroke-linejoin:round;stroke-miterlimit:4;stroke-dasharray:none;stroke-dashoffset:0;stroke-opacity:1;marker:none"
         sodipodi:nodetypes="cccsscccscc"
         inkscape:export-ydpi="74.800003"
         inkscape:export-xdpi="74.800003"
         id="path2401"
         d="m 8.9604217,1048.6363 c 0.048145,0.098 0.1444363,0.1968 0.2888775,0.1968 l 15.5032118,0 c 0.0963,0 0.242576,-0.059 0.329618,-0.123 0.246871,-0.1823 0.304801,-0.2851 0.415539,-0.4531 1.139463,-1.7294 2.701966,-8.9723 2.701966,-8.9723 0.04815,-0.098 -0.04814,-0.1969 -0.192586,-0.1969 l -16.254992,0 c -0.144441,0 -0.770761,7.4971 -2.2634535,8.977 l -0.5763266,0.5715 0.048146,0 0,0 z" />
      <path
         inkscape:connector-curvature="0"
         style="fill:url(#linearGradient3715);fill-opacity:1;fill-rule:evenodd;stroke:none"
         sodipodi:nodetypes="ccccc"
         id="path323"
         d="m 12.384185,1039.8266 c -0.359672,2.3229 -0.698771,4.1933 -1.264141,6.29 1.110772,-0.3291 3.312149,-1.4915 7.966587,-1.4915 4.654438,0 7.783887,-4.3048 8.215852,-4.819 l -14.918298,0.021 0,0 z" />
      <path
         inkscape:connector-curvature="0"
         style="display:inline;overflow:visible;visibility:visible;opacity:0.52272728;fill:none;stroke:url(#linearGradient3712);stroke-width:0.46544382px;stroke-linecap:round;stroke-linejoin:miter;stroke-miterlimit:4;stroke-dashoffset:0;stroke-opacity:1;marker:none"
         sodipodi:nodetypes="cccsc"
         id="path324"
         d="m 27.597495,1039.6166 -15.433405,0 c 0,0 -0.999652,7.4563 -2.1979515,8.49 3.7799065,0 14.6946065,-0.023 14.7038305,-0.023 0.8153,0 2.284231,-5.8815 2.927526,-8.4674 l 0,0 z" />
      <path
         inkscape:connector-curvature="0"
         id="path8643"
         d="m 15.672578,1023.3095 c -0.3184,0.097 -0.225209,0.4788 -0.242174,0.7288 -0.02698,1.5679 -0.01206,3.1379 -0.04112,4.7064 -0.942694,0 -1.886069,-0.027 -2.828284,0 -0.189615,0 -0.447258,0.047 -0.43079,0.2882 0.0347,0.3408 0.393237,0.5018 0.55466,0.7748 2.168401,2.5826 4.337525,5.1665 6.531227,7.7265 0.301437,0.153 0.544316,-0.1666 0.686387,-0.3887 2.24713,-2.6186 4.494704,-5.2392 6.712498,-7.8807 0.122278,-0.2894 -0.257267,-0.5296 -0.512907,-0.4341 -0.902502,-0.01 -1.805245,-0.016 -2.707327,-0.047 0.01138,-1.0719 -0.0013,-2.1555 0.01649,-3.2316 -0.0026,-0.6617 0.0293,-1.3301 -0.0096,-1.9877 -0.176679,-0.3305 -0.598435,-0.1911 -0.899013,-0.2156 -2.276601,-0.015 -4.553562,-0.04 -6.830007,-0.035 z"
         style="display:inline;overflow:visible;visibility:visible;fill:url(#linearGradient4541);fill-opacity:1;fill-rule:evenodd;stroke:#4e8a06;stroke-width:0.84075648;stroke-linecap:round;stroke-linejoin:round;stroke-miterlimit:10;stroke-dasharray:none;stroke-dashoffset:0;stroke-opacity:1;marker:none" />
      <path
         inkscape:connector-curvature="0"
         d="m 26.074243,1029.243 -3.115118,-0.018 -0.01172,-2.7586 c -2.404772,4.6103 -6.745067,3.6783 -7.014641,6.5284 0,0 3.461179,4.0329 3.461179,4.0329 l 6.680301,-7.7843 0,0 z"
         id="path8645"
         sodipodi:nodetypes="cccscc"
         style="display:inline;overflow:visible;visibility:visible;opacity:0.5080214;fill:url(#radialGradient3688);fill-opacity:1;fill-rule:evenodd;stroke:none;stroke-width:1;marker:none" />
      <path
         inkscape:connector-curvature="0"
         d="m 22.734917,1023.9821 -6.683925,-0.039 -0.03223,5.462 -2.862346,-0.017 6.24154,7.3671 6.22564,-7.3118 -2.867182,-0.01 -0.0215,-5.4532 z"
         id="path8658"
         sodipodi:nodetypes="cccccccc"
         style="display:inline;overflow:visible;visibility:visible;opacity:0.48128339;fill:none;stroke:#ffffff;stroke-width:0.4203845;stroke-linecap:butt;stroke-linejoin:miter;stroke-miterlimit:10;stroke-dasharray:none;stroke-dashoffset:0;stroke-opacity:1;marker:none" />
    </g>
  </g>
</svg>
