<?xml version="1.0" encoding="UTF-8" standalone="no"?>
<!-- Generator: Adobe Illustrator 19.0.0, SVG Export Plug-In . SVG Version: 6.00 Build 0)  -->
<!-- Pencil icon made by Smashicons (https://www.flaticon.com/authors/smashicons) from www.flaticon.com -->
<!-- Selection made by Kiranshastry (https://www.flaticon.com/authors/kiranshastry) from www.flaticon.com -->
<svg
   xmlns:dc="http://purl.org/dc/elements/1.1/"
   xmlns:cc="http://creativecommons.org/ns#"
   xmlns:rdf="http://www.w3.org/1999/02/22-rdf-syntax-ns#"
   xmlns:svg="http://www.w3.org/2000/svg"
   xmlns="http://www.w3.org/2000/svg"
   xmlns:sodipodi="http://sodipodi.sourceforge.net/DTD/sodipodi-0.dtd"
   xmlns:inkscape="http://www.inkscape.org/namespaces/inkscape"
   version="1.1"
   id="Capa_1"
   x="0px"
   y="0px"
   viewBox="0 0 53.255 53.255"
   style="enable-background:new 0 0 53.255 53.255;"
   xml:space="preserve"
   inkscape:version="0.91 r13725"
   sodipodi:docname="edit (copy).svg"><metadata
     id="metadata8217"><rdf:RDF><cc:Work
         rdf:about=""><dc:format>image/svg+xml</dc:format><dc:type
           rdf:resource="http://purl.org/dc/dcmitype/StillImage" /></cc:Work></rdf:RDF></metadata><defs
     id="defs8215" /><sodipodi:namedview
     pagecolor="#ffffff"
     bordercolor="#666666"
     borderopacity="1"
     objecttolerance="10"
     gridtolerance="10"
     guidetolerance="10"
     inkscape:pageopacity="0"
     inkscape:pageshadow="2"
     inkscape:window-width="1855"
     inkscape:window-height="1176"
     id="namedview8213"
     showgrid="false"
     inkscape:zoom="4.4315087"
     inkscape:cx="26.627501"
     inkscape:cy="17.601229"
     inkscape:window-x="65"
     inkscape:window-y="24"
     inkscape:window-maximized="1"
     inkscape:current-layer="Capa_1" /><path
     style="fill:#D75A4A;"
     d="M39.598,2.343c3.124-3.124,8.19-3.124,11.314,0s3.124,8.19,0,11.314L39.598,2.343z"
     id="path8161" /><polygon
     style="fill:#ED8A19;"
     points="42.426,17.899 16.512,43.814 15.982,48.587 44.548,20.02 44.548,20.02 "
     id="polygon8163" /><polygon
     style="fill:#ED8A19;"
     points="10.325,42.93 15.098,42.4 41.012,16.485 36.77,12.243 10.855,38.157 "
     id="polygon8165" /><polygon
     style="fill:#ED8A19;"
     points="35.356,10.829 33.234,8.707 33.234,8.707 4.668,37.273 9.441,36.743 "
     id="polygon8167" /><polygon
     style="fill:#C7CAC7;"
     points="48.79,15.778 48.79,15.778 50.912,13.657 39.598,2.343 37.476,4.465 37.477,4.465 "
     id="polygon8169" /><polygon
     style="fill:#C7CAC7;"
     points="36.062,5.879 36.062,5.879 34.648,7.293 34.648,7.293 45.962,18.606 45.962,18.606   47.376,17.192 47.376,17.192 "
     id="polygon8171" /><path
     style="fill:#FBCE9D;"
     d="M14.424,44.488l-5.122,0.569c-0.036,0.004-0.073,0.006-0.109,0.006c0,0-0.001,0-0.001,0H9.192H9.192  c-0.001,0-0.001,0-0.001,0c-0.036,0-0.073-0.002-0.109-0.006c-0.039-0.004-0.071-0.026-0.108-0.035  c-0.072-0.017-0.141-0.035-0.207-0.067c-0.05-0.024-0.093-0.053-0.138-0.084c-0.057-0.04-0.109-0.083-0.157-0.134  c-0.038-0.04-0.069-0.081-0.1-0.127c-0.038-0.057-0.069-0.116-0.095-0.181c-0.022-0.054-0.038-0.107-0.05-0.165  c-0.007-0.032-0.024-0.059-0.028-0.092c-0.004-0.038,0.01-0.073,0.01-0.11c0-0.038-0.014-0.072-0.01-0.11l0.569-5.122l-5.122,0.569  c-0.037,0.004-0.075,0.006-0.111,0.006c-0.079,0-0.152-0.024-0.227-0.042L0.442,51.399l2.106-2.106c0.391-0.391,1.023-0.391,1.414,0  s0.391,1.023,0,1.414l-2.106,2.106l12.03-2.864c-0.026-0.109-0.043-0.222-0.03-0.339L14.424,44.488z"
     id="path8173" /><path
     style="fill:#38454F;"
     d="M3.962,49.293c-0.391-0.391-1.023-0.391-1.414,0l-2.106,2.106L0,53.255l1.856-0.442l2.106-2.106  C4.352,50.316,4.352,49.684,3.962,49.293z"
     id="path8175" /><polygon
     style="fill:#F2ECBF;"
     points="48.79,15.778 37.477,4.465 37.476,4.465 36.062,5.879 36.062,5.879 47.376,17.192   47.376,17.192 48.79,15.778 "
     id="polygon8177" /><path
     style="fill:#EBBA16;"
     d="M41.012,16.485L15.098,42.4l-4.773,0.53l0.53-4.773L36.77,12.243l-1.414-1.414L9.441,36.743  l-4.773,0.53l-1.133,1.133l-0.228,0.957c0.075,0.018,0.147,0.042,0.227,0.042c0.036,0,0.074-0.002,0.111-0.006l5.122-0.569  l-0.569,5.122c-0.004,0.038,0.01,0.073,0.01,0.11c0,0.038-0.014,0.072-0.01,0.11c0.004,0.033,0.021,0.06,0.028,0.092  c0.012,0.057,0.029,0.112,0.05,0.165c0.026,0.064,0.057,0.124,0.095,0.181c0.03,0.045,0.063,0.088,0.1,0.127  c0.047,0.05,0.1,0.094,0.157,0.134c0.044,0.031,0.089,0.061,0.138,0.084c0.065,0.031,0.135,0.05,0.207,0.067  c0.038,0.009,0.069,0.03,0.108,0.035c0.036,0.004,0.072,0.006,0.109,0.006h0.001h0h0.001h0.001c0,0,0.001,0,0.001,0h0  c0.035,0,0.072-0.002,0.109-0.006l5.122-0.569l-0.569,5.122c-0.013,0.118,0.004,0.23,0.03,0.339l0.963-0.229l1.133-1.132l0.53-4.773  l25.914-25.915L41.012,16.485z"
     id="path8179" /><polygon
     style="fill:#F2ECBF;"
     points="45.962,18.606 34.648,7.293 34.648,7.293 33.234,8.707 33.234,8.707 35.356,10.829   36.77,12.243 41.012,16.485 42.426,17.899 44.548,20.02 44.548,20.02 45.962,18.606 "
     id="polygon8181" /><g
     id="g8183" /><g
     id="g8185" /><g
     id="g8187" /><g
     id="g8189" /><g
     id="g8191" /><g
     id="g8193" /><g
     id="g8195" /><g
     id="g8197" /><g
     id="g8199" /><g
     id="g8201" /><g
     id="g8203" /><g
     id="g8205" /><g
     id="g8207" /><g
     id="g8209" /><g
     id="g8211" /><path
     inkscape:connector-curvature="0"
     style="fill:#00acea"
     d="m 52.557356,49.661799 0,3.168642 -2.983908,0 0,-3.168642 z"
     id="path7434" /><path
     inkscape:connector-curvature="0"
     style="fill:#00efd1"
     d="m 52.557356,38.617535 0,3.169308 -2.983908,0 0,-3.169308 z"
     id="path7436" /><path
     inkscape:connector-curvature="0"
     style="fill:#00acea"
     d="m 52.557356,27.573471 0,3.168865 -2.983908,0 0,-3.168865 z"
     id="path7438" /><path
     inkscape:connector-curvature="0"
     style="fill:#00efd1"
     d="m 41.992074,51.245866 0,1.584133 -2.983465,0 0,-3.168642 2.983465,0 z"
     id="path7440" /><path
     inkscape:connector-curvature="0"
     style="fill:#00efd1"
     d="m 41.992074,29.157562 0,1.584741 -2.983465,0 0,-3.168866 2.983465,0 z"
     id="path7442" /><path
     inkscape:connector-curvature="0"
     style="fill:#00acea"
     d="m 31.42641,51.245866 0,1.584133 -2.983916,0 0,-3.168642 2.983916,0 z"
     id="path7444" /><path
     inkscape:connector-curvature="0"
     style="fill:#00efd1"
     d="m 31.42641,38.617535 0,3.169308 -2.983916,0 0,-3.169308 z"
     id="path7446" /><path
     inkscape:connector-curvature="0"
     style="fill:#00acea"
     d="m 31.42641,29.157562 0,1.584741 -2.983916,0 0,-3.168866 2.983916,0 z"
     id="path7448" /><path
     inkscape:connector-curvature="0"
     style="fill:#083863"
     d="m 28.442494,53.254723 2.983908,0 c 0.115808,0.0042 0.228366,-0.03867 0.312191,-0.118617 0.08383,-0.07992 0.1318,-0.190341 0.133092,-0.306149 l 0,-1.123892 6.692482,0 0,1.123892 c 8.33e-4,0.115808 0.04908,0.225991 0.132659,0.306149 0.0836,0.07992 0.195966,0.122726 0.311549,0.118617 l 2.983466,0 c 0.115583,0.0042 0.227933,-0.03867 0.31155,-0.118617 0.0836,-0.08017 0.131358,-0.190341 0.132442,-0.306149 l 0,-1.123892 6.692482,0 0,1.123892 c 0.0017,0.115808 0.0495,0.226208 0.133308,0.306149 0.08383,0.07992 0.196183,0.122726 0.311984,0.118617 l 2.983907,0 c 0.115584,0.0042 0.227725,-0.03892 0.311116,-0.118833 0.08317,-0.07992 0.130717,-0.190341 0.131359,-0.305924 l 0,-3.168641 c 2.25e-4,-0.244792 -0.197683,-0.443343 -0.442475,-0.444209 l -1.050883,0 0,-6.96904 1.050883,0 c 0.248033,-0.0091 0.443992,-0.213675 0.442475,-0.461708 l 0,-3.169309 c 0.0017,-0.248241 -0.194442,-0.452632 -0.442475,-0.461924 l -1.050883,0 0,-6.969031 1.050883,0 c 0.244792,-6.51e-4 0.442692,-0.199426 0.442475,-0.443992 l 0,-3.168867 c -6.42e-4,-0.115366 -0.04816,-0.225774 -0.131359,-0.305708 -0.08339,-0.08017 -0.195532,-0.122941 -0.311116,-0.119049 l -2.983907,0 c -0.115809,-0.0042 -0.228151,0.03867 -0.311984,0.118616 -0.08382,0.07992 -0.131791,0.190342 -0.133308,0.30615 l 0,1.123892 -6.692482,0 0,-1.123892 c -8.33e-4,-0.115592 -0.04883,-0.225991 -0.132442,-0.305933 -0.08362,-0.07992 -0.195967,-0.122717 -0.31155,-0.118825 l -2.983466,0 c -0.115583,-0.0042 -0.227942,0.03892 -0.311549,0.118825 -0.08361,0.07992 -0.131575,0.190341 -0.132659,0.305933 l 0,1.123892 -6.692482,0 0,-1.123892 c -0.0017,-0.115808 -0.04925,-0.226208 -0.133092,-0.30615 -0.08383,-0.07992 -0.196391,-0.122725 -0.312191,-0.118616 l -2.983908,0 c -0.115375,-0.0042 -0.227508,0.03892 -0.310908,0.119049 -0.08339,0.07992 -0.130709,0.190342 -0.131575,0.305708 l 0,3.168867 c 0,0.244574 0.197908,0.443341 0.442483,0.443992 l 1.050883,0 0,6.969031 -1.050883,0 c -0.248033,0.0093 -0.443775,0.213683 -0.442483,0.461924 l 0,3.169309 c -0.0017,0.248033 0.19445,0.452633 0.442483,0.461708 l 1.050883,0 0,6.96904 -1.050883,0 c -0.244575,8.33e-4 -0.442483,0.199417 -0.442483,0.444209 l 0,3.168641 c 8.33e-4,0.115583 0.04817,0.22599 0.131575,0.305924 0.0834,0.07992 0.195533,0.122942 0.310908,0.118833 z m 13.108422,-0.884957 -2.101774,0 0,-2.2677 2.101774,0 z m 10.564173,0 -2.101774,0 0,-2.2677 2.101774,0 z m 0,-11.006656 -2.101774,0 0,-2.323009 2.101774,0 z m -2.101774,-13.329665 2.101774,0 0,2.2677 -2.101774,0 z m -10.564173,0 2.101774,0 0,2.2677 -2.101774,0 z m -10.564173,0 2.101774,0 0,2.2677 -2.101774,0 z m 0,11.006656 2.101774,0 0,2.323009 -2.101774,0 z m 1.493366,3.207966 1.048067,0 c 0.248675,-0.0089 0.4455,-0.213033 0.445283,-0.461708 l 0,-3.169308 c 2.25e-4,-0.248674 -0.196608,-0.453066 -0.445283,-0.461924 l -1.048067,0 0,-6.96904 1.048067,0 c 0.245433,-4.42e-4 0.444199,-0.198767 0.445283,-0.443984 l 0,-1.160016 6.69249,0 0,1.160016 c 6.51e-4,0.245 0.199208,0.443342 0.444208,0.443984 l 2.983467,0 c 0.244999,-6.51e-4 0.443341,-0.198984 0.443983,-0.443984 l 0,-1.160016 6.69249,0 0,1.160016 c 0.0017,0.245217 0.200067,0.443559 0.445292,0.443984 l 1.048058,0 0,6.96904 -1.048058,0 c -0.248467,0.0089 -0.445508,0.21325 -0.445292,0.461924 l 0,3.169308 c -2.25e-4,0.248675 0.196825,0.45285 0.445292,0.461708 l 1.048058,0 0,6.96904 -1.048058,0 c -0.245225,6.43e-4 -0.443992,0.198984 -0.445292,0.444201 l 0,1.159791 -6.69249,0 0,-1.159791 C 42.435191,49.416299 42.236849,49.21775 41.99185,49.217107 l -2.983467,0 c -0.245008,6.43e-4 -0.443557,0.1992 -0.444208,0.444201 l 0,1.159791 -6.69249,0 0,-1.159791 c -8.34e-4,-0.245217 -0.19985,-0.443558 -0.445283,-0.444201 l -1.048067,0 z m -1.493366,7.853999 2.101774,0 0,2.2677 -2.101774,0 z"
     id="path7450" /></svg>
