<?xml version="1.0" encoding="UTF-8" standalone="no"?>
<!-- Generator: Adobe Illustrator 19.0.0, SVG Export Plug-In . SVG Version: 6.00 Build 0)  -->
<!-- Pencil icon made by Smashicons (https://www.flaticon.com/authors/smashicons) from www.flaticon.com -->
<!-- Cross section icon made by Freepik (https://www.freepik.com) from www.flaticon.com -->
<svg
   xmlns:dc="http://purl.org/dc/elements/1.1/"
   xmlns:cc="http://creativecommons.org/ns#"
   xmlns:rdf="http://www.w3.org/1999/02/22-rdf-syntax-ns#"
   xmlns:svg="http://www.w3.org/2000/svg"
   xmlns="http://www.w3.org/2000/svg"
   xmlns:sodipodi="http://sodipodi.sourceforge.net/DTD/sodipodi-0.dtd"
   xmlns:inkscape="http://www.inkscape.org/namespaces/inkscape"
   version="1.1"
   id="Capa_1"
   x="0px"
   y="0px"
   viewBox="0 0 53.255 53.255"
   style="enable-background:new 0 0 53.255 53.255;"
   xml:space="preserve"
   inkscape:version="0.91 r13725"
   sodipodi:docname="edit (another copy).svg"><metadata
     id="metadata5314"><rdf:RDF><cc:Work
         rdf:about=""><dc:format>image/svg+xml</dc:format><dc:type
           rdf:resource="http://purl.org/dc/dcmitype/StillImage" /></cc:Work></rdf:RDF></metadata><defs
     id="defs5312" /><sodipodi:namedview
     pagecolor="#ffffff"
     bordercolor="#666666"
     borderopacity="1"
     objecttolerance="10"
     gridtolerance="10"
     guidetolerance="10"
     inkscape:pageopacity="0"
     inkscape:pageshadow="2"
     inkscape:window-width="1855"
     inkscape:window-height="1176"
     id="namedview5310"
     showgrid="false"
     inkscape:zoom="4.4315087"
     inkscape:cx="26.627501"
     inkscape:cy="71.758857"
     inkscape:window-x="65"
     inkscape:window-y="24"
     inkscape:window-maximized="1"
     inkscape:current-layer="Capa_1" /><path
     style="fill:#D75A4A;"
     d="M39.598,2.343c3.124-3.124,8.19-3.124,11.314,0s3.124,8.19,0,11.314L39.598,2.343z"
     id="path5258" /><polygon
     style="fill:#ED8A19;"
     points="42.426,17.899 16.512,43.814 15.982,48.587 44.548,20.02 44.548,20.02 "
     id="polygon5260" /><polygon
     style="fill:#ED8A19;"
     points="10.325,42.93 15.098,42.4 41.012,16.485 36.77,12.243 10.855,38.157 "
     id="polygon5262" /><polygon
     style="fill:#ED8A19;"
     points="35.356,10.829 33.234,8.707 33.234,8.707 4.668,37.273 9.441,36.743 "
     id="polygon5264" /><polygon
     style="fill:#C7CAC7;"
     points="48.79,15.778 48.79,15.778 50.912,13.657 39.598,2.343 37.476,4.465 37.477,4.465 "
     id="polygon5266" /><polygon
     style="fill:#C7CAC7;"
     points="36.062,5.879 36.062,5.879 34.648,7.293 34.648,7.293 45.962,18.606 45.962,18.606   47.376,17.192 47.376,17.192 "
     id="polygon5268" /><path
     style="fill:#FBCE9D;"
     d="M14.424,44.488l-5.122,0.569c-0.036,0.004-0.073,0.006-0.109,0.006c0,0-0.001,0-0.001,0H9.192H9.192  c-0.001,0-0.001,0-0.001,0c-0.036,0-0.073-0.002-0.109-0.006c-0.039-0.004-0.071-0.026-0.108-0.035  c-0.072-0.017-0.141-0.035-0.207-0.067c-0.05-0.024-0.093-0.053-0.138-0.084c-0.057-0.04-0.109-0.083-0.157-0.134  c-0.038-0.04-0.069-0.081-0.1-0.127c-0.038-0.057-0.069-0.116-0.095-0.181c-0.022-0.054-0.038-0.107-0.05-0.165  c-0.007-0.032-0.024-0.059-0.028-0.092c-0.004-0.038,0.01-0.073,0.01-0.11c0-0.038-0.014-0.072-0.01-0.11l0.569-5.122l-5.122,0.569  c-0.037,0.004-0.075,0.006-0.111,0.006c-0.079,0-0.152-0.024-0.227-0.042L0.442,51.399l2.106-2.106c0.391-0.391,1.023-0.391,1.414,0  s0.391,1.023,0,1.414l-2.106,2.106l12.03-2.864c-0.026-0.109-0.043-0.222-0.03-0.339L14.424,44.488z"
     id="path5270" /><path
     style="fill:#38454F;"
     d="M3.962,49.293c-0.391-0.391-1.023-0.391-1.414,0l-2.106,2.106L0,53.255l1.856-0.442l2.106-2.106  C4.352,50.316,4.352,49.684,3.962,49.293z"
     id="path5272" /><polygon
     style="fill:#F2ECBF;"
     points="48.79,15.778 37.477,4.465 37.476,4.465 36.062,5.879 36.062,5.879 47.376,17.192   47.376,17.192 48.79,15.778 "
     id="polygon5274" /><path
     style="fill:#EBBA16;"
     d="M41.012,16.485L15.098,42.4l-4.773,0.53l0.53-4.773L36.77,12.243l-1.414-1.414L9.441,36.743  l-4.773,0.53l-1.133,1.133l-0.228,0.957c0.075,0.018,0.147,0.042,0.227,0.042c0.036,0,0.074-0.002,0.111-0.006l5.122-0.569  l-0.569,5.122c-0.004,0.038,0.01,0.073,0.01,0.11c0,0.038-0.014,0.072-0.01,0.11c0.004,0.033,0.021,0.06,0.028,0.092  c0.012,0.057,0.029,0.112,0.05,0.165c0.026,0.064,0.057,0.124,0.095,0.181c0.03,0.045,0.063,0.088,0.1,0.127  c0.047,0.05,0.1,0.094,0.157,0.134c0.044,0.031,0.089,0.061,0.138,0.084c0.065,0.031,0.135,0.05,0.207,0.067  c0.038,0.009,0.069,0.03,0.108,0.035c0.036,0.004,0.072,0.006,0.109,0.006h0.001h0h0.001h0.001c0,0,0.001,0,0.001,0h0  c0.035,0,0.072-0.002,0.109-0.006l5.122-0.569l-0.569,5.122c-0.013,0.118,0.004,0.23,0.03,0.339l0.963-0.229l1.133-1.132l0.53-4.773  l25.914-25.915L41.012,16.485z"
     id="path5276" /><polygon
     style="fill:#F2ECBF;"
     points="45.962,18.606 34.648,7.293 34.648,7.293 33.234,8.707 33.234,8.707 35.356,10.829   36.77,12.243 41.012,16.485 42.426,17.899 44.548,20.02 44.548,20.02 45.962,18.606 "
     id="polygon5278" /><g
     id="g5280" /><g
     id="g5282" /><g
     id="g5284" /><g
     id="g5286" /><g
     id="g5288" /><g
     id="g5290" /><g
     id="g5292" /><g
     id="g5294" /><g
     id="g5296" /><g
     id="g5298" /><g
     id="g5300" /><g
     id="g5302" /><g
     id="g5304" /><g
     id="g5306" /><g
     id="g5308" /><g
     transform="matrix(0.07151848,0,0,0.07151848,28,28.255216)"
     style="fill:#010002"
     id="g6736"><circle
       cx="174.78"
       cy="174.78"
       r="13.921"
       id="circle6738" /><path
       inkscape:connector-curvature="0"
       d="m 14.917,189.7 112.71,0 c 8.24,0 14.917,-6.677 14.917,-14.917 0,-8.24 -6.677,-14.917 -14.917,-14.917 l -112.71,0 C 6.677,159.865 0,166.542 0,174.783 0,183.024 6.677,189.7 14.917,189.7 Z"
       id="path6740" /><path
       inkscape:connector-curvature="0"
       d="m 189.69,14.92 c 0,-8.24 -6.677,-14.917 -14.917,-14.917 -8.24,0 -14.917,6.677 -14.917,14.917 l 0,112.71 c 0,8.24 6.677,14.917 14.917,14.917 8.24,0 14.917,-6.677 14.917,-14.917 l 0,-112.71 z"
       id="path6742" /><path
       inkscape:connector-curvature="0"
       d="m 349.56,174.78 c 0,-8.24 -6.677,-14.917 -14.917,-14.917 l -112.71,0 c -8.24,0 -14.917,6.677 -14.917,14.917 0,8.24 6.677,14.917 14.917,14.917 l 112.71,0 c 8.234,0 14.917,-6.677 14.917,-14.917 z"
       id="path6744" /><path
       inkscape:connector-curvature="0"
       d="m 159.86,334.64 c 0,8.24 6.677,14.917 14.917,14.917 8.24,0 14.917,-6.677 14.917,-14.917 l 0,-112.71 c 0,-8.24 -6.677,-14.917 -14.917,-14.917 -8.24,0 -14.917,6.677 -14.917,14.917 l 0,112.71 z"
       id="path6746" /></g></svg>
