<?xml version="1.0" encoding="UTF-8" standalone="no"?>
<svg
   xmlns:dc="http://purl.org/dc/elements/1.1/"
   xmlns:cc="http://creativecommons.org/ns#"
   xmlns:rdf="http://www.w3.org/1999/02/22-rdf-syntax-ns#"
   xmlns:svg="http://www.w3.org/2000/svg"
   xmlns="http://www.w3.org/2000/svg"
   xmlns:xlink="http://www.w3.org/1999/xlink"
   xmlns:sodipodi="http://sodipodi.sourceforge.net/DTD/sodipodi-0.dtd"
   xmlns:inkscape="http://www.inkscape.org/namespaces/inkscape"
   viewBox="0 0 51.996426 63.999955"
   version="1.1"
   id="svg4837"
   sodipodi:docname="electronic-log.svg"
   width="51.996426"
   height="63.999954"
   inkscape:version="0.92.5 (2060ec1f9f, 2020-04-08)">
  <metadata
     id="metadata4843">
    <rdf:RDF>
      <cc:Work
         rdf:about="">
        <dc:format>image/svg+xml</dc:format>
        <dc:type
           rdf:resource="http://purl.org/dc/dcmitype/StillImage" />
        <dc:title />
      </cc:Work>
    </rdf:RDF>
  </metadata>
  <defs
     id="defs4841">
    <linearGradient
       inkscape:collect="always"
       id="linearGradient11686">
      <stop
         style="stop-color:#b6c2f8;stop-opacity:1;"
         offset="0"
         id="stop11682" />
      <stop
         style="stop-color:#b6c2f8;stop-opacity:0;"
         offset="1"
         id="stop11684" />
    </linearGradient>
    <linearGradient
       xlink:href="#linearGradient14023"
       id="linearGradient14027"
       gradientUnits="userSpaceOnUse"
       x1="40.989311"
       y1="1036.7146"
       x2="58.357498"
       y2="1033.0461"
       gradientTransform="matrix(0.49404734,0,0,0.52486751,-16.02126,-551.39971)" />
    <linearGradient
       id="linearGradient14023">
      <stop
         style="stop-color:#285aa0;stop-opacity:1;"
         offset="0"
         id="stop14019" />
      <stop
         style="stop-color:#285aa0;stop-opacity:0;"
         offset="1"
         id="stop14021" />
    </linearGradient>
    <linearGradient
       inkscape:collect="always"
       xlink:href="#linearGradient11686"
       id="linearGradient11688"
       x1="3.2368882"
       y1="-6.524621"
       x2="7.6389589"
       y2="-6.524621"
       gradientUnits="userSpaceOnUse"
       gradientTransform="matrix(0.79609641,0,0,0.8004043,-1.6677583e-7,12.774079)" />
  </defs>
  <sodipodi:namedview
     pagecolor="#ffffff"
     bordercolor="#666666"
     borderopacity="1"
     objecttolerance="10"
     gridtolerance="10"
     guidetolerance="10"
     inkscape:pageopacity="0"
     inkscape:pageshadow="2"
     inkscape:window-width="1848"
     inkscape:window-height="1016"
     id="namedview4839"
     showgrid="false"
     fit-margin-top="0"
     fit-margin-left="0"
     fit-margin-right="0"
     fit-margin-bottom="0"
     inkscape:zoom="3.352"
     inkscape:cx="22.432086"
     inkscape:cy="97.797456"
     inkscape:window-x="72"
     inkscape:window-y="27"
     inkscape:window-maximized="1"
     inkscape:current-layer="text4835" />
  <rect
     x="7.5337238"
     y="1.2522386"
     width="43.312481"
     height="53.218216"
     style="fill:#b6c4f8;stroke:#000000;stroke-width:2.30666018px;stroke-linecap:round;stroke-linejoin:round"
     id="rect4815" />
  <path
     inkscape:connector-curvature="0"
     style="fill:#4789f4;stroke:#000000;stroke-width:1.72999513px"
     d="M 1.2210178,5.8071911 0.95157827,59.51661 C 0.08517337,58.229196 6.0763935,52.305299 7.533725,54.470456 V 1.2522379 c -0.564184,-1.07549516 -6.3127072,0 -6.3127072,4.5549532 z"
     id="path4817" />
  <path
     inkscape:connector-curvature="0"
     style="fill:#f0eded;stroke:#000000;stroke-width:1.72999513px;stroke-linecap:round;stroke-linejoin:round"
     d="m 1.2210178,59.576745 c -0.98804088,1.800009 5.8488801,4.22739 6.3127072,3.382316 l 43.312481,-0.200354 c -3.189566,0.613206 -4.188822,-7.483076 0,-8.288251 H 7.533725 C 4.9488881,52.616383 0.00753337,58.70623 1.2210178,59.576745 Z"
     id="path4819" />
  <path
     inkscape:connector-curvature="0"
     style="fill:#d8d8d8;stroke:#8b8787;stroke-width:1.15333009px"
     d="M 45.616146,59.51661 H 7.533725"
     id="path4821" />
  <path
     inkscape:connector-curvature="0"
     style="fill:#d8d8d8;stroke:#8b8787;stroke-width:1.15333009px"
     d="M 45.616146,56.992087 H 9.5515024"
     id="path4823" />
  <path
     id="path2996-7"
     style="fill:url(#linearGradient11688);fill-opacity:1;stroke:none;stroke-width:0.08527581;stroke-linejoin:round"
     d="M 2.5768749,7.5328668 4.0677255,5.0534032 h 2.013622 L 4.424785,6.8450761 H 5.7896206 L 3.1120296,10.050085 3.7996462,7.5350527 Z"
     inkscape:connector-curvature="0"
     sodipodi:nodetypes="cccccccc" />
  <g
     aria-label="L​O​G"
     transform="matrix(0.90004862,0,0,1.1110511,96.062053,-42.064439)"
     style="font-weight:700;font-size:18.24783707px;font-family:Arial, sans-serif;white-space:pre;stroke-width:1.20051563"
     id="text4835">
    <path
       d="M -80.238671,53.972699 V 42.3366 h 2.638555 v 9.753182 h 6.761859 v 1.882917 z"
       style="stroke:none;stroke-width:0.96458149;stroke-miterlimit:4;stroke-dasharray:none;stroke-opacity:1"
       id="path11942"
       inkscape:connector-curvature="0" />
    <path
       d="m -68.434269,63.500982 q 0,1.767479 -0.77815,3.109157 -0.778149,1.341677 -2.227115,2.056703 -1.448967,0.706992 -3.380923,0.706992 -2.969488,0 -4.65995,-1.56663 -1.681517,-1.574663 -1.681517,-4.306222 0,-2.723525 1.681517,-4.249985 1.681518,-1.526459 4.677838,-1.526459 2.996321,0 4.677838,1.542527 1.690462,1.542527 1.690462,4.233917 z m -2.692217,0 q 0,-1.831752 -0.965978,-2.868137 -0.965978,-1.04442 -2.710105,-1.04442 -1.77096,0 -2.736937,1.036385 -0.965979,1.028352 -0.965979,2.876172 0,1.863887 0.983867,2.940443 0.99281,1.068521 2.701161,1.068521 1.770959,0 2.727993,-1.04442 0.965978,-1.044419 0.965978,-2.964544 z"
       style="stroke:none;stroke-width:0.95138466;stroke-miterlimit:4;stroke-dasharray:none;stroke-opacity:1"
       id="path11944"
       inkscape:connector-curvature="0" />
    <path
       d="m -75.13802,82.283836 q 1.030216,0 1.997723,-0.265105 0.967506,-0.273139 1.496053,-0.690881 v -1.566533 h -3.081689 v -1.751301 h 5.500456 v 4.161351 q -1.003341,0.923853 -2.615853,1.44603 -1.603552,0.522177 -3.368358,0.522177 -3.081687,0 -4.738991,-1.526365 -1.657303,-1.534398 -1.657303,-4.346122 0,-2.795658 1.666262,-4.281855 1.666261,-1.49423 4.792742,-1.49423 4.443364,0 5.652748,2.948293 l -2.436683,0.658747 q -0.39417,-0.859584 -1.23626,-1.301427 -0.842089,-0.441842 -1.979805,-0.441842 -1.863347,0 -2.830853,1.01222 -0.967508,1.012222 -0.967508,2.900094 0,1.920006 0.994383,2.972394 1.003341,1.044355 2.812936,1.044355 z"
       style="stroke:none;stroke-width:0.95210773;stroke-miterlimit:4;stroke-dasharray:none;stroke-opacity:1"
       id="path11946"
       inkscape:connector-curvature="0" />
  </g>
</svg>
