<?xml version="1.0" encoding="UTF-8" standalone="no"?>

<svg
   xmlns="http://www.w3.org/2000/svg"
   xmlns:inkscape="http://www.inkscape.org/namespaces/inkscape"
   version="1.1"
   id="Capa_1"
   x="0px"
   y="0px"
   viewBox="0 0 309.166 309.166"
   style="enable-background:new 0 0 309.166 309.166;"
   xml:space="preserve"
   inkscape:version="0.91 r13725"
   sodipodi:docname="expand.svg">
    <defs
     id="defs47" /><sodipodi:namedview
     pagecolor="#ffffff"
     bordercolor="#666666"
     borderopacity="1"
     objecttolerance="10"
     gridtolerance="10"
     guidetolerance="10"
     inkscape:pageopacity="0"
     inkscape:pageshadow="2"
     inkscape:window-width="1855"
     inkscape:window-height="1176"
     id="namedview45"
     showgrid="false"
     inkscape:zoom="0.763344"
     inkscape:cx="-53.056029"
     inkscape:cy="154.58299"
     inkscape:window-x="65"
     inkscape:window-y="24"
     inkscape:window-maximized="1"
     inkscape:current-layer="Capa_1" /><g
     id="g5067"><path
       style="fill:#222220;stroke:#000000;stroke-opacity:1"
       d="m 256.36375,45.002875 -44.949,0 c -4.143,0 -7.5,3.357 -7.5,7.5 0,4.143 3.357,7.5 7.5,7.5 l 27.7,0 -40.856,40.856005 c -2.929,2.93 -2.929,7.678 0,10.607 1.465,1.464 3.384,2.196 5.304,2.196 1.919,0 3.839,-0.732 5.304,-2.196 l 39.997,-39.996005 0,25.982 c 0,4.143005 3.357,7.500005 7.5,7.500005 4.143,0 7.5,-3.357 7.5,-7.500005 l 0,-44.949 c 0,-4.142 -3.358,-7.5 -7.5,-7.5 z"
       id="path5"
       inkscape:connector-curvature="0" /><path
       style="fill:#222220;stroke:#000000;stroke-opacity:1"
       d="m 71.768245,60.431875 25.981,0 c 4.143005,0 7.500005,-3.357 7.500005,-7.5 0,-4.143 -3.357,-7.5 -7.500005,-7.5 l -44.947995,0 c -4.143,0 -7.5,3.357 -7.5,7.5 l 0,44.948 c 0,4.143005 3.357,7.500005 7.5,7.500005 4.143,0 7.499995,-3.357 7.499995,-7.500005 l 0,-27.7 40.855005,40.856005 c 1.465,1.464 3.384,2.196 5.304,2.196 1.919,0 3.839,-0.732 5.304,-2.196 2.929,-2.93 2.929,-7.678 0,-10.607 L 71.768245,60.431875 Z"
       id="path7"
       inkscape:connector-curvature="0" /><path
       style="fill:#222220;stroke:#000000;stroke-opacity:1"
       d="m 100.29825,197.40001 -39.997005,39.99699 0,-25.983 c 0,-4.14299 -3.356995,-7.49999 -7.499995,-7.49999 -4.143,0 -7.5,3.357 -7.5,7.49999 l 0,44.949 c 0,4.143 3.357,7.5 7.5,7.5 l 44.948995,0 c 4.143005,0 7.500005,-3.357 7.500005,-7.5 0,-4.143 -3.357,-7.5 -7.500005,-7.5 l -27.7,0 40.855005,-40.85499 c 2.929,-2.93 2.929,-7.678 0,-10.607 -2.93,-2.928 -7.678,-2.928 -10.607,-0.001 z"
       id="path9"
       inkscape:connector-curvature="0" /><path
       style="fill:#222220;stroke:#000000;stroke-opacity:1"
       d="m 256.36375,203.48688 c -4.143,0 -7.5,3.357 -7.5,7.5 l 0,27.7 -40.857,-40.856 c -2.93,-2.928 -7.678,-2.928 -10.607,0 -2.929,2.93 -2.929,7.678 0,10.607 l 39.997,39.997 -25.982,0 c -4.143,0 -7.5,3.357 -7.5,7.5 0,4.143 3.357,7.5 7.5,7.5 l 44.949,0 c 4.143,0 7.5,-3.357 7.5,-7.5 l 0,-44.948 c 0,-4.142 -3.358,-7.5 -7.5,-7.5 z"
       id="path11"
       inkscape:connector-curvature="0" /><path
       style="fill:#222220;stroke:#000000;stroke-opacity:1"
       d="M 271.43,0 37.736,0 C 16.929,0 0,16.929 0,37.736 L 0,271.43 c 0,20.808 16.929,37.736 37.736,37.736 l 233.694,0 c 20.808,0 37.736,-16.929 37.736,-37.736 l 0,-233.694 C 309.166,16.929 292.237,0 271.43,0 Z m 22.736,271.43 c 0,12.537 -10.199,22.736 -22.736,22.736 l -233.694,0 C 25.199,294.166 15,283.967 15,271.43 L 15,37.736 C 15,25.199 25.199,15 37.736,15 l 233.694,0 c 12.537,0 22.736,10.199 22.736,22.736 l 0,233.694 z"
       id="path13"
       inkscape:connector-curvature="0" /></g>
</svg>