<?xml version="1.0" encoding="UTF-8" standalone="no"?>
<svg
   xmlns:dc="http://purl.org/dc/elements/1.1/"
   xmlns:cc="http://creativecommons.org/ns#"
   xmlns:rdf="http://www.w3.org/1999/02/22-rdf-syntax-ns#"
   xmlns:svg="http://www.w3.org/2000/svg"
   xmlns="http://www.w3.org/2000/svg"
   xml:space="preserve"
   style="enable-background:new 0 0 512 512;"
   viewBox="0 0 512 512"
   y="0px"
   x="0px"
   id="Capa_1"
   version="1.1"><metadata
     id="metadata4196"><rdf:RDF><cc:Work
         rdf:about=""><dc:format>image/svg+xml</dc:format><dc:type
           rdf:resource="http://purl.org/dc/dcmitype/StillImage" /><dc:title></dc:title></cc:Work></rdf:RDF></metadata><defs
     id="defs4194" /><g
     id="g4156"><g
       id="g4158"><path
         id="path4160"
         fill="#363636"
         d="M0,0v512h512V0H0z M160.661,482H30V351.328h130.661V482z M160.661,321.328H30V190.661h130.661V321.328z M160.661,160.661    H30V30h130.661V160.661z M321.328,482H190.661V351.328h130.667V482z M321.328,321.328H190.661V190.661h130.667V321.328z     M321.328,160.661H190.661V30h130.667V160.661z M482,482H351.328V351.328H482V482z M482,321.328H351.328V190.661H482V321.328z     M482,160.661H351.328V30H482V160.661z" /></g></g></svg>
