<?xml version="1.0" encoding="UTF-8" standalone="no"?>
<!-- Generator: Adobe Illustrator 19.0.1, SVG Export Plug-In . SVG Version: 6.00 Build 0)  -->

<svg
   xmlns:dc="http://purl.org/dc/elements/1.1/"
   xmlns:cc="http://creativecommons.org/ns#"
   xmlns:rdf="http://www.w3.org/1999/02/22-rdf-syntax-ns#"
   xmlns:svg="http://www.w3.org/2000/svg"
   xmlns="http://www.w3.org/2000/svg"
   xmlns:sodipodi="http://sodipodi.sourceforge.net/DTD/sodipodi-0.dtd"
   xmlns:inkscape="http://www.inkscape.org/namespaces/inkscape"
   version="1.1"
   id="svg8"
   sodipodi:docname="halt.svg"
   inkscape:version="0.91 r13725"
   x="0px"
   y="0px"
   viewBox="1161.9 146.1 64 64"
   xml:space="preserve"
   width="64"
   height="64"><metadata
     id="metadata30"><rdf:RDF><cc:Work
         rdf:about=""><dc:format>image/svg+xml</dc:format><dc:type
           rdf:resource="http://purl.org/dc/dcmitype/StillImage" /><dc:title></dc:title></cc:Work></rdf:RDF></metadata><defs
     id="defs28" /><sodipodi:namedview
     pagecolor="#ffffff"
     bordercolor="#666666"
     borderopacity="1"
     objecttolerance="10"
     gridtolerance="10"
     guidetolerance="10"
     inkscape:pageopacity="0"
     inkscape:pageshadow="2"
     inkscape:window-width="1855"
     inkscape:window-height="1176"
     id="namedview26"
     showgrid="false"
     inkscape:zoom="5.3400704"
     inkscape:cx="49.406988"
     inkscape:cy="11.935802"
     inkscape:window-x="65"
     inkscape:window-y="24"
     inkscape:window-maximized="1"
     inkscape:current-layer="svg8" /><style
     type="text/css"
     id="style3">
	.st0{fill:#DC0000;}
	.st1{fill:#FFFFFF;}
</style><g
     id="g5"
     transform="matrix(0.13110594,0,0,0.13110594,1008.785,126.1755)"><g
       id="use13"><path
         inkscape:connector-curvature="0"
         class="st0"
         d="m 1509.9,159.6 138.5,138.5 0,195.9 -138.5,138.5 -195.9,0 -138.5,-138.5 0,-195.9 138.5,-138.5 195.9,0 z"
         id="path8"
         style="fill:#dc0000" /></g><g
       id="layer1"
       transform="translate(-20.000031,329.00017)"
       inkscape:label="Layer 1"
       inkscape:groupmode="layer"><g
         id="path872"><path
           inkscape:connector-curvature="0"
           sodipodi:nodetypes="ccccccccc"
           class="st1"
           d="m 1412.6,18.8 -19.3,0 0,116 -19.3,0 0,-116 -19.3,0 0,-19.4 58,0 0,19.4 z"
           id="path12"
           style="fill:#ffffff" /></g><g
         id="rect903"><path
           inkscape:connector-curvature="0"
           class="st1"
           d="m 1460.9,-0.6 c -16.1,0 -29,12.9 -29,29 l 0,77.3 c 0,16.1 12.9,29 29,29 l 19.3,0 c 16.1,0 29,-12.9 29,-29 l 0,-77.3 c 0,-16.1 -12.9,-29 -29,-29 l -19.3,0 z m 0,19.4 19.3,0 c 5.4,0 9.7,4.3 9.7,9.7 l 0,77.3 c 0,5.4 -4.3,9.7 -9.7,9.7 l -19.3,0 c -5.4,0 -9.7,-4.3 -9.7,-9.7 l 0,-77.4 c 0,-5.3 4.3,-9.6 9.7,-9.6 z"
           id="path15"
           style="fill:#ffffff" /></g><g
         id="rect824"><path
           inkscape:connector-curvature="0"
           sodipodi:nodetypes="cccssssccccsssscc"
           class="st1"
           d="m 1528.6,134.8 19.3,0 0,-48.4 19.3,0 c 16.1,0 29,-12.9 29,-29 l 0,-29 c 0,-16.1 -12.9,-29 -29,-29 l -19.3,0 -19.3,0 0,135.4 z m 19.3,-116 19.3,0 c 5.4,0 9.7,4.3 9.7,9.7 l 0,29 c 0,5.4 -4.3,9.7 -9.7,9.7 l -19.3,0 0,-48.4 z"
           id="path18"
           style="fill:#ffffff" /></g><g
         id="rect860"><path
           inkscape:connector-curvature="0"
           sodipodi:nodetypes="ssccccssssccssssccccssssccsss"
           class="st1"
           d="m 1296.6,-0.6 c -16.1,0 -29,12.9 -29,29 l 0,5.2 c 0,8.8 4,17.2 10.9,22.7 l 33.7,26.8 c 2.3,1.8 3.6,4.6 3.6,7.6 l 0,15.1 c 0.3,5.3 -4.3,9.7 -9.7,9.7 l -9.7,0 c -5.4,0 -9.7,-4.3 -9.7,-9.7 l 0,-9.7 -19.3,0 0,9.7 c 0,16.1 12.9,29 29,29 l 9.7,0 c 16.1,0 29,-12.9 29,-29 l 0,-15.1 c 0,-8.8 -4,-17.2 -10.9,-22.7 l -33.7,-26.8 c -2.3,-1.8 -3.6,-4.6 -3.6,-7.6 l 0,-5.2 c 0,-5.4 4.3,-9.7 9.7,-9.7 l 9.7,0 c 5.4,0 9.7,4.3 9.7,9.7 l 0,9.7 19.3,0 0,-9.7 c 0,-16.1 -12.9,-29 -29,-29 l -9.7,0 z"
           id="path21"
           style="fill:#ffffff" /></g></g><g
       id="use13_1_"><path
         class="st1"
         d="m 1504.5,619.6 -185.2,0 -130.9,-130.9 0,-185.2 130.9,-130.9 185.2,0 130.9,130.9 0,185.2 -130.9,130.9 z m -183.9,-3 182.7,0 129.2,-129.2 0,-182.6 -129.2,-129.2 -182.7,0 -129.2,129.2 0,182.7 129.2,129.1 z"
         id="path24"
         inkscape:connector-curvature="0"
         style="fill:#ffffff" /></g></g></svg>
