<?xml version="1.0" encoding="UTF-8" standalone="no"?>
<svg
   height="48"
   width="48"
   version="1.1"
   id="svg1994"
   sodipodi:docname="info-help.svg"
   inkscape:version="1.1.2 (b8e25be8, 2022-02-05)"
   xmlns:inkscape="http://www.inkscape.org/namespaces/inkscape"
   xmlns:sodipodi="http://sodipodi.sourceforge.net/DTD/sodipodi-0.dtd"
   xmlns:xlink="http://www.w3.org/1999/xlink"
   xmlns="http://www.w3.org/2000/svg"
   xmlns:svg="http://www.w3.org/2000/svg">
  <sodipodi:namedview
     id="namedview1996"
     pagecolor="#ffffff"
     bordercolor="#666666"
     borderopacity="1.0"
     inkscape:pageshadow="2"
     inkscape:pageopacity="0.0"
     inkscape:pagecheckerboard="0"
     showgrid="true"
     inkscape:zoom="13.020833"
     inkscape:cx="27.2256"
     inkscape:cy="22.6176"
     inkscape:window-width="1296"
     inkscape:window-height="819"
     inkscape:window-x="55"
     inkscape:window-y="204"
     inkscape:window-maximized="0"
     inkscape:current-layer="g1992">
    <inkscape:grid
       type="xygrid"
       id="grid2204" />
  </sodipodi:namedview>
  <defs
     id="defs1982">
    <radialGradient
       id="b"
       gradientUnits="userSpaceOnUse"
       cy="28.46"
       cx="26.54"
       gradientTransform="matrix(1.156 .005968 -.005968 1.261 -4.845 -7.341)"
       r="22.38">
      <stop
         stop-color="#9cbcde"
         offset="0"
         id="stop1967" />
      <stop
         stop-color="#204a87"
         offset="1"
         id="stop1969" />
    </radialGradient>
    <radialGradient
       id="a"
       gradientUnits="userSpaceOnUse"
       cy="17.68"
       cx="-9.5"
       gradientTransform="matrix(4.446 0 0 6.866 67.3-104.4)"
       r="8.75">
      <stop
         stop-color="#fff"
         offset="0"
         id="stop1972" />
      <stop
         stop-color="#b8b8b8"
         offset="1"
         id="stop1974" />
    </radialGradient>
    <radialGradient
       id="c"
       gradientUnits="userSpaceOnUse"
       cy="42"
       cx="31.55"
       gradientTransform="matrix(1 0 0 .3333 -7.55 28)"
       r="18">
      <stop
         offset="0"
         id="stop1977" />
      <stop
         stop-opacity="0"
         offset="1"
         id="stop1979" />
    </radialGradient>
    <radialGradient
       id="f"
       cx="-19.516001"
       cy="16.856001"
       r="8.7539997"
       fx="-19.516001"
       fy="16.856001"
       gradientTransform="matrix(3.7786554,0,0,5.7349008,98.36625,-79.325513)"
       gradientUnits="userSpaceOnUse"
       xlink:href="#c-9" />
    <linearGradient
       id="c-9">
      <stop
         offset="0"
         stop-color="#fff"
         id="stop831" />
      <stop
         offset="1"
         stop-color="#b8b8b8"
         id="stop833" />
    </linearGradient>
  </defs>
  <ellipse
     opacity="0.63"
     rx="18"
     ry="6"
     cy="42"
     cx="24"
     fill="url(#c)"
     id="ellipse1984" />
  <circle
     cy="24"
     cx="24"
     r="21.5"
     fill="#204a87"
     id="circle1986" />
  <g
     stroke-linejoin="round"
     stroke="#ffffff"
     id="g1992">
    <circle
       stroke-opacity="0.94"
       r="18.6"
       cy="24"
       cx="24"
       stroke-width="2.5"
       fill="url(#b)"
       id="circle1988" />
    <path
       style="line-height:125%;text-align:start;display:inline;fill:url(#f)"
       fill="url(#f)"
       stroke="#ffffff"
       stroke-opacity="0.786"
       stroke-width="0.925927"
       d="m 24,13 c -0.90006,2.2e-5 -1.825277,0.102927 -2.788734,0.2871 -0.962873,0.184102 -2.0229,0.448931 -3.187125,0.8352 -0.0088,-10e-4 -0.01774,-10e-4 -0.02656,0 -0.01025,0.0072 -0.01922,0.01602 -0.02656,0.0261 -0.01025,0.0072 -0.01923,0.01603 -0.02656,0.0261 -0.001,0.0087 -0.001,0.01743 0,0.0261 -0.001,0.0087 -0.001,0.01743 0,0.0261 v 4.3065 c -0.001,0.0087 -0.001,0.01743 0,0.0261 -0.001,0.0087 -0.001,0.01743 0,0.0261 0.0073,0.01007 0.01631,0.01889 0.02656,0.0261 0.0073,0.01007 0.01631,0.01889 0.02656,0.0261 0.0088,0.001 0.01774,0.001 0.02656,0 0.0088,0.001 0.01774,0.001 0.02656,0 0.0088,0.001 0.01774,0.001 0.02656,0 0.0088,0.001 0.01774,0.001 0.02656,0 0.970958,-0.600544 1.898126,-1.058313 2.788734,-1.3572 0.890815,-0.307985 1.736444,-0.469782 2.496581,-0.4698 0.806741,1.8e-5 1.398022,0.175847 1.832597,0.522 0.432364,0.335826 0.663974,0.821035 0.663985,1.4355 -9e-6,0.401445 -0.122546,0.794618 -0.371832,1.2006 -0.240514,0.406756 -0.629151,0.86067 -1.168612,1.3311 l -0.929578,0.783 c -1.02112,0.902426 -1.690658,1.662902 -2.018513,2.2707 -0.325607,0.5942 -0.478073,1.26894 -0.478068,2.0358 v 0.6786 c -0.001,0.0087 -0.001,0.01743 0,0.0261 -0.001,0.0087 -0.001,0.01743 0,0.0261 0.0073,0.01007 0.01631,0.01889 0.02656,0.0261 0.0073,0.01007 0.01631,0.01889 0.02656,0.0261 0.0088,0.001 0.01774,0.001 0.02656,0 0.0088,0.001 0.01774,0.001 0.02656,0 h 5.179078 c 0.0088,0.001 0.01774,0.001 0.02656,0 0.0088,0.001 0.01774,0.001 0.02656,0 0.01025,-0.0072 0.01922,-0.01603 0.02656,-0.0261 0.01025,-0.0072 0.01923,-0.01603 0.02656,-0.0261 10e-4,-0.0087 10e-4,-0.01743 0,-0.0261 10e-4,-0.0087 10e-4,-0.01743 0,-0.0261 v -0.6264 c -10e-6,-0.391037 0.126099,-0.745707 0.318712,-1.0701 0.188929,-0.3268 0.601791,-0.79374 1.248291,-1.3572 l 0.903018,-0.783 c 0.906494,-0.820425 1.555878,-1.574063 1.938835,-2.2968 0.381834,-0.730003 0.584291,-1.56468 0.584306,-2.4795 -1.5e-5,-1.775856 -0.632129,-3.11866 -1.885716,-4.0455 C 28.16435,13.47312 26.353176,13.000022 24.000007,13 Z m -3.027769,15.9993 c -0.01025,0.0072 -0.01922,0.01603 -0.02656,0.0261 -0.01025,0.0072 -0.01922,0.01603 -0.02656,0.0261 -0.001,0.0087 -0.001,0.01743 0,0.0261 -0.001,0.0087 -0.001,0.01743 0,0.0261 v 4.8807 c -0.001,0.0087 -0.001,0.01743 0,0.0261 -0.001,0.0087 -0.001,0.01743 0,0.0261 0.0073,0.01007 0.01631,0.01889 0.02656,0.0261 0.0073,0.01007 0.01631,0.01889 0.02656,0.0261 0.0088,10e-4 0.01774,10e-4 0.02656,0 0.0088,10e-4 0.01774,10e-4 0.02656,0 h 5.179078 c 0.0088,10e-4 0.01774,10e-4 0.02656,0 0.0088,10e-4 0.01774,10e-4 0.02656,0 0.01025,-0.0072 0.01922,-0.01603 0.02656,-0.0261 0.01025,-0.0072 0.01923,-0.01603 0.02656,-0.0261 10e-4,-0.0087 10e-4,-0.01743 0,-0.0261 10e-4,-0.0087 10e-4,-0.01743 0,-0.0261 v -4.8807 c 10e-4,-0.0087 10e-4,-0.01743 0,-0.0261 10e-4,-0.0087 10e-4,-0.01743 0,-0.0261 -0.0073,-0.01007 -0.01631,-0.01889 -0.02656,-0.0261 -0.0073,-0.01007 -0.01631,-0.01889 -0.02656,-0.0261 -0.0088,-0.001 -0.01774,-0.001 -0.02656,0 -0.0088,-0.001 -0.01774,-0.001 -0.02656,0 h -5.179078 c -0.0088,-0.001 -0.01774,-0.001 -0.02656,0 -0.0088,-0.001 -0.01774,-0.001 -0.02656,0 z"
       id="path857" />
  </g>
</svg>
