<?xml version="1.0" encoding="UTF-8" standalone="no"?>
<svg
   width="31.858051"
   height="31.931021"
   version="1.1"
   id="svg1118"
   xmlns:xlink="http://www.w3.org/1999/xlink"
   xmlns="http://www.w3.org/2000/svg"
   xmlns:svg="http://www.w3.org/2000/svg">
  <defs
     id="defs1051">
    <linearGradient
       id="i"
       y2="45.889999"
       gradientUnits="userSpaceOnUse"
       x2="32.540001"
       gradientTransform="matrix(1.025,0,0,1.023,-0.28,-2.62)"
       y1="15.95"
       x1="39.740002">
      <stop
         stop-color="#fcaf3e"
         offset="0"
         id="stop1014" />
      <stop
         stop-color="#f57900"
         offset="1"
         id="stop1016" />
    </linearGradient>
    <radialGradient
       id="f"
       gradientUnits="userSpaceOnUse"
       cy="3.76"
       cx="8.8199997"
       gradientTransform="matrix(0.968,0,0,1.033,3.35,-0.35)"
       r="37.75">
      <stop
         stop-color="#a3a3a3"
         offset="0"
         id="stop1019" />
      <stop
         stop-color="#4c4c4c"
         offset="1"
         id="stop1021" />
    </radialGradient>
    <radialGradient
       id="a"
       gradientUnits="userSpaceOnUse"
       cy="42.099998"
       cx="24.309999"
       gradientTransform="matrix(0.82188926,0,0,0.20388353,-4.9231166,19.723049)"
       r="15.82">
      <stop
         offset="0"
         id="stop1024" />
      <stop
         stop-opacity="0"
         offset="1"
         id="stop1026" />
    </radialGradient>
    <radialGradient
       id="h"
       gradientUnits="userSpaceOnUse"
       cy="29.299999"
       cx="10.1"
       r="1.21">
      <stop
         stop-color="#f0f0f0"
         offset="0"
         id="stop1029" />
      <stop
         stop-color="#9a9a9a"
         offset="1"
         id="stop1031" />
    </radialGradient>
    <radialGradient
       id="j"
       gradientUnits="userSpaceOnUse"
       cy="8.7799997"
       cx="8.7799997"
       r="8.79">
      <stop
         stop-color="#fff"
         offset="0"
         id="stop1034" />
      <stop
         stop-opacity=".89"
         stop-color="#fff520"
         offset=".5"
         id="stop1036" />
      <stop
         stop-opacity="0"
         stop-color="#fff300"
         offset="1"
         id="stop1038" />
    </radialGradient>
    <radialGradient
       id="d"
       gradientUnits="userSpaceOnUse"
       cy="7.27"
       cx="8.1400003"
       gradientTransform="matrix(0.968,0,0,1.033,3.35,-0.35)"
       r="38.200001">
      <stop
         stop-color="#fff"
         offset="0"
         id="stop1041" />
      <stop
         stop-color="#f8f8f8"
         offset="1"
         id="stop1043" />
    </radialGradient>
    <radialGradient
       id="e"
       gradientUnits="userSpaceOnUse"
       cy="35.740002"
       cx="33.970001"
       gradientTransform="matrix(0.96,0,0,1.041,0,-1)"
       r="86.699997">
      <stop
         stop-color="#fafafa"
         offset="0"
         id="stop1046" />
      <stop
         stop-color="#bbb"
         offset="1"
         id="stop1048" />
    </radialGradient>
    <linearGradient
       xlink:href="#i"
       id="linearGradient1743"
       gradientUnits="userSpaceOnUse"
       gradientTransform="matrix(1.025,0,0,1.023,-0.28,-2.62)"
       x1="39.740002"
       y1="15.95"
       x2="32.540001"
       y2="45.889999" />
    <linearGradient
       xlink:href="#i"
       id="linearGradient1745"
       gradientUnits="userSpaceOnUse"
       gradientTransform="matrix(1.025,0,0,1.023,-0.28,-2.62)"
       x1="39.740002"
       y1="15.95"
       x2="32.540001"
       y2="45.889999" />
    <linearGradient
       xlink:href="#i"
       id="linearGradient1747"
       gradientUnits="userSpaceOnUse"
       gradientTransform="matrix(1.025,0,0,1.023,-0.28,-2.62)"
       x1="39.740002"
       y1="15.95"
       x2="32.540001"
       y2="45.889999" />
    <linearGradient
       xlink:href="#i"
       id="linearGradient1749"
       gradientUnits="userSpaceOnUse"
       gradientTransform="matrix(1.025,0,0,1.023,-0.28,-2.62)"
       x1="39.740002"
       y1="15.95"
       x2="32.540001"
       y2="45.889999" />
    <linearGradient
       xlink:href="#i"
       id="linearGradient1751"
       gradientUnits="userSpaceOnUse"
       gradientTransform="matrix(1.025,0,0,1.023,-0.28,-2.62)"
       x1="39.740002"
       y1="15.95"
       x2="32.540001"
       y2="45.889999" />
    <linearGradient
       xlink:href="#i"
       id="linearGradient1753"
       gradientUnits="userSpaceOnUse"
       gradientTransform="matrix(1.025,0,0,1.023,-0.28,-2.62)"
       x1="39.740002"
       y1="15.95"
       x2="32.540001"
       y2="45.889999" />
    <linearGradient
       xlink:href="#i"
       id="linearGradient1755"
       gradientUnits="userSpaceOnUse"
       gradientTransform="matrix(1.025,0,0,1.023,-0.28,-2.62)"
       x1="39.740002"
       y1="15.95"
       x2="32.540001"
       y2="45.889999" />
    <linearGradient
       xlink:href="#i"
       id="linearGradient1757"
       gradientUnits="userSpaceOnUse"
       gradientTransform="matrix(1.025,0,0,1.023,-0.28,-2.62)"
       x1="39.740002"
       y1="15.95"
       x2="32.540001"
       y2="45.889999" />
  </defs>
  <use
     opacity="0.6"
     xlink:href="#g"
     transform="translate(6.76,1.79)"
     height="48"
     width="48"
     y="0"
     x="0"
     id="use1053" />
  <ellipse
     id="g"
     opacity="0.78"
     fill-rule="evenodd"
     rx="13.002288"
     ry="3.2263675"
     cy="28.29331"
     cx="15.057012"
     fill="url(#a)"
     style="fill:url(#a);stroke-width:0.766788" />
  <g
     stroke-linejoin="round"
     stroke-linecap="round"
     id="g1060"
     transform="matrix(0.82188927,0,0,0.71538077,-5.0135245,-1.5380687)">
    <rect
       rx="1.15"
       height="40.919998"
       width="34.880001"
       stroke="url(#f)"
       y="2.6500001"
       x="6.5999999"
       fill="url(#e)"
       id="rect1056"
       style="fill:url(#e);stroke:url(#f)" />
    <rect
       rx="0.15000001"
       height="38.950001"
       width="32.779999"
       stroke="url(#d)"
       y="3.5799999"
       x="7.6700001"
       fill="none"
       id="rect1058"
       style="stroke:url(#d)" />
  </g>
  <use
     y="-11.47"
     width="48"
     xlink:href="#b"
     height="48"
     id="use1062"
     x="0" />
  <g
     id="b"
     transform="matrix(0.82188927,0,0,0.71538077,-5.0135245,-1.5380687)">
    <circle
       cy="29.200001"
       cx="10.17"
       r="0.81999999"
       fill="#ffffff"
       id="circle1064" />
    <path
       d="m 10.64,28.91 c 0,0.45 -0.37,0.82 -0.82,0.82 C 9.37,29.73 9,29.36 9,28.91 c 0,-0.45 0.37,-0.82 0.82,-0.82 0.45,0 0.82,0.37 0.82,0.82"
       fill="url(#h)"
       id="path1066"
       style="fill:url(#h)" />
  </g>
  <g
     fill="none"
     id="g1073"
     transform="translate(-6.0648721,-2.1820839)">
    <path
       stroke="#000000"
       d="M 11.51,4.49 V 42.4"
       stroke-opacity="0.02"
       id="path1069" />
    <path
       stroke="#ffffff"
       d="M 12.5,4 V 42"
       stroke-opacity="0.2"
       id="path1071" />
  </g>
  <g
     fill-opacity="0.55"
     fill="#9b9b9b"
     id="g1103"
     transform="matrix(0.82188927,0,0,0.71538077,-5.0135245,-1.5380687)">
    <rect
       rx="0.14"
       ry="0.07"
       height="1"
       width="20"
       y="8"
       x="16"
       id="rect1075" />
    <rect
       rx="0.14"
       ry="0.07"
       height="1"
       width="20"
       y="10"
       x="16"
       id="rect1077" />
    <rect
       rx="0.14"
       ry="0.07"
       height="1"
       width="20"
       y="12"
       x="16"
       id="rect1079" />
    <rect
       rx="0.14"
       ry="0.07"
       height="1"
       width="20"
       y="14"
       x="16"
       id="rect1081" />
    <rect
       rx="0.14"
       ry="0.07"
       height="1"
       width="20"
       y="16"
       x="16"
       id="rect1083" />
    <rect
       rx="0.14"
       ry="0.07"
       height="1"
       width="20"
       y="18"
       x="16"
       id="rect1085" />
    <rect
       rx="0.14"
       ry="0.07"
       height="1"
       width="20"
       y="20"
       x="16"
       id="rect1087" />
    <rect
       rx="0.14"
       ry="0.07"
       height="1"
       width="20"
       y="22"
       x="16"
       id="rect1089" />
    <rect
       rx="0.059999999"
       height="1"
       width="9"
       y="24"
       x="16"
       id="rect1091" />
    <rect
       rx="0.14"
       ry="0.07"
       height="1"
       width="20"
       y="28"
       x="16"
       id="rect1093" />
    <rect
       rx="0.14"
       ry="0.07"
       height="1"
       width="20"
       y="30"
       x="16"
       id="rect1095" />
    <rect
       rx="0.14"
       ry="0.07"
       height="1"
       width="20"
       y="32"
       x="16"
       id="rect1097" />
    <rect
       rx="0.14"
       ry="0.07"
       height="1"
       width="20"
       y="34"
       x="16"
       id="rect1099" />
    <rect
       rx="0.1"
       ry="0.07"
       height="1"
       width="14"
       y="36"
       x="16"
       id="rect1101" />
  </g>
  <use
     stroke-width="2.2"
     stroke="#ce5c00"
     xlink:href="#ex"
     id="use1105"
     x="0"
     y="0"
     width="100%"
     height="100%"
     transform="matrix(0.82188927,0,0,0.71538077,-5.0135245,-1.5380687)" />
  <g
     stroke="url(#i)"
     stroke-width="0.8"
     fill="url(#i)"
     id="g1112"
     style="fill:url(#linearGradient1755);stroke:url(#linearGradient1757)"
     transform="matrix(0.82188927,0,0,0.71538077,-5.0135245,-1.5380687)">
    <g
       id="ex"
       style="fill:url(#linearGradient1751);stroke:url(#linearGradient1753)">
      <path
         d="m 36.87,19.98 c -1.07,5.33 -2.14,10.67 -3.2,16 h 2.03 c 2.51,-6 5,-12 7.53,-18.1 0.54,-1.45 0.94,-3.32 -0.2,-4.57 -1.2,-1.3 -3.543,-0.937 -4.507,0.5696 -1.15,1.8 -1.19,4.1 -1.65,6.1 z"
         id="path1107"
         style="fill:url(#linearGradient1743);stroke:url(#linearGradient1745)" />
      <circle
         cy="42.619999"
         cx="32.720001"
         r="3.0650001"
         id="circle1109"
         style="fill:url(#linearGradient1747);stroke:url(#linearGradient1749)" />
    </g>
  </g>
  <use
     opacity="0.5"
     xlink:href="#ex"
     stroke="#ffffff"
     stroke-width="0.8"
     fill="none"
     id="use1114"
     x="0"
     y="0"
     width="100%"
     height="100%"
     transform="matrix(0.82188927,0,0,0.71538077,-5.0135245,-1.5380687)" />
</svg>
