<?xml version="1.0" encoding="UTF-8" standalone="no"?>
<svg
   width="32"
   height="32"
   version="1.1"
   id="svg1164"
   sodipodi:docname="inspect.svg"
   inkscape:version="1.1.2 (b8e25be8, 2022-02-05)"
   xmlns:inkscape="http://www.inkscape.org/namespaces/inkscape"
   xmlns:sodipodi="http://sodipodi.sourceforge.net/DTD/sodipodi-0.dtd"
   xmlns:xlink="http://www.w3.org/1999/xlink"
   xmlns="http://www.w3.org/2000/svg"
   xmlns:svg="http://www.w3.org/2000/svg">
  <sodipodi:namedview
     id="namedview1166"
     pagecolor="#ffffff"
     bordercolor="#666666"
     borderopacity="1.0"
     inkscape:pageshadow="2"
     inkscape:pageopacity="0.0"
     inkscape:pagecheckerboard="0"
     showgrid="false"
     inkscape:zoom="13.020833"
     inkscape:cx="22.2336"
     inkscape:cy="20.8896"
     inkscape:window-width="1296"
     inkscape:window-height="1084"
     inkscape:window-x="1507"
     inkscape:window-y="25"
     inkscape:window-maximized="0"
     inkscape:current-layer="svg1164" />
  <defs
     id="defs1090">
    <linearGradient
       id="e">
      <stop
         offset="0"
         id="stop1005" />
      <stop
         offset="1"
         stop-opacity="0"
         id="stop1007" />
    </linearGradient>
    <linearGradient
       id="a">
      <stop
         offset="0"
         stop-opacity="0"
         id="stop1010" />
      <stop
         offset=".5"
         id="stop1012" />
      <stop
         offset="1"
         stop-opacity="0"
         id="stop1014" />
    </linearGradient>
    <linearGradient
       xlink:href="#a"
       id="n"
       x1="302.85715"
       x2="302.85715"
       y1="366.64789"
       y2="609.50507"
       gradientTransform="matrix(2.77439,0,0,1.9697,-1892.179,-872.8854)"
       gradientUnits="userSpaceOnUse" />
    <linearGradient
       id="h">
      <stop
         offset="0"
         stop-color="#fff"
         id="stop1018" />
      <stop
         offset="1"
         stop-color="#f8f8f8"
         id="stop1020" />
    </linearGradient>
    <linearGradient
       id="f">
      <stop
         offset="0"
         stop-color="#a3a3a3"
         id="stop1023" />
      <stop
         offset="1"
         stop-color="#4c4c4c"
         id="stop1025" />
    </linearGradient>
    <linearGradient
       id="g">
      <stop
         offset="0"
         stop-color="#fafafa"
         id="stop1028" />
      <stop
         offset="1"
         stop-color="#bbb"
         id="stop1030" />
    </linearGradient>
    <linearGradient
       id="c">
      <stop
         offset="0"
         stop-color="#7d7d7d"
         id="stop1033" />
      <stop
         offset=".5"
         stop-color="#b1b1b1"
         id="stop1035" />
      <stop
         offset="1"
         stop-color="#686868"
         id="stop1037" />
    </linearGradient>
    <linearGradient
       id="l">
      <stop
         offset="0"
         stop-color="#729fcf"
         stop-opacity=".20784314"
         id="stop1040" />
      <stop
         offset="1"
         stop-color="#729fcf"
         stop-opacity=".6761905"
         id="stop1042" />
    </linearGradient>
    <linearGradient
       id="m">
      <stop
         offset="0"
         stop-color="#fff"
         id="stop1045" />
      <stop
         offset="1"
         stop-color="#fff"
         stop-opacity=".24761905"
         id="stop1047" />
    </linearGradient>
    <linearGradient
       id="k">
      <stop
         offset="0"
         id="stop1050" />
      <stop
         offset="1"
         stop-opacity="0"
         id="stop1052" />
    </linearGradient>
    <linearGradient
       id="d">
      <stop
         offset="0"
         stop-color="#fff"
         id="stop1055" />
      <stop
         offset=".5"
         stop-color="#fff"
         stop-opacity=".21904762"
         id="stop1057" />
      <stop
         offset="1"
         stop-color="#fff"
         id="stop1059" />
    </linearGradient>
    <linearGradient
       id="b">
      <stop
         offset="0"
         stop-color="#8a8a8a"
         id="stop1062" />
      <stop
         offset="1"
         stop-color="#484848"
         id="stop1064" />
    </linearGradient>
    <linearGradient
       xlink:href="#b"
       id="w"
       x1="27.366341"
       x2="31.335964"
       y1="26.580296"
       y2="30.557772"
       gradientUnits="userSpaceOnUse" />
    <linearGradient
       xlink:href="#c"
       id="x"
       x1="30.65625"
       x2="33.21875"
       y1="34"
       y2="31.0625"
       gradientTransform="matrix(1.3346,0,0,1.2913,-6.973842,-7.460658)"
       gradientUnits="userSpaceOnUse" />
    <linearGradient
       xlink:href="#d"
       id="y"
       x1="18.292673"
       x2="17.500893"
       y1="13.602121"
       y2="25.743469"
       gradientUnits="userSpaceOnUse" />
    <radialGradient
       xlink:href="#e"
       id="p"
       cx="605.71429"
       cy="486.64789"
       r="117.14286"
       fx="605.71429"
       fy="486.64789"
       gradientTransform="matrix(-2.77439,0,0,1.9697,112.7623,-872.8854)"
       gradientUnits="userSpaceOnUse" />
    <radialGradient
       xlink:href="#e"
       id="o"
       cx="605.71429"
       cy="486.64789"
       r="117.14286"
       fx="605.71429"
       fy="486.64789"
       gradientTransform="matrix(2.77439,0,0,1.9697,-1891.633,-872.8854)"
       gradientUnits="userSpaceOnUse" />
    <radialGradient
       id="j"
       cx="20.892099"
       cy="64.567902"
       r="5.257"
       fx="20.892099"
       fy="64.567902"
       gradientUnits="userSpaceOnUse">
      <stop
         offset="0"
         stop-color="#f0f0f0"
         id="stop1072" />
      <stop
         offset="1"
         stop-color="#9a9a9a"
         id="stop1074" />
    </radialGradient>
    <radialGradient
       id="i"
       cx="20.892099"
       cy="114.5684"
       r="5.256"
       fx="20.892099"
       fy="114.5684"
       gradientUnits="userSpaceOnUse">
      <stop
         offset="0"
         stop-color="#f0f0f0"
         id="stop1077" />
      <stop
         offset="1"
         stop-color="#9a9a9a"
         id="stop1079" />
    </radialGradient>
    <radialGradient
       xlink:href="#f"
       id="r"
       cx="8.824419"
       cy="3.7561285"
       r="37.751713"
       fx="8.824419"
       fy="3.7561285"
       gradientTransform="matrix(0.67294628,0,0,0.7291515,1.0992663,-1.7678033)"
       gradientUnits="userSpaceOnUse" />
    <radialGradient
       xlink:href="#g"
       id="q"
       cx="33.966679"
       cy="35.736916"
       r="86.70845"
       fx="33.966679"
       fy="35.736916"
       gradientTransform="matrix(0.66754614,0,0,0.73505378,-1.2314483,-2.2242048)"
       gradientUnits="userSpaceOnUse" />
    <radialGradient
       xlink:href="#h"
       id="s"
       cx="8.1435566"
       cy="7.2678967"
       r="38.158695"
       fx="8.1435566"
       fy="7.2678967"
       gradientTransform="matrix(0.67294628,0,0,0.7291515,1.0992663,-1.7678033)"
       gradientUnits="userSpaceOnUse" />
    <radialGradient
       xlink:href="#i"
       id="t"
       cx="20.892099"
       cy="114.5684"
       r="5.256"
       fx="20.892099"
       fy="114.5684"
       gradientTransform="matrix(0.2297,0,0,0.2297,4.613529,3.979808)"
       gradientUnits="userSpaceOnUse" />
    <radialGradient
       xlink:href="#j"
       id="u"
       cx="20.892099"
       cy="64.567902"
       r="5.257"
       fx="20.892099"
       fy="64.567902"
       gradientTransform="matrix(0.2297,0,0,0.2297,4.613529,3.979808)"
       gradientUnits="userSpaceOnUse" />
    <radialGradient
       xlink:href="#k"
       id="v"
       cx="24.130018"
       cy="37.967922"
       r="16.528622"
       fx="24.130018"
       fy="37.967922"
       gradientTransform="matrix(1,0,0,0.23797,0,28.93278)"
       gradientUnits="userSpaceOnUse" />
    <radialGradient
       xlink:href="#l"
       id="z"
       cx="18.240929"
       cy="21.817987"
       r="8.3085051"
       fx="18.240929"
       fy="21.817987"
       gradientUnits="userSpaceOnUse" />
    <radialGradient
       xlink:href="#m"
       id="A"
       cx="15.414371"
       cy="13.078408"
       r="6.65625"
       fx="15.414371"
       fy="13.078408"
       gradientTransform="matrix(2.59296,0,0,2.2521,-25.05975,-18.941)"
       gradientUnits="userSpaceOnUse" />
  </defs>
  <g
     transform="matrix(0.01504672,0,0,0.01049139,30.658773,29.912336)"
     id="g1098">
    <path
       fill="url(#n)"
       d="M -1559.2523,-150.69685 H -219.6188 V 327.66033 H -1559.2523 Z"
       color="#000000"
       opacity="0.402062"
       overflow="visible"
       style="fill:url(#n);marker:none"
       id="path1092" />
    <path
       fill="url(#o)"
       d="m -219.61876,-150.68038 v 478.33079 c 142.874166,0.90045 345.40022,-107.16966 345.40014,-239.196175 0,-132.026537 -159.436816,-239.134595 -345.40014,-239.134615 z"
       color="#000000"
       opacity="0.402062"
       overflow="visible"
       style="fill:url(#o);marker:none"
       id="path1094" />
    <path
       fill="url(#p)"
       d="m -1559.2523,-150.68038 v 478.33079 c -142.8742,0.90045 -345.4002,-107.16966 -345.4002,-239.196175 0,-132.026537 159.4368,-239.134595 345.4002,-239.134615 z"
       color="#000000"
       opacity="0.402062"
       overflow="visible"
       style="fill:url(#p);marker:none"
       id="path1096" />
  </g>
  <rect
     width="24.238075"
     height="28.890497"
     x="3.3580115"
     y="0.3502425"
     fill="url(#q)"
     stroke="url(#r)"
     stroke-linecap="round"
     stroke-linejoin="round"
     color="#000000"
     display="block"
     overflow="visible"
     ry="0.81124598"
     style="fill:url(#q);stroke:url(#r);stroke-width:0.700485;marker:none"
     id="rect1100" />
  <rect
     width="22.779194"
     height="27.496746"
     x="4.0964484"
     y="1.0121313"
     fill="none"
     stroke="url(#s)"
     stroke-linecap="round"
     stroke-linejoin="round"
     color="#000000"
     display="block"
     overflow="visible"
     rx="0.10358854"
     ry="0.10523058"
     style="stroke:url(#s);stroke-width:0.700485;marker:none"
     id="rect1102" />
  <g
     transform="matrix(0.69499858,0,0,0.70601537,-0.78216863,-2.2510258)"
     id="g1110">
    <path
       fill="#ffffff"
       d="m 10.348493,30.217151 c 0,0.453198 -0.3675204,0.820488 -0.8207185,0.820488 -0.4534278,0 -0.8207181,-0.36752 -0.8207181,-0.820488 0,-0.453428 0.36752,-0.820718 0.8207181,-0.820718 0.4531981,0 0.8207185,0.36752 0.8207185,0.820718 z m 0,-11.485 c 0,0.453198 -0.3675204,0.820718 -0.8207185,0.820718 -0.4534278,0 -0.8207181,-0.36752 -0.8207181,-0.820718 0,-0.453428 0.36752,-0.820718 0.8207181,-0.820718 0.4531981,0 0.8207185,0.36752 0.8207185,0.820718 z"
       id="path1104" />
    <path
       fill="url(#t)"
       d="m 9.9950109,29.952326 c 0,0.453204 -0.3675248,0.820499 -0.8207288,0.820499 -0.4534338,0 -0.8207289,-0.367524 -0.8207289,-0.820499 0,-0.453434 0.3675248,-0.820729 0.8207289,-0.820729 0.453204,0 0.8207288,0.367525 0.8207288,0.820729 z"
       id="path1106"
       style="fill:url(#t)" />
    <path
       fill="url(#u)"
       d="m 9.9950109,18.467176 c 0,0.453204 -0.3675248,0.820729 -0.8207288,0.820729 -0.4534338,0 -0.8207289,-0.367525 -0.8207289,-0.820729 0,-0.453434 0.3675248,-0.820729 0.8207289,-0.820729 0.453204,0 0.8207288,0.367525 0.8207288,0.820729 z"
       id="path1108"
       style="fill:url(#u)" />
  </g>
  <path
     fill="none"
     stroke="#000000"
     stroke-opacity="0.0175438"
     stroke-width="0.815554"
     d="m 9.7338508,2.34783 v 25.8"
     id="path1112" />
  <path
     fill="none"
     stroke="#ffffff"
     stroke-opacity="0.204678"
     d="M 10.728128,1.8740688 V 28.092069"
     id="path1114"
     style="stroke-width:0.830439" />
  <g
     transform="matrix(0.6318232,0,0,0.70601537,0.41126972,-2.2242048)"
     id="g1144">
    <rect
       width="22.000004"
       height="1"
       x="15.000002"
       y="9"
       fill="#9b9b9b"
       fill-opacity="0.549708"
       color="#000000"
       display="block"
       overflow="visible"
       rx="0.15156493"
       ry="0.065390877"
       style="marker:none"
       id="rect1116" />
    <rect
       width="22.000004"
       height="1"
       x="15.000002"
       y="11"
       fill="#9b9b9b"
       fill-opacity="0.549708"
       color="#000000"
       display="block"
       overflow="visible"
       rx="0.15156493"
       ry="0.065390877"
       style="marker:none"
       id="rect1118" />
    <rect
       width="22.000004"
       height="1"
       x="15.000002"
       y="13"
       fill="#9b9b9b"
       fill-opacity="0.549708"
       color="#000000"
       display="block"
       overflow="visible"
       rx="0.15156493"
       ry="0.065390877"
       style="marker:none"
       id="rect1120" />
    <rect
       width="22.000004"
       height="1"
       x="15.000002"
       y="15"
       fill="#9b9b9b"
       fill-opacity="0.549708"
       color="#000000"
       display="block"
       overflow="visible"
       rx="0.15156493"
       ry="0.065390877"
       style="marker:none"
       id="rect1122" />
    <rect
       width="22.000004"
       height="1"
       x="15.000002"
       y="17"
       fill="#9b9b9b"
       fill-opacity="0.549708"
       color="#000000"
       display="block"
       overflow="visible"
       rx="0.15156493"
       ry="0.065390877"
       style="marker:none"
       id="rect1124" />
    <rect
       width="22.000004"
       height="1"
       x="15.000002"
       y="19"
       fill="#9b9b9b"
       fill-opacity="0.549708"
       color="#000000"
       display="block"
       overflow="visible"
       rx="0.15156493"
       ry="0.065390877"
       style="marker:none"
       id="rect1126" />
    <rect
       width="22.000004"
       height="1"
       x="15.000002"
       y="21"
       fill="#9b9b9b"
       fill-opacity="0.549708"
       color="#000000"
       display="block"
       overflow="visible"
       rx="0.15156493"
       ry="0.065390877"
       style="marker:none"
       id="rect1128" />
    <rect
       width="22.000004"
       height="1"
       x="15.000002"
       y="23"
       fill="#9b9b9b"
       fill-opacity="0.549708"
       color="#000000"
       display="block"
       overflow="visible"
       rx="0.15156493"
       ry="0.065390877"
       style="marker:none"
       id="rect1130" />
    <rect
       width="9.9000053"
       height="1"
       x="14.999992"
       y="25"
       fill="#9b9b9b"
       fill-opacity="0.549708"
       color="#000000"
       display="block"
       overflow="visible"
       rx="0.068204239"
       ry="0.065390877"
       style="marker:none"
       id="rect1132" />
    <rect
       width="22.000004"
       height="1"
       x="14.999992"
       y="29"
       fill="#9b9b9b"
       fill-opacity="0.549708"
       color="#000000"
       display="block"
       overflow="visible"
       rx="0.15156493"
       ry="0.065390877"
       style="marker:none"
       id="rect1134" />
    <rect
       width="22.000004"
       height="1"
       x="14.999992"
       y="31"
       fill="#9b9b9b"
       fill-opacity="0.549708"
       color="#000000"
       display="block"
       overflow="visible"
       rx="0.15156493"
       ry="0.065390877"
       style="marker:none"
       id="rect1136" />
    <rect
       width="22.000004"
       height="1"
       x="14.999992"
       y="33"
       fill="#9b9b9b"
       fill-opacity="0.549708"
       color="#000000"
       display="block"
       overflow="visible"
       rx="0.15156493"
       ry="0.065390877"
       style="marker:none"
       id="rect1138" />
    <rect
       width="22.000004"
       height="1"
       x="14.999992"
       y="35"
       fill="#9b9b9b"
       fill-opacity="0.549708"
       color="#000000"
       display="block"
       overflow="visible"
       rx="0.15156493"
       ry="0.065390877"
       style="marker:none"
       id="rect1140" />
    <rect
       width="15.400014"
       height="1"
       x="14.999992"
       y="37"
       fill="#9b9b9b"
       fill-opacity="0.549708"
       color="#000000"
       display="block"
       overflow="visible"
       rx="0.10609552"
       ry="0.065390877"
       style="marker:none"
       id="rect1142" />
  </g>
  <g
     transform="matrix(0.46243815,0,0,0.46976851,9.8791118,10.419365)"
     id="g1162">
    <path
       fill="url(#v)"
       fill-rule="evenodd"
       d="m 40.65864,37.967922 a 16.528622,3.9332814 0 1 1 -33.0572434,0 16.528622,3.9332814 0 1 1 33.0572434,0 z"
       color="#000000"
       opacity="0.171123"
       overflow="visible"
       style="fill:url(#v);marker:none"
       transform="matrix(1.44643,0,0,1.51999,-10.97453,-17.75168)"
       id="path1146" />
    <path
       fill="#dcdcdc"
       fill-rule="evenodd"
       stroke="url(#w)"
       stroke-linecap="round"
       stroke-miterlimit="10"
       stroke-width="3.00582"
       d="m 18.627569,3.1435548 c -8.13913,0 -14.7448008,6.6056711 -14.7448008,14.7448012 0,8.13913 6.6056708,14.744802 14.7448008,14.744802 3.479555,0 6.551001,-1.384393 9.073723,-3.402647 -0.205377,1.006881 -0.07803,2.035368 0.756144,2.759925 l 10.964084,9.52741 c 1.233416,1.071329 3.087462,0.93096 4.15879,-0.302457 1.071328,-1.233418 0.930959,-3.087462 -0.302457,-4.15879 L 32.313769,27.529188 c -0.671527,-0.583279 -1.492878,-0.755969 -2.306238,-0.642722 1.9867,-2.512422 3.364839,-5.548803 3.364839,-8.99811 0,-8.1391301 -6.605671,-14.7448012 -14.744801,-14.7448012 z m -0.07562,1.2261833 c 7.639459,0 13.291775,4.7889505 13.291775,13.2917749 0,8.675113 -5.81669,13.291775 -13.291775,13.291775 -7.302949,0 -13.2917734,-5.478092 -13.2917734,-13.291775 0,-7.9841069 5.8246384,-13.291775 13.2917734,-13.2917749 z"
       color="#000000"
       overflow="visible"
       style="stroke:url(#w);marker:none"
       id="path1148" />
    <path
       fill="#dcdcdc"
       fill-rule="evenodd"
       d="m 18.602905,3.0803551 c -8.16544,0 -14.7924642,6.627024 -14.7924642,14.7924639 0,8.16544 6.6270242,14.792464 14.7924642,14.792464 3.490803,0 6.572177,-1.388867 9.103055,-3.413645 -0.206041,1.010136 -0.07829,2.041947 0.758587,2.768846 l 10.999526,9.558207 c 1.237403,1.074792 3.097442,0.93397 4.172233,-0.303435 1.074791,-1.237404 0.933968,-3.097442 -0.303435,-4.172233 L 32.333346,27.544815 c -0.673698,-0.585164 -1.497704,-0.758413 -2.313693,-0.644799 1.993122,-2.520544 3.375716,-5.56674 3.375716,-9.027197 0,-8.1654399 -6.627024,-14.7924639 -14.792464,-14.7924639 z m -0.07586,3.1860692 c 6.281108,2e-7 11.378818,5.0977107 11.378818,11.3788187 0,6.281108 -5.09771,11.378818 -11.378818,11.378818 -6.281108,0 -11.3788184,-5.09771 -11.3788184,-11.378818 2e-7,-6.281108 5.0977104,-11.3788187 11.3788184,-11.3788187 z"
       color="#000000"
       overflow="visible"
       style="marker:none"
       id="path1150" />
    <path
       fill="url(#x)"
       fill-rule="evenodd"
       d="m 39.507004,41.57769 c -0.478672,-2.273187 1.39733,-4.811422 3.584053,-4.788375 L 32.33069,27.531204 c -2.944791,-0.05671 -4.269502,2.272616 -3.776814,4.599922 z"
       color="#000000"
       overflow="visible"
       style="fill:url(#x);marker:none"
       id="path1152" />
    <path
       fill="none"
       stroke="url(#y)"
       stroke-linecap="round"
       stroke-miterlimit="10"
       stroke-width="1.20643"
       d="m 28.549437,18.920233 a 11.048544,11.048544 0 1 1 -22.0970883,0 11.048544,11.048544 0 1 1 22.0970883,0 z"
       color="#000000"
       overflow="visible"
       style="stroke:url(#y);marker:none"
       transform="matrix(1.24574,0,0,1.24574,-3.425346,-6.177033)"
       id="path1154" />
    <rect
       width="19.048439"
       height="4.4404783"
       x="40.373337"
       y="0.14086054"
       fill="none"
       stroke="#ffffff"
       stroke-linecap="round"
       stroke-miterlimit="10"
       stroke-width="1.50295"
       color="#000000"
       opacity="0.433155"
       overflow="visible"
       rx="3.2112026"
       ry="2.837393"
       style="marker:none"
       transform="matrix(0.75299,0.65804,-0.6489,0.76087,0,0)"
       id="rect1156" />
    <path
       fill="url(#z)"
       fill-rule="evenodd"
       stroke="#3063a3"
       stroke-linecap="round"
       stroke-miterlimit="10"
       stroke-width="1.07457"
       d="m 25.897786,18.478292 a 8.3085051,8.3085051 0 1 1 -16.61701,0 8.3085051,8.3085051 0 1 1 16.61701,0 z"
       color="#000000"
       style="fill:url(#z);marker:none"
       transform="matrix(1.39861,0,0,1.39861,-6.224338,-8.298958)"
       id="path1158" />
    <path
       fill="url(#A)"
       fill-rule="evenodd"
       d="m 18.156915,7.3966938 c -5.20759,0 -9.4245469,4.2169572 -9.4245469,9.4245472 0,1.503975 0.4203072,2.887773 1.0471719,4.149903 1.25238,0.461613 2.582757,0.775683 3.994767,0.775683 6.170955,0 11.099282,-4.861637 11.480106,-10.937129 C 23.523449,8.7641668 21.044374,7.3966938 18.156915,7.3966938 Z"
       color="#000000"
       opacity="0.834225"
       overflow="visible"
       style="fill:url(#A);marker:none"
       id="path1160" />
  </g>
</svg>
