<?xml version="1.0" encoding="UTF-8" standalone="no"?>
<svg
   width="31.895288"
   height="31.980267"
   version="1.1"
   id="svg930"
   xmlns:xlink="http://www.w3.org/1999/xlink"
   xmlns="http://www.w3.org/2000/svg"
   xmlns:svg="http://www.w3.org/2000/svg">
  <defs
     id="defs868">
    <radialGradient
       id="f"
       gradientUnits="userSpaceOnUse"
       cy="3.76"
       cx="8.8199997"
       gradientTransform="matrix(0.968,0,0,1.033,3.35,-0.35)"
       r="37.75">
      <stop
         stop-color="#a3a3a3"
         offset="0"
         id="stop831" />
      <stop
         stop-color="#4c4c4c"
         offset="1"
         id="stop833" />
    </radialGradient>
    <radialGradient
       id="a"
       gradientUnits="userSpaceOnUse"
       cy="42.099998"
       cx="24.309999"
       gradientTransform="matrix(0.78055834,0,0,0.20692816,-4.6643654,20.007476)"
       r="15.82">
      <stop
         offset="0"
         id="stop836" />
      <stop
         stop-opacity="0"
         offset="1"
         id="stop838" />
    </radialGradient>
    <radialGradient
       id="h"
       gradientUnits="userSpaceOnUse"
       cy="29.299999"
       cx="10.1"
       r="1.21">
      <stop
         stop-color="#f0f0f0"
         offset="0"
         id="stop841" />
      <stop
         stop-color="#9a9a9a"
         offset="1"
         id="stop843" />
    </radialGradient>
    <radialGradient
       id="j"
       gradientUnits="userSpaceOnUse"
       cy="8.7799997"
       cx="8.7799997"
       r="8.79">
      <stop
         stop-color="#fff"
         offset="0"
         id="stop846" />
      <stop
         stop-opacity=".89"
         stop-color="#fff520"
         offset=".5"
         id="stop848" />
      <stop
         stop-opacity="0"
         stop-color="#fff300"
         offset="1"
         id="stop850" />
    </radialGradient>
    <radialGradient
       id="d"
       gradientUnits="userSpaceOnUse"
       cy="7.27"
       cx="8.1400003"
       gradientTransform="matrix(0.968,0,0,1.033,3.35,-0.35)"
       r="38.200001">
      <stop
         stop-color="#fff"
         offset="0"
         id="stop853" />
      <stop
         stop-color="#f8f8f8"
         offset="1"
         id="stop855" />
    </radialGradient>
    <radialGradient
       id="e"
       gradientUnits="userSpaceOnUse"
       cy="35.740002"
       cx="33.970001"
       gradientTransform="matrix(0.96,0,0,1.041,0,-1)"
       r="86.699997">
      <stop
         stop-color="#fafafa"
         offset="0"
         id="stop858" />
      <stop
         stop-color="#bbb"
         offset="1"
         id="stop860" />
    </radialGradient>
    <linearGradient
       id="c"
       y2="24.530001"
       gradientUnits="userSpaceOnUse"
       y1="-5.4099998"
       x2="-91"
       x1="-83.800003">
      <stop
         stop-color="#a7cc5c"
         offset="0"
         id="stop863" />
      <stop
         stop-color="#789e2d"
         offset="1"
         id="stop865" />
    </linearGradient>
  </defs>
  <use
     opacity="0.6"
     xlink:href="#g"
     transform="translate(6.76,1.79)"
     height="48"
     width="48"
     y="0"
     x="0"
     id="use870" />
  <ellipse
     id="g"
     opacity="0.78"
     fill-rule="evenodd"
     rx="12.348433"
     ry="3.2745473"
     cy="28.705719"
     cx="14.311007"
     fill="url(#a)"
     style="fill:url(#a);stroke-width:0.752818" />
  <g
     stroke-linejoin="round"
     stroke-linecap="round"
     id="g877"
     transform="matrix(0.78110343,0,0,0.68557116,-4.7647308,-1.4739781)">
    <rect
       rx="1.15"
       height="40.919998"
       width="34.880001"
       stroke="url(#f)"
       y="2.6500001"
       x="6.5999999"
       fill="url(#e)"
       id="rect873"
       style="fill:url(#e);stroke:url(#f)" />
    <rect
       rx="0.15000001"
       height="38.950001"
       width="32.779999"
       stroke="url(#d)"
       y="3.5799999"
       x="7.6700001"
       fill="none"
       id="rect875"
       style="stroke:url(#d)" />
  </g>
  <g
     id="b"
     transform="matrix(1.0006983,0,0,0.94423002,-6.0815238,-2.0498288)">
    <circle
       cy="29.200001"
       cx="10.17"
       r="0.81999999"
       fill="#ffffff"
       id="circle879" />
    <path
       d="m 10.64,28.91 c 0,0.45 -0.37,0.82 -0.82,0.82 C 9.37,29.73 9,29.36 9,28.91 c 0,-0.45 0.37,-0.82 0.82,-0.82 0.45,0 0.82,0.37 0.82,0.82"
       fill="url(#h)"
       id="path881"
       style="fill:url(#h)" />
  </g>
  <g
     fill="none"
     id="g888"
     transform="translate(-6.0629423,-2.1836464)">
    <path
       stroke="#000000"
       d="M 11.51,4.49 V 42.4"
       stroke-opacity="0.02"
       id="path884" />
    <path
       stroke="#ffffff"
       d="M 12.5,4 V 42"
       stroke-opacity="0.2"
       id="path886" />
  </g>
  <g
     fill="#9b9b9b"
     fill-opacity="0.55"
     id="g918"
     transform="matrix(0.78110343,0,0,0.68557116,-4.7647308,-1.4739781)">
    <rect
       rx="0.14"
       ry="0.07"
       height="1"
       width="20"
       y="8"
       x="16"
       id="rect890" />
    <rect
       rx="0.14"
       ry="0.07"
       height="1"
       width="20"
       y="10"
       x="16"
       id="rect892" />
    <rect
       rx="0.14"
       ry="0.07"
       height="1"
       width="20"
       y="12"
       x="16"
       id="rect894" />
    <rect
       rx="0.14"
       ry="0.07"
       height="1"
       width="20"
       y="14"
       x="16"
       id="rect896" />
    <rect
       rx="0.14"
       ry="0.07"
       height="1"
       width="20"
       y="16"
       x="16"
       id="rect898" />
    <rect
       rx="0.14"
       ry="0.07"
       height="1"
       width="20"
       y="18"
       x="16"
       id="rect900" />
    <rect
       rx="0.14"
       ry="0.07"
       height="1"
       width="20"
       y="20"
       x="16"
       id="rect902" />
    <rect
       rx="0.14"
       ry="0.07"
       height="1"
       width="20"
       y="22"
       x="16"
       id="rect904" />
    <rect
       rx="0.059999999"
       height="1"
       width="9"
       y="24"
       x="16"
       id="rect906" />
    <rect
       rx="0.14"
       ry="0.07"
       height="1"
       width="20"
       y="28"
       x="16"
       id="rect908" />
    <rect
       rx="0.14"
       ry="0.07"
       height="1"
       width="20"
       y="30"
       x="16"
       id="rect910" />
    <rect
       rx="0.14"
       ry="0.07"
       height="1"
       width="20"
       y="32"
       x="16"
       id="rect912" />
    <rect
       rx="0.14"
       ry="0.07"
       height="1"
       width="20"
       y="34"
       x="16"
       id="rect914" />
    <rect
       rx="0.1"
       ry="0.07"
       height="1"
       width="14"
       y="36"
       x="16"
       id="rect916" />
  </g>
  <use
     y="-11.47"
     width="48"
     xlink:href="#b"
     height="48"
     id="use922"
     x="0" />
  <g
     stroke-linejoin="round"
     transform="matrix(0.64511328,-0.13526319,0.15411169,0.56621322,75.688919,2.7299441)"
     stroke-linecap="round"
     stroke-width="1.174"
     id="g928">
    <path
       d="m -73.88,-4.63 c -0.51,-0.18 -1.09,-0.05 -1.47,0.38 l -16.38,18.1 -5.93,-7.58 c -0.57,-0.51 -1.44,-0.48 -1.95,0.09 l -4.3,3.43 c -0.51,0.57 -0.47,1.44 0.1,1.95 0,0 10.73,14.25 10.75,14.26 0.13,0.12 0.28,0.2 0.44,0.26 0.51,0.19 1.12,0.07 1.51,-0.36 l 22.1,-24.43 c 0.51,-0.57 0.47,-1.44 -0.1,-1.95 l -4.28,-3.89 c -0.14,-0.13 -0.31,-0.22 -0.48,-0.28 z"
       stroke="#42770c"
       fill="url(#c)"
       id="path924"
       style="fill:url(#c)" />
    <path
       opacity="0.48"
       d="m -74.98,-3.2 -8.31,9.22 -7.38,8.12 c -0.21,0.13 -0.28,0.67 -1.05,0.69 -0.53,10e-4 -0.58,-0.2 -1.02,-0.67 l -5.24,-6.65 c -0.58,-0.75 -0.57,-0.71 -1.2,-0.32 l -3.37,2.65 c -0.88,0.58 -0.88,1.06 -0.14,1.83 0,0 9.75,12.93 9.77,12.95 0.13,0.11 0.06,0.13 0.58,0.71 0.33,0.37 0.89,-0.42 1.26,-0.83 L -69.79,1.06 c 0.48,-0.53 0.45,-0.53 -0.08,-1.02 l -3.85,-3.39 c -0.55,-0.5 -0.56,-0.49 -1.2,0.16 z"
       stroke="#ffffff"
       fill="none"
       id="path926" />
  </g>
</svg>
