<?xml version="1.0" encoding="UTF-8" standalone="no"?>
<!-- Created with Inkscape (http://www.inkscape.org/) -->

<svg
   xmlns:dc="http://purl.org/dc/elements/1.1/"
   xmlns:cc="http://creativecommons.org/ns#"
   xmlns:rdf="http://www.w3.org/1999/02/22-rdf-syntax-ns#"
   xmlns:svg="http://www.w3.org/2000/svg"
   xmlns="http://www.w3.org/2000/svg"
   xmlns:sodipodi="http://sodipodi.sourceforge.net/DTD/sodipodi-0.dtd"
   xmlns:inkscape="http://www.inkscape.org/namespaces/inkscape"
   version="1.1"
   id="svg869"
   width="128"
   height="128"
   viewBox="0 0 128 128"
   sodipodi:docname="lock_switch_critical.svg"
   inkscape:version="0.92.5 (2060ec1f9f, 2020-04-08)">
  <metadata
     id="metadata875">
    <rdf:RDF>
      <cc:Work
         rdf:about="">
        <dc:format>image/svg+xml</dc:format>
        <dc:type
           rdf:resource="http://purl.org/dc/dcmitype/StillImage" />
        <dc:title></dc:title>
      </cc:Work>
    </rdf:RDF>
  </metadata>
  <defs
     id="defs873" />
  <sodipodi:namedview
     pagecolor="#ffffff"
     bordercolor="#666666"
     borderopacity="1"
     objecttolerance="10"
     gridtolerance="10"
     guidetolerance="10"
     inkscape:pageopacity="0"
     inkscape:pageshadow="2"
     inkscape:window-width="1848"
     inkscape:window-height="1016"
     id="namedview871"
     showgrid="false"
     inkscape:zoom="4.75461"
     inkscape:cx="3.6213768"
     inkscape:cy="27.627506"
     inkscape:window-x="72"
     inkscape:window-y="27"
     inkscape:window-maximized="1"
     inkscape:current-layer="svg869"
     fit-margin-top="0"
     fit-margin-left="0"
     fit-margin-right="0"
     fit-margin-bottom="0" />
  <path
     inkscape:connector-curvature="0"
     id="path881"
     d="M 57.557466,127.24241 C 53.130348,126.8029 47.593809,125.6412 43.354634,124.2623 31.564453,120.42724 20.713829,112.83091 13.581321,103.41851 7.3187522,95.154127 3.1025891,85.648097 1.4105179,75.977445 0.55865926,71.108841 0.1563829,64.266945 0.45917909,59.797128 0.86544898,53.799853 1.6321747,49.664534 3.2101827,44.959646 7.191507,33.089182 14.061497,23.123624 23.150458,16.034424 32.812469,8.4982566 43.011312,4.0944957 55.207657,2.192437 c 2.409256,-0.3757312 3.420684,-0.4251288 8.654588,-0.4226856 6.424852,0.003 8.252251,0.1829012 13.266458,1.3060427 9.928329,2.2238641 19.420448,6.783211 27.341227,13.1328039 11.83403,9.486603 19.91917,23.889702 21.98637,39.167165 0.51939,3.838539 0.46289,13.393776 -0.10458,17.685462 -1.29496,9.793551 -4.61867,18.558023 -10.23796,26.997045 -5.6539,8.49101 -12.49702,14.68519 -21.965027,19.88208 -10.536191,5.78321 -24.27463,8.52482 -36.591267,7.30206 z m 11.196502,-3.93842 c 8.101359,-0.78983 15.332299,-2.84935 22.012757,-6.26968 11.506765,-5.89136 20.147015,-14.67017 25.872695,-26.287622 2.35293,-4.774127 3.91185,-9.070708 4.44756,-12.258063 0.20151,-1.199005 0.19067,-1.399961 -0.0995,-1.842795 -0.39713,-0.606094 -1.00884,-0.856528 -2.09216,-0.856528 -1.01466,0 -1.32707,0.291342 -1.67677,1.563719 -1.00102,3.642099 -1.31503,4.674358 -1.91605,6.298877 -1.05225,2.844151 -3.25466,7.258377 -5.02586,10.073184 -5.67621,9.020708 -12.512218,15.187808 -22.047621,19.890238 -6.779205,3.3432 -13.349381,5.03459 -21.884046,5.63371 -6.53683,0.45888 -15.324143,-0.95577 -22.42592,-3.6103 C 32.433388,111.34557 22.82491,103.42793 16.638296,93.158669 13.09513,87.277308 11.057301,81.978849 9.5799479,74.806594 8.8391317,71.210081 8.6347947,70.897578 7.023948,70.897578 c -0.7586451,0 -1.0320621,0.09329 -1.4249445,0.486168 -0.4573069,0.457307 -0.4786943,0.56062 -0.3602728,1.740325 0.3171474,3.159397 1.6235687,8.468955 2.9577755,12.020993 3.9087348,10.406166 10.7306298,19.650666 19.2600258,26.099686 11.754657,8.88761 27.292031,13.42467 41.297436,12.05924 z m 2.163647,-12.70894 c 5.821613,-0.96554 10.493982,-2.50067 15.497907,-5.09193 6.286967,-3.25568 11.552533,-7.529807 16.051698,-13.029365 5.17494,-6.325592 7.61356,-11.886947 8.90416,-20.30621 l 0.10815,-0.705537 h 3.29332 c 3.56855,0 4.00906,-0.0977 4.76317,-1.056401 0.27107,-0.3446 0.3929,-0.771992 0.3929,-1.378253 0,-0.863397 -0.12775,-1.04964 -7.30646,-10.651755 -4.01855,-5.375146 -7.49111,-9.935465 -7.71679,-10.134041 -0.59001,-0.519158 -2.2034,-0.610293 -2.97272,-0.167921 -0.326,0.187454 -1.24916,1.187471 -2.051467,2.222259 -0.802306,1.034788 -2.869142,3.617053 -4.592969,5.738368 -7.556584,9.299024 -8.874394,10.944741 -9.226681,11.522538 -0.664108,1.089221 -0.419377,2.334419 0.656597,3.340776 0.493916,0.461958 0.565644,0.471399 4.015921,0.528619 1.932163,0.03204 3.578116,0.122534 3.657672,0.201091 0.219674,0.216914 -0.865054,4.233815 -1.635059,6.054842 -2.516253,5.950833 -7.190945,11.223938 -12.983133,14.645123 -5.589718,3.301596 -12.274539,4.750407 -19.361271,4.196203 -4.668089,-0.36506 -8.181713,-1.221952 -12.824704,-3.127657 l -1.881432,-0.772228 -0.09407,-1.408799 c -0.05174,-0.77484 -0.162567,-1.51463 -0.246283,-1.643979 -0.114641,-0.177133 -1.241423,-0.235179 -4.565235,-0.235179 h -4.413025 l -0.649098,0.611465 c -0.984599,0.927516 -5.530028,7.629392 -5.665969,8.354026 -0.170343,0.908007 0.05328,1.565882 0.754253,2.218945 0.663673,0.6183 9.835217,5.288 12.62171,6.42635 5.015161,2.04881 10.489709,3.47617 15.427744,4.02242 2.629799,0.29091 9.277771,0.0846 12.041166,-0.37377 z m 7.661836,-25.074337 c 0.551536,-0.32421 1.070649,-0.832903 1.368335,-1.340865 l 0.479656,-0.818472 -0.05133,-11.373566 -0.05133,-11.373566 -0.506773,-0.664296 c -1.028607,-1.34833 -0.18908,-1.281679 -16.143902,-1.281679 -16.077195,0 -15.186568,-0.07608 -16.150071,1.379519 l -0.500604,0.756281 -0.05282,11.08483 -0.05282,11.084831 0.451995,0.987291 c 0.663871,1.450083 1.354456,1.8676 3.322047,2.008457 0.879784,0.06298 7.314457,0.105315 14.299274,0.09407 l 12.699667,-0.02044 z M 60.436898,80.95583 c -0.11308,-0.11308 -0.09633,-0.316811 0.40924,-4.978385 l 0.357088,-3.292506 -0.824359,-0.846644 c -2.588806,-2.658795 -2.005093,-6.441951 1.25018,-8.102669 1.860091,-0.948947 3.935555,-0.567391 5.517245,1.014297 2.11079,2.110792 2.133433,4.922068 0.05594,6.945608 l -0.95659,0.931748 0.320259,3.321337 c 0.176144,1.826734 0.370434,3.723492 0.431757,4.215016 l 0.111497,0.89368 h -3.285387 c -1.806963,0 -3.331055,-0.04567 -3.386871,-0.101482 z M 24.983914,78.352541 c 0.82719,-0.345623 1.935301,-1.623183 8.42444,-9.712681 3.029772,-3.776975 6.168477,-7.664919 6.974904,-8.639874 1.314622,-1.589355 1.46623,-1.854224 1.46623,-2.561598 0,-0.515183 -0.136336,-0.962271 -0.3929,-1.288438 -0.766971,-0.975049 -1.163417,-1.056402 -5.147982,-1.056402 H 32.63047 v -0.493566 c 0,-0.27146 0.29118,-1.363744 0.647066,-2.427295 2.122718,-6.343652 6.604089,-11.921046 13.069736,-16.266248 2.91615,-1.959783 7.550402,-3.845508 11.588461,-4.715469 2.391916,-0.515315 8.234792,-0.714546 10.946293,-0.373248 3.572859,0.449719 9.285263,2.160001 11.819037,3.538597 l 0.940716,0.511833 0.09407,1.78736 0.09407,1.787361 4.532933,0.05031 c 4.334387,0.04811 4.554545,0.03332 5.02631,-0.337775 0.629966,-0.495532 5.581158,-7.787301 5.795769,-8.535603 0.221347,-0.771795 -0.09035,-1.811352 -0.723876,-2.414267 C 95.900294,26.671877 91.250614,24.109189 86.76547,21.861781 78.750447,17.845627 71.789844,16.089008 63.862245,16.081789 51.301416,16.07035 38.614674,21.53618 29.243892,30.996418 22.678377,37.62461 18.219798,45.374064 16.732908,52.741758 c -0.167066,0.82783 -0.342976,1.695641 -0.390913,1.928468 -0.0867,0.421119 -0.105796,0.423322 -3.667635,0.423322 -2.8645566,0 -3.6931337,0.05826 -4.1438861,0.291349 -0.8004252,0.413915 -1.2977953,1.324116 -1.298636,2.376535 -6.961e-4,0.865282 0.1138457,1.033015 6.6164311,9.689376 3.639424,4.844868 6.958786,9.222432 7.376361,9.727919 1.132097,1.370439 2.366337,1.755824 3.759284,1.173814 z m 96.552776,-23.15637 c 0.57153,-0.571523 0.57114,-0.668289 -0.0145,-3.672039 -0.91142,-4.674314 -2.41214,-8.878873 -4.91792,-13.778529 C 110.09733,25.022433 99.089335,15.24445 85.028357,9.6979634 72.882246,4.9068144 60.488545,4.2688755 48.058214,7.7950053 37.873958,10.683988 28.571122,16.080499 21.33434,23.297344 c -3.125608,3.116997 -4.948061,5.331753 -7.464211,9.070962 -3.462201,5.145126 -7.5797104,14.642342 -7.5797104,17.482936 0,0.881863 0.3966377,1.103155 1.9772603,1.103155 1.5360996,0 1.7858551,-0.318015 2.8813231,-3.668793 C 15.273117,34.670906 24.095733,24.09175 36.222685,17.21987 47.612367,10.765773 60.557622,8.3861197 72.704976,10.513535 c 13.309398,2.33093 26.431266,9.993788 34.414584,20.097297 5.1733,6.547202 8.76223,13.947081 10.45577,21.558342 0.2753,1.23726 0.57947,2.397054 0.67595,2.577319 0.31736,0.59299 0.98693,0.911485 1.9162,0.911485 0.71256,0 1.00657,-0.09916 1.36921,-0.461807 z M 55.213813,51.942149 c 0.0078,-3.529514 0.211027,-5.080104 0.832069,-6.349469 2.043385,-4.176531 7.486533,-5.838962 11.861442,-3.622692 1.587428,0.80417 3.03605,2.406151 3.700888,4.092685 0.352644,0.894574 0.42272,1.544656 0.517162,4.797653 l 0.109244,3.762864 h 2.35179 2.35179 l 0.05544,-3.198435 c 0.03049,-1.759139 -0.03197,-3.860352 -0.138807,-4.669363 -0.619879,-4.694006 -4.09781,-8.739536 -8.947508,-10.407742 -1.361051,-0.468178 -1.75731,-0.51787 -4.139151,-0.519074 -2.330641,-0.0011 -2.800134,0.05433 -4.076433,0.481912 -3.393492,1.136889 -6.334414,3.567575 -7.815656,6.459679 -1.282638,2.504333 -1.404495,3.106706 -1.51126,7.470656 -0.05242,2.142765 -0.0452,4.026549 0.01607,4.186186 0.09218,0.240208 0.517893,0.290253 2.469077,0.290253 h 2.357689 l 0.0062,-2.775113 z"
     style="fill:#252525;stroke-width:0.18814322"
     sodipodi:nodetypes="ssssssssssscsssssscccscccsssssscsssscssccscssccssccccsssscccscsccssccccccccsscccccscccsccscscsscscccssscscsssssscccscccsssscsccssccccssssssssssccsccssssccccccccsccsccc" />
  <path
     style="opacity:0.9;fill:#d46000;fill-opacity:1;stroke:#000000;stroke-width:1.08506382;stroke-linecap:butt;stroke-linejoin:round;stroke-miterlimit:2;stroke-dasharray:none;stroke-opacity:1;paint-order:normal"
     d="m 118.7739,55.067585 c -0.41447,-0.372106 -0.66813,-1.05554 -1.18711,-3.198403 C 113.90572,36.669817 104.4892,24.465041 90.498145,16.759498 84.525314,13.469976 78.054704,11.256924 71.263289,10.180871 67.923181,9.6516534 59.780126,9.6517855 56.391215,10.181112 42.200994,12.397534 29.497977,19.461221 20.584683,30.091825 c -3.723264,4.440618 -7.086412,10.399719 -9.28797,16.457181 -0.620019,1.705949 -1.2796,3.334152 -1.4657355,3.61823 -0.5916403,0.902957 -2.8037002,0.956406 -3.3558383,0.08108 C 5.7291411,49.065669 9.8769453,38.913341 13.378324,33.351819 22.959901,18.132625 40.221508,7.709058 58.872373,5.8798548 61.938583,5.579133 68.725165,5.7567553 71.744735,6.2167576 89.461858,8.9157901 105.65377,19.540839 114.54928,34.304877 c 1.67035,2.772309 3.76222,7.09023 4.83173,9.973375 0.96127,2.591363 2.1708,7.327301 2.34473,9.180858 0.12135,1.293154 0.0963,1.41244 -0.36445,1.735158 -0.72091,0.504942 -1.95093,0.444718 -2.58739,-0.126683 z"
     id="path843"
     inkscape:connector-curvature="0" />
  <path
     style="opacity:0.9;fill:#ff0000;fill-opacity:1;stroke:#000000;stroke-width:1.08506382;stroke-linecap:butt;stroke-linejoin:round;stroke-miterlimit:2;stroke-dasharray:none;stroke-opacity:1;paint-order:normal"
     d="M 22.409441,78.070601 C 21.670819,77.620187 20.852793,76.589388 14.210837,67.739497 7.8749034,59.297356 7.3861447,58.578458 7.3861447,57.701298 c 0,-0.887351 0.4906026,-1.860245 1.1034675,-2.18824 0.2858231,-0.15297 1.8843668,-0.289502 4.1045268,-0.350576 2.000009,-0.05502 3.677697,-0.16688 3.728196,-0.24859 0.0505,-0.08171 0.29307,-1.077464 0.539049,-2.212793 2.276857,-10.508978 10.082401,-21.241342 20.52291,-28.218316 13.153383,-8.78988 28.804101,-10.660616 43.299134,-5.17556 3.617353,1.36884 11.764273,5.440671 15.001531,7.497767 0.89498,0.56871 1.508761,1.553826 1.508761,2.42156 0,0.444137 -4.120927,6.733196 -5.336076,8.143531 -0.930099,1.079498 -1.488036,1.165082 -6.436401,0.987305 l -3.565084,-0.12808 -0.06056,-1.702616 -0.06056,-1.702616 -1.261933,-0.673406 c -1.600051,-0.853837 -5.572829,-2.172632 -8.833532,-2.932361 -2.345461,-0.546482 -2.828644,-0.587043 -6.835471,-0.573809 -4.925012,0.01627 -6.879014,0.286592 -10.437939,1.444033 -9.977445,3.244887 -18.147184,11.018586 -21.190889,20.163633 -0.302756,0.909658 -0.550467,1.927092 -0.550467,2.260963 v 0.607038 l 2.89193,0.01535 c 3.965826,0.02106 5.04597,0.194611 5.660969,0.909589 0.680998,0.791707 0.651048,1.872576 -0.07872,2.841005 -1.020403,1.354106 -12.750507,15.859298 -14.020871,17.337903 -0.679856,0.791297 -1.531888,1.619088 -1.893406,1.839533 -0.834884,0.509091 -1.947353,0.511918 -2.775267,0.007 z"
     id="path845"
     inkscape:connector-curvature="0" />
  <path
     style="opacity:0.9;fill:#ff0000;fill-opacity:1;stroke:#000000;stroke-width:1.08506382;stroke-linecap:butt;stroke-linejoin:round;stroke-miterlimit:2;stroke-dasharray:none;stroke-opacity:1;paint-order:normal"
     d="m 50.975419,54.55109 c -0.467579,-0.09006 -0.473206,-0.131751 -0.471636,-3.494255 0.0019,-4.080518 0.224244,-5.618694 1.071318,-7.411529 1.644312,-3.480192 4.460259,-5.92742 8.36721,-7.271608 0.882298,-0.303555 1.753005,-0.392852 3.830572,-0.392852 2.34661,0 2.876178,0.06762 4.16191,0.531406 3.385869,1.221351 5.812722,3.262772 7.525338,6.330165 1.094336,1.960021 1.332337,3.343799 1.332337,7.746465 v 3.900317 h -2.208383 c -1.958548,0 -2.209708,-0.04164 -2.220092,-0.368064 -0.17931,-5.637054 -0.360309,-7.374996 -0.888138,-8.527927 -2.559058,-5.589719 -11.035973,-6.307782 -14.766849,-1.250871 -1.163376,1.576865 -1.403208,2.635216 -1.524881,6.729126 l -0.107827,3.628058 -1.813827,-0.02864 c -0.997605,-0.01575 -2.026779,-0.06966 -2.287052,-0.119789 z"
     id="path847"
     inkscape:connector-curvature="0" />
  <path
     style="opacity:0.9;fill:#ff0000;fill-opacity:1;stroke:#000000;stroke-width:1.08506382;stroke-linecap:butt;stroke-linejoin:round;stroke-miterlimit:2;stroke-dasharray:none;stroke-opacity:1;paint-order:normal"
     d="m 58.693,110.84113 c -3.847407,-0.40863 -9.938539,-1.94558 -13.974666,-3.52618 -4.5355,-1.77615 -13.080051,-6.15589 -14.039007,-7.19606 -0.347087,-0.376489 -0.578386,-0.865543 -0.578386,-1.222933 0,-0.879319 3.63598,-6.519775 5.543393,-8.599405 l 0.819846,-0.893869 h 3.955643 c 2.175604,0 4.198417,0.0923 4.495141,0.205116 0.451822,0.171783 0.539497,0.338411 0.539497,1.025321 0,2.037845 -0.02205,2.01447 3.018071,3.199196 5.268497,2.053115 9.348308,2.818643 14.964476,2.807907 3.837825,-0.0073 6.104922,-0.308655 9.406292,-1.250172 10.050139,-2.8662 18.394577,-11.166018 21.081578,-20.968854 0.72831,-2.657055 0.715146,-2.811029 -0.254055,-2.971228 -0.433789,-0.0717 -1.97177,-0.134761 -3.417735,-0.140133 -2.865173,-0.01064 -3.336253,-0.14769 -4.007408,-1.165816 -0.805422,-1.221812 -0.589047,-1.93478 1.3258,-4.368548 4.829468,-6.138254 13.66755,-16.97313 14.16297,-17.362831 0.40257,-0.316658 0.8642,-0.44343 1.61472,-0.44343 0.9177,0 1.13417,0.08838 1.7068,0.69688 0.36069,0.383283 3.16847,4.050776 6.23952,8.149984 9.06238,12.096397 8.8058,11.700093 8.39025,12.959227 -0.41645,1.261858 -0.91544,1.421829 -4.8026,1.539672 l -3.46884,0.105161 -0.36052,2.04563 c -1.2038,6.83068 -3.36054,11.891791 -7.34355,17.232744 -8.725446,11.700221 -22.484375,19.244471 -36.758054,20.155041 -3.722888,0.2375 -5.93748,0.23417 -8.259176,-0.0124 z"
     id="path849"
     inkscape:connector-curvature="0" />
  <path
     style="opacity:0.9;fill:#ff0000;fill-opacity:1;stroke:#000000;stroke-width:1.08506382;stroke-linecap:butt;stroke-linejoin:round;stroke-miterlimit:2;stroke-dasharray:none;stroke-opacity:1;paint-order:normal"
     d="M 51.764127,85.842029 C 48.673471,85.700976 48.251158,85.505572 47.482768,83.86104 l -0.506258,-1.083506 0.105993,-11.089218 0.105994,-11.089218 0.673444,-0.77906 0.673444,-0.77906 3.034046,-0.188044 c 4.371751,-0.270952 26.197794,-0.07427 27.030562,0.243581 0.357916,0.136609 0.854947,0.524566 1.104518,0.862127 0.447246,0.604932 0.455753,0.776311 0.59244,11.932592 l 0.13868,11.318844 -0.595719,0.900192 c -0.327646,0.495106 -0.990045,1.131283 -1.471997,1.413724 L 77.491637,86.037528 65.942396,85.99977 C 59.590313,85.979003 53.210092,85.90802 51.764127,85.842029 Z m 15.344374,-5.220298 c -0.005,-0.318112 -0.184233,-2.234673 -0.398229,-4.259024 l -0.389082,-3.680639 0.914336,-0.946449 c 1.108232,-1.147156 1.566219,-2.179378 1.56008,-3.516142 -0.0082,-1.791705 -1.309669,-3.719574 -3.118737,-4.619893 -1.073406,-0.534202 -3.035612,-0.494278 -4.13276,0.08409 -3.178816,1.675723 -3.761606,5.236396 -1.32921,8.121074 l 0.863884,1.024515 -0.346262,3.291559 c -0.414806,3.94315 -0.429079,4.80007 -0.08228,4.940006 0.144597,0.05835 1.658917,0.113555 3.365156,0.122687 l 3.102252,0.01661 -0.0091,-0.578386 z"
     id="path851"
     inkscape:connector-curvature="0" />
  <path
     style="opacity:0.9;fill:#d46000;fill-opacity:1;stroke:#000000;stroke-width:1.08506382;stroke-linecap:butt;stroke-linejoin:round;stroke-miterlimit:2;stroke-dasharray:none;stroke-opacity:1;paint-order:normal"
     d="M 59.063302,123.246 C 51.005488,122.58102 42.078159,119.84185 34.667198,115.76054 22.971077,109.31934 13.854953,98.951811 8.7827793,86.322879 7.223366,82.44018 5.6570653,76.411625 5.3524109,73.119688 5.1910298,71.375889 5.6147925,70.998995 7.6441988,71.081371 c 0.8536196,0.03465 1.1347694,0.646776 1.9503602,4.246369 1.32725,5.857792 2.404038,9.008574 4.630451,13.549137 7.387553,15.066233 21.149985,25.677123 37.886826,29.210893 7.381238,1.55846 13.05013,1.70581 20.474188,0.5322 9.023003,-1.42637 17.146725,-4.83565 24.510039,-10.28611 9.121977,-6.75225 16.343297,-17.353215 19.557877,-28.711159 1.00668,-3.556862 1.08833,-3.680639 2.4277,-3.680639 0.84109,0 1.1615,0.105185 1.57256,0.516246 0.60737,0.607368 0.61242,0.676162 0.19644,2.677418 -1.44199,6.937324 -6.66726,17.090566 -12.16087,23.629844 -3.94851,4.70007 -9.182117,9.09522 -14.774784,12.40777 -10.275864,6.08643 -23.054206,9.04626 -34.851684,8.07266 z"
     id="path853"
     inkscape:connector-curvature="0" />
  <path
     style="opacity:0.45;fill:#000000;fill-opacity:1;stroke:#000000;stroke-width:1.08506382;stroke-linecap:butt;stroke-linejoin:round;stroke-miterlimit:2;stroke-dasharray:none;stroke-opacity:1;paint-order:normal"
     d="m 119.3156,54.648402 c -0.25405,-0.185908 -0.72925,-1.529562 -1.41437,-3.999226 -2.7235,-9.817388 -6.89784,-17.240724 -13.55605,-24.107092 C 96.197468,18.139651 85.589847,12.423635 73.637635,9.9950365 68.182235,8.8865407 59.063846,8.9365835 53.484085,10.105642 38.01974,13.345694 25.063075,21.840666 16.905903,34.087946 14.787101,37.269143 12.072854,42.671424 10.536742,46.764758 9.9822489,48.242337 9.4247956,49.59319 9.297957,49.766651 9.0120118,50.157706 7.7041347,50.369904 7.2888893,50.092615 7.0242514,49.9159 7.0195192,49.70196 7.2549927,48.560155 7.9126385,45.371241 11.913324,36.681919 14.547628,32.720852 17.535698,28.227846 22.173713,23.138516 26.20998,19.923663 36.427538,11.785464 49.116492,6.8982375 61.333786,6.3955196 c 10.127409,-0.4167232 19.521234,1.71494 29.08031,6.5989544 9.140072,4.669933 16.772974,11.390377 22.249004,19.58929 2.03657,3.049234 4.49127,7.761416 5.83933,11.209495 1.19395,3.053912 2.38302,7.732946 2.42416,9.539168 l 0.0335,1.472255 -0.63097,0.06184 c -0.34703,0.03402 -0.80313,-0.06414 -1.01356,-0.218125 z"
     id="path2086"
     inkscape:connector-curvature="0" />
  <path
     style="opacity:0.45;fill:#000000;fill-opacity:1;stroke:#000000;stroke-width:1.08506382;stroke-linecap:butt;stroke-linejoin:round;stroke-miterlimit:2;stroke-dasharray:none;stroke-opacity:1;paint-order:normal"
     d="m 119.20394,54.520753 c -0.21399,-0.213998 -0.59507,-1.18411 -0.84683,-2.155802 C 115.44706,41.133304 110.66058,32.598547 103.26655,25.457006 95.138795,17.6068 85.184546,12.424222 73.520391,9.9699724 70.742299,9.3854355 70.572401,9.3751638 63.752492,9.3794259 56.980035,9.3836576 56.745608,9.3978523 54.077671,9.9651857 41.860734,12.563103 31.867752,17.791796 23.744336,25.836694 17.961229,31.563903 14.560389,36.868939 10.974505,45.756606 9.5107398,49.38457 9.2040398,49.985094 8.7301938,50.151007 c -0.8862907,0.310328 -1.659533,0.01292 -1.659533,-0.638292 0,-1.99612 3.6375842,-10.512528 6.5883282,-15.424769 2.616378,-4.355607 7.328132,-9.806063 11.49885,-13.301622 C 35.60629,12.029275 48.701907,6.8497894 61.544109,6.3950863 77.946024,5.8143446 93.658362,12.120488 105.6188,24.084453 c 5.07607,5.077562 7.90592,9.067565 11.0478,15.577031 1.90048,3.93749 2.62246,5.909557 3.62618,9.904833 0.74985,2.984754 0.9751,4.635245 0.69454,5.089196 -0.23921,0.387052 -1.34513,0.303484 -1.78338,-0.13476 z"
     id="path2088"
     inkscape:connector-curvature="0" />
  <path
     style="opacity:0.45;fill:#000000;fill-opacity:1;stroke:#000000;stroke-width:1.08506382;stroke-linecap:butt;stroke-linejoin:round;stroke-miterlimit:2;stroke-dasharray:none;stroke-opacity:1;paint-order:normal"
     d="M 58.82911,127.25906 C 50.187844,126.53475 41.149822,123.95417 33.89626,120.14009 19.90597,112.7837 9.9538247,101.39897 4.3263047,86.313619 2.7567774,82.106284 1.7350842,77.899453 1.0412128,72.787229 0.50546142,68.839982 0.4933203,58.22675 1.0205816,54.752364 2.504472,44.974277 6.6722628,34.944937 12.453301,27.240753 16.939686,21.261908 21.410687,17.09333 28.078405,12.672547 35.672664,7.6374543 43.375371,4.5562642 53.236382,2.6090064 56.117226,2.0401251 56.34461,2.0274311 63.752492,2.0219323 c 8.328666,-0.00618 8.825426,0.044056 14.617392,1.4782985 5.057319,1.2523246 8.848259,2.6325928 13.565781,4.939256 12.578445,6.1503132 22.015165,15.2892082 28.114965,27.2276762 4.36496,8.543049 6.35792,16.141936 6.61888,25.236862 0.41063,14.311385 -2.22183,25.091993 -8.84727,36.231954 -2.84219,4.778831 -5.54723,8.241251 -9.57197,12.252051 -9.865615,9.8314 -23.030686,15.98712 -37.767468,17.65929 -2.729541,0.30971 -9.103184,0.42552 -11.653692,0.21174 z m 9.129826,-3.47175 c 7.316961,-0.40962 15.73235,-2.72966 22.83318,-6.29487 9.733604,-4.88707 17.722994,-12.23324 23.397054,-21.513359 3.75169,-6.136011 7.02901,-14.054421 7.43916,-17.973899 0.11776,-1.12536 0.0877,-1.234396 -0.50274,-1.824852 -1.17344,-1.173436 -3.18158,-1.111017 -3.90127,0.121263 -0.21336,0.365324 -0.80252,2.019184 -1.30925,3.675244 C 108.68778,103.59668 88.091087,118.7726 63.331847,118.72087 51.073164,118.69526 38.547566,114.2338 28.947694,106.47366 23.021996,101.68358 18.269521,95.658014 14.737007,88.456233 12.637996,84.176952 11.839111,81.923184 10.453699,76.372415 9.0839672,70.884472 8.8588449,70.473685 7.2210338,70.473685 c -1.1824652,0 -1.9768187,0.383413 -2.2723058,1.096784 -0.5303708,1.280427 0.6918142,7.488118 2.5377431,12.889642 1.6868858,4.936134 5.7197419,12.311355 9.0344459,16.522049 4.169331,5.29633 9.646338,10.24984 15.052279,13.61358 8.57777,5.33734 19.140479,8.75341 28.708979,9.28472 2.779286,0.15433 3.388171,0.14694 7.676761,-0.0931 z M 65.692051,111.4809 c 7.748951,-0.4489 13.803404,-2.03872 20.354593,-5.34487 5.354399,-2.70218 9.618118,-5.8356 13.784468,-10.130253 4.019458,-4.14324 6.307608,-7.3323 8.404868,-11.714132 1.54369,-3.225234 2.38781,-5.781507 3.11161,-9.422947 l 0.56868,-2.861104 3.06793,-0.118823 c 3.38889,-0.131256 4.33899,-0.387084 4.96054,-1.335689 0.70912,-1.082253 0.51655,-2.109793 -0.74575,-3.979199 -1.62357,-2.404439 -12.81002,-17.276429 -13.69401,-18.205685 -0.91409,-0.960914 -2.00756,-1.229262 -3.25358,-0.798457 -0.70666,0.244323 -1.32776,0.865853 -3.656934,3.659464 -3.944025,4.730463 -11.750957,14.484868 -12.585545,15.72506 -0.839003,1.246754 -0.922924,2.370365 -0.257456,3.447114 0.742006,1.20059 1.399352,1.409003 4.711945,1.493937 1.619481,0.04152 3.057347,0.112152 3.195257,0.156955 0.335521,0.109002 -0.489157,3.18371 -1.487464,5.545822 -3.369433,7.972481 -10.601414,14.473492 -18.954213,17.038419 -3.494261,1.072999 -5.616765,1.354069 -10.095465,1.336886 -5.59623,-0.02147 -9.392003,-0.729593 -14.456191,-2.696888 -2.336114,-0.907515 -2.685068,-1.249356 -2.685068,-2.630346 0,-1.644303 -0.248209,-1.729092 -5.377517,-1.837009 l -4.2731,-0.0899 -0.666824,0.709779 c -1.519647,1.617531 -4.545319,5.973808 -5.63649,8.115256 -1.206178,2.367153 -0.379276,3.15182 7.435883,7.05611 5.964281,2.97963 8.994546,4.15022 13.986425,5.40295 3.647892,0.91545 5.679461,1.28596 8.050886,1.46831 1.182358,0.0909 2.244386,0.1774 2.360063,0.19218 0.115677,0.0148 1.840283,-0.0675 3.832459,-0.18294 z M 78.694382,85.958009 c 0.580253,-0.390766 1.332614,-1.111069 1.67191,-1.600672 l 0.6169,-0.890189 -0.06473,-8.652535 C 80.834652,63.611819 80.68337,60.414963 80.202302,59.68076 79.412664,58.475622 79.162985,58.437918 70.589009,58.229118 63.09692,58.046664 51.184002,58.173948 49.126553,58.458433 48.363605,58.563926 48.018695,58.760329 47.41144,59.435074 L 46.651325,60.279665 46.505069,71.5286 c -0.134632,10.354856 -0.117596,11.315799 0.214335,12.090222 0.558847,1.303836 1.147833,2.015112 1.973737,2.383546 0.824978,0.368022 6.823064,0.540888 21.687308,0.625033 l 7.258923,0.04109 z M 25.053208,78.695872 c 0.462709,-0.215482 1.27903,-0.852257 1.814048,-1.415056 1.395835,-1.468314 13.722318,-16.692219 14.773784,-18.24646 1.107022,-1.636364 0.4836,-3.613268 -1.300412,-4.123661 -0.426352,-0.121977 -2.205838,-0.280888 -3.95441,-0.353133 l -3.179222,-0.131359 0.280378,-1.072694 c 0.60386,-2.310301 1.902619,-5.085319 3.504294,-7.48752 4.611175,-6.915867 11.741018,-11.826615 20.304818,-13.985135 1.904894,-0.480132 6.866073,-0.796345 9.926322,-0.632676 3.657667,0.195616 9.710704,1.788188 12.867436,3.385457 l 0.98423,0.49801 0.14777,1.694016 c 0.114985,1.318151 0.231866,1.739024 0.526779,1.896856 0.627133,0.335633 8.493692,0.256758 9.332139,-0.09357 0.854991,-0.357238 1.927677,-1.670393 4.243286,-5.194529 2.247579,-3.420598 2.488774,-3.933984 2.305981,-4.908346 -0.219076,-1.167778 -1.361327,-2.134396 -4.681301,-3.961502 -11.910729,-6.554918 -19.429755,-8.851507 -28.986314,-8.853489 -5.397448,-0.0011 -9.338091,0.603817 -14.323457,2.198824 -15.993972,5.117075 -29.667654,19.216656 -33.2517,34.287404 l -0.545045,2.291888 -1.494046,0.01071 c -3.273759,0.02347 -6.0133891,0.342404 -6.4669413,0.752863 -1.1847334,1.07217 -1.3283241,2.585182 -0.3990996,4.205304 0.6555934,1.14304 11.1785519,15.26819 13.0480299,17.514595 1.080615,1.298489 2.339427,2.11499 3.26072,2.11499 0.231354,0 0.799224,-0.176305 1.261933,-0.391787 z M 121.69132,55.571338 c 0.48801,-0.368809 0.52875,-0.525871 0.50605,-1.950972 -0.029,-1.82195 -1.15945,-6.512425 -2.30965,-9.583345 C 113.53198,27.067719 99.70278,14.010278 81.735039,8.0134939 76.836545,6.3786074 72.355122,5.5517829 66.83762,5.2649133 62.187186,5.023125 58.194257,5.2299796 54.393154,5.9096015 41.342448,8.2430154 29.898754,14.152491 20.835847,23.238452 c -3.250435,3.258705 -4.809235,5.146656 -7.203191,8.724197 -3.442559,5.144577 -7.8239284,15.137508 -7.8239284,17.844643 0,1.640076 3.1104633,2.243902 4.3223164,0.839078 0.237246,-0.275023 0.944605,-1.86536 1.57191,-3.534081 2.235434,-5.946581 5.686012,-12.163816 9.056163,-16.317349 9.129928,-11.252158 24.354136,-19.223791 38.754182,-20.292297 3.750949,-0.278327 9.622402,-0.06838 12.65208,0.452412 17.471953,3.003349 32.909261,14.129667 40.446251,29.151321 1.93479,3.856161 2.92922,6.513782 4.27999,11.438312 0.46007,1.677319 0.97931,3.270194 1.15387,3.539724 0.70123,1.082806 2.53355,1.327523 3.64583,0.486926 z M 55.356541,55.169526 c 0.135408,-0.09207 0.316518,-1.772779 0.448104,-4.158423 0.263004,-4.768185 0.516289,-5.571955 2.282114,-7.241997 1.273993,-1.20489 2.432553,-1.771176 4.32614,-2.114548 3.783185,-0.686023 7.886279,1.637024 8.78474,4.973653 0.121677,0.451873 0.311655,2.417824 0.422175,4.368783 0.11667,2.059517 0.299444,3.645925 0.435802,3.782603 0.14653,0.146872 1.160552,0.235407 2.696177,0.235407 h 2.461319 l 0.05709,-4.040516 c 0.06981,-4.940193 -0.173747,-6.36912 -1.472573,-8.639586 -1.618137,-2.828655 -4.197856,-5.009647 -7.445521,-6.294729 -1.348813,-0.533717 -1.654359,-0.571317 -4.59962,-0.566004 -2.919439,0.0053 -3.262634,0.04792 -4.59962,0.571694 -4.139694,1.621748 -7.214031,4.693232 -8.566139,8.558193 -0.422519,1.207752 -0.486987,1.857378 -0.553106,5.573538 -0.04463,2.508632 0.0077,4.329221 0.12963,4.510632 0.321835,0.478788 4.612189,0.876405 5.193284,0.4813 z"
     id="path2090"
     inkscape:connector-curvature="0" />
  <path
     style="opacity:0.45;fill:#000000;fill-opacity:1;stroke:#000000;stroke-width:1.08506382;stroke-linecap:butt;stroke-linejoin:round;stroke-miterlimit:2;stroke-dasharray:none;stroke-opacity:1;paint-order:normal"
     d="m 119.07072,54.418886 c -0.17693,-0.270027 -0.73947,-1.997298 -1.25009,-3.83838 -1.07022,-3.858748 -1.76026,-5.794654 -3.21787,-9.027723 C 107.84192,26.556786 93.591953,14.977861 76.687307,10.744275 71.427931,9.4271205 71.029526,9.3852563 63.752492,9.3850887 l -6.73031,-1.55e-4 -3.164418,0.6692943 C 41.465118,12.675353 31.383601,18.104858 23.039403,26.65178 17.363021,32.466069 13.92943,38.0373 10.549432,46.9176 9.4323952,49.8524 9.0517684,50.33495 7.9282237,50.240705 7.2515676,50.183947 7.1692722,50.109922 7.1107622,49.505398 6.9340806,47.679923 10.776877,38.681164 13.874203,33.667302 16.598671,29.257011 21.472795,23.771733 25.894497,20.139813 34.938564,12.711152 46.755032,7.7556982 58.375161,6.518448 61.77936,6.1559865 69.295093,6.3801224 72.527712,6.9405086 90.969582,10.137475 107.13987,21.475943 115.33451,36.956267 c 2.63055,4.969319 3.75324,7.762885 4.88714,12.160607 0.90202,3.498366 1.17396,5.377255 0.81153,5.606943 -0.58183,0.368731 -1.62752,0.206248 -1.96246,-0.304931 z"
     id="path2092"
     inkscape:connector-curvature="0" />
  <path
     style="opacity:0.45;fill:#000000;fill-opacity:1;stroke:#000000;stroke-width:1.08506382;stroke-linecap:butt;stroke-linejoin:round;stroke-miterlimit:2;stroke-dasharray:none;stroke-opacity:1;paint-order:normal"
     d="M 58.915081,122.60344 C 47.656825,121.62571 35.504566,116.72298 26.63541,109.58048 17.342305,102.09656 10.420967,91.397205 7.3091831,79.705023 6.4612418,76.518978 5.9799952,73.835958 6.0594061,72.737334 c 0.064531,-0.892765 0.068585,-0.896828 0.9592709,-0.961257 1.0895808,-0.07882 1.0261857,-0.210676 2.154609,4.481468 0.976422,4.0601 1.864163,6.898437 2.993086,9.56966 8.400263,19.876465 26.331745,32.489645 48.428359,34.064975 8.288634,0.59093 18.56922,-1.34765 26.633579,-5.0222 5.945024,-2.70887 11.118914,-6.30078 15.76242,-10.94286 6.66524,-6.663187 11.36657,-14.561505 14.15378,-23.778614 1.12394,-3.7168 1.04501,-3.575477 1.99692,-3.575477 0.47457,0 0.93166,0.133652 1.08373,0.316878 0.81835,0.986056 -1.42522,7.90101 -4.50335,13.87987 -3.23513,6.283792 -6.19455,10.404083 -10.73457,14.945343 -3.56996,3.57094 -7.049593,6.29066 -11.269914,8.8087 -10.228111,6.10257 -23.115745,9.09453 -34.802245,8.07962 z"
     id="path2094"
     inkscape:connector-curvature="0" />
  <path
     style="opacity:0.45;fill:#000000;fill-opacity:1;stroke:#000000;stroke-width:1.08506382;stroke-linecap:butt;stroke-linejoin:round;stroke-miterlimit:2;stroke-dasharray:none;stroke-opacity:1;paint-order:normal"
     d="M 58.845376,122.61151 C 49.4436,121.77532 38.795313,118.01409 30.928197,112.75049 20.140263,105.53269 12.066519,94.853708 8.1607226,82.636414 7.0466202,79.151512 6.1985297,75.392491 6.0690942,73.365615 L 5.9650031,71.735618 H 6.943682 c 1.1829224,0 1.0518904,-0.270973 2.3222507,4.802402 1.1919653,4.760289 1.8184793,6.723405 3.0970113,9.70416 7.637942,17.807 23.125446,29.76671 42.75995,33.01993 12.999138,2.15381 27.499147,-0.86418 38.934342,-8.10368 4.308909,-2.72793 9.631064,-7.48875 12.799984,-11.44996 4.64647,-5.808167 8.18037,-12.581351 10.34292,-19.823541 1.00116,-3.352799 0.97703,-3.3119 1.9539,-3.3119 1.52485,0 1.61124,0.846091 0.4832,4.732249 -1.82705,6.294276 -6.35371,14.77909 -10.88412,20.401252 -1.74565,2.16633 -5.7281,6.10757 -8.18389,8.0992 -4.587983,3.72083 -11.030005,7.34853 -16.619105,9.35872 -8.104797,2.91499 -17.139343,4.1555 -25.104749,3.44706 z"
     id="path2096"
     inkscape:connector-curvature="0" />
  <path
     style="opacity:0.45;fill:#000000;fill-opacity:1;stroke:#000000;stroke-width:1.08506382;stroke-linecap:butt;stroke-linejoin:round;stroke-miterlimit:2;stroke-dasharray:none;stroke-opacity:1;paint-order:normal"
     d="M 58.599598,122.63925 C 47.181299,121.51582 35.614539,116.82119 26.630625,109.66393 24.34622,107.844 19.987279,103.48803 18.141634,101.18073 11.852378,93.318316 7.5235337,83.651248 6.1273945,74.350823 5.9623933,73.251662 5.8806412,72.213585 5.9457232,72.043984 c 0.1892549,-0.493191 1.8947673,-0.414234 2.1702286,0.10047 0.1203413,0.22486 0.5920889,1.95213 1.0483282,3.83838 1.468885,6.072875 2.48383,8.951526 4.744427,13.456453 5.205433,10.373406 13.370564,18.685313 23.538927,23.962043 7.909841,4.10471 15.953308,6.18781 24.832602,6.43115 11.707318,0.32083 23.020854,-2.90665 32.622016,-9.30629 6.059288,-4.03881 11.002148,-9.00981 15.074868,-15.160711 2.91362,-4.400344 4.85169,-8.479632 6.77656,-14.263474 l 1.47226,-4.423815 0.80934,-0.06651 c 1.08294,-0.08899 1.63212,0.395127 1.47408,1.299432 -0.56431,3.228921 -2.37097,8.229237 -4.47956,12.398118 -3.53844,6.995839 -7.73021,12.65685 -12.69381,17.14306 -9.099936,8.22473 -19.449132,13.01771 -32.11706,14.87427 -2.592501,0.37995 -10.056072,0.56488 -12.619332,0.31269 z"
     id="path2098"
     inkscape:connector-curvature="0" />
  <path
     style="opacity:0.45;fill:#000000;fill-opacity:1;stroke:#000000;stroke-width:1.08506382;stroke-linecap:butt;stroke-linejoin:round;stroke-miterlimit:2;stroke-dasharray:none;stroke-opacity:1;paint-order:normal"
     d="m 58.494437,122.70718 c -2.163826,-0.23335 -6.280709,-0.98101 -8.53339,-1.54972 C 31.833203,116.58088 17.707318,104.90503 10.212432,88.302954 8.3155389,84.101107 6.5700644,78.170371 5.9933546,73.967464 5.7536151,72.220305 5.7624525,72.079296 6.1284641,71.811661 c 0.5133399,-0.375363 1.4639964,-0.365486 1.8486904,0.01921 0.1680653,0.168066 0.7410103,2.090018 1.2732112,4.271006 1.2202533,5.000664 2.1607753,7.855328 3.7095753,11.259275 7.708718,16.942188 22.83953,28.508238 41.433213,31.671688 4.141187,0.70457 7.238815,0.93536 10.726432,0.79919 12.34235,-0.4819 22.970931,-4.17717 32.59994,-11.33411 2.559224,-1.90219 8.078484,-7.44771 10.079904,-10.127867 4.33333,-5.802865 7.21069,-11.606086 9.57081,-19.302968 0.64519,-2.104121 0.82123,-2.466195 1.25154,-2.574197 0.72759,-0.182611 1.79504,0.251943 1.92758,0.784707 0.17175,0.690338 -1.01344,5.075428 -2.12309,7.855261 -3.71769,9.313338 -9.36251,17.504264 -15.9865,23.197224 -6.399179,5.49976 -12.646968,9.04554 -20.350222,11.54927 -6.436781,2.0921 -10.63702,2.77389 -17.600929,2.85704 -2.834091,0.0338 -5.531473,0.0207 -5.994182,-0.0292 z"
     id="path2100"
     inkscape:connector-curvature="0" />
  <path
     style="opacity:0.45;fill:#000000;fill-opacity:1;stroke:#000000;stroke-width:1.08506382;stroke-linecap:butt;stroke-linejoin:round;stroke-miterlimit:2;stroke-dasharray:none;stroke-opacity:1;paint-order:normal"
     d="M 58.864352,127.24556 C 49.796005,126.54852 39.621118,123.45108 31.969229,119.05816 20.68608,112.58054 12.800571,104.15687 7.0631708,92.452354 3.7131957,85.618278 2.0384801,80.120603 1.0406961,72.682068 0.51012288,68.726614 0.50867466,58.345513 1.0382022,54.804682 1.8656819,49.271511 3.2716821,44.475965 5.6219542,39.170554 10.559972,28.023667 17.80198,19.468358 28.000199,12.734128 c 6.542284,-4.3200904 13.01529,-7.1442976 20.9276,-9.1308233 5.452761,-1.369012 8.252814,-1.6927841 14.61437,-1.6898699 6.089162,0.00279 8.238117,0.1731495 12.024898,0.9532832 14.270119,2.9398578 27.573543,10.529782 36.328033,20.726026 7.16381,8.343587 11.953,18.285292 13.9942,29.04999 0.8189,4.318676 1.04387,10.137098 0.6453,16.689371 -0.65285,10.732636 -4.06659,20.742549 -10.32069,30.26277 -6.27105,9.546035 -14.36661,16.544375 -25.0601,21.663625 -9.575867,4.58421 -21.580929,6.81017 -32.289458,5.98706 z m 10.919589,-16.71847 c 11.242653,-1.39149 21.581114,-6.63222 29.745224,-15.078322 6.504515,-6.729191 9.908615,-13.220842 11.534625,-21.996681 0.17872,-0.964615 0.37825,-1.840081 0.44339,-1.94548 0.0651,-0.105399 1.17761,-0.192182 2.47215,-0.192851 3.26144,-0.0017 4.75459,-0.26718 5.3508,-0.951407 0.9588,-1.100347 0.59484,-1.910929 -3.12903,-6.968702 -5.99057,-8.136421 -11.1945,-14.821037 -11.76958,-15.118424 -0.74836,-0.386993 -1.52686,-0.389378 -2.25309,-0.0069 -0.70969,0.373765 -1.67518,1.48209 -6.793289,7.798292 -6.391788,7.888041 -8.677494,10.788872 -9.075594,11.518003 -0.678153,1.242062 -0.332522,2.765928 0.759957,3.350605 0.240615,0.128774 1.921779,0.303044 3.735917,0.38727 1.814141,0.08423 3.390857,0.210257 3.503815,0.280069 0.478886,0.29597 -0.913264,5.009402 -2.285915,7.739474 -3.880976,7.718877 -10.99586,13.640905 -19.294253,16.059446 -7.857437,2.290026 -17.649956,1.433497 -25.932531,-2.268258 L 45.61475,92.605044 45.429443,91.164499 45.244139,89.723954 44.40285,89.575441 c -0.462709,-0.08168 -2.460456,-0.153968 -4.439441,-0.160635 l -3.59815,-0.01212 -1.215793,1.524835 c -2.56128,3.212333 -4.943364,7.081803 -4.943364,8.030028 0,0.758195 0.804594,1.501921 2.986096,2.760211 2.720818,1.56937 8.641554,4.41903 11.515668,5.54251 4.143113,1.61953 10.073644,3.14357 13.942335,3.58293 2.232068,0.25349 7.811548,0.0951 11.13374,-0.31611 z m 8.566091,-25.043921 c 0.415788,-0.304898 1.013706,-0.849107 1.328708,-1.209353 l 0.572728,-0.654994 -0.0035,-9.56966 C 80.246065,68.78585 80.163135,63.497565 80.063752,62.29742 79.843767,59.640864 79.661607,59.392431 77.722165,59.103895 75.767002,58.813019 57.525184,58.628104 52.75214,58.850776 l -4.059721,0.189395 -0.743928,0.743931 -0.743931,0.743928 -0.108816,11.229914 -0.108815,11.229912 0.503886,0.929864 c 0.934508,1.724526 0.984392,1.739339 6.413845,1.904585 2.640054,0.08035 9.050189,0.161645 14.244745,0.180656 l 9.444647,0.03457 z M 24.862846,78.126877 c 0.994169,-0.471764 2.16215,-1.786496 8.17772,-9.205216 8.253171,-10.178248 8.522934,-10.542 8.522934,-11.492387 0,-1.352883 -0.645121,-1.890694 -2.529528,-2.108756 -0.864464,-0.100033 -2.683833,-0.186038 -4.04304,-0.191118 -2.908842,-0.01087 -2.78993,0.1625 -1.853666,-2.702579 2.002833,-6.128906 6.55997,-12.002715 12.422356,-16.011485 3.169686,-2.167472 7.684803,-4.170984 11.40808,-5.062161 2.61408,-0.625688 7.857105,-0.943739 10.852004,-0.658302 3.908575,0.372514 8.826579,1.70395 12.285336,3.32597 1.60201,0.751277 1.629997,0.777775 1.629997,1.543169 0,0.428324 0.06019,1.217879 0.133748,1.754573 l 0.13375,0.975805 h 4.07945 c 3.059746,0 4.259201,-0.0751 4.798559,-0.300464 0.479903,-0.200515 1.127365,-0.851076 1.946417,-1.95573 2.010038,-2.710939 4.062934,-6.065584 4.189624,-6.846282 0.227217,-1.400165 -1.327165,-2.590469 -7.709949,-5.904072 C 80.982578,18.966429 74.595225,16.957651 67.43313,16.408777 58.95014,15.758674 51.24192,17.274512 43.326568,21.149385 33.202335,26.10559 24.746506,34.41323 19.988707,44.07825 c -1.399282,2.842511 -2.804201,6.793525 -3.253246,9.149015 -0.143341,0.751902 -0.353282,1.485401 -0.466536,1.629997 -0.142353,0.18175 -0.928343,0.264188 -2.546288,0.26707 -5.1187066,0.0091 -6.3749539,0.530361 -6.1795423,2.564048 0.1215065,1.264543 0.330347,1.572299 7.9322163,11.689247 5.820813,7.746629 7.022903,9.088302 8.142787,9.088302 0.291637,0 0.851773,-0.152575 1.244748,-0.339052 z M 55.108912,51.807591 c 0.214173,-4.843239 0.58352,-6.273257 2.052345,-7.946158 1.629238,-1.855597 3.930701,-2.849321 6.60549,-2.852114 2.67027,-0.0028 4.718505,0.847821 6.378831,2.649061 1.493123,1.619849 1.737574,2.427023 2.029712,6.702059 0.186097,2.723277 0.335943,3.808447 0.544103,3.940321 0.158001,0.100099 1.115419,0.183448 2.127594,0.185219 l 1.84032,0.0032 v -3.747172 c 0,-4.324531 -0.207332,-5.751467 -1.090479,-7.505066 -1.341464,-2.663646 -3.428243,-4.65479 -6.461676,-6.165538 L 67.156535,36.086007 H 63.748883 60.34123 l -2.247692,1.117366 c -2.950657,1.46682 -4.92632,3.364034 -6.2143,5.967539 -1.091074,2.20548 -1.302121,3.555885 -1.226222,7.84612 l 0.0595,3.363304 0.630966,0.134709 c 0.347032,0.07409 1.307447,0.145905 2.134257,0.159593 l 1.503289,0.02488 z M 9.6213547,50.335335 c 0.2616137,-0.333583 0.2541746,-0.341022 -0.079408,-0.07941 -0.2024351,0.158762 -0.3680638,0.32439 -0.3680638,0.368064 0,0.173103 0.1727136,0.06169 0.447472,-0.288655 z"
     id="path2102"
     inkscape:connector-curvature="0" />
</svg>
