<?xml version="1.0" encoding="UTF-8" standalone="no"?>
<!-- Created with Inkscape (http://www.inkscape.org/) -->

<svg
   xmlns:dc="http://purl.org/dc/elements/1.1/"
   xmlns:cc="http://creativecommons.org/ns#"
   xmlns:rdf="http://www.w3.org/1999/02/22-rdf-syntax-ns#"
   xmlns:svg="http://www.w3.org/2000/svg"
   xmlns="http://www.w3.org/2000/svg"
   xmlns:sodipodi="http://sodipodi.sourceforge.net/DTD/sodipodi-0.dtd"
   xmlns:inkscape="http://www.inkscape.org/namespaces/inkscape"
   version="1.1"
   id="svg869"
   width="128"
   height="128"
   viewBox="0 0 128 128"
   sodipodi:docname="lock_switch.svg"
   inkscape:version="0.92.5 (2060ec1f9f, 2020-04-08)">
  <metadata
     id="metadata875">
    <rdf:RDF>
      <cc:Work
         rdf:about="">
        <dc:format>image/svg+xml</dc:format>
        <dc:type
           rdf:resource="http://purl.org/dc/dcmitype/StillImage" />
        <dc:title />
      </cc:Work>
    </rdf:RDF>
  </metadata>
  <defs
     id="defs873" />
  <sodipodi:namedview
     pagecolor="#ffffff"
     bordercolor="#666666"
     borderopacity="1"
     objecttolerance="10"
     gridtolerance="10"
     guidetolerance="10"
     inkscape:pageopacity="0"
     inkscape:pageshadow="2"
     inkscape:window-width="1848"
     inkscape:window-height="1016"
     id="namedview871"
     showgrid="false"
     inkscape:zoom="3.362017"
     inkscape:cx="43.779251"
     inkscape:cy="80.575062"
     inkscape:window-x="72"
     inkscape:window-y="27"
     inkscape:window-maximized="1"
     inkscape:current-layer="svg869"
     fit-margin-top="0"
     fit-margin-left="0"
     fit-margin-right="0"
     fit-margin-bottom="0" />
  <g
     id="g2180">
    <path
       sodipodi:nodetypes="ssssssssssscsssssscccscccsssssscsssscssccscssccssccccsssscccscsccssccccccccsscccccscccsccscscsscscccssscscsssssscccscccsssscsccssccccssssssssssccsccssssccccccccsccsccc"
       style="fill:#252525;stroke-width:0.18814322"
       d="M 57.557466,127.24241 C 53.130348,126.8029 47.593809,125.6412 43.354634,124.2623 31.564453,120.42724 20.713829,112.83091 13.581321,103.41851 7.3187522,95.154127 3.1025891,85.648097 1.4105179,75.977445 0.55865926,71.108841 0.1563829,64.266945 0.45917909,59.797128 0.86544898,53.799853 1.6321747,49.664534 3.2101827,44.959646 7.191507,33.089182 14.061497,23.123624 23.150458,16.034424 32.812469,8.4982566 43.011312,4.0944957 55.207657,2.192437 c 2.409256,-0.3757312 3.420684,-0.4251288 8.654588,-0.4226856 6.424852,0.003 8.252251,0.1829012 13.266458,1.3060427 9.928329,2.2238641 19.420448,6.783211 27.341227,13.1328039 11.83403,9.486603 19.91917,23.889702 21.98637,39.167165 0.51939,3.838539 0.46289,13.393776 -0.10458,17.685462 -1.29496,9.793551 -4.61867,18.558023 -10.23796,26.997045 -5.6539,8.49101 -12.49702,14.68519 -21.965027,19.88208 -10.536191,5.78321 -24.27463,8.52482 -36.591267,7.30206 z m 11.196502,-3.93842 c 8.101359,-0.78983 15.332299,-2.84935 22.012757,-6.26968 11.506765,-5.89136 20.147015,-14.67017 25.872695,-26.287622 2.35293,-4.774127 3.91185,-9.070708 4.44756,-12.258063 0.20151,-1.199005 0.19067,-1.399961 -0.0995,-1.842795 -0.39713,-0.606094 -1.00884,-0.856528 -2.09216,-0.856528 -1.01466,0 -1.32707,0.291342 -1.67677,1.563719 -1.00102,3.642099 -1.31503,4.674358 -1.91605,6.298877 -1.05225,2.844151 -3.25466,7.258377 -5.02586,10.073184 -5.67621,9.020708 -12.512218,15.187808 -22.047621,19.890238 -6.779205,3.3432 -13.349381,5.03459 -21.884046,5.63371 -6.53683,0.45888 -15.324143,-0.95577 -22.42592,-3.6103 C 32.433388,111.34557 22.82491,103.42793 16.638296,93.158669 13.09513,87.277308 11.057301,81.978849 9.5799479,74.806594 8.8391317,71.210081 8.6347947,70.897578 7.023948,70.897578 c -0.7586451,0 -1.0320621,0.09329 -1.4249445,0.486168 -0.4573069,0.457307 -0.4786943,0.56062 -0.3602728,1.740325 0.3171474,3.159397 1.6235687,8.468955 2.9577755,12.020993 3.9087348,10.406166 10.7306298,19.650666 19.2600258,26.099686 11.754657,8.88761 27.292031,13.42467 41.297436,12.05924 z m 2.163647,-12.70894 c 5.821613,-0.96554 10.493982,-2.50067 15.497907,-5.09193 6.286967,-3.25568 11.552533,-7.529807 16.051698,-13.029365 5.17494,-6.325592 7.61356,-11.886947 8.90416,-20.30621 l 0.10815,-0.705537 h 3.29332 c 3.56855,0 4.00906,-0.0977 4.76317,-1.056401 0.27107,-0.3446 0.3929,-0.771992 0.3929,-1.378253 0,-0.863397 -0.12775,-1.04964 -7.30646,-10.651755 -4.01855,-5.375146 -7.49111,-9.935465 -7.71679,-10.134041 -0.59001,-0.519158 -2.2034,-0.610293 -2.97272,-0.167921 -0.326,0.187454 -1.24916,1.187471 -2.051467,2.222259 -0.802306,1.034788 -2.869142,3.617053 -4.592969,5.738368 -7.556584,9.299024 -8.874394,10.944741 -9.226681,11.522538 -0.664108,1.089221 -0.419377,2.334419 0.656597,3.340776 0.493916,0.461958 0.565644,0.471399 4.015921,0.528619 1.932163,0.03204 3.578116,0.122534 3.657672,0.201091 0.219674,0.216914 -0.865054,4.233815 -1.635059,6.054842 -2.516253,5.950833 -7.190945,11.223938 -12.983133,14.645123 -5.589718,3.301596 -12.274539,4.750407 -19.361271,4.196203 -4.668089,-0.36506 -8.181713,-1.221952 -12.824704,-3.127657 l -1.881432,-0.772228 -0.09407,-1.408799 c -0.05174,-0.77484 -0.162567,-1.51463 -0.246283,-1.643979 -0.114641,-0.177133 -1.241423,-0.235179 -4.565235,-0.235179 h -4.413025 l -0.649098,0.611465 c -0.984599,0.927516 -5.530028,7.629392 -5.665969,8.354026 -0.170343,0.908007 0.05328,1.565882 0.754253,2.218945 0.663673,0.6183 9.835217,5.288 12.62171,6.42635 5.015161,2.04881 10.489709,3.47617 15.427744,4.02242 2.629799,0.29091 9.277771,0.0846 12.041166,-0.37377 z m 7.661836,-25.074337 c 0.551536,-0.32421 1.070649,-0.832903 1.368335,-1.340865 l 0.479656,-0.818472 -0.05133,-11.373566 -0.05133,-11.373566 -0.506773,-0.664296 c -1.028607,-1.34833 -0.18908,-1.281679 -16.143902,-1.281679 -16.077195,0 -15.186568,-0.07608 -16.150071,1.379519 l -0.500604,0.756281 -0.05282,11.08483 -0.05282,11.084831 0.451995,0.987291 c 0.663871,1.450083 1.354456,1.8676 3.322047,2.008457 0.879784,0.06298 7.314457,0.105315 14.299274,0.09407 l 12.699667,-0.02044 z M 60.436898,80.95583 c -0.11308,-0.11308 -0.09633,-0.316811 0.40924,-4.978385 l 0.357088,-3.292506 -0.824359,-0.846644 c -2.588806,-2.658795 -2.005093,-6.441951 1.25018,-8.102669 1.860091,-0.948947 3.935555,-0.567391 5.517245,1.014297 2.11079,2.110792 2.133433,4.922068 0.05594,6.945608 l -0.95659,0.931748 0.320259,3.321337 c 0.176144,1.826734 0.370434,3.723492 0.431757,4.215016 l 0.111497,0.89368 h -3.285387 c -1.806963,0 -3.331055,-0.04567 -3.386871,-0.101482 z M 24.983914,78.352541 c 0.82719,-0.345623 1.935301,-1.623183 8.42444,-9.712681 3.029772,-3.776975 6.168477,-7.664919 6.974904,-8.639874 1.314622,-1.589355 1.46623,-1.854224 1.46623,-2.561598 0,-0.515183 -0.136336,-0.962271 -0.3929,-1.288438 -0.766971,-0.975049 -1.163417,-1.056402 -5.147982,-1.056402 H 32.63047 v -0.493566 c 0,-0.27146 0.29118,-1.363744 0.647066,-2.427295 2.122718,-6.343652 6.604089,-11.921046 13.069736,-16.266248 2.91615,-1.959783 7.550402,-3.845508 11.588461,-4.715469 2.391916,-0.515315 8.234792,-0.714546 10.946293,-0.373248 3.572859,0.449719 9.285263,2.160001 11.819037,3.538597 l 0.940716,0.511833 0.09407,1.78736 0.09407,1.787361 4.532933,0.05031 c 4.334387,0.04811 4.554545,0.03332 5.02631,-0.337775 0.629966,-0.495532 5.581158,-7.787301 5.795769,-8.535603 0.221347,-0.771795 -0.09035,-1.811352 -0.723876,-2.414267 C 95.900294,26.671877 91.250614,24.109189 86.76547,21.861781 78.750447,17.845627 71.789844,16.089008 63.862245,16.081789 51.301416,16.07035 38.614674,21.53618 29.243892,30.996418 22.678377,37.62461 18.219798,45.374064 16.732908,52.741758 c -0.167066,0.82783 -0.342976,1.695641 -0.390913,1.928468 -0.0867,0.421119 -0.105796,0.423322 -3.667635,0.423322 -2.8645566,0 -3.6931337,0.05826 -4.1438861,0.291349 -0.8004252,0.413915 -1.2977953,1.324116 -1.298636,2.376535 -6.961e-4,0.865282 0.1138457,1.033015 6.6164311,9.689376 3.639424,4.844868 6.958786,9.222432 7.376361,9.727919 1.132097,1.370439 2.366337,1.755824 3.759284,1.173814 z m 96.552776,-23.15637 c 0.57153,-0.571523 0.57114,-0.668289 -0.0145,-3.672039 -0.91142,-4.674314 -2.41214,-8.878873 -4.91792,-13.778529 C 110.09733,25.022433 99.089335,15.24445 85.028357,9.6979634 72.882246,4.9068144 60.488545,4.2688755 48.058214,7.7950053 37.873958,10.683988 28.571122,16.080499 21.33434,23.297344 c -3.125608,3.116997 -4.948061,5.331753 -7.464211,9.070962 -3.462201,5.145126 -7.5797104,14.642342 -7.5797104,17.482936 0,0.881863 0.3966377,1.103155 1.9772603,1.103155 1.5360996,0 1.7858551,-0.318015 2.8813231,-3.668793 C 15.273117,34.670906 24.095733,24.09175 36.222685,17.21987 47.612367,10.765773 60.557622,8.3861197 72.704976,10.513535 c 13.309398,2.33093 26.431266,9.993788 34.414584,20.097297 5.1733,6.547202 8.76223,13.947081 10.45577,21.558342 0.2753,1.23726 0.57947,2.397054 0.67595,2.577319 0.31736,0.59299 0.98693,0.911485 1.9162,0.911485 0.71256,0 1.00657,-0.09916 1.36921,-0.461807 z M 55.213813,51.942149 c 0.0078,-3.529514 0.211027,-5.080104 0.832069,-6.349469 2.043385,-4.176531 7.486533,-5.838962 11.861442,-3.622692 1.587428,0.80417 3.03605,2.406151 3.700888,4.092685 0.352644,0.894574 0.42272,1.544656 0.517162,4.797653 l 0.109244,3.762864 h 2.35179 2.35179 l 0.05544,-3.198435 c 0.03049,-1.759139 -0.03197,-3.860352 -0.138807,-4.669363 -0.619879,-4.694006 -4.09781,-8.739536 -8.947508,-10.407742 -1.361051,-0.468178 -1.75731,-0.51787 -4.139151,-0.519074 -2.330641,-0.0011 -2.800134,0.05433 -4.076433,0.481912 -3.393492,1.136889 -6.334414,3.567575 -7.815656,6.459679 -1.282638,2.504333 -1.404495,3.106706 -1.51126,7.470656 -0.05242,2.142765 -0.0452,4.026549 0.01607,4.186186 0.09218,0.240208 0.517893,0.290253 2.469077,0.290253 h 2.357689 l 0.0062,-2.775113 z"
       id="path881"
       inkscape:connector-curvature="0" />
    <path
       inkscape:connector-curvature="0"
       id="path2170"
       d="M 119.15067,55.250948 C 118.52829,54.937434 118.27534,54.36841 117.59903,51.760407 115.773,44.718896 112.93355,38.467853 109.09506,33.03895 98.297869,17.768132 78.047388,8.2098169 59.885654,9.8118958 46.483464,10.994127 34.39854,16.417239 24.789865,25.561139 18.694511,31.361659 14.386402,38.040223 11.304247,46.466965 10.567033,48.482538 9.7433874,50.298957 9.4739239,50.503447 8.8509773,50.976187 7.2443841,50.985051 6.7776535,50.518319 6.2311452,49.971811 6.3340743,49.276178 7.4587711,45.91507 9.5056846,39.797957 13.381556,32.767512 17.432559,27.823609 19.712372,25.041293 24.776631,20.180703 27.570273,18.093604 39.306258,9.3257801 54.387686,4.7617297 67.916547,5.8837254 86.55824,7.4297463 103.57326,17.553592 113.78891,33.177538 c 3.43853,5.258924 6.52528,12.770361 7.64221,18.596884 l 0.52507,2.739005 -0.69211,0.560434 c -0.81093,0.656651 -1.11141,0.681829 -2.11341,0.177087 z"
       style="opacity:1;fill:#000000;fill-opacity:1;stroke:#000000;stroke-width:1.53451192;stroke-linecap:butt;stroke-linejoin:round;stroke-miterlimit:2;stroke-dasharray:none;stroke-opacity:1;paint-order:normal" />
    <path
       style="opacity:1;fill:#000000;fill-opacity:1;stroke:#000000;stroke-width:1.53451192;stroke-linecap:butt;stroke-linejoin:round;stroke-miterlimit:2;stroke-dasharray:none;stroke-opacity:1;paint-order:normal"
       d="M 62.066406 1.8886719 C 58.890316 1.95122 55.803721 2.2200758 53.121094 2.703125 C 38.625495 5.3132843 24.545752 13.102461 15.570312 23.480469 C 8.8562707 31.243695 3.6017926 41.788353 1.6953125 51.322266 C -0.52311961 62.41619 0.49156683 75.856219 4.3339844 86.271484 C 12.628576 108.75483 32.082978 123.95615 56.462891 127.00781 C 60.223907 127.47858 70.344166 127.16325 74.386719 126.44922 C 83.172311 124.89744 90.399711 122.17183 97.693359 117.66016 C 113.0688 108.1493 123.73246 91.499567 126.14258 73.242188 C 126.66719 69.268139 126.73981 58.57609 126.26562 55.134766 C 124.83633 44.761589 120.06118 33.768602 113.30273 25.291016 C 104.84328 14.679751 91.685834 6.6485794 77.210938 3.2617188 C 72.897853 2.2525361 67.359891 1.7844249 62.066406 1.8886719 z M 63.826172 4.9921875 C 86.465731 4.9597546 108.3595 18.762806 117.99219 39.140625 C 120.44091 44.320864 123.14294 53.508057 122.61914 54.873047 C 122.52212 55.125889 122.00201 55.602179 121.46484 55.929688 C 120.45491 56.54544 120.2035 56.59285 119.44727 56.316406 C 118.3903 55.930024 117.62195 54.813308 117.04688 52.828125 C 116.71214 51.672637 116.02552 49.454517 115.52148 47.900391 C 110.92481 33.7275 101.41504 22.987044 87.472656 16.21875 C 76.132386 10.713643 65.099689 9.232689 53.3125 11.634766 C 37.999686 14.755318 24.224338 24.320271 16.630859 37.105469 C 15.007739 39.838325 13.642472 42.747301 12.029297 46.910156 C 11.384571 48.573895 10.588928 50.275427 10.261719 50.691406 C 9.1518891 52.102324 6.4742435 51.970226 5.7910156 50.470703 C 5.3849082 49.579396 5.8768658 47.706516 7.8300781 42.716797 C 9.3739444 38.772798 12.389609 33.305059 15.140625 29.458984 C 17.367696 26.345413 23.534754 20.158824 27.017578 17.544922 C 35.406607 11.248853 45.276531 7.1167426 55.835938 5.4785156 C 57.718107 5.1865085 60.829513 4.9964804 63.826172 4.9921875 z M 64.125 16.236328 C 71.179631 16.250235 73.598689 16.61111 79.097656 18.476562 C 84.279964 20.234592 95.64007 26.063851 96.828125 27.574219 C 97.163596 28.000703 97.4375 28.653474 97.4375 29.023438 C 97.4375 29.805383 92.347906 37.568755 91.400391 38.232422 C 90.898148 38.584207 89.783683 38.679688 86.216797 38.679688 L 81.673828 38.679688 L 81.673828 36.890625 C 81.673828 35.203632 81.619812 35.069295 80.738281 34.533203 C 79.522684 33.793953 74.045197 31.97995 71.234375 31.384766 C 68.70216 30.848572 61.002767 30.765884 58.435547 31.248047 C 53.969341 32.08687 48.365724 34.53236 44.884766 37.162109 C 38.869632 41.706345 33.817016 48.791106 33.015625 53.802734 L 32.816406 55.039062 L 36.505859 55.039062 C 39.407691 55.039063 40.342304 55.141141 40.876953 55.515625 C 41.755551 56.13102 42.169341 57.23348 41.84375 58.089844 C 41.70343 58.458917 39.209712 61.704695 36.302734 65.302734 C 27.150888 76.630205 25.822764 78.156993 24.816406 78.507812 C 23.682043 78.903254 23.742042 78.906819 22.591797 78.40625 C 21.92088 78.114279 20.001948 75.811628 15.722656 70.164062 C 7.5868927 59.426948 6.9196235 58.423367 7.1464844 57.289062 C 7.5108921 55.467026 8.1105711 55.203749 12.291016 55.039062 L 16.066406 54.890625 L 16.330078 53.849609 C 17.952996 47.403898 19.671602 43.284233 22.5 39.068359 C 30.170695 27.634791 41.435251 19.871864 54.652344 16.912109 C 57.361622 16.305411 58.493615 16.225228 64.125 16.236328 z M 63.693359 35.855469 C 67.246459 35.855469 67.298636 35.864593 69.572266 36.988281 C 72.387602 38.379699 74.464777 40.388423 75.716797 42.931641 C 76.80241 45.136835 77.196778 47.462027 77.205078 51.693359 L 77.210938 54.742188 L 74.712891 54.742188 L 72.212891 54.742188 L 72.023438 51.246094 C 71.778716 46.752601 71.442122 45.511926 70.039062 43.917969 C 66.43142 39.819468 59.449469 40.391742 56.574219 45.021484 C 55.821733 46.233137 55.688462 46.810069 55.476562 49.753906 C 55.343841 51.59774 55.22815 53.473949 55.21875 53.923828 L 55.201172 54.742188 L 52.871094 54.742188 C 51.58962 54.742187 50.450857 54.652032 50.341797 54.542969 C 50.07158 54.272757 50.115109 49.712211 50.412109 47.154297 C 50.90915 42.873539 53.84332 38.912571 58.027344 36.871094 C 60.045828 35.886228 60.218145 35.855469 63.693359 35.855469 z M 103.32812 47.589844 C 103.63497 47.60815 103.94129 47.717031 104.31055 47.857422 C 105.03527 48.132962 110.53405 55.156623 117.46875 64.666016 C 120.28371 68.526098 120.52946 69.312579 119.35352 70.679688 C 118.69319 71.447363 118.51842 71.485666 115.08789 71.626953 L 111.51172 71.773438 L 111.18164 73.890625 C 109.97892 81.585902 106.29747 88.714982 100.16406 95.230469 C 92.642132 103.22098 83.066928 108.44174 72.154297 110.50195 C 68.57361 111.17795 59.911074 111.35656 56.666016 110.82227 C 50.221527 109.7612 44.948708 107.94289 37.380859 104.16992 C 31.111024 101.04409 29.917969 100.19551 29.917969 98.865234 C 29.917969 97.98343 32.924852 93.158035 35.078125 90.582031 L 36.195312 89.244141 L 40.757812 89.244141 C 45.824503 89.244141 45.683594 89.185323 45.683594 91.320312 L 45.683594 92.455078 L 48.335938 93.515625 C 53.968 95.769816 58.364197 96.521581 64.660156 96.306641 C 71.390039 96.07689 76.041659 94.640732 81.222656 91.189453 C 85.421017 88.392751 89.581263 83.755972 91.777344 79.429688 C 92.662155 77.686611 94.166016 73.210341 94.166016 72.318359 C 94.166016 71.844994 93.765495 71.759225 90.736328 71.578125 C 88.850273 71.465365 87.136139 71.308486 86.927734 71.228516 C 86.408957 71.029442 85.539062 69.502217 85.539062 68.791016 C 85.539063 67.939289 86.294909 66.925369 94.332031 56.966797 C 100.67531 49.107018 101.99845 47.510515 103.32812 47.589844 z M 54.394531 58.65625 C 57.206137 58.638999 60.908691 58.640931 64.822266 58.666016 L 79.052734 58.757812 L 79.767578 59.650391 L 80.480469 60.542969 L 80.482422 72.078125 C 80.484055 84.821728 80.536537 84.447486 78.558594 85.669922 C 77.620904 86.249461 77.144301 86.268956 64.683594 86.228516 C 51.127949 86.184521 49.056957 86.080787 48.232422 85.396484 C 46.914165 84.302426 46.871847 83.8988 46.873047 72.082031 C 46.874094 61.481204 46.907362 60.786397 47.451172 59.894531 C 47.910524 59.141182 48.288263 58.910133 49.308594 58.761719 C 49.660903 58.710499 51.582925 58.673501 54.394531 58.65625 z M 6.9296875 70.785156 C 7.5675907 70.753091 8.2265816 70.928883 8.5878906 71.328125 C 8.8484892 71.616084 9.4185622 73.456534 9.8554688 75.417969 C 11.395238 82.330567 13.648655 88.017218 16.978516 93.388672 C 26.195314 108.25644 41.643454 117.44107 60.064453 119.00781 C 72.262839 120.0453 85.854117 116.11025 96.472656 108.46484 C 105.41347 102.02741 112.50903 91.959797 116.05664 80.679688 C 116.81325 78.273936 117.65163 76.130224 117.91992 75.914062 C 118.46735 75.473005 120.14649 75.626957 120.8125 76.179688 C 122.63298 77.690555 118.10043 89.707567 112.61328 97.917969 C 106.9666 106.36705 99.198149 113.04438 89.703125 117.61133 C 83.66033 120.51782 78.828299 121.99024 72.005859 123 C 70.206344 123.26634 66.993887 123.53496 64.867188 123.59766 C 48.426345 124.08237 30.49538 116.40704 19.699219 104.26562 C 12.052615 95.66621 7.0981119 85.452191 5.3515625 74.685547 C 4.994194 72.48254 4.997668 72.08801 5.390625 71.488281 C 5.6734328 71.056662 6.2917843 70.817221 6.9296875 70.785156 z "
       id="path2172" />
    <path
       inkscape:connector-curvature="0"
       id="path2174"
       d="M 59.741279,122.53554 C 46.925047,121.70624 32.696703,115.49682 23.506166,106.72209 18.207445,101.6631 14.55641,96.662552 11.288637,89.988673 8.466872,84.225692 6.4034928,77.497877 6.3169739,73.778166 6.2729456,71.885255 6.2888332,71.842861 7.076297,71.752005 7.9788751,71.647867 7.8417709,71.300864 9.6965983,78.383841 13.392008,92.495397 21.927423,104.17931 33.933971,111.56177 c 9.682747,5.95363 22.94616,9.22656 33.759496,8.33061 9.261024,-0.76732 18.338786,-3.75009 26.118978,-8.58216 10.704005,-6.64796 18.297955,-16.556691 22.951345,-29.947322 0.85275,-2.453884 1.65236,-4.569403 1.77692,-4.701152 0.12456,-0.13175 0.5967,-0.146625 1.0492,-0.03306 0.80011,0.200815 0.81767,0.249433 0.63909,1.768917 -0.38419,3.268868 -3.41978,10.694289 -6.53778,15.992227 -7.03559,11.95449 -18.486283,21.06964 -32.026869,25.49449 -3.54047,1.15698 -9.646778,2.32047 -13.256536,2.52591 -1.619834,0.0922 -3.480545,0.20675 -4.134914,0.25458 -0.654369,0.0478 -2.6936,-0.0104 -4.531622,-0.12927 z"
       style="opacity:1;fill:#000000;fill-opacity:1;stroke:#000000;stroke-width:1.53451192;stroke-linecap:butt;stroke-linejoin:round;stroke-miterlimit:2;stroke-dasharray:none;stroke-opacity:1;paint-order:normal" />
  </g>
</svg>
