<?xml version="1.0" encoding="UTF-8" standalone="no"?>
<!-- Created with Inkscape (http://www.inkscape.org/) -->

<svg
   xmlns:dc="http://purl.org/dc/elements/1.1/"
   xmlns:cc="http://creativecommons.org/ns#"
   xmlns:rdf="http://www.w3.org/1999/02/22-rdf-syntax-ns#"
   xmlns:svg="http://www.w3.org/2000/svg"
   xmlns="http://www.w3.org/2000/svg"
   xmlns:sodipodi="http://sodipodi.sourceforge.net/DTD/sodipodi-0.dtd"
   xmlns:inkscape="http://www.inkscape.org/namespaces/inkscape"
   version="1.1"
   id="svg869"
   width="128"
   height="128"
   viewBox="0 0 128 128"
   sodipodi:docname="lock_switch_active.svg"
   inkscape:version="0.92.5 (2060ec1f9f, 2020-04-08)">
  <metadata
     id="metadata875">
    <rdf:RDF>
      <cc:Work
         rdf:about="">
        <dc:format>image/svg+xml</dc:format>
        <dc:type
           rdf:resource="http://purl.org/dc/dcmitype/StillImage" />
        <dc:title></dc:title>
      </cc:Work>
    </rdf:RDF>
  </metadata>
  <defs
     id="defs873" />
  <sodipodi:namedview
     pagecolor="#ffffff"
     bordercolor="#666666"
     borderopacity="1"
     objecttolerance="10"
     gridtolerance="10"
     guidetolerance="10"
     inkscape:pageopacity="0"
     inkscape:pageshadow="2"
     inkscape:window-width="1848"
     inkscape:window-height="1016"
     id="namedview871"
     showgrid="false"
     inkscape:zoom="4.7546099"
     inkscape:cx="54.003768"
     inkscape:cy="47.433837"
     inkscape:window-x="72"
     inkscape:window-y="27"
     inkscape:window-maximized="1"
     inkscape:current-layer="g871"
     fit-margin-top="0"
     fit-margin-left="0"
     fit-margin-right="0"
     fit-margin-bottom="0" />
  <g
     id="g871">
    <path
       sodipodi:nodetypes="ssssssssssscsssssscccscccsssssscsssscssccscssccssccccsssscccscsccssccccccccsscccccscccsccscscsscscccssscscsssssscccscccsssscsccssccccssssssssssccsccssssccccccccsccsccc"
       style="fill:#252525;stroke-width:0.18814322"
       d="M 57.557466,127.24241 C 53.130348,126.8029 47.593809,125.6412 43.354634,124.2623 31.564453,120.42724 20.713829,112.83091 13.581321,103.41851 7.3187522,95.154127 3.1025891,85.648097 1.4105179,75.977445 0.55865926,71.108841 0.1563829,64.266945 0.45917909,59.797128 0.86544898,53.799853 1.6321747,49.664534 3.2101827,44.959646 7.191507,33.089182 14.061497,23.123624 23.150458,16.034424 32.812469,8.4982566 43.011312,4.0944957 55.207657,2.192437 c 2.409256,-0.3757312 3.420684,-0.4251288 8.654588,-0.4226856 6.424852,0.003 8.252251,0.1829012 13.266458,1.3060427 9.928329,2.2238641 19.420448,6.783211 27.341227,13.1328039 11.83403,9.486603 19.91917,23.889702 21.98637,39.167165 0.51939,3.838539 0.46289,13.393776 -0.10458,17.685462 -1.29496,9.793551 -4.61867,18.558023 -10.23796,26.997045 -5.6539,8.49101 -12.49702,14.68519 -21.965027,19.88208 -10.536191,5.78321 -24.27463,8.52482 -36.591267,7.30206 z m 11.196502,-3.93842 c 8.101359,-0.78983 15.332299,-2.84935 22.012757,-6.26968 11.506765,-5.89136 20.147015,-14.67017 25.872695,-26.287622 2.35293,-4.774127 3.91185,-9.070708 4.44756,-12.258063 0.20151,-1.199005 0.19067,-1.399961 -0.0995,-1.842795 -0.39713,-0.606094 -1.00884,-0.856528 -2.09216,-0.856528 -1.01466,0 -1.32707,0.291342 -1.67677,1.563719 -1.00102,3.642099 -1.31503,4.674358 -1.91605,6.298877 -1.05225,2.844151 -3.25466,7.258377 -5.02586,10.073184 -5.67621,9.020708 -12.512218,15.187808 -22.047621,19.890238 -6.779205,3.3432 -13.349381,5.03459 -21.884046,5.63371 -6.53683,0.45888 -15.324143,-0.95577 -22.42592,-3.6103 C 32.433388,111.34557 22.82491,103.42793 16.638296,93.158669 13.09513,87.277308 11.057301,81.978849 9.5799479,74.806594 8.8391317,71.210081 8.6347947,70.897578 7.023948,70.897578 c -0.7586451,0 -1.0320621,0.09329 -1.4249445,0.486168 -0.4573069,0.457307 -0.4786943,0.56062 -0.3602728,1.740325 0.3171474,3.159397 1.6235687,8.468955 2.9577755,12.020993 3.9087348,10.406166 10.7306298,19.650666 19.2600258,26.099686 11.754657,8.88761 27.292031,13.42467 41.297436,12.05924 z m 2.163647,-12.70894 c 5.821613,-0.96554 10.493982,-2.50067 15.497907,-5.09193 6.286967,-3.25568 11.552533,-7.529807 16.051698,-13.029365 5.17494,-6.325592 7.61356,-11.886947 8.90416,-20.30621 l 0.10815,-0.705537 h 3.29332 c 3.56855,0 4.00906,-0.0977 4.76317,-1.056401 0.27107,-0.3446 0.3929,-0.771992 0.3929,-1.378253 0,-0.863397 -0.12775,-1.04964 -7.30646,-10.651755 -4.01855,-5.375146 -7.49111,-9.935465 -7.71679,-10.134041 -0.59001,-0.519158 -2.2034,-0.610293 -2.97272,-0.167921 -0.326,0.187454 -1.24916,1.187471 -2.051467,2.222259 -0.802306,1.034788 -2.869142,3.617053 -4.592969,5.738368 -7.556584,9.299024 -8.874394,10.944741 -9.226681,11.522538 -0.664108,1.089221 -0.419377,2.334419 0.656597,3.340776 0.493916,0.461958 0.565644,0.471399 4.015921,0.528619 1.932163,0.03204 3.578116,0.122534 3.657672,0.201091 0.219674,0.216914 -0.865054,4.233815 -1.635059,6.054842 -2.516253,5.950833 -7.190945,11.223938 -12.983133,14.645123 -5.589718,3.301596 -12.274539,4.750407 -19.361271,4.196203 -4.668089,-0.36506 -8.181713,-1.221952 -12.824704,-3.127657 l -1.881432,-0.772228 -0.09407,-1.408799 c -0.05174,-0.77484 -0.162567,-1.51463 -0.246283,-1.643979 -0.114641,-0.177133 -1.241423,-0.235179 -4.565235,-0.235179 h -4.413025 l -0.649098,0.611465 c -0.984599,0.927516 -5.530028,7.629392 -5.665969,8.354026 -0.170343,0.908007 0.05328,1.565882 0.754253,2.218945 0.663673,0.6183 9.835217,5.288 12.62171,6.42635 5.015161,2.04881 10.489709,3.47617 15.427744,4.02242 2.629799,0.29091 9.277771,0.0846 12.041166,-0.37377 z m 7.661836,-25.074337 c 0.551536,-0.32421 1.070649,-0.832903 1.368335,-1.340865 l 0.479656,-0.818472 -0.05133,-11.373566 -0.05133,-11.373566 -0.506773,-0.664296 c -1.028607,-1.34833 -0.18908,-1.281679 -16.143902,-1.281679 -16.077195,0 -15.186568,-0.07608 -16.150071,1.379519 l -0.500604,0.756281 -0.05282,11.08483 -0.05282,11.084831 0.451995,0.987291 c 0.663871,1.450083 1.354456,1.8676 3.322047,2.008457 0.879784,0.06298 7.314457,0.105315 14.299274,0.09407 l 12.699667,-0.02044 z M 60.436898,80.95583 c -0.11308,-0.11308 -0.09633,-0.316811 0.40924,-4.978385 l 0.357088,-3.292506 -0.824359,-0.846644 c -2.588806,-2.658795 -2.005093,-6.441951 1.25018,-8.102669 1.860091,-0.948947 3.935555,-0.567391 5.517245,1.014297 2.11079,2.110792 2.133433,4.922068 0.05594,6.945608 l -0.95659,0.931748 0.320259,3.321337 c 0.176144,1.826734 0.370434,3.723492 0.431757,4.215016 l 0.111497,0.89368 h -3.285387 c -1.806963,0 -3.331055,-0.04567 -3.386871,-0.101482 z M 24.983914,78.352541 c 0.82719,-0.345623 1.935301,-1.623183 8.42444,-9.712681 3.029772,-3.776975 6.168477,-7.664919 6.974904,-8.639874 1.314622,-1.589355 1.46623,-1.854224 1.46623,-2.561598 0,-0.515183 -0.136336,-0.962271 -0.3929,-1.288438 -0.766971,-0.975049 -1.163417,-1.056402 -5.147982,-1.056402 H 32.63047 v -0.493566 c 0,-0.27146 0.29118,-1.363744 0.647066,-2.427295 2.122718,-6.343652 6.604089,-11.921046 13.069736,-16.266248 2.91615,-1.959783 7.550402,-3.845508 11.588461,-4.715469 2.391916,-0.515315 8.234792,-0.714546 10.946293,-0.373248 3.572859,0.449719 9.285263,2.160001 11.819037,3.538597 l 0.940716,0.511833 0.09407,1.78736 0.09407,1.787361 4.532933,0.05031 c 4.334387,0.04811 4.554545,0.03332 5.02631,-0.337775 0.629966,-0.495532 5.581158,-7.787301 5.795769,-8.535603 0.221347,-0.771795 -0.09035,-1.811352 -0.723876,-2.414267 C 95.900294,26.671877 91.250614,24.109189 86.76547,21.861781 78.750447,17.845627 71.789844,16.089008 63.862245,16.081789 51.301416,16.07035 38.614674,21.53618 29.243892,30.996418 22.678377,37.62461 18.219798,45.374064 16.732908,52.741758 c -0.167066,0.82783 -0.342976,1.695641 -0.390913,1.928468 -0.0867,0.421119 -0.105796,0.423322 -3.667635,0.423322 -2.8645566,0 -3.6931337,0.05826 -4.1438861,0.291349 -0.8004252,0.413915 -1.2977953,1.324116 -1.298636,2.376535 -6.961e-4,0.865282 0.1138457,1.033015 6.6164311,9.689376 3.639424,4.844868 6.958786,9.222432 7.376361,9.727919 1.132097,1.370439 2.366337,1.755824 3.759284,1.173814 z m 96.552776,-23.15637 c 0.57153,-0.571523 0.57114,-0.668289 -0.0145,-3.672039 -0.91142,-4.674314 -2.41214,-8.878873 -4.91792,-13.778529 C 110.09733,25.022433 99.089335,15.24445 85.028357,9.6979634 72.882246,4.9068144 60.488545,4.2688755 48.058214,7.7950053 37.873958,10.683988 28.571122,16.080499 21.33434,23.297344 c -3.125608,3.116997 -4.948061,5.331753 -7.464211,9.070962 -3.462201,5.145126 -7.5797104,14.642342 -7.5797104,17.482936 0,0.881863 0.3966377,1.103155 1.9772603,1.103155 1.5360996,0 1.7858551,-0.318015 2.8813231,-3.668793 C 15.273117,34.670906 24.095733,24.09175 36.222685,17.21987 47.612367,10.765773 60.557622,8.3861197 72.704976,10.513535 c 13.309398,2.33093 26.431266,9.993788 34.414584,20.097297 5.1733,6.547202 8.76223,13.947081 10.45577,21.558342 0.2753,1.23726 0.57947,2.397054 0.67595,2.577319 0.31736,0.59299 0.98693,0.911485 1.9162,0.911485 0.71256,0 1.00657,-0.09916 1.36921,-0.461807 z M 55.213813,51.942149 c 0.0078,-3.529514 0.211027,-5.080104 0.832069,-6.349469 2.043385,-4.176531 7.486533,-5.838962 11.861442,-3.622692 1.587428,0.80417 3.03605,2.406151 3.700888,4.092685 0.352644,0.894574 0.42272,1.544656 0.517162,4.797653 l 0.109244,3.762864 h 2.35179 2.35179 l 0.05544,-3.198435 c 0.03049,-1.759139 -0.03197,-3.860352 -0.138807,-4.669363 -0.619879,-4.694006 -4.09781,-8.739536 -8.947508,-10.407742 -1.361051,-0.468178 -1.75731,-0.51787 -4.139151,-0.519074 -2.330641,-0.0011 -2.800134,0.05433 -4.076433,0.481912 -3.393492,1.136889 -6.334414,3.567575 -7.815656,6.459679 -1.282638,2.504333 -1.404495,3.106706 -1.51126,7.470656 -0.05242,2.142765 -0.0452,4.026549 0.01607,4.186186 0.09218,0.240208 0.517893,0.290253 2.469077,0.290253 h 2.357689 l 0.0062,-2.775113 z"
       id="path881"
       inkscape:connector-curvature="0" />
    <path
       inkscape:connector-curvature="0"
       id="path979"
       d="M 22.855051,78.289608 C 22.50802,78.133923 21.88046,77.640741 21.460475,77.193648 20.538544,76.212211 10.25369,62.580405 8.5827876,60.125236 7.093655,57.937152 6.9960108,57.07392 8.1114652,55.958466 l 0.7150955,-0.715096 3.3336073,-0.0029 c 1.833483,-0.0017 3.535209,-0.05697 3.781611,-0.123098 0.374389,-0.100468 0.50641,-0.419679 0.803442,-1.942607 0.524158,-2.687446 1.811969,-6.379998 3.168243,-9.084331 6.52561,-13.011684 18.939112,-23.005787 32.9125,-26.497827 3.936996,-0.98388 6.830247,-1.33432 11.041915,-1.337434 9.01287,-0.0067 15.6941,1.881043 26.078876,7.368289 5.239841,2.768695 6.559354,3.607119 6.940289,4.409881 0.174297,0.367302 0.316903,0.848967 0.316903,1.070367 0,0.681221 -4.880421,8.04663 -5.927613,8.945802 -0.37932,0.325705 -0.946385,0.368064 -4.927279,0.368064 h -4.498628 l -0.0032,-1.629998 c -0.0017,-0.896498 -0.07275,-1.735891 -0.157741,-1.865317 -0.40645,-0.618979 -3.801993,-2.006341 -7.328496,-2.994299 -4.29226,-1.202486 -5.586438,-1.352052 -10.703413,-1.236978 -4.311687,0.09696 -4.791957,0.147854 -7.045793,0.746581 -5.659716,1.50349 -9.532923,3.474828 -13.786629,7.016951 -3.400907,2.831985 -6.145349,6.234129 -8.029178,9.953364 -1.131485,2.233884 -2.160926,5.158341 -2.160926,6.138798 v 0.696673 h 3.544093 c 1.984773,0 3.829406,0.09946 4.192565,0.226059 1.226774,0.427656 1.712225,2.045373 0.943728,3.144878 -0.543783,0.778007 -11.674768,14.548979 -13.425483,16.609672 -1.882756,2.21611 -2.557519,2.855853 -3.313419,3.141452 -0.746358,0.281994 -0.943188,0.273324 -1.721466,-0.07582 z"
       style="opacity:0.45;fill:#00ff00;fill-opacity:1;stroke:none;stroke-width:1.08506382;stroke-linecap:butt;stroke-linejoin:round;stroke-miterlimit:2;stroke-dasharray:none;stroke-opacity:1;paint-order:normal" />
    <path
       inkscape:connector-curvature="0"
       id="path981"
       d="m 57.137569,110.64604 c -4.019442,-0.61999 -8.883541,-1.92732 -12.580542,-3.3813 -2.134852,-0.8396 -10.933799,-5.16869 -12.778777,-6.28716 -1.183955,-0.71775 -1.667083,-1.382944 -1.667083,-2.295342 0,-0.519694 3.99455,-6.674874 5.362132,-8.262481 l 0.769989,-0.893869 h 4.483037 c 4.982204,0 4.738362,-0.07594 4.738362,1.475766 0,1.569647 0.166421,1.730579 2.872356,2.77763 5.890237,2.279207 10.350575,3.050417 16.369082,2.830275 8.701952,-0.318298 15.335092,-3.168271 21.365984,-9.180038 4.063986,-4.0511 6.391879,-7.869496 7.753109,-12.717269 0.988767,-3.521311 1.266148,-3.195906 -2.878356,-3.376678 -1.937593,-0.08451 -3.69359,-0.244008 -3.902215,-0.354433 -0.567235,-0.300239 -1.196422,-1.453823 -1.197312,-2.195219 -4.2e-4,-0.359809 0.242285,-1.012384 0.539374,-1.450168 1.453442,-2.141767 15.269221,-18.98154 15.754241,-19.202532 1.01222,-0.461198 2.34882,-0.237346 2.95008,0.494078 0.64241,0.781474 11.78992,15.628177 12.86354,17.13218 1.68591,2.361728 1.98835,2.981368 1.83338,3.756205 -0.30155,1.507758 -1.45354,1.889446 -5.76452,1.909957 l -2.63532,0.01254 -0.38215,2.260964 c -1.33339,7.888986 -4.46901,14.146944 -10.38001,20.716048 -8.259663,9.179256 -20.31566,15.290856 -32.246426,16.346796 -3.317717,0.29364 -8.964081,0.2354 -11.241955,-0.11595 z"
       style="opacity:0.45;fill:#00ff00;fill-opacity:1;stroke:none;stroke-width:1.08506382;stroke-linecap:butt;stroke-linejoin:round;stroke-miterlimit:2;stroke-dasharray:none;stroke-opacity:1;paint-order:normal" />
    <path
       inkscape:connector-curvature="0"
       id="path983"
       d="m 49.576511,85.713514 c -1.033974,-0.242259 -1.499154,-0.655109 -2.12198,-1.883269 l -0.488557,-0.963391 0.113409,-11.024973 0.113408,-11.024973 0.503441,-0.784801 c 0.286681,-0.4469 0.752297,-0.8544 1.081428,-0.94645 0.317894,-0.08891 7.11269,-0.161648 15.099548,-0.161648 13.519556,0 14.560624,0.0256 15.087689,0.370993 1.203337,0.788567 1.161727,0.392986 1.324708,12.593881 l 0.150711,11.282297 -0.4813,0.77876 c -0.264713,0.428317 -0.860766,1.053644 -1.32456,1.389615 l -0.843264,0.610856 -13.691966,-0.02113 c -7.568417,-0.01167 -14.063508,-0.108179 -14.522715,-0.21577 z m 17.538739,-5.1789 c -0.0069,-0.318112 -0.181858,-2.187351 -0.388699,-4.153863 l -0.376076,-3.575477 0.825248,-0.906424 c 1.660688,-1.824044 2.0387,-3.685633 1.140195,-5.615095 -0.534258,-1.147273 -1.706073,-2.303572 -2.79599,-2.758969 -0.380649,-0.159045 -1.243524,-0.289172 -1.9175,-0.289172 -1.008603,0 -1.426981,0.120938 -2.36469,0.683547 -2.957616,1.774518 -3.397939,5.263467 -0.993486,7.871991 l 0.83277,0.903448 -0.409793,4.051459 c -0.225386,2.228302 -0.372679,4.122442 -0.327317,4.2092 0.04536,0.08676 1.59121,0.157741 3.435219,0.157741 h 3.352742 z"
       style="opacity:0.45;fill:#00ff00;fill-opacity:1;stroke:none;stroke-width:1.08506382;stroke-linecap:butt;stroke-linejoin:round;stroke-miterlimit:2;stroke-dasharray:none;stroke-opacity:1;paint-order:normal" />
    <path
       inkscape:connector-curvature="0"
       id="path985"
       d="m 50.652635,54.472189 c -0.222117,-0.222117 -0.162831,-7.042979 0.07211,-8.296547 0.839677,-4.480202 5.108112,-8.797104 9.877714,-9.989874 2.078732,-0.519844 5.748621,-0.322205 7.652927,0.412144 3.085449,1.189827 5.717015,3.479732 7.164518,6.234336 1.189414,2.263457 1.382788,3.35819 1.382788,7.828222 v 3.951934 h -2.17842 -2.178423 L 72.31073,53.319618 c -0.07432,-0.711032 -0.135124,-2.205467 -0.135124,-3.320967 0,-3.434232 -0.672419,-5.165479 -2.72201,-7.008238 -2.822101,-2.537311 -7.837611,-2.730381 -10.899244,-0.419561 -2.737401,2.066101 -3.410196,3.890336 -3.413255,9.254782 l -0.0016,2.78677 h -2.173329 c -1.195331,0 -2.236426,-0.0631 -2.313544,-0.140215 z"
       style="opacity:0.45;fill:#00ff00;fill-opacity:1;stroke:none;stroke-width:1.08506382;stroke-linecap:butt;stroke-linejoin:round;stroke-miterlimit:2;stroke-dasharray:none;stroke-opacity:1;paint-order:normal" />
    <path
       inkscape:connector-curvature="0"
       id="path987"
       d="m 63.398657,9.6680245 c 0.204637,-0.053326 0.488572,-0.049819 0.630967,0.00779 0.142395,0.057612 -0.02504,0.1012423 -0.372067,0.096956 -0.347031,-0.00429 -0.463536,-0.051424 -0.2589,-0.1047493 z"
       style="opacity:0.45;fill:#00ff00;fill-opacity:1;stroke:none;stroke-width:1.08506382;stroke-linecap:butt;stroke-linejoin:round;stroke-miterlimit:2;stroke-dasharray:none;stroke-opacity:1;paint-order:normal" />
    <path
       inkscape:connector-curvature="0"
       id="path989"
       d="m 118.77824,55.176109 c -0.25468,-0.186223 -0.68599,-1.442581 -1.31049,-3.817295 -1.21001,-4.601143 -2.04168,-6.839325 -4.06631,-10.943159 C 109.21741,31.934779 103.12951,24.955052 95.36184,19.73338 77.759118,7.9002788 57.408224,6.4683153 38.839538,15.756263 c -9.15403,4.578792 -16.612031,11.166748 -21.9636,19.401337 -2.463564,3.790747 -4.132595,7.274105 -5.881797,12.275632 -1.0418844,2.979077 -1.3939023,3.393372 -2.8832825,3.393372 -1.9953529,0 -2.1421999,-0.696545 -0.9280429,-4.402014 2.0222836,-6.171783 5.9096624,-13.304336 10.0381324,-18.417944 1.903534,-2.357757 6.55072,-6.987893 8.788936,-8.756691 C 38.021389,9.757607 53.340158,4.7674984 67.326529,5.7910046 86.009086,7.1581722 103.42535,17.281582 113.50663,32.633734 c 3.59852,5.479962 6.4012,12.056137 7.76435,18.218195 0.64595,2.919953 0.67756,3.781715 0.15604,4.253682 -0.46835,0.423848 -2.10594,0.467433 -2.64878,0.0705 z"
       style="opacity:0.45;fill:#00ff00;fill-opacity:1;stroke:none;stroke-width:1.08506382;stroke-linecap:butt;stroke-linejoin:round;stroke-miterlimit:2;stroke-dasharray:none;stroke-opacity:1;paint-order:normal" />
    <path
       inkscape:connector-curvature="0"
       id="path991"
       d="M 57.453052,123.07319 C 42.583807,121.26234 29.02226,114.36704 19.661403,103.85824 14.883005,98.493852 10.711042,91.628601 8.3494955,85.243717 6.9141956,81.363116 5.2931478,74.58751 5.2931478,72.46889 c 0,-0.899868 0.6615687,-1.452003 1.7351581,-1.448135 1.5090246,0.0054 1.6091304,0.175175 2.5756656,4.367258 1.7482505,7.582561 3.7969145,12.728779 7.3141525,18.373057 7.040231,11.29779 18.048932,19.54666 31.097618,23.30158 7.186789,2.06809 14.201653,2.73282 21.168754,2.00596 7.352616,-0.76707 13.18887,-2.45439 19.595013,-5.6651 8.768673,-4.3948 15.115361,-9.98884 20.533271,-18.098241 3.40601,-5.098037 5.71237,-10.04185 7.45491,-15.980007 0.48198,-1.642468 1.02095,-3.068064 1.21885,-3.223921 0.59067,-0.465178 2.14358,-0.182346 2.72777,0.496808 0.41512,0.48261 0.47121,0.712494 0.35142,1.440366 -0.90328,5.488679 -4.74684,14.116884 -9.0991,20.426066 -2.79606,4.053279 -7.2594,8.854549 -11.0477,11.884179 -8.882822,7.10387 -19.238346,11.34925 -31.055579,12.73161 -3.163082,0.37002 -9.342461,0.36644 -12.410299,-0.007 z"
       style="opacity:0.45;fill:#00ff00;fill-opacity:1;stroke:none;stroke-width:1.08506382;stroke-linecap:butt;stroke-linejoin:round;stroke-miterlimit:2;stroke-dasharray:none;stroke-opacity:1;paint-order:normal" />
    <path
       inkscape:connector-curvature="0"
       id="path827"
       d="m 119.32254,55.304789 c -0.62107,-0.120591 -0.78921,-0.528134 -2.10847,-5.110502 -1.2578,-4.368877 -2.05848,-6.413026 -4.04693,-10.331876 C 108.91537,31.48302 103.03116,24.842862 95.205886,19.593669 87.529315,14.444224 79.111096,11.203261 70.282706,9.9983976 67.685521,9.6439443 59.80102,9.6357172 57.347891,9.9849008 51.929255,10.756201 45.824876,12.48419 41.258243,14.539457 31.102608,19.11012 22.822662,26.071298 16.933243,34.990148 14.478241,38.70797 13.197774,41.369797 10.751627,47.840469 9.8686571,50.176145 9.3843402,50.722804 8.2032879,50.716833 7.701644,50.714296 7.1255793,50.646283 6.9231442,50.565691 6.3640735,50.34312 6.456754,49.035366 7.1949092,46.730998 9.0020517,41.089469 12.339894,34.691952 16.222143,29.428836 c 1.551466,-2.103302 6.915036,-7.66728 9.261935,-9.608001 7.462129,-6.170661 17.614823,-11.0071129 27.131563,-12.9246967 4.138784,-0.8339477 5.719933,-0.973323 11.041916,-0.973323 5.495835,0 6.989736,0.1405331 11.54288,1.085853 18.705969,3.8837177 34.746023,16.4167357 42.297513,33.0494877 2.79825,6.163364 4.84461,14.115939 3.84047,14.924852 -0.34164,0.275213 -1.39212,0.442895 -2.01588,0.321781 z"
       style="opacity:0.45;fill:#000000;fill-opacity:1;stroke:#000000;stroke-width:1.08506382;stroke-linecap:butt;stroke-linejoin:round;stroke-miterlimit:2;stroke-dasharray:none;stroke-opacity:1;paint-order:normal" />
    <path
       inkscape:connector-curvature="0"
       id="path829"
       d="m 119.15331,55.245425 c -0.52977,-0.213817 -0.80916,-0.923585 -1.96822,-5.000147 -1.11763,-3.9308 -1.6867,-5.477566 -3.16952,-8.614875 C 108.44179,29.837515 99.875279,21.247722 87.844609,15.388296 71.778475,7.5634338 54.644864,7.7406622 38.568375,15.898004 c -5.787509,2.93663 -10.013183,5.980245 -14.46675,10.419931 -6.35586,6.336049 -10.031259,12.306005 -13.422252,21.801785 -0.31518,0.882596 -0.7906408,1.809132 -1.0565806,2.05897 -0.5886641,0.553021 -1.7081381,0.759797 -2.489326,0.459798 -0.5106239,-0.196094 -0.578386,-0.331388 -0.578386,-1.154806 0,-1.641304 1.6909568,-6.258229 3.9212536,-10.706445 3.384687,-6.750589 6.944319,-11.46758 12.904522,-17.100228 C 31.519738,13.985416 43.342971,8.3568093 55.665313,6.307565 58.984454,5.7555813 68.328155,5.7553426 71.6498,6.3071569 c 9.455348,1.5707856 17.627245,4.7218351 25.052916,9.6602971 3.791144,2.521309 5.831974,4.20221 9.240894,7.611134 5.45528,5.455276 9.08048,10.725885 11.96826,17.400403 2.12557,4.912815 4.13522,12.096282 3.78001,13.511573 -0.19442,0.774632 -1.51595,1.167598 -2.53857,0.754861 z"
       style="opacity:0.45;fill:#000000;fill-opacity:1;stroke:#000000;stroke-width:1.08506382;stroke-linecap:butt;stroke-linejoin:round;stroke-miterlimit:2;stroke-dasharray:none;stroke-opacity:1;paint-order:normal" />
    <path
       inkscape:connector-curvature="0"
       id="path831"
       d="m 118.90851,55.085629 c -0.39482,-0.341237 -1.2108,-2.676308 -2.3335,-6.67773 -0.68958,-2.457743 -1.42341,-4.260873 -3.16703,-7.781921 C 108.99576,31.715987 102.71546,24.548585 94.785242,19.372757 84.953525,12.955875 74.781227,9.7982783 64.014848,9.821279 c -5.879069,0.01256 -9.788664,0.511211 -14.343717,1.829476 -5.0711,1.467613 -7.552544,2.491117 -13.670943,5.638759 -1.21008,0.622533 -4.781673,2.979038 -6.515327,4.298757 -2.503813,1.90599 -5.816169,4.989337 -7.786582,7.248233 -1.717508,1.96896 -4.738246,5.980579 -4.99733,6.63658 -0.06853,0.173516 -0.336381,0.599418 -0.595228,0.94645 -0.258846,0.347031 -1.025609,1.719384 -1.703918,3.049672 -1.163564,2.28196 -1.415656,2.837864 -2.098296,4.627088 -0.15447,0.40487 -0.373511,0.925418 -0.486758,1.156772 -0.113247,0.231355 -0.49716,1.222879 -0.853141,2.203386 C 9.8905605,50.41204 9.5186459,50.816803 7.8695941,50.823733 6.8508086,50.828014 6.2919004,50.176156 6.4676006,49.188581 7.3650026,44.144477 12.224102,34.45834 16.829853,28.532451 19.015859,25.719874 24.610943,20.281373 27.54055,18.121503 37.44035,10.822812 48.543943,6.6724767 60.490818,5.8052484 72.213712,4.954279 85.786104,8.7275911 96.634597,15.853718 c 12.679493,8.328868 21.922873,21.744152 24.786873,35.97415 0.23896,1.187311 0.37454,2.397543 0.30129,2.689403 -0.22856,0.91064 -2.00346,1.269095 -2.81425,0.568358 z"
       style="opacity:0.45;fill:#000000;fill-opacity:1;stroke:#000000;stroke-width:1.08506382;stroke-linecap:butt;stroke-linejoin:round;stroke-miterlimit:2;stroke-dasharray:none;stroke-opacity:1;paint-order:normal" />
    <path
       inkscape:connector-curvature="0"
       id="path833"
       d="m 118.92471,55.358604 c -0.20518,-0.121217 -0.40382,-0.362362 -0.44141,-0.535878 -0.0376,-0.173516 -0.15059,-0.345259 -0.25109,-0.381653 -0.10051,-0.03639 -0.1306,-0.20202 -0.0669,-0.368064 0.0637,-0.16604 0.007,-0.301894 -0.12619,-0.301894 -0.13313,0 -0.22297,-0.118306 -0.19966,-0.262903 0.0233,-0.144596 -0.0113,-0.40487 -0.0769,-0.578386 -0.0656,-0.173515 -0.27343,-0.96439 -0.46178,-1.757498 C 114.75377,40.447355 107.82254,29.58434 99.096847,22.642119 90.973428,16.17907 81.314175,11.893883 71.291636,10.306742 67.94957,9.777501 59.808781,9.773849 56.401441,10.300062 c -6.011488,0.928384 -11.618486,2.695693 -17.160546,5.408953 -8.96614,4.389608 -16.540228,10.945202 -21.862669,18.92278 -2.718075,4.074004 -4.376523,7.520062 -6.497257,13.500525 -0.315436,0.889526 -0.80261,1.864515 -1.0826095,2.166639 -0.2799999,0.302125 -0.5090906,0.47819 -0.5090906,0.391256 0,-0.08694 -0.113574,-0.04449 -0.2523866,0.09432 C 8.6427692,51.178652 7.5096132,51.081382 6.8989274,50.601017 6.2130287,50.061488 6.1886276,49.41179 6.7756867,47.319637 7.5687072,44.493481 11.282593,36.138825 11.839444,35.928345 c 0.102649,-0.0388 0.133137,-0.157106 0.06775,-0.262902 -0.06539,-0.105797 -0.02891,-0.192359 0.08105,-0.192359 0.109964,0 0.25932,-0.236613 0.331903,-0.525806 0.07258,-0.289193 0.230396,-0.525805 0.350697,-0.525805 0.1203,0 0.166363,-0.08473 0.102362,-0.188285 -0.064,-0.103554 0.03106,-0.244855 0.21124,-0.313996 0.180183,-0.06914 0.268699,-0.221028 0.196702,-0.337523 -0.072,-0.116493 -0.03067,-0.211807 0.09183,-0.211807 0.122504,0 0.222735,-0.141967 0.222735,-0.315483 0,-0.173516 0.100231,-0.315484 0.222735,-0.315484 0.122504,0 0.163827,-0.09531 0.09183,-0.211807 -0.072,-0.116495 0.01706,-0.268587 0.19791,-0.337985 0.180847,-0.0694 0.328814,-0.258019 0.328814,-0.41916 0,-0.161138 0.09464,-0.292981 0.210322,-0.292981 0.115677,0 0.210322,-0.141967 0.210322,-0.315483 0,-0.173516 0.09464,-0.315483 0.210322,-0.315483 0.115677,0 0.210322,-0.105639 0.210322,-0.234751 0,-0.3126 2.002645,-2.90097 2.704664,-3.495715 0.305432,-0.25876 0.55533,-0.545275 0.55533,-0.636702 0,-0.325811 5.924261,-6.036093 7.905861,-7.620307 2.740258,-2.190733 7.193433,-5.127582 7.424554,-4.896461 0.07055,0.07055 0.128267,0.02397 0.128267,-0.103495 0,-0.127469 0.331257,-0.351546 0.736128,-0.497949 0.40487,-0.146403 0.736127,-0.347405 0.736127,-0.446671 0,-0.09927 0.09464,-0.12199 0.210323,-0.0505 0.115677,0.07149 0.210322,0.02417 0.210322,-0.105161 0,-0.129331 0.09464,-0.176654 0.210322,-0.105161 0.115677,0.07149 0.210322,0.02417 0.210322,-0.105162 0,-0.129331 0.09464,-0.176653 0.210322,-0.105161 0.115678,0.07149 0.210323,0.02417 0.210323,-0.105161 0,-0.129331 0.09464,-0.176653 0.210322,-0.105161 0.115677,0.07149 0.210322,0.02417 0.210322,-0.105161 0,-0.129331 0.09464,-0.176654 0.210322,-0.105161 0.115677,0.07149 0.210322,0.02417 0.210322,-0.105161 0,-0.129331 0.09464,-0.176654 0.210323,-0.105161 0.115677,0.07149 0.210322,0.02417 0.210322,-0.105161 0,-0.129331 0.09464,-0.176654 0.210322,-0.105161 0.115677,0.07149 0.210322,0.02417 0.210322,-0.105161 0,-0.129332 0.09464,-0.176654 0.210322,-0.105162 0.115678,0.07149 0.210322,0.02976 0.210322,-0.09275 0,-0.122504 0.07098,-0.207993 0.157742,-0.189974 0.08676,0.01802 0.583644,-0.164276 1.104192,-0.405097 0.520547,-0.240822 1.088417,-0.468516 1.261933,-0.505986 0.173516,-0.03747 0.362806,-0.120309 0.420644,-0.184087 0.11129,-0.1227165 1.934079,-0.8319896 2.37129,-0.9227029 0.141756,-0.029411 0.535483,-0.1669632 0.874949,-0.3056705 2.042683,-0.8346495 6.922099,-2.0415452 10.777398,-2.6657283 2.736567,-0.4430574 10.690075,-0.6312993 13.318249,-0.3152134 1.098933,0.1321668 2.465678,0.2895283 3.037212,0.3496921 0.571534,0.060164 1.120786,0.1598416 1.220561,0.2215062 0.09978,0.061665 0.573086,0.157115 1.0518,0.2121122 0.478717,0.054997 1.029098,0.1849317 1.223072,0.2887434 0.193974,0.1038118 0.396594,0.1448334 0.450268,0.091159 0.14763,-0.1476294 5.052871,1.2405012 7.318996,2.0711969 15.43566,5.6582663 27.365248,16.2471623 34.025518,30.2015893 0.62997,1.319894 1.16301,2.502956 1.18454,2.629027 0.0215,0.126074 0.15623,0.442173 0.29933,0.702447 0.1431,0.260274 0.20735,0.473225 0.14278,0.473225 -0.0646,0 0.0376,0.236613 0.22711,0.525806 0.18948,0.289193 0.27472,0.525805 0.18942,0.525805 -0.0853,0 -0.0373,0.141968 0.10672,0.315483 0.14401,0.173516 0.19133,0.315484 0.10516,0.315484 -0.0862,0 -0.0388,0.141967 0.10516,0.315483 0.14401,0.173516 0.19133,0.315483 0.10516,0.315483 -0.0862,0 -0.0585,0.118306 0.0615,0.262903 0.12,0.144596 0.22623,0.333886 0.23607,0.420644 0.0374,0.329773 0.1209,0.593084 0.40946,1.291103 0.13814,0.334156 0.20201,0.656704 0.14194,0.716776 -0.0601,0.06007 -0.0173,0.21993 0.095,0.355241 0.1123,0.13531 0.45879,1.532146 0.76997,3.10408 0.54066,2.731084 0.54979,2.882499 0.2054,3.408092 -0.19821,0.302517 -0.45088,0.494106 -0.56147,0.425755 -0.1106,-0.06835 -0.20139,-0.04771 -0.20175,0.04588 -0.001,0.250338 -1.61039,0.226652 -2.04498,-0.0301 z"
       style="opacity:0.45;fill:#000000;fill-opacity:1;stroke:#000000;stroke-width:1.08506382;stroke-linecap:butt;stroke-linejoin:round;stroke-miterlimit:2;stroke-dasharray:none;stroke-opacity:1;paint-order:normal" />
    <path
       inkscape:connector-curvature="0"
       id="path835"
       d="m 119.99986,55.683834 c -0.59162,-0.0722 -1.21552,-0.247346 -1.38645,-0.389208 -0.17093,-0.14186 -0.38814,-0.187765 -0.48269,-0.10201 -0.0945,0.08575 -0.11058,-0.01462 -0.0356,-0.223072 0.0814,-0.2264 0.0524,-0.327154 -0.0721,-0.250246 -0.22543,0.139322 -0.63741,-0.753938 -0.61338,-1.329939 0.012,-0.287376 0.049,-0.274847 0.19554,0.06627 0.30229,0.703462 0.22891,0.09128 -0.2143,-1.787739 C 116.22973,46.74503 113.3932,40.073095 110.55067,35.578686 107.62781,30.95725 103.34344,26.128772 99.202008,22.788735 91.202466,16.33716 80.982787,11.81509 71.018834,10.318064 67.638931,9.8102524 60.033123,9.8012393 56.757897,10.301164 42.027883,12.549527 28.975744,19.904096 20.110398,30.951157 16.076785,35.97742 12.64741,42.546983 10.448858,49.45951 c -0.07358,0.231354 0.05734,0.08939 0.290946,-0.315483 0.495756,-0.859221 0.596069,-0.486665 0.117924,0.437966 -0.178442,0.34507 -0.408515,0.575438 -0.511272,0.511929 -0.102758,-0.06351 -0.255318,-0.0046 -0.339023,0.130782 -0.095049,0.153792 -0.061022,0.189904 0.09063,0.09618 0.341995,-0.211366 0.303474,0.193555 -0.04601,0.483598 -0.1588543,0.131836 -0.4664505,0.181819 -0.6835476,0.111073 -0.2874907,-0.09369 -0.3185103,-0.07406 -0.1141844,0.07226 0.3976503,0.28476 -0.1758962,0.478555 -1.2967694,0.438167 l -0.8766677,-0.03159 0.9464498,-0.147143 0.9464499,-0.147144 -0.9990304,-0.03159 c -0.672273,-0.02126 -1.13088,-0.163437 -1.402148,-0.434707 -0.2217146,-0.221713 -0.4583271,-0.347906 -0.5258055,-0.280429 -0.067478,0.06748 -0.1092573,-0.437295 -0.092842,-1.121717 0.028304,-1.180141 0.037625,-1.200961 0.1804764,-0.403119 0.1140948,0.637233 0.1578697,0.703633 0.1804763,0.27376 0.044301,-0.842401 0.998197,-3.750823 2.0902334,-6.373103 2.7234132,-6.539666 6.5011202,-12.643936 10.5299552,-17.014998 1.120896,-1.216109 1.173263,-1.299588 0.282068,-0.449651 -0.601902,0.574038 -1.094368,0.94906 -1.094368,0.833383 0,-0.268734 1.945666,-2.193409 2.156135,-2.132874 0.08694,0.02501 1.033391,-0.766335 2.103222,-1.758535 4.63682,-4.300352 9.237868,-7.461099 14.985124,-10.294217 C 44.911493,8.1933784 52.746081,6.0440175 60.187241,5.6518222 L 63.02659,5.5021709 60.923368,5.3851616 c -1.38919,-0.077285 -0.425248,-0.1237761 2.83935,-0.1369414 2.718414,-0.010963 5.463119,0.053258 6.099344,0.1427116 0.77538,0.1090195 0.151282,0.1412574 -1.8929,0.097778 l -3.049672,-0.064866 2.523866,0.1798969 c 1.388127,0.098943 3.710484,0.373238 5.160792,0.6095439 1.450308,0.2363059 2.844656,0.3753238 3.098553,0.3089287 0.477006,-0.1247402 3.515163,0.5258559 3.328292,0.7127266 -0.05784,0.057839 -0.776638,-0.059393 -1.597332,-0.2605143 -0.820694,-0.2011215 -1.533773,-0.3240728 -1.58462,-0.2732252 -0.05085,0.050848 0.639808,0.2638912 1.534792,0.4734302 2.27295,0.5321566 6.227491,1.8591271 8.973616,3.0111504 13.476802,5.653639 23.942921,15.186091 30.270001,27.569662 0.86575,1.694471 1.87404,3.838016 2.24065,4.763434 0.74291,1.875314 0.93412,2.196474 0.75106,1.261502 l -0.12345,-0.630536 0.30719,0.630967 c 0.38189,0.784386 0.44589,1.437327 0.0928,0.94645 -0.18837,-0.26187 -0.20554,-0.249615 -0.10104,0.07212 0.0692,0.213183 0.18815,0.635634 0.26424,0.938784 0.11903,0.474255 0.15743,0.496745 0.27515,0.161153 0.21609,-0.616036 1.13577,2.704085 1.19008,4.296321 0.0257,0.751902 0.19373,2.076931 0.37351,2.944511 l 0.32687,1.577416 -0.0875,-1.472255 c -0.0592,-0.995979 -0.032,-1.268136 0.0842,-0.841289 0.32782,1.204721 0.24491,2.332164 -0.21445,2.916147 -0.23975,0.304792 -0.54735,0.540843 -0.68355,0.524556 -0.1362,-0.01628 -0.73168,-0.08869 -1.32329,-0.16089 z m 1.89408,-0.561887 c 0.15714,-0.409487 0.0521,-0.375747 -0.40597,0.130474 -0.31947,0.353013 -0.32819,0.406412 -0.0489,0.299223 0.18701,-0.07176 0.39168,-0.265124 0.45483,-0.429697 z m -0.6081,-5.97792 c -0.18945,-0.862561 -0.35937,-0.692644 -0.18403,0.184032 0.0739,0.369523 0.17821,0.628022 0.2318,0.574438 0.0536,-0.05358 0.0321,-0.394895 -0.0478,-0.75847 z m -0.43567,-1.562393 c -0.0774,-0.30823 -0.18122,-0.519856 -0.23079,-0.470281 -0.0496,0.04958 -0.0269,0.342327 0.0505,0.650556 0.0774,0.308229 0.18121,0.519856 0.23079,0.470281 0.0496,-0.04958 0.0268,-0.342327 -0.0505,-0.650556 z"
       style="opacity:0.45;fill:#000000;fill-opacity:1;stroke:#000000;stroke-width:1.08506382;stroke-linecap:butt;stroke-linejoin:round;stroke-miterlimit:2;stroke-dasharray:none;stroke-opacity:1;paint-order:normal" />
    <path
       inkscape:connector-curvature="0"
       id="path837"
       d="m 57.453052,127.16 c -2.49981,-0.27373 -7.216626,-1.15254 -10.119503,-1.88541 C 43.23125,124.23892 39.456694,122.82793 35.24458,120.75554 22.92041,114.69196 13.846762,105.79589 7.5746929,93.627171 2.9812814,84.715294 0.88208216,76.320317 0.52737247,65.443997 0.18203601,54.855084 2.1875494,45.762284 6.9654274,36.254488 12.344516,25.550308 19.975692,17.437118 30.742133,10.97596 37.767483,6.7599058 45.660964,3.9031005 54.317708,2.4434975 57.629281,1.885137 64.879565,1.6722796 69.350644,2.0021531 80.882798,2.8529884 93.705315,8.0124517 103.93426,15.917741 c 2.5818,1.995306 7.46786,6.8703 9.63039,9.608584 6.42574,8.136528 10.77193,17.896833 12.57718,28.24479 0.46026,2.638334 0.65269,13.190681 0.31101,17.055141 -0.68411,7.737242 -2.71507,14.795533 -6.34894,22.064788 -5.33699,10.676206 -12.54923,18.659856 -22.479308,24.883646 -7.485582,4.69167 -15.383431,7.53906 -24.923181,8.98549 -3.36209,0.50976 -12.141942,0.73997 -15.248359,0.39982 z m 11.387696,-3.77713 c 19.354433,-1.91237 35.879392,-12.10934 45.324212,-27.96796 3.41614,-5.735983 6.07003,-12.040184 6.89144,-16.370331 0.29176,-1.538017 0.29458,-1.815663 0.0237,-2.339418 -0.32206,-0.622798 -1.23882,-1.060537 -2.22108,-1.060537 -1.07322,0 -1.41691,0.548091 -2.30796,3.680638 -1.08285,3.806811 -2.05471,6.295926 -3.77749,9.674821 -4.66518,9.14988 -10.65045,15.940377 -18.619325,21.124247 -14.232461,9.25843 -31.486816,11.4947 -47.864679,6.20358 C 37.702914,113.55384 30.380898,108.98769 24.009318,102.43348 19.780612,98.083564 17.16609,94.343253 14.325174,88.579439 12.383326,84.639704 11.082603,80.885975 9.9288181,75.892093 9.0670675,72.162212 8.7017469,71.159919 8.123074,70.937861 7.3891313,70.656221 6.1841702,70.812713 5.6101717,71.264222 5.0480682,71.706372 5.0335381,71.76812 5.1632309,73.163564 5.4885245,76.663597 7.0898704,82.720483 8.7941,86.896861 c 2.026653,4.966509 5.739391,11.207151 9.009124,15.143199 10.147738,12.21567 24.609791,19.7089 41.332406,21.41558 1.68561,0.17203 7.682691,0.12706 9.705118,-0.0728 z m -0.556103,-12.41882 c 13.241614,-1.15782 26.11315,-8.2132 34.723445,-19.033239 4.58927,-5.767055 7.10809,-11.461011 8.28339,-18.725147 l 0.24148,-1.492509 3.36796,-0.138842 c 1.85238,-0.07636 3.57355,-0.243955 3.82483,-0.372426 1.4427,-0.737613 1.59937,-2.336594 0.40613,-4.14483 -1.17758,-1.784496 -13.82055,-18.60726 -14.25518,-18.967971 -0.23666,-0.196407 -0.82578,-0.312154 -1.58879,-0.312154 -1.00084,0 -1.31253,0.09185 -1.78437,0.525806 -0.31444,0.289193 -2.627443,3.08122 -5.140004,6.204505 -2.51256,3.123284 -5.806632,7.2108 -7.320159,9.083367 -1.513527,1.872566 -2.909701,3.709886 -3.10261,4.082931 -0.538581,1.041498 -0.295884,2.236265 0.625843,3.080965 0.66418,0.608677 0.881197,0.683674 1.97832,0.683674 0.677767,0 2.250502,0.0623 3.494964,0.138442 l 2.262661,0.138443 -0.123872,0.774648 c -0.281489,1.76034 -1.260267,4.654611 -2.259617,6.68174 -3.027212,6.140546 -8.217013,11.221779 -14.56118,14.256558 -4.828396,2.3097 -9.131559,3.154785 -15.172585,2.979693 -3.993292,-0.11574 -6.35386,-0.447515 -9.464498,-1.330218 -2.391248,-0.678563 -6.668571,-2.339338 -6.879507,-2.671136 -0.08792,-0.138289 -0.161296,-0.707219 -0.163067,-1.264291 -0.006,-1.895933 0.180663,-1.826493 -4.910508,-1.826493 H 36.29588 l -0.761713,0.788709 c -0.877309,0.908398 -3.595835,4.751058 -4.839142,6.840163 -0.709286,1.191799 -0.827517,1.54872 -0.724106,2.185963 0.06797,0.418876 0.321568,0.972329 0.563544,1.229899 0.502012,0.53437 7.762101,4.37374 11.300319,5.97598 4.476641,2.02718 10.292043,3.72837 15.407948,4.5073 2.406973,0.36648 7.582609,0.42295 11.041915,0.12047 z M 78.729424,85.468317 c 0.499299,-0.380828 1.125155,-1.014922 1.390787,-1.409094 L 80.60318,83.342546 80.456954,71.869405 C 80.317942,60.962264 80.290553,60.368901 79.901798,59.841611 79.05116,58.687844 79.443369,58.71889 64.814329,58.647296 c -7.46118,-0.03652 -14.180974,-0.003 -14.932876,0.07452 -1.230187,0.126799 -1.444449,0.222138 -2.139528,0.952006 l -0.772431,0.811097 -0.07227,11.20791 -0.07227,11.20791 0.561371,1.162878 c 0.593262,1.22894 1.121778,1.64 2.436029,1.894656 0.43738,0.08475 6.916141,0.164971 14.397246,0.178273 l 13.602012,0.02419 z M 25.315109,78.244538 c 0.311938,-0.157058 1.499404,-1.397822 2.638816,-2.757252 3.25636,-3.885158 13.432345,-16.542323 13.696781,-17.036426 0.343753,-0.642307 0.293276,-1.773763 -0.104467,-2.34162 -0.63552,-0.90733 -1.470844,-1.076192 -5.323715,-1.076192 h -3.576975 l 0.130785,-0.683547 c 0.501677,-2.622034 2.704873,-7.277956 4.715154,-9.964327 2.518089,-3.364968 6.767464,-7.175077 10.270523,-9.20884 1.799588,-1.044782 5.366209,-2.554798 7.46603,-3.160928 3.483684,-1.005593 4.00657,-1.064264 9.481127,-1.063871 l 5.258055,4.21e-4 2.710956,0.698278 c 3.087738,0.795327 4.996618,1.448508 7.324115,2.50617 l 1.622184,0.737152 0.06039,1.814622 0.06039,1.814622 h 4.703995 4.703994 l 0.730451,-0.841289 c 1.003128,-1.15534 5.294397,-7.605717 5.436467,-8.17177 0.06336,-0.252462 -0.0079,-0.835896 -0.158269,-1.296519 -0.342874,-1.050061 -1.17559,-1.617769 -6.583106,-4.488105 -10.796562,-5.730872 -17.414552,-7.643916 -26.500597,-7.660453 -5.819808,-0.01059 -11.147314,0.934226 -16.435268,2.914751 -15.197171,5.691874 -27.688674,19.19515 -30.91659,33.420736 -0.288248,1.270321 -0.636173,2.38095 -0.773167,2.468066 -0.136994,0.08711 -1.695456,0.15984 -3.463249,0.161611 -3.6241898,0.0036 -4.4411967,0.206985 -4.9744276,1.23814 -0.6996685,1.353011 -0.4818113,2.090474 1.3847921,4.687636 2.2912085,3.18795 11.5632615,15.46098 12.4276135,16.449917 1.122328,1.284093 2.519366,1.578068 3.987204,0.839017 z M 122.31875,55.647877 c 0.45176,-0.536879 0.54451,-0.859436 0.54451,-1.893661 0,-0.844734 -0.1356,-1.499547 -0.42065,-2.031391 -0.23135,-0.431657 -0.42064,-1.173333 -0.42064,-1.648171 0,-1.12482 -0.75423,-4.061294 -1.15762,-4.507041 -0.17305,-0.191218 -0.31464,-0.633816 -0.31464,-0.983552 0,-0.349735 -0.23348,-0.957475 -0.51884,-1.350534 -0.28536,-0.393056 -0.68045,-1.093229 -0.87798,-1.555938 -1.97206,-4.619544 -5.94103,-11.106951 -9.07152,-14.827715 -1.97905,-2.35221 -5.98338,-6.288989 -8.34514,-8.204362 C 96.325465,14.257408 87.137319,9.3843737 80.948275,7.6203899 80.278573,7.4295141 79.55554,7.0982461 79.341533,6.8842389 78.933994,6.4766996 78.010145,6.2945594 73.5427,5.7409787 72.154574,5.5689699 70.734899,5.2798252 70.387867,5.0984349 69.868906,4.8271788 68.90702,4.7684047 64.969217,4.767339 c -2.633226,-7.151e-4 -4.952028,0.086299 -5.152894,0.1933603 -0.200866,0.107061 -1.406305,0.2979824 -2.678754,0.4242695 -3.571881,0.3545 -8.617984,1.4960675 -12.22656,2.7659843 -8.571958,3.0166119 -15.434488,7.0162749 -21.845636,12.7322139 -1.156772,1.031334 -2.593525,2.260119 -3.192784,2.730635 -1.202617,0.944248 -2.170432,2.007197 -2.170432,2.383783 0,0.13407 -0.507814,0.877568 -1.128475,1.652218 -4.143569,5.171608 -8.2951513,12.87798 -10.1478249,18.836893 -0.2109498,0.678495 -0.5047848,1.280152 -0.6529665,1.337014 -0.1770757,0.06795 -0.2694212,0.530614 -0.2694212,1.349829 0,1.141793 0.061215,1.307657 0.729117,1.975559 0.6536389,0.653639 0.8478269,0.729117 1.8758553,0.729117 0.6809797,0 1.3885782,-0.140177 1.7421688,-0.345128 0.8221015,-0.476512 1.6027925,-1.713293 1.6547695,-2.621506 0.12963,-2.26509 3.107746,-8.823098 6.150432,-13.543658 8.998553,-13.960763 25.607108,-23.637195 42.479569,-24.749334 10.09559,-0.6654456 18.868059,1.198675 28.445356,6.044543 5.73812,2.903341 9.687287,5.751004 14.105683,10.171315 4.49726,4.499204 7.86702,9.238798 10.40366,14.63282 2.0815,4.426194 3.65017,9.056288 3.81224,11.252237 0.13487,1.82734 0.62157,2.866292 1.4386,3.070965 0.34726,0.08699 0.86799,0.224893 1.15718,0.306454 0.28919,0.08156 0.91963,0.159487 1.40098,0.173175 0.7348,0.02088 0.96251,-0.07891 1.41967,-0.622221 z M 55.34983,51.811682 c 0,-4.541365 0.406408,-6.136245 2.018271,-7.920387 1.735604,-1.921104 4.125638,-2.852129 6.901207,-2.688326 3.159797,0.186476 5.474426,1.597463 6.847965,4.174484 0.680767,1.277249 0.706422,1.415889 0.869184,4.697138 0.09224,1.859572 0.172538,3.691737 0.178431,4.071476 l 0.01073,0.690435 2.366125,-0.05947 2.366125,-0.05947 0.05733,-3.972479 c 0.06422,-4.450315 -0.109407,-5.527903 -1.271906,-7.893681 -0.79612,-1.620166 -2.833713,-3.868206 -4.521526,-4.98851 -0.649603,-0.431181 -1.896206,-1.071869 -2.770227,-1.423747 -1.518634,-0.611396 -1.724428,-0.639587 -4.638806,-0.635452 -2.764111,0.0039 -3.182439,0.05507 -4.467569,0.546236 -3.500029,1.337683 -6.070856,3.611558 -7.624209,6.743556 -1.171989,2.363056 -1.358875,3.470129 -1.364613,8.083654 -0.0031,2.526636 0.06332,3.427463 0.258673,3.506292 0.144597,0.05835 1.280337,0.113555 2.523867,0.122687 l 2.260955,0.01661 z"
       style="opacity:0.45;fill:#000000;fill-opacity:1;stroke:#000000;stroke-width:1.08506382;stroke-linecap:butt;stroke-linejoin:round;stroke-miterlimit:2;stroke-dasharray:none;stroke-opacity:1;paint-order:normal" />
    <path
       inkscape:connector-curvature="0"
       id="path839"
       d="M 57.453052,122.65249 C 38.777181,120.12943 23.474668,110.63663 14.114051,95.767458 9.9771073,89.195997 6.8599584,80.914197 5.9151182,73.984114 5.66213,72.128532 5.6694616,71.990757 6.0354346,71.723151 6.2497812,71.566417 6.7704543,71.43818 7.1924859,71.43818 c 0.9817691,0 0.9710095,-0.02459 2.3211619,5.303787 1.3373442,5.277824 2.5343612,8.574088 4.6424012,12.783922 4.329861,8.646894 10.29795,15.383151 18.478984,20.857471 7.129373,4.7706 15.719834,7.88471 24.92318,9.03485 3.111198,0.38881 10.177697,0.33538 13.35546,-0.10097 12.418993,-1.70532 23.689293,-7.18182 32.077287,-15.58711 5.98517,-5.997516 10.87969,-14.095278 13.5705,-22.451758 0.71838,-2.230983 1.43858,-4.269283 1.60044,-4.529557 0.34957,-0.56213 1.2305,-0.629019 1.92037,-0.145815 0.60365,0.422812 0.61489,1.443731 0.0406,3.692819 -1.27155,4.980173 -4.27436,11.435702 -7.86427,16.90683 -8.90847,13.576761 -23.081606,22.442391 -40.188195,25.138671 -3.646274,0.57472 -11.438724,0.7406 -14.617393,0.31117 z"
       style="opacity:0.45;fill:#000000;fill-opacity:1;stroke:#000000;stroke-width:1.08506382;stroke-linecap:butt;stroke-linejoin:round;stroke-miterlimit:2;stroke-dasharray:none;stroke-opacity:1;paint-order:normal" />
    <path
       inkscape:connector-curvature="0"
       id="path841"
       d="M 57.24273,122.64297 C 43.410726,120.70433 31.888244,115.25747 22.566484,106.25097 18.065497,101.90221 14.184175,96.52351 11.104579,90.367177 8.5629608,85.286304 6.5587662,78.984535 5.8921733,73.977863 5.6466152,72.133516 5.6545929,72.001629 6.0282385,71.728413 6.246543,71.568784 6.7704543,71.43818 7.1924859,71.43818 c 0.9756894,0 1.000537,0.05436 2.1926085,4.79646 2.8834196,11.470349 7.3095616,19.633037 14.6255626,26.97245 4.704529,4.71958 9.088527,7.90206 14.618558,10.61208 18.337482,8.98636 39.554568,7.6397 56.366349,-3.57762 10.321536,-6.88683 17.982666,-17.363016 21.879276,-29.91875 0.52927,-1.705418 1.10159,-3.313711 1.27183,-3.573985 0.33335,-0.50967 1.10269,-0.621148 1.78108,-0.258082 0.76566,0.409765 0.83322,0.873672 0.41553,2.853341 -1.05001,4.976748 -4.39601,12.382051 -8.15912,18.057615 -9.01508,13.596671 -23.441479,22.473311 -40.731764,25.062491 -3.107462,0.46534 -11.419006,0.56991 -14.209666,0.17879 z"
       style="opacity:0.45;fill:#000000;fill-opacity:1;stroke:#000000;stroke-width:1.08506382;stroke-linecap:butt;stroke-linejoin:round;stroke-miterlimit:2;stroke-dasharray:none;stroke-opacity:1;paint-order:normal" />
    <path
       inkscape:connector-curvature="0"
       id="path843"
       d="M 56.927247,122.64984 C 45.341966,121.00699 34.893773,116.57131 26.325367,109.65811 23.694417,107.5354 19.14923,102.9247 17.340705,100.54396 11.517098,92.877764 7.592205,84.069463 6.0115116,75.118818 5.5945632,72.757856 5.6208534,71.923363 6.1206091,71.655902 c 0.6668861,-0.356907 1.8651583,-0.267739 2.0917517,0.155654 0.1099037,0.205357 0.692028,2.310957 1.2936096,4.679111 1.2285746,4.836339 1.9076826,6.907424 3.2918516,10.039203 3.057284,6.917316 6.487643,11.966187 11.546734,16.99471 8.375887,8.32529 18.293966,13.32703 30.716092,15.49028 2.385644,0.41545 3.433718,0.47157 8.807231,0.47157 5.381931,0 6.419492,-0.0557 8.821207,-0.47384 6.408888,-1.1157 11.687045,-2.8852 17.151603,-5.75009 12.862861,-6.74357 22.089151,-17.922925 26.880051,-32.570144 l 1.41027,-4.311605 0.84385,-0.06223 c 0.9369,-0.06909 1.78517,0.503383 1.78517,1.204757 0,0.214507 -0.2762,1.483666 -0.61379,2.820352 -1.45638,5.766625 -5.60809,14.159717 -9.69186,19.593023 -9.15955,12.186477 -22.457257,19.964657 -38.489096,22.513307 -3.073897,0.48867 -12.15072,0.60932 -15.038037,0.19988 z"
       style="opacity:0.45;fill:#000000;fill-opacity:1;stroke:#000000;stroke-width:1.08506382;stroke-linecap:butt;stroke-linejoin:round;stroke-miterlimit:2;stroke-dasharray:none;stroke-opacity:1;paint-order:normal" />
    <path
       inkscape:connector-curvature="0"
       id="path845"
       d="M 57.768535,122.82214 C 46.67446,121.38125 36.509544,117.3948 28.28819,111.26062 20.645297,105.55804 15.353369,99.11506 10.868286,90.051694 9.0027493,86.281855 8.0522879,83.767335 7.0039249,79.828228 6.0713252,76.324089 5.4119087,72.347281 5.6890991,71.898777 c 0.2224984,-0.36001 1.3341488,-0.704593 1.8529766,-0.574376 0.6784793,0.170288 0.9626132,0.855642 1.8346738,4.425384 1.9250965,7.880297 4.2576995,13.49069 7.9958625,19.231708 2.593975,3.983788 6.606498,8.450247 10.635332,11.838507 9.617713,8.08853 22.785201,12.78196 35.859935,12.78196 11.103268,0 21.674304,-3.21476 31.057968,-9.44505 7.295063,-4.84356 12.838493,-10.985688 17.414173,-19.29493 1.84797,-3.35584 2.94948,-5.969428 4.31887,-10.247532 1.29001,-4.030141 1.66672,-4.675964 2.59453,-4.448002 0.92621,0.22757 1.50661,0.711815 1.50661,1.257015 0,1.774862 -1.47623,6.519657 -3.26119,10.481925 -3.12909,6.945941 -6.85202,12.523244 -11.66332,17.472754 -9.233662,9.49892 -21.35391,15.4767 -35.009217,17.26676 -2.27075,0.29767 -11.197605,0.41884 -13.057768,0.17724 z"
       style="opacity:0.45;fill:#000000;fill-opacity:1;stroke:#000000;stroke-width:1.08506382;stroke-linecap:butt;stroke-linejoin:round;stroke-miterlimit:2;stroke-dasharray:none;stroke-opacity:1;paint-order:normal" />
    <path
       inkscape:connector-curvature="0"
       id="path847"
       d="m 57.453052,127.14611 c -4.151474,-0.42235 -10.704613,-1.85366 -14.64355,-3.19838 -3.335124,-1.13859 -4.81823,-1.77122 -8.342935,-3.55879 C 22.329611,114.23363 13.375415,105.19689 7.2198306,92.891044 2.8167125,84.088612 0.87583275,76.128693 0.52737247,65.443997 0.26691236,57.457613 1.3185475,50.526094 3.861928,43.465327 8.3140284,31.105699 15.753184,21.269513 26.184931,13.949446 34.82984,7.8832232 43.264536,4.4239045 54.298219,2.4193547 56.666666,1.9890661 57.583912,1.941423 63.552396,1.9386794 c 7.024088,-0.00323 8.544884,0.1243188 12.829654,1.0760104 10.224738,2.27102 19.19181,6.4723279 27.55221,12.9089322 2.57139,1.979694 7.45917,6.853421 9.63039,9.602703 5.49999,6.964306 9.50708,15.144811 11.59953,23.680565 1.16888,4.768191 1.3197,6.117629 1.42817,12.778148 0.14007,8.60128 -0.21833,12.234476 -1.83501,18.602157 -1.08858,4.287641 -2.46362,7.9233 -4.65344,12.303849 -5.01633,10.034766 -11.95032,17.954276 -20.901892,23.872656 -8.988237,5.94262 -18.857839,9.36569 -29.970913,10.39477 -2.797428,0.25905 -9.176088,0.25235 -11.778043,-0.0124 z m 8.255146,-3.70473 c -1.070014,-0.0382 -2.820946,-0.0382 -3.89096,0 -1.070015,0.0382 -0.194548,0.0694 1.94548,0.0694 2.140028,0 3.015494,-0.0312 1.94548,-0.0694 z m 3.365155,-0.20205 c -0.260273,-0.0501 -0.686176,-0.0501 -0.946449,0 -0.260274,0.0501 -0.04732,0.0911 0.473224,0.0911 0.520548,0 0.733499,-0.041 0.473225,-0.0911 z m 10.61689,-1.87154 c -0.06989,-0.0699 -0.251293,-0.0774 -0.403118,-0.0166 -0.16778,0.0671 -0.117944,0.11697 0.12707,0.12707 0.221714,0.009 0.345936,-0.0406 0.276048,-0.11047 z m 1.472256,-0.42064 c -0.06989,-0.0699 -0.251293,-0.0774 -0.403119,-0.0166 -0.16778,0.0671 -0.117944,0.11698 0.127071,0.12707 0.221713,0.009 0.345936,-0.0406 0.276048,-0.11046 z m 4.053083,-1.34519 c 0.173516,-0.11213 0.220838,-0.20388 0.105161,-0.20388 -0.115677,0 -0.35229,0.0918 -0.525805,0.20388 -0.173516,0.11214 -0.220839,0.20388 -0.105161,0.20388 0.115677,0 0.352289,-0.0917 0.525805,-0.20388 z m -18.928998,-0.40313 c 0.864973,-0.0909 -0.21652,-0.14323 -2.94451,-0.14252 -2.749702,6.3e-4 -3.702083,0.0477 -2.629028,0.12966 2.326517,0.17773 3.968406,0.18152 5.573538,0.0129 z m 19.980609,-0.0175 c 0.173516,-0.11214 0.220838,-0.20388 0.105161,-0.20388 -0.115677,0 -0.35229,0.0917 -0.525805,0.20388 -0.173516,0.11213 -0.220839,0.20388 -0.105161,0.20388 0.115677,0 0.352289,-0.0917 0.525805,-0.20388 z m 1.051611,-0.42065 c 0.173516,-0.11213 0.220838,-0.20388 0.105161,-0.20388 -0.115677,0 -0.35229,0.0917 -0.525805,0.20388 -0.173516,0.11214 -0.220839,0.20388 -0.105161,0.20388 0.115677,0 0.352289,-0.0917 0.525805,-0.20388 z m 1.8929,-0.84128 c 0.173516,-0.11214 0.220838,-0.20388 0.105161,-0.20388 -0.115677,0 -0.35229,0.0917 -0.525806,0.20388 -0.173515,0.11213 -0.220838,0.20388 -0.105161,0.20388 0.115677,0 0.35229,-0.0918 0.525806,-0.20388 z m -9.521461,-0.96836 c -0.06989,-0.0699 -0.251293,-0.0774 -0.403118,-0.0166 -0.16778,0.0671 -0.117944,0.11698 0.12707,0.12707 0.221714,0.009 0.345936,-0.0406 0.276048,-0.11047 z m -37.380389,-2.05881 c 0,-0.0455 -0.146883,-0.13903 -0.326408,-0.20792 -0.18717,-0.0718 -0.271593,-0.0366 -0.197909,0.0827 0.123514,0.19985 0.524317,0.2956 0.524317,0.12526 z M 29.269878,112.5705 c 0,-0.05 -0.307597,-0.29439 -0.683548,-0.54319 l -0.683547,-0.45234 0.630967,0.54214 c 0.647062,0.55597 0.736128,0.61083 0.736128,0.45339 z m -1.472256,-1.03333 c 0,-0.0399 -0.212951,-0.25287 -0.473225,-0.47323 l -0.473225,-0.40066 0.400662,0.47322 c 0.376523,0.44472 0.545788,0.56898 0.545788,0.40067 z m 40.284136,-0.56713 c 2.838214,-0.23047 6.461201,-0.91675 9.521486,-1.80358 7.934507,-2.29933 16.439794,-7.46865 22.063452,-13.409653 6.479204,-6.844837 9.778054,-12.993465 11.336234,-21.129302 l 0.55838,-2.915507 3.35379,-0.13826 c 3.42984,-0.141393 3.99602,-0.270262 4.6309,-1.054034 0.6675,-0.824036 0.48678,-2.121915 -0.4982,-3.577927 -1.01976,-1.507422 -12.89165,-17.351211 -13.80289,-18.420826 -0.57929,-0.679961 -0.7049,-0.728769 -1.89454,-0.736128 -1.07531,-0.0066 -1.36174,0.07416 -1.8357,0.517925 -0.30887,0.289193 -2.848472,3.362192 -5.643564,6.828888 -11.226132,13.923542 -10.349579,12.70951 -10.165799,14.079694 0.0846,0.630754 0.313836,1.041471 0.861303,1.543186 0.66418,0.608677 0.881197,0.683674 1.97832,0.683674 0.677767,0 2.249312,0.06223 3.49232,0.13828 l 2.260015,0.138281 -0.144508,0.963643 c -0.24712,1.647927 -1.545824,5.294258 -2.553188,7.168519 -4.421214,8.225928 -12.145305,14.017562 -21.382397,16.03283 -2.919725,0.637 -10.452931,0.683368 -13.71057,0.08439 C 52.95951,95.311935 46.267388,93.075804 45.836644,92.398833 45.751284,92.264686 45.68,91.699142 45.678229,91.14207 c -0.006,-1.896486 0.182753,-1.826493 -4.926404,-1.826493 h -4.487742 l -0.822761,0.89387 c -0.85798,0.932133 -4.018814,5.446177 -4.983376,7.116853 -0.638602,1.106091 -0.688667,1.640889 -0.235624,2.516976 0.398491,0.770604 0.962346,1.125584 5.57852,3.512074 8.970286,4.63749 14.975336,6.66156 22.808982,7.68803 1.356061,0.17769 6.910102,0.13468 9.471934,-0.0733 z M 26.746011,110.6962 c 0,-0.0397 -0.496886,-0.47288 -1.104191,-0.96256 l -1.104192,-0.89032 1.045853,0.96256 c 1.008896,0.92855 1.16253,1.04621 1.16253,0.89032 z m 7.361277,-0.0255 c 0,-0.0538 -0.212951,-0.20096 -0.473225,-0.32709 -0.454428,-0.22021 -0.457007,-0.21633 -0.06496,0.0978 0.429112,0.34379 0.538187,0.39027 0.538187,0.22933 z m -1.8929,-1.24514 c 0,-0.0445 -0.260273,-0.23945 -0.578386,-0.43313 l -0.578386,-0.35216 0.496525,0.43313 c 0.484525,0.42266 0.660247,0.51638 0.660247,0.35216 z m -7.781921,-0.60601 c 0,-0.0308 -1.112079,-1.14288 -2.471286,-2.47129 l -2.471286,-2.41527 2.415275,2.47128 c 2.243448,2.29548 2.527297,2.56675 2.527297,2.41528 z m 6.519988,-0.23372 c 0,-0.0437 -0.165629,-0.2093 -0.368064,-0.36806 -0.333583,-0.26162 -0.341022,-0.25418 -0.07941,0.0794 0.274759,0.35035 0.447473,0.46176 0.447473,0.28866 z m -0.841289,-0.63097 c 0,-0.0437 -0.165628,-0.2093 -0.368063,-0.36806 -0.333584,-0.26161 -0.341023,-0.25418 -0.07941,0.0794 0.274759,0.35034 0.447473,0.46176 0.447473,0.28865 z m 68.171221,-0.7093 c 0.261613,-0.33358 0.254174,-0.34102 -0.07941,-0.0794 -0.202435,0.15877 -0.368064,0.32439 -0.368064,0.36807 0,0.1731 0.172714,0.0617 0.447473,-0.28866 z m -70.274443,-1.03395 c -0.751901,-0.64907 -2.594841,-2.42106 -4.095423,-3.93775 -1.500581,-1.5167 -2.146689,-2.09512 -1.435794,-1.28538 1.926863,2.19478 6.391263,6.4029 6.793151,6.40318 0.05784,5e-5 -0.510032,-0.53098 -1.261934,-1.18005 z m 71.299225,0.24525 c 0.271684,-0.2892 0.446647,-0.52581 0.388808,-0.52581 -0.05784,0 -0.327446,0.23661 -0.59913,0.52581 -0.271684,0.28919 -0.446646,0.5258 -0.388808,0.5258 0.05784,0 0.327447,-0.23661 0.59913,-0.5258 z m 2.103221,-1.8929 c 0.62832,-0.63623 1.09508,-1.15678 1.03724,-1.15678 -0.0578,0 -0.61924,0.52055 -1.24756,1.15678 -0.62832,0.63622 -1.09508,1.15677 -1.03724,1.15677 0.0578,0 0.61924,-0.52055 1.24756,-1.15677 z m 2.73419,-2.73419 c 0.39241,-0.40487 0.66616,-0.73613 0.60832,-0.73613 -0.0578,0 -0.42623,0.33126 -0.81864,0.73613 -0.39242,0.40487 -0.66616,0.73612 -0.60832,0.73612 0.0578,0 0.42622,-0.33125 0.81864,-0.73612 z m 1.49908,-1.73516 c 0.26162,-0.333585 0.25418,-0.341024 -0.0794,-0.0794 -0.35034,0.27476 -0.46175,0.44747 -0.28865,0.44747 0.0437,0 0.2093,-0.16563 0.36806,-0.36806 z M 21.277634,99.342532 c 0,-0.03767 -0.260274,-0.297947 -0.578386,-0.578386 l -0.578386,-0.509886 0.509887,0.578386 c 0.476566,0.540589 0.646885,0.674838 0.646885,0.509886 z M 12.444102,93.942655 C 12.320285,93.7113 12.171657,93.52201 12.113819,93.52201 c -0.05784,0 -0.0039,0.18929 0.119961,0.420645 0.123817,0.231354 0.272444,0.420644 0.330283,0.420644 0.05784,0 0.0039,-0.18929 -0.119961,-0.420644 z m -1.261933,-2.313544 c -0.350362,-0.694064 -0.684345,-1.261934 -0.742183,-1.261934 -0.05784,0 0.181498,0.56787 0.53186,1.261934 0.350363,0.694063 0.684345,1.261933 0.742183,1.261933 0.05784,0 -0.181498,-0.56787 -0.53186,-1.261933 z m 4.416766,-0.630967 C 15.475118,90.76679 15.32649,90.5775 15.268652,90.5775 c -0.05784,0 -0.0039,0.18929 0.119961,0.420644 0.123817,0.231354 0.272444,0.420644 0.330283,0.420644 0.05784,0 0.0039,-0.18929 -0.119961,-0.420644 z m -5.548658,-1.611402 c -0.1779371,-0.328341 -0.3273115,-0.53045 -0.3319428,-0.449135 -0.014239,0.250004 0.4750678,1.226511 0.5680088,1.133569 0.0481,-0.0481 -0.05813,-0.356096 -0.236066,-0.684434 z m 3.469938,-2.522615 c -0.234606,-0.444706 -0.430739,-0.740783 -0.435851,-0.657949 -0.01493,0.241853 0.68883,1.640082 0.779734,1.549178 0.04547,-0.04547 -0.109277,-0.446522 -0.343883,-0.891229 z m 65.209209,-1.39581 c 0.499299,-0.380828 1.124412,-1.01382 1.389138,-1.406647 l 0.481321,-0.714232 -0.144715,-11.475587 c -0.137573,-10.909454 -0.16488,-11.50295 -0.553505,-12.03024 -0.849556,-1.152683 -0.476055,-1.122685 -14.877012,-1.194838 -7.345503,-0.0368 -14.065297,-0.0031 -14.932876,0.07486 -1.479821,0.133001 -1.625385,0.192121 -2.352721,0.955546 l -0.775302,0.813777 -0.06599,11.204891 -0.06598,11.204892 0.560166,1.156772 c 0.63381,1.308852 1.088077,1.656574 2.469437,1.890248 0.531585,0.08992 7.040102,0.174631 14.46337,0.188236 l 13.49685,0.02474 z m -65.839003,-0.08052 c -0.247937,-0.426367 -0.307809,-0.289897 -0.104853,0.238998 0.07213,0.187965 0.17545,0.29745 0.229601,0.243299 0.05415,-0.05415 -0.002,-0.271186 -0.124748,-0.482297 z M 114.65425,85.214284 c 0,-0.115678 -0.0918,-0.06836 -0.20388,0.105161 -0.11214,0.173515 -0.20388,0.410128 -0.20388,0.525805 0,0.115677 0.0917,0.06836 0.20388,-0.105161 0.11213,-0.173516 0.20388,-0.410128 0.20388,-0.525805 z M 12.469777,84.336188 c -0.247938,-0.426367 -0.30781,-0.289897 -0.104853,0.238998 0.07213,0.187965 0.175449,0.29745 0.229601,0.243299 0.05415,-0.05415 -0.002,-0.271186 -0.124748,-0.482297 z M 115.07489,84.162673 c 0,-0.115678 -0.0917,-0.06835 -0.20388,0.105161 -0.11213,0.173515 -0.20388,0.410128 -0.20388,0.525805 0,0.115677 0.0918,0.06835 0.20388,-0.105161 0.11214,-0.173516 0.20388,-0.410128 0.20388,-0.525805 z m 0.51685,-1.367095 c 0.0978,-0.36543 0.0812,-0.429581 -0.0543,-0.210322 -0.10721,0.173516 -0.25821,0.552096 -0.33557,0.841289 -0.0977,0.36543 -0.0812,0.429581 0.0543,0.210322 0.10721,-0.173516 0.25822,-0.552096 0.33557,-0.841289 z M 11.617514,81.937428 c -0.222536,-0.626949 -0.411526,-1.038464 -0.419978,-0.914475 -0.02165,0.317627 0.645636,2.23334 0.743749,2.135227 0.04446,-0.04446 -0.101235,-0.5938 -0.323771,-1.220752 z M 10.905198,79.60131 c -0.06714,-0.16778 -0.116977,-0.117945 -0.127069,0.12707 -0.0091,0.221714 0.04058,0.345936 0.110465,0.276048 0.06989,-0.06989 0.07736,-0.251293 0.01661,-0.403118 z m 14.381936,-1.342304 c 0.296551,-0.149103 1.251367,-1.105931 2.121813,-2.126286 1.927523,-2.259483 12.972132,-15.926038 13.850257,-17.138253 0.720202,-0.994212 0.831059,-2.108522 0.287035,-2.885227 -0.635707,-0.907597 -1.470531,-1.076192 -5.328973,-1.076192 -2.510175,0 -3.582233,-0.07071 -3.582233,-0.236265 0,-0.670577 1.623363,-4.942894 2.555303,-6.724964 2.570653,-4.91565 7.45299,-9.923742 12.571675,-12.895485 2.680386,-1.556144 7.010945,-3.195577 10.427169,-3.947443 0.858935,-0.189039 2.941089,-0.277734 6.519988,-0.277734 5.052315,0 5.347839,0.02279 7.552674,0.582439 3.054499,0.775319 5.762706,1.688885 7.740507,2.611129 l 1.62224,0.756445 0.06034,1.810794 0.06034,1.810792 4.416766,0.05172 c 3.234831,0.03788 4.557472,-0.01954 4.942572,-0.214566 0.553957,-0.280541 3.100574,-3.717656 5.043208,-6.806717 0.903216,-1.436237 1.147714,-2.005176 1.131267,-2.632405 -0.04117,-1.570076 -0.369688,-1.818273 -7.240189,-5.469992 -10.246525,-5.4461 -17.188825,-7.407766 -26.171011,-7.39507 -14.816221,0.02094 -28.888587,7.110506 -38.827505,19.561037 -4.148153,5.19641 -7.070628,11.151695 -8.390171,17.097098 -0.243212,1.095829 -0.555581,2.064491 -0.694155,2.152583 -0.138574,0.08809 -1.698328,0.161615 -3.466121,0.163386 -3.6241898,0.0036 -4.4411967,0.206985 -4.9744276,1.23814 -0.6946225,1.343252 -0.480199,2.067013 1.3851189,4.675304 2.1632617,3.024911 11.5652487,15.476648 12.4504747,16.489073 1.091001,1.247766 2.507009,1.545162 3.936041,0.826661 z m 92.705426,-2.066724 c 0.28661,-0.327722 0.29254,-0.381178 0.0333,-0.299954 -0.33584,0.105218 -0.71515,0.782412 -0.92151,1.645195 -0.0783,0.327422 -2.1e-4,0.248069 0.20685,-0.210322 0.18294,-0.40487 0.48956,-0.915583 0.68138,-1.134919 z m 3.00068,0.336389 c -0.12184,-0.227653 -0.38978,-0.478218 -0.59543,-0.556811 -0.28457,-0.108756 -0.26084,-0.03734 0.0993,0.298933 0.26027,0.243006 0.47323,0.54856 0.47323,0.67901 0,0.13045 0.055,0.182192 0.1222,0.114981 0.0672,-0.06721 0.0225,-0.308462 -0.0993,-0.536113 z M 8.9875857,72.181172 c -0.199327,-0.521931 -0.4363012,-0.99463 -0.5266093,-1.050443 -0.090308,-0.05581 0.035452,0.407337 0.2794673,1.029226 0.2440151,0.621887 0.4809896,1.094586 0.5266093,1.050442 0.04562,-0.04414 -0.08014,-0.507295 -0.2794673,-1.029225 z M 6.4499193,71.017535 c 0.2773603,-0.119185 0.3131813,-0.184694 0.1051611,-0.192318 -0.1735159,-0.0064 -0.4574508,0.08018 -0.6309666,0.192318 -0.3844619,0.248458 -0.052388,0.248458 0.5258055,0 z M 121.44734,55.551272 c 0.85167,-0.578725 0.85714,-0.592404 0.79991,-1.998305 -0.0785,-1.928657 -1.56116,-7.310486 -3.1267,-11.349573 -0.71596,-1.84718 -2.92725,-6.288745 -4.0314,-8.097404 C 108.80599,23.813822 99.111328,15.357831 87.949771,10.434154 78.383476,6.2141927 68.419169,4.5226474 58.294341,5.3998355 47.809458,6.3082177 35.819115,11.05425 26.964675,17.800784 c -1.640137,1.249682 -5.470514,4.715195 -6.707936,6.068967 -0.387976,0.424458 -1.413971,1.523238 -2.27999,2.441734 -1.943463,2.061231 -3.930029,4.839249 -6.042134,8.44933 -2.9089576,4.972091 -5.7021954,11.68605 -5.9401583,14.278051 -0.1058401,1.152856 -0.070225,1.304327 0.412034,1.752398 0.8185285,0.760504 2.0761148,0.840147 3.0408415,0.192577 0.9250818,-0.620957 1.3022228,-1.324945 2.9010808,-5.415292 3.486473,-8.919417 8.589363,-16.078906 15.710339,-22.042018 7.057458,-5.909921 16.449583,-10.389946 25.6085,-12.215203 3.368392,-0.671279 5.612389,-0.863134 10.095466,-0.863134 4.483076,0 6.727073,0.191855 10.095465,0.863134 10.215762,2.035873 20.633367,7.418261 28.034127,14.484186 4.43291,4.232358 8.29951,9.549955 11.08095,15.239265 1.7941,3.669744 2.34703,5.100862 3.58006,9.26602 1.16912,3.949298 1.72514,5.19887 2.45136,5.509146 0.92206,0.393946 1.58566,0.323671 2.44266,-0.258673 z m -66.09751,-3.73959 c 0,-4.541365 0.406408,-6.136245 2.018271,-7.920387 1.735604,-1.921104 4.125638,-2.852129 6.901207,-2.688326 3.185351,0.187984 5.463445,1.57686 6.848346,4.175197 0.687349,1.289601 0.69983,1.362305 0.877802,5.113477 0.0993,2.092904 0.22604,3.926804 0.281651,4.075336 0.07568,0.20214 0.67069,0.255034 2.365929,0.210322 l 2.264819,-0.05974 0.05732,-3.837741 c 0.08493,-5.685917 -0.614223,-7.991555 -3.281277,-10.820909 -1.602329,-1.699836 -3.153167,-2.762552 -5.282379,-3.619767 -1.521226,-0.612441 -1.719451,-0.639408 -4.638805,-0.631122 -3.456763,0.0098 -4.417311,0.254625 -6.985543,1.780384 -3.176799,1.887301 -5.803611,5.583148 -6.269807,8.821428 -0.305676,2.123283 -0.263738,8.14392 0.05763,8.273596 0.144597,0.05835 1.280336,0.113555 2.523866,0.122687 l 2.260964,0.01661 z"
       style="opacity:0.45;fill:#000000;fill-opacity:1;stroke:#000000;stroke-width:1.08506382;stroke-linecap:butt;stroke-linejoin:round;stroke-miterlimit:2;stroke-dasharray:none;stroke-opacity:1;paint-order:normal" />
    <path
       inkscape:connector-curvature="0"
       id="path849"
       d="M 57.453052,127.14484 C 48.871086,126.26563 39.963884,123.53066 32.783617,119.57003 21.27934,113.2243 12.992112,104.59139 7.1729045,92.891044 2.7239923,83.94587 0.83797921,76.069988 0.5246978,65.128514 0.22165435,54.544604 2.2557619,45.488377 7.0658453,36.006101 10.135195,29.95539 13.379413,25.470684 18.110958,20.737676 26.499,12.347042 37.15516,6.4147629 49.062084,3.5071985 55.007102,2.0554789 56.255822,1.9247911 63.97304,1.9466574 c 6.256686,0.017728 7.326044,0.070921 9.548098,0.4749546 11.080183,2.0146965 20.611657,6.1472967 29.571832,12.821582 2.98538,2.22376 8.74272,7.93779 11.01447,10.931615 6.79185,8.950625 11.22446,19.759613 12.35146,30.11918 0.38977,3.582771 0.13024,15.01365 -0.417,18.366764 -1.5278,9.361317 -4.629,17.187208 -10.01626,25.276084 -3.3324,5.003533 -6.52924,8.663203 -10.64177,12.182423 -9.877772,8.45273 -21.857922,13.54384 -35.1572,14.94046 -3.316278,0.34826 -9.784393,0.39136 -12.773618,0.0851 z m 8.360307,-3.70336 c -1.012175,-0.0386 -2.668463,-0.0386 -3.680638,0 -1.012176,0.0386 -0.184032,0.0701 1.840319,0.0701 2.024351,0 2.852495,-0.0315 1.840319,-0.0701 z m 4.995153,-12.77003 c 5.222432,-0.79971 9.849216,-2.28794 14.827714,-4.76942 5.407155,-2.69513 9.31866,-5.48278 13.370361,-9.528759 6.995233,-6.985356 10.777863,-14.124718 12.280473,-23.17822 l 0.24948,-1.503124 3.47788,-0.153411 c 3.46532,-0.152856 3.48046,-0.155672 4.1911,-0.779629 0.60021,-0.526991 0.71322,-0.767562 0.71322,-1.518271 0,-1.192269 -0.27532,-1.600245 -8.25818,-12.237248 -6.94629,-9.255773 -7.01703,-9.333008 -8.54639,-9.33081 -1.01432,0.0015 -1.8693,0.799838 -4.883783,4.560452 -1.651736,2.060569 -4.962298,6.165612 -7.356801,9.122319 -2.394504,2.956706 -4.552126,5.70141 -4.794715,6.099344 -0.747534,1.226216 -0.46121,2.600767 0.738289,3.544291 0.449,0.353183 0.855465,0.439216 2.075113,0.439216 0.834209,0 2.383087,0.06149 3.441954,0.136654 2.316836,0.164456 2.26035,-0.0048 1.183712,3.547118 -1.284174,4.236608 -3.488177,7.972835 -6.7425,11.429884 -4.923302,5.230002 -10.683405,8.304143 -17.859827,9.531714 -3.567304,0.61021 -9.736362,0.457246 -13.49112,-0.334514 -2.47215,-0.521298 -6.375265,-1.771872 -8.645291,-2.769985 l -1.104192,-0.485504 v -1.049493 c 0,-0.57722 -0.0923,-1.292268 -0.205117,-1.58899 l -0.205116,-0.539498 h -4.485874 -4.485876 l -0.650653,0.683548 c -1.499814,1.575639 -5.464654,7.554319 -5.661091,8.5365 -0.186606,0.933038 0.396022,1.803376 1.756274,2.623546 2.135172,1.28742 10.815182,5.53171 12.991003,6.35226 3.977727,1.50008 8.609503,2.74101 12.093526,3.24006 0.86758,0.12427 1.814029,0.26774 2.103222,0.31881 1.139997,0.20135 9.879242,-0.092 11.883205,-0.39884 z m -47.217334,-2.70977 c 0,-0.0399 -0.212951,-0.25286 -0.473225,-0.47323 l -0.473225,-0.40066 0.400662,0.47323 c 0.376523,0.44471 0.545788,0.56897 0.545788,0.40066 z M 78.650871,85.537986 c 0.472821,-0.342512 1.093242,-0.96647 1.378712,-1.386576 L 80.548619,83.387581 80.440164,71.997084 C 80.333573,60.801957 80.323993,60.594937 79.881716,59.927374 79.63422,59.553808 79.147787,59.127906 78.800755,58.980924 78.311163,58.773563 74.941761,58.713687 63.762718,58.713687 c -7.923889,0 -14.668215,0.07301 -14.987392,0.162234 -0.320228,0.08952 -0.862247,0.55142 -1.209352,1.030587 l -0.629032,0.868353 0.0034,11.273261 0.0035,11.273262 0.469765,0.821514 c 0.609345,1.06561 1.400447,1.637543 2.516131,1.81906 0.493979,0.08037 6.964884,0.157971 14.379789,0.172449 l 13.481645,0.02633 z M 25.308287,78.221071 c 0.343878,-0.202436 1.691446,-1.645772 2.994594,-3.207414 2.743702,-3.28795 12.699606,-15.630109 13.228669,-16.39935 0.489902,-0.712296 0.455987,-1.927272 -0.07255,-2.599201 -0.632303,-0.803843 -1.60498,-0.97958 -5.429031,-0.980884 l -3.440536,-0.0012 0.13575,-0.578386 c 1.136154,-4.840757 3.992906,-9.799067 7.903612,-13.717868 4.325856,-4.334812 8.660296,-6.924389 14.607259,-8.726993 3.123815,-0.946873 5.148995,-1.198582 9.683438,-1.203556 3.05537,-0.0033 4.202282,0.08212 5.944418,0.442999 3.060918,0.634063 6.78813,1.800945 8.927534,2.794955 l 1.833069,0.851681 0.06038,1.813438 0.06038,1.813438 h 4.703995 4.703994 l 0.721054,-0.834453 c 0.975773,-1.129231 5.032161,-7.214146 5.326923,-7.990822 0.188247,-0.496018 0.16704,-0.804144 -0.104236,-1.514469 C 96.686189,27.107327 95.905504,26.581747 90.336368,23.63154 79.689991,17.991709 73.016186,16.076194 63.97304,16.064742 c -7.596833,-0.0096 -14.560789,1.704318 -21.687123,5.33754 -8.182499,4.171689 -15.748968,11.17941 -20.642913,19.118535 -2.244027,3.640334 -4.377573,8.898143 -4.992733,12.303848 -0.427157,2.364869 -0.143007,2.208383 -4.010002,2.208383 -3.8876986,0 -4.5582575,0.173527 -5.1024956,1.320424 -0.5946082,1.253045 -0.459501,1.870202 0.8211544,3.750966 2.6390452,3.875687 13.1688652,17.627598 13.8135812,18.040492 0.848671,0.54351 2.282696,0.578331 3.135778,0.07614 z m 92.492333,-2.050642 c 0,-0.115677 -0.13526,0.02629 -0.30058,0.315483 -0.16532,0.289193 -0.30058,0.620451 -0.30058,0.736128 0,0.115677 0.13526,-0.02629 0.30058,-0.315483 0.16532,-0.289193 0.30058,-0.620451 0.30058,-0.736128 z M 55.387354,50.984346 c 0.08018,-3.679294 0.108368,-3.89262 0.680142,-5.147083 0.731336,-1.604541 2.367515,-3.21811 4.066502,-4.010314 1.090762,-0.508599 1.448827,-0.56449 3.633143,-0.567104 2.316198,-0.0028 2.484976,0.02755 3.824671,0.687076 1.569071,0.772453 3.008739,2.211033 3.75459,3.751753 0.381607,0.788296 0.496989,1.522989 0.635198,4.04463 0.09289,1.694749 0.174541,3.483602 0.181447,3.975231 l 0.01256,0.893869 h 2.418705 2.418705 l -0.0031,-3.83838 c -0.0036,-4.439649 -0.239395,-5.771811 -1.418971,-8.016546 -1.462593,-2.783318 -4.010676,-4.998007 -7.306292,-6.350326 -1.389553,-0.570187 -1.643569,-0.604035 -4.521927,-0.602543 -2.898181,0.0015 -3.128137,0.03301 -4.629247,0.634237 -3.380944,1.354151 -5.992836,3.699273 -7.474411,6.710998 -1.145682,2.328927 -1.353286,3.558473 -1.355375,8.027298 -0.0013,2.5246 0.06612,3.427526 0.261315,3.506292 0.144596,0.05835 1.269959,0.113555 2.500807,0.122687 l 2.237901,0.0166 0.08364,-3.838381 z"
       style="opacity:0.45;fill:#000000;fill-opacity:1;stroke:#000000;stroke-width:1.08506382;stroke-linecap:butt;stroke-linejoin:round;stroke-miterlimit:2;stroke-dasharray:none;stroke-opacity:1;paint-order:normal" />
  </g>
</svg>
