<?xml version="1.0" encoding="UTF-8" standalone="no"?>
<svg
   xmlns:dc="http://purl.org/dc/elements/1.1/"
   xmlns:cc="http://creativecommons.org/ns#"
   xmlns:rdf="http://www.w3.org/1999/02/22-rdf-syntax-ns#"
   xmlns:svg="http://www.w3.org/2000/svg"
   xmlns="http://www.w3.org/2000/svg"
   xmlns:xlink="http://www.w3.org/1999/xlink"
   xmlns:sodipodi="http://sodipodi.sourceforge.net/DTD/sodipodi-0.dtd"
   xmlns:inkscape="http://www.inkscape.org/namespaces/inkscape"
   width="48"
   height="48"
   id="svg6499"
   version="1.1"
   inkscape:version="0.91 r13725"
   sodipodi:docname="media-pause.svg">
  <metadata
     id="metadata6507">
    <rdf:RDF>
      <cc:Work
         rdf:about="">
        <dc:format>image/svg+xml</dc:format>
        <dc:type
           rdf:resource="http://purl.org/dc/dcmitype/StillImage" />
        <dc:title />
      </cc:Work>
    </rdf:RDF>
  </metadata>
  <defs
     id="defs6505">
    <linearGradient
       inkscape:collect="always"
       id="linearGradient4831">
      <stop
         style="stop-color:#ffffff;stop-opacity:1;"
         offset="0"
         id="stop4833" />
      <stop
         style="stop-color:#ffffff;stop-opacity:0;"
         offset="1"
         id="stop4835" />
    </linearGradient>
    <linearGradient
       inkscape:collect="always"
       xlink:href="#linearGradient4831"
       id="linearGradient4837"
       x1="-17.934322"
       y1="-3.9597454"
       x2="54.446861"
       y2="46.15678"
       gradientUnits="userSpaceOnUse" />
  </defs>
  <sodipodi:namedview
     pagecolor="#ffffff"
     bordercolor="#666666"
     borderopacity="1"
     objecttolerance="10"
     gridtolerance="10"
     guidetolerance="10"
     inkscape:pageopacity="0"
     inkscape:pageshadow="2"
     inkscape:window-width="1855"
     inkscape:window-height="1176"
     id="namedview6503"
     showgrid="false"
     fit-margin-top="4"
     fit-margin-bottom="4"
     fit-margin-left="4.75"
     fit-margin-right="4.75"
     inkscape:zoom="1.8955823"
     inkscape:cx="33.726913"
     inkscape:cy="-21.102753"
     inkscape:window-x="65"
     inkscape:window-y="24"
     inkscape:window-maximized="1"
     inkscape:current-layer="svg6499" />
  <g
     id="g4839"
     style="stroke:#000000;stroke-opacity:1">
    <path
       inkscape:connector-curvature="0"
       id="path6501"
       d="m 41.440763,44 c 1.060241,0 1.927711,-0.86715 1.927711,-1.92771 l 0,-36.144579 C 43.368474,4.86747 42.501004,4 41.440763,4 L 29.874498,4 c -1.060241,0 -1.927711,0.86747 -1.927711,1.927711 l 0,36.144579 c 0,1.06056 0.86747,1.92771 1.927711,1.92771 l 11.566265,0 z m -23.196787,0 c 1.060241,0 1.927711,-0.86715 1.927711,-1.92771 l 0,-36.144579 C 20.171687,4.86747 19.304217,4 18.243976,4 L 6.6777108,4 C 5.6174699,4 4.75,4.86747 4.75,5.927711 l 0,36.144579 C 4.75,43.13285 5.6174699,44 6.6777108,44 l 11.5662652,0 z"
       style="stroke:#000000;stroke-opacity:1" />
    <path
       style="fill:url(#linearGradient4837);fill-opacity:1;stroke:#000000;stroke-opacity:1"
       d="m 41.440763,44 c 1.060241,0 1.927711,-0.86715 1.927711,-1.92771 l 0,-36.144579 C 43.368474,4.86747 42.501004,4 41.440763,4 L 29.874498,4 c -1.060241,0 -1.927711,0.86747 -1.927711,1.927711 l 0,36.144579 c 0,1.06056 0.86747,1.92771 1.927711,1.92771 l 11.566265,0 z m -23.196787,0 c 1.060241,0 1.927711,-0.86715 1.927711,-1.92771 l 0,-36.144579 C 20.171687,4.86747 19.304217,4 18.243976,4 L 6.6777108,4 C 5.6174699,4 4.75,4.86747 4.75,5.927711 l 0,36.144579 C 4.75,43.13285 5.6174699,44 6.6777108,44 l 11.5662652,0 z"
       id="path4829"
       inkscape:connector-curvature="0" />
  </g>
</svg>
