<?xml version="1.0" encoding="UTF-8" standalone="no"?>
<svg
   xmlns:dc="http://purl.org/dc/elements/1.1/"
   xmlns:cc="http://creativecommons.org/ns#"
   xmlns:rdf="http://www.w3.org/1999/02/22-rdf-syntax-ns#"
   xmlns:svg="http://www.w3.org/2000/svg"
   xmlns="http://www.w3.org/2000/svg"
   xmlns:xlink="http://www.w3.org/1999/xlink"
   xmlns:sodipodi="http://sodipodi.sourceforge.net/DTD/sodipodi-0.dtd"
   xmlns:inkscape="http://www.inkscape.org/namespaces/inkscape"
   width="48"
   height="48"
   id="svg4184"
   version="1.1"
   inkscape:version="0.91 r13725"
   sodipodi:docname="media-reset.svg">
  <metadata
     id="metadata4192">
    <rdf:RDF>
      <cc:Work
         rdf:about="">
        <dc:format>image/svg+xml</dc:format>
        <dc:type
           rdf:resource="http://purl.org/dc/dcmitype/StillImage" />
        <dc:title />
      </cc:Work>
    </rdf:RDF>
  </metadata>
  <defs
     id="defs4190">
    <linearGradient
       inkscape:collect="always"
       id="linearGradient5453">
      <stop
         style="stop-color:#ffffff;stop-opacity:1;"
         offset="0"
         id="stop5455" />
      <stop
         style="stop-color:#ffffff;stop-opacity:0;"
         offset="1"
         id="stop5457" />
    </linearGradient>
    <linearGradient
       inkscape:collect="always"
       xlink:href="#linearGradient5453"
       id="linearGradient5459"
       x1="-9.5404453"
       y1="-5.1989503"
       x2="57.227657"
       y2="54.211632"
       gradientUnits="userSpaceOnUse" />
  </defs>
  <sodipodi:namedview
     pagecolor="#ffffff"
     bordercolor="#666666"
     borderopacity="1"
     objecttolerance="10"
     gridtolerance="10"
     guidetolerance="10"
     inkscape:pageopacity="0"
     inkscape:pageshadow="2"
     inkscape:window-width="1855"
     inkscape:window-height="1176"
     id="namedview4188"
     showgrid="false"
     fit-margin-top="4"
     fit-margin-left="7"
     fit-margin-right="7"
     fit-margin-bottom="4"
     inkscape:zoom="2.9624353"
     inkscape:cx="91.251338"
     inkscape:cy="-3.9065521"
     inkscape:window-x="65"
     inkscape:window-y="24"
     inkscape:window-maximized="1"
     inkscape:current-layer="svg4184" />
  <path
     d="M 12.806451,4 8.9354835,4 C 7.8709674,4 7,4.8709675 7,5.9354837 L 7,42.064515 C 7,43.129033 7.8709674,44 8.9354835,44 l 3.8709675,0 c 1.064516,0 1.935484,-0.870967 1.935484,-1.935485 l 0,-36.1290313 C 14.741935,4.8709675 13.870967,4 12.806451,4 Z m 28.387098,38.064515 0,-36.1290313 c 0,-1.7096775 -2.129032,-2.5806451 -3.354839,-1.3548387 L 19.741935,22.645161 c -0.741935,0.741935 -0.774193,1.968066 0,2.709678 l 18.129032,18.064516 c 1.19355,1.225807 3.322582,0.354839 3.322582,-1.35484 z"
     id="path4186"
     inkscape:connector-curvature="0"
     style="stroke:#000000;stroke-opacity:1" />
  <path
     inkscape:connector-curvature="0"
     id="path5451"
     d="M 12.806451,4 8.9354835,4 C 7.8709674,4 7,4.8709675 7,5.9354837 L 7,42.064515 C 7,43.129033 7.8709674,44 8.9354835,44 l 3.8709675,0 c 1.064516,0 1.935484,-0.870967 1.935484,-1.935485 l 0,-36.1290313 C 14.741935,4.8709675 13.870967,4 12.806451,4 Z m 28.387098,38.064515 0,-36.1290313 c 0,-1.7096775 -2.129032,-2.5806451 -3.354839,-1.3548387 L 19.741935,22.645161 c -0.741935,0.741935 -0.774193,1.968066 0,2.709678 l 18.129032,18.064516 c 1.19355,1.225807 3.322582,0.354839 3.322582,-1.35484 z"
     style="fill:url(#linearGradient5459);fill-opacity:1;stroke:#000000;stroke-opacity:1" />
</svg>
