<?xml version="1.0" encoding="UTF-8" standalone="no"?>
<svg
   xmlns:dc="http://purl.org/dc/elements/1.1/"
   xmlns:cc="http://creativecommons.org/ns#"
   xmlns:rdf="http://www.w3.org/1999/02/22-rdf-syntax-ns#"
   xmlns:svg="http://www.w3.org/2000/svg"
   xmlns="http://www.w3.org/2000/svg"
   xmlns:xlink="http://www.w3.org/1999/xlink"
   xmlns:sodipodi="http://sodipodi.sourceforge.net/DTD/sodipodi-0.dtd"
   xmlns:inkscape="http://www.inkscape.org/namespaces/inkscape"
   width="48"
   height="48"
   id="svg4782"
   version="1.1"
   inkscape:version="0.91 r13725"
   sodipodi:docname="media-stop.svg">
  <metadata
     id="metadata4790">
    <rdf:RDF>
      <cc:Work
         rdf:about="">
        <dc:format>image/svg+xml</dc:format>
        <dc:type
           rdf:resource="http://purl.org/dc/dcmitype/StillImage" />
        <dc:title />
      </cc:Work>
    </rdf:RDF>
  </metadata>
  <defs
     id="defs4788">
    <linearGradient
       inkscape:collect="always"
       id="linearGradient6767">
      <stop
         style="stop-color:#ffffff;stop-opacity:1;"
         offset="0"
         id="stop6769" />
      <stop
         style="stop-color:#ffffff;stop-opacity:0;"
         offset="1"
         id="stop6771" />
    </linearGradient>
    <linearGradient
       inkscape:collect="always"
       xlink:href="#linearGradient6767"
       id="linearGradient6773"
       x1="-14.389831"
       y1="5.0847459"
       x2="63.966103"
       y2="66.033897"
       gradientUnits="userSpaceOnUse" />
  </defs>
  <sodipodi:namedview
     pagecolor="#ffffff"
     bordercolor="#666666"
     borderopacity="1"
     objecttolerance="10"
     gridtolerance="10"
     guidetolerance="10"
     inkscape:pageopacity="0"
     inkscape:pageshadow="2"
     inkscape:window-width="1855"
     inkscape:window-height="1176"
     id="namedview4786"
     showgrid="false"
     fit-margin-left="4"
     fit-margin-right="4"
     fit-margin-bottom="4"
     fit-margin-top="4"
     inkscape:zoom="1.9032258"
     inkscape:cx="-70.084746"
     inkscape:cy="66"
     inkscape:window-x="65"
     inkscape:window-y="24"
     inkscape:window-maximized="1"
     inkscape:current-layer="svg4782" />
  <path
     d="M 5.9354839,44 42.064516,44 C 43.129032,44 44,43.12903 44,42.06452 L 44,5.935484 C 44,4.870968 43.129032,4 42.064516,4 L 5.9354839,4 C 4.8709677,4 4,4.870968 4,5.935484 L 4,42.06452 C 4,43.12903 4.8709677,44 5.9354839,44 Z"
     id="path4784"
     inkscape:connector-curvature="0"
     style="stroke:#000000;stroke-opacity:1" />
  <path
     inkscape:connector-curvature="0"
     id="path6765"
     d="M 5.9354839,44 42.064516,44 C 43.129032,44 44,43.12903 44,42.06452 L 44,5.935484 C 44,4.870968 43.129032,4 42.064516,4 L 5.9354839,4 C 4.8709677,4 4,4.870968 4,5.935484 L 4,42.06452 C 4,43.12903 4.8709677,44 5.9354839,44 Z"
     style="fill:url(#linearGradient6773);fill-opacity:1;stroke:#000000;stroke-opacity:1" />
</svg>
