<?xml version="1.0" encoding="UTF-8"?>
<!-- Generator: Adobe Illustrator 16.0.0, SVG Export Plug-In . SVG Version: 6.00 Build 0)  -->
<!-- Icon made by Dave Gandy (https://www.flaticon.com/authors/dave-gandy) from www.flaticon.com -->
<!DOCTYPE svg  PUBLIC '-//W3C//DTD SVG 1.1//EN'  'http://www.w3.org/Graphics/SVG/1.1/DTD/svg11.dtd'>
<svg id="Capa_1" width="511.63px" height="511.63px" enable-background="new 0 0 511.626 511.626" version="1.1" viewBox="0 0 511.63 511.63" xml:space="preserve" xmlns="http://www.w3.org/2000/svg">
<path d="m506.2 242.97-73.09-73.089c-3.614-3.617-7.898-5.424-12.848-5.424-4.948 0-9.229 1.807-12.847 5.424-3.613 3.619-5.424 7.902-5.424 12.85v36.547h-109.64v-109.64h36.549c4.948 0 9.232-1.809 12.847-5.424 3.614-3.617 5.421-7.896 5.421-12.847 0-4.952-1.807-9.235-5.421-12.851l-73.091-73.09c-3.613-3.616-7.895-5.424-12.847-5.424s-9.232 1.809-12.85 5.424l-73.088 73.09c-3.618 3.619-5.424 7.902-5.424 12.851 0 4.946 1.807 9.229 5.424 12.847 3.619 3.615 7.898 5.424 12.85 5.424h36.545v109.64h-109.63v-36.547c0-4.952-1.809-9.234-5.426-12.85-3.619-3.617-7.902-5.424-12.85-5.424-4.947 0-9.23 1.807-12.847 5.424l-73.089 73.088c-3.615 3.617-5.424 7.898-5.424 12.847s1.809 9.233 5.424 12.847l73.089 73.087c3.617 3.613 7.897 5.431 12.847 5.431 4.952 0 9.234-1.817 12.85-5.431 3.617-3.61 5.426-7.898 5.426-12.847v-36.549h109.63v109.64h-36.542c-4.952 0-9.235 1.811-12.851 5.424-3.617 3.617-5.424 7.898-5.424 12.847s1.807 9.233 5.424 12.854l73.089 73.084c3.621 3.614 7.902 5.424 12.851 5.424 4.948 0 9.236-1.81 12.847-5.424l73.087-73.084c3.621-3.62 5.428-7.905 5.428-12.854s-1.807-9.229-5.428-12.847c-3.614-3.613-7.898-5.424-12.847-5.424h-36.542v-109.63h109.63v36.553c0 4.948 1.807 9.232 5.42 12.847 3.621 3.613 7.905 5.428 12.854 5.428 4.944 0 9.226-1.814 12.847-5.428l73.087-73.091c3.617-3.617 5.424-7.901 5.424-12.85s-1.807-9.23-5.428-12.847z"/>
</svg>
