<?xml version="1.0" encoding="UTF-8" standalone="no"?>
<svg xmlns="http://www.w3.org/2000/svg" xmlns:xlink="http://www.w3.org/1999/xlink" width="48" height="48">
  <defs>
    <radialGradient xlink:href="#a" id="b" cx="23.857143" cy="40" r="17.142857" fx="23.857143" fy="40" gradientTransform="matrix(1 0 0 .5 0 20)" gradientUnits="userSpaceOnUse"/>
    <linearGradient id="a">
      <stop offset="0"/>
      <stop offset="1" stop-opacity="0"/>
    </linearGradient>
  </defs>
  <path fill="url(#b)" d="M41 40a17.142857 8.5714283 0 1 1-34.2857132 0A17.142857 8.5714283 0 1 1 41 40z" color="#000" display="block" opacity=".6" overflow="visible" style="marker:none" transform="matrix(1.07055 0 0 .525 -.892755 22.5)"/>
  <g fill="#f57900" stroke="#8f5902">
    <path stroke-width="1.00000193" d="M45.49996985 23.00004338c0 11.87410558-9.62586427 21.49996985-21.49996985 21.49996985S2.50002979 34.87414896 2.50002979 23.00004338 12.12589442 1.5000729 24 1.5000729s21.49996985 9.62586491 21.49996985 21.4999705z"/>
    <path fill="none" stroke="#fff" stroke-width=".99999581" d="M44.49999996 22.99999997a20.49999997 20.49999997 0 1 1-40.99999994 0 20.49999997 20.49999997 0 1 1 40.99999994 0z" opacity=".35"/>
    <path fill="#fff" stroke="none" d="M24 3C12.954305 3 4 11.954305 4 23c0 1.686052.2321382 3.310816.625 4.875 3.2039734 4.793264 13.253522-.120144 20.21875-5.59375 8.00805-6.293106 17.842029 8.359347 19.125 1.4375C43.977181 23.480132 44 23.240675 44 23c0-11.045695-8.954305-20-20-20z" opacity=".25"/>
  </g>
  <text xml:space="preserve" x="14.411133" y="36.359417" fill="#fff" font-family="DejaVu Sans" font-size="36" font-weight="700" style="-inkscape-font-specification:DejaVu Sans Bold"><tspan x="14.411133" y="36.359417" style="-inkscape-font-specification:DejaVu Sans Bold">?</tspan></text>
</svg>
