<?xml version="1.0" encoding="UTF-8" standalone="no"?>
<svg xmlns="http://www.w3.org/2000/svg" xmlns:xlink="http://www.w3.org/1999/xlink" width="48" height="48" version="1.0">
  <defs>
    <radialGradient xlink:href="#a" id="b" cx="17.3125" cy="25.53125" r="9.6875" fx="17.3125" fy="25.53125" gradientTransform="matrix(1 0 0 .35161 0 16.55413)" gradientUnits="userSpaceOnUse"/>
    <linearGradient id="a">
      <stop offset="0"/>
      <stop offset="1" stop-opacity="0"/>
    </linearGradient>
  </defs>
  <path fill="url(#b)" d="M27 25.53125a9.6875 3.40625 0 1 1-19.375 0 9.6875 3.40625 0 1 1 19.375 0z" opacity=".40909089" overflow="visible" style="marker:none" transform="translate(-13.50372 -14.35012) scale(2.18291)"/>
  <path fill="#c00" stroke="#680000" stroke-linecap="round" stroke-linejoin="round" stroke-width=".98214942" d="M46.138718 23.42804a22.008699 21.213203 0 1 1-44.0173992 0 22.008699 21.213203 0 1 1 44.0173992 0z" transform="matrix(.94463 0 0 .98005 1.504174 -1.556912)"/>
  <path fill="none" stroke="#ef2929" stroke-linecap="round" stroke-linejoin="round" stroke-width=".98214942" d="M46.138718 23.42804a22.008699 21.213203 0 1 1-44.0173992 0 22.008699 21.213203 0 1 1 44.0173992 0z" transform="matrix(.91409 0 0 .94836 2.380576 -.905815)"/>
  <path fill="#fff" d="M21.464926 10.373268c-.127974 0-.23461.174494-.23461.383907l1.064769 14.440824c0 .209413.106636.383907.23461.383908 0 0 .840821.011903 1.533989 0 .228338-.003921.298214.020312.505314 0 .693168.011903 1.533989 0 1.533989 0 .127974 0 .23461-.174495.23461-.383908l1.064769-14.440824c0-.209413-.106636-.354376-.234611-.354376h-2.580711c-.009512-.001937-.008202-.029531-.018046-.029531h-3.104072zm5.199164 19.81552638a2.303442 2.30344388 0 1 1-4.606884 0 2.303442 2.30344388 0 1 1 4.606884 0z"/>
  <path fill="#fffeff" fill-opacity=".21390375" d="M43.676426 20.47678c0 10.830616-6.052169-4.306199-18.674738.386388-12.722516 4.729744-20.5666345 10.444228-20.5666345-.386388C4.4350535 9.6461627 13.22512.85609769 24.05574.85609769c10.830619 0 19.620686 8.79006501 19.620686 19.62068231z"/>
</svg>
