<?xml version="1.0" encoding="UTF-8"?>
<!-- Generator: Adobe Illustrator 19.0.0, SVG Export Plug-In . SVG Version: 6.00 Build 0)  -->
<!-- Icon made by DinosoftLabs (https://www.flaticon.com/authors/dinosoftlabs) from www.flaticon.com -->
<svg id="Capa_1" enable-background="new 0 0 468.293 468.293" version="1.1" viewBox="0 0 468.29 468.29" xml:space="preserve" xmlns="http://www.w3.org/2000/svg">
<path d="m49.348 12.832c17.11-17.111 44.851-17.11 61.962 1e-3l67.416 67.416-61.961 61.961-67.416-67.415c-17.11-17.111-17.111-44.852-1e-3 -61.963z" fill="#2F4859"/>
<path d="m187.2 78.056 148.38 148.38c29.749 29.749 47.551 69.111 50.703 110.77l18.187 18.187c3.469 3.469 3.469 9.093 0 12.561-3.469 3.469-9.093 3.469-12.561 0l-18.189-18.189c-41.663-3.155-81.021-20.954-110.77-50.703l-148.38-148.38 72.63-72.63z" fill="#D5D6DB"/>
<path d="m364.86 265.51h-135.46l33.548 33.548c29.749 29.749 69.107 47.549 110.77 50.704l18.189 18.188c3.469 3.469 9.092 3.468 12.561 0 3.469-3.469 3.469-9.093 0-12.561l-18.187-18.187c-1.914-25.305-9.307-49.725-21.425-71.692z" fill="#27A2DB"/>
<path d="m203.83 62.471c5.782 5.782 5.782 15.155 0 20.937l-83.908 83.908c-5.781 5.781-15.155 5.781-20.937 0-5.781-5.781-5.781-15.155 0-20.937l83.908-83.908c5.782-5.782 15.156-5.782 20.937 0z" fill="#64798A"/>
<path d="m398.19 376.89s-33.59 39.265-33.59 57.816 15.039 33.59 33.59 33.59 33.59-15.039 33.59-33.59c1e-3 -18.551-33.59-57.816-33.59-57.816z" fill="#27A2DB"/>
</svg>
