<?xml version="1.0" encoding="UTF-8" standalone="no"?>
<!-- Generator: Adobe Illustrator 18.1.1, SVG Export Plug-In . SVG Version: 6.00 Build 0)  -->

<!-- Icon made by Anton Saputro (https://www.flaticon.com/authors/anton-saputro) from www.flaticon.com -->

<svg
   xmlns:dc="http://purl.org/dc/elements/1.1/"
   xmlns:cc="http://creativecommons.org/ns#"
   xmlns:rdf="http://www.w3.org/1999/02/22-rdf-syntax-ns#"
   xmlns:svg="http://www.w3.org/2000/svg"
   xmlns="http://www.w3.org/2000/svg"
   xmlns:sodipodi="http://sodipodi.sourceforge.net/DTD/sodipodi-0.dtd"
   xmlns:inkscape="http://www.inkscape.org/namespaces/inkscape"
   id="Capa_1"
   enable-background="new 0 0 463.721 463.721"
   version="1.1"
   viewBox="0 0 64 64"
   xml:space="preserve"
   inkscape:version="0.91 r13725"
   sodipodi:docname="pointer.svg"
   width="64"
   height="64"><metadata
     id="metadata4353"><rdf:RDF><cc:Work
         rdf:about=""><dc:format>image/svg+xml</dc:format><dc:type
           rdf:resource="http://purl.org/dc/dcmitype/StillImage" /><dc:title></dc:title></cc:Work></rdf:RDF></metadata><defs
     id="defs4351" /><sodipodi:namedview
     pagecolor="#ffffff"
     bordercolor="#666666"
     borderopacity="1"
     objecttolerance="10"
     gridtolerance="10"
     guidetolerance="10"
     inkscape:pageopacity="0"
     inkscape:pageshadow="2"
     inkscape:window-width="1855"
     inkscape:window-height="1176"
     id="namedview4349"
     showgrid="false"
     inkscape:zoom="4.3431381"
     inkscape:cx="66.686475"
     inkscape:cy="75.031562"
     inkscape:window-x="65"
     inkscape:window-y="24"
     inkscape:window-maximized="1"
     inkscape:current-layer="Capa_1" /><path
     d="M 54.513574,31.598922 C 54.616429,30.810336 54.27362,29.987504 53.587883,29.576096 L 15.154128,4.7193127 C 14.537,4.3079051 13.714162,4.2736608 13.062791,4.6506705 12.411418,5.0278495 12,5.7134573 12,6.4678001 l 0,43.9525159 c 0,0.788588 0.445663,1.474209 1.131402,1.851374 0.685736,0.34281 1.54282,0.274322 2.159947,-0.205712 l 10.902592,-8.159699 9.9769,15.633805 C 36.548015,60.157204 37.233632,60.5 37.919368,60.5 c 0.342811,0 0.719983,-0.102887 1.028547,-0.274308 l 10.182609,-5.896916 c 0.480029,-0.274324 0.822838,-0.754235 0.959938,-1.302867 0.1371,-0.548506 0.03425,-1.131384 -0.274321,-1.57705 L 40.524978,36.809724 53.073246,33.278443 C 53.827474,33.038486 54.410355,32.387 54.51321,31.598537 Z m -17.793852,1.988473 c -0.617131,0.171469 -1.131403,0.651365 -1.371356,1.234241 -0.239953,0.617132 -0.171465,1.302864 0.171465,1.851372 l 9.599727,15.153416 -6.616945,3.839847 -10.045508,-15.839517 c -0.308564,-0.48002 -0.788592,-0.822831 -1.371355,-0.925687 -0.137101,-0.03425 -0.239955,-0.03425 -0.377174,-0.03425 -0.445662,0 -0.857081,0.137131 -1.234256,0.411423 l -9.394017,7.028317 0,-36.067867 31.473521,20.331205 -10.834102,3.017 z"
     id="path4347"
     inkscape:connector-curvature="0"
     style="fill:#000000;fill-opacity:1" /></svg>
