<?xml version="1.0" encoding="UTF-8" standalone="no"?>
<!-- Created with Inkscape (http://www.inkscape.org/) -->

<svg
   xmlns:dc="http://purl.org/dc/elements/1.1/"
   xmlns:cc="http://creativecommons.org/ns#"
   xmlns:rdf="http://www.w3.org/1999/02/22-rdf-syntax-ns#"
   xmlns:svg="http://www.w3.org/2000/svg"
   xmlns="http://www.w3.org/2000/svg"
   xmlns:sodipodi="http://sodipodi.sourceforge.net/DTD/sodipodi-0.dtd"
   xmlns:inkscape="http://www.inkscape.org/namespaces/inkscape"
   width="16"
   height="16"
   viewBox="0 0 16 16"
   id="svg2"
   version="1.1"
   inkscape:version="0.91 r13725"
   sodipodi:docname="property-missing.svg">
  <defs
     id="defs4" />
  <sodipodi:namedview
     id="base"
     pagecolor="#ffffff"
     bordercolor="#666666"
     borderopacity="1.0"
     inkscape:pageopacity="0.0"
     inkscape:pageshadow="2"
     inkscape:zoom="7.9195959"
     inkscape:cx="-8.53025"
     inkscape:cy="-6.8026956"
     inkscape:document-units="px"
     inkscape:current-layer="text4136"
     showgrid="false"
     units="px"
     inkscape:window-width="1680"
     inkscape:window-height="974"
     inkscape:window-x="0"
     inkscape:window-y="24"
     inkscape:window-maximized="1" />
  <metadata
     id="metadata7">
    <rdf:RDF>
      <cc:Work
         rdf:about="">
        <dc:format>image/svg+xml</dc:format>
        <dc:type
           rdf:resource="http://purl.org/dc/dcmitype/StillImage" />
        <dc:title />
      </cc:Work>
    </rdf:RDF>
  </metadata>
  <g
     inkscape:label="Layer 1"
     inkscape:groupmode="layer"
     id="layer1"
     transform="translate(0,-1036.3622)">
    <g
       style="font-style:normal;font-variant:normal;font-weight:normal;font-stretch:normal;font-size:19.47903824px;line-height:125%;font-family:'Nimbus Sans L';-inkscape-font-specification:'Nimbus Sans L';letter-spacing:0px;word-spacing:0px;fill:#00c400;fill-opacity:1;stroke:none;stroke-width:1px;stroke-linecap:butt;stroke-linejoin:miter;stroke-opacity:1"
       id="text4136">
      <path
         d="m 9.4117371,1047.4758 0,-0.9155 c 0,-0.857 0.2142694,-1.1882 1.5388439,-2.4154 1.460928,-1.3245 1.947904,-2.2011 1.947904,-3.4867 0,-2.2791 -1.61676,-3.74 -4.1490352,-3.74 -2.8049815,0 -4.2659094,1.5583 -4.2659094,4.5581 l 1.6557183,0 c 0,-0.896 0.097395,-1.4414 0.3311436,-1.9089 0.3701018,-0.7208 1.1492633,-1.1298 2.1816523,-1.1298 1.4998864,0 2.4933174,0.896 2.4933174,2.2206 0,0.896 -0.428539,1.6557 -1.4609283,2.5712 -1.1492633,1.0324 -1.1492633,1.0324 -1.480407,1.4804 -0.4090598,0.5454 -0.545413,0.9935 -0.545413,1.6947 l 0,1.0713 1.7531134,0 z m 0,1.8506 -1.7531134,0 0,2.0258 1.7531134,0 0,-2.0258 z"
         style=""
         id="path4163" />
    </g>
  </g>
</svg>
