<?xml version="1.0" encoding="UTF-8" standalone="no"?>
<!-- Svg Vector Icons : http://www.onlinewebfonts.com/icon -->

<svg
   xmlns:dc="http://purl.org/dc/elements/1.1/"
   xmlns:cc="http://creativecommons.org/ns#"
   xmlns:rdf="http://www.w3.org/1999/02/22-rdf-syntax-ns#"
   xmlns="http://www.w3.org/2000/svg"
   xmlns:sodipodi="http://sodipodi.sourceforge.net/DTD/sodipodi-0.dtd"
   xmlns:inkscape="http://www.inkscape.org/namespaces/inkscape"
   version="1.1"
   x="0px"
   y="0px"
   viewBox="0 0 32 32"
   enable-background="new 0 0 1000 1000"
   xml:space="preserve"
   id="svg4344"
   inkscape:version="0.91 r13725"
   sodipodi:docname="resize.svg"
   width="32"
   height="32"><defs
     id="defs4358" /><sodipodi:namedview
     pagecolor="#ffffff"
     bordercolor="#666666"
     borderopacity="1"
     objecttolerance="10"
     gridtolerance="10"
     guidetolerance="10"
     inkscape:pageopacity="0"
     inkscape:pageshadow="2"
     inkscape:window-width="1855"
     inkscape:window-height="1176"
     id="namedview4356"
     showgrid="false"
     inkscape:zoom="5.3400704"
     inkscape:cx="43.124056"
     inkscape:cy="19.093238"
     inkscape:window-x="65"
     inkscape:window-y="24"
     inkscape:window-maximized="1"
     inkscape:current-layer="svg4344" /><metadata
     id="metadata4346"> Svg Vector Icons : http://www.onlinewebfonts.com/icon <rdf:RDF><cc:Work
     rdf:about=""><dc:format>image/svg+xml</dc:format><dc:type
       rdf:resource="http://purl.org/dc/dcmitype/StillImage" /><dc:title></dc:title></cc:Work></rdf:RDF></metadata><path
     d="m 21.191731,3.0419723 2.253131,2.2531312 -3.622964,3.6226506 -3.617001,3.6170009 1.814308,1.820585 1.820585,1.814307 3.617,-3.617 3.622965,-3.6229649 2.253131,2.2531309 2.252817,2.253131 0,-6.3265332 0,-6.3205696 -6.320569,0 -6.326534,0 2.253131,2.2531311 z"
     id="path4352"
     inkscape:connector-curvature="0" /><path
     d="m 8.9470402,19.786648 -3.6170005,3.62265 -2.2531312,-2.253131 -2.25281719,-2.252817 0,6.326534 0,6.320569 6.32653359,0 6.3205691,-0.006 -4.05551,-4.037618 C 7.1807587,25.283873 6.1533836,24.262462 7.1327329,25.22392 c 0.9733853,0.967421 1.8023794,1.760317 1.8325132,1.760317 0.036098,0 1.6761939,-1.61624 3.6527849,-3.592831 l 3.586866,-3.586866 -1.820585,-1.820585 -1.814307,-1.814308 -3.6229648,3.617001 z"
     id="path4354"
     inkscape:connector-curvature="0" /></svg>
