<?xml version="1.0" encoding="UTF-8"?>
<!-- Icon made by Kiranshastry (https://www.flaticon.com/authors/kiranshastry) from www.flaticon.com -->
<svg width="472pt" height="472pt" viewBox="-10 0 472 472.01" xmlns="http://www.w3.org/2000/svg">
 <path d="m444 407.04v57.289h-53.949v-57.289z" fill="#00acea"/>
 <path d="m444 207.36v57.301h-53.949v-57.301z" fill="#00efd1"/>
 <path d="m444 7.6836v57.293h-53.949v-57.293z" fill="#00acea"/>
 <path d="m252.98 435.68v28.641h-53.941v-57.289h53.941z" fill="#00efd1"/>
 <path d="m252.98 36.324v28.652h-53.941v-57.293h53.941z" fill="#00efd1"/>
 <path d="m61.953 435.68v28.641h-53.949v-57.289h53.949z" fill="#00acea"/>
 <path d="m61.953 207.36v57.301h-53.949v-57.301z" fill="#00efd1"/>
 <path d="m61.953 36.324v28.652h-53.949v-57.293h53.949z" fill="#00acea"/>
 <path d="m8.0039 472h53.949c2.0938 0.074219 4.1289-0.69922 5.6445-2.1445s2.3828-3.4414 2.4062-5.5352v-20.32h121v20.32c0.019532 2.0938 0.88672 4.0859 2.3984 5.5352 1.5117 1.4453 3.543 2.2188 5.6328 2.1445h53.941c2.0898 0.074219 4.1211-0.69922 5.6328-2.1445 1.5117-1.4492 2.375-3.4414 2.3945-5.5352v-20.32h121v20.32c0.027344 2.0938 0.89453 4.0898 2.4102 5.5352 1.5156 1.4453 3.5469 2.2188 5.6406 2.1445h53.949c2.0898 0.074219 4.1172-0.70312 5.625-2.1484 1.5039-1.4453 2.3633-3.4414 2.375-5.5312v-57.289c0.003906-4.4258-3.5742-8.0156-8-8.0312h-19v-126h19c4.4844-0.16406 8.0273-3.8633 8-8.3477v-57.301c0.027344-4.4883-3.5156-8.1836-8-8.3516h-19v-126h19c4.4258-0.011718 8.0039-3.6055 8-8.0273v-57.293c-0.011718-2.0859-0.87109-4.082-2.375-5.5273-1.5078-1.4492-3.5352-2.2227-5.625-2.1523h-53.949c-2.0938-0.074219-4.125 0.69922-5.6406 2.1445-1.5156 1.4453-2.3828 3.4414-2.4102 5.5352v20.32h-121v-20.32c-0.019531-2.0898-0.88281-4.0859-2.3945-5.5312-1.5117-1.4453-3.543-2.2188-5.6328-2.1484h-53.941c-2.0898-0.070312-4.1211 0.70312-5.6328 2.1484-1.5117 1.4453-2.3789 3.4414-2.3984 5.5312v20.32h-121v-20.32c-0.023437-2.0938-0.89062-4.0898-2.4062-5.5352-1.5156-1.4453-3.5508-2.2188-5.6445-2.1445h-53.949c-2.0859-0.070312-4.1133 0.70312-5.6211 2.1523-1.5078 1.4453-2.3633 3.4414-2.3789 5.5273v57.293c0 4.4219 3.5781 8.0156 8 8.0273h19v126h-19c-4.4844 0.16797-8.0234 3.8633-8 8.3516v57.301c-0.023437 4.4844 3.5156 8.1836 8 8.3477h19v126h-19c-4.4219 0.015625-8 3.6055-8 8.0312v57.289c0.015625 2.0898 0.87109 4.0859 2.3789 5.5312 1.5078 1.4453 3.5352 2.2227 5.6211 2.1484zm237-16h-38v-41h38zm191 0h-38v-41h38zm0-199h-38v-42h38zm-38-241h38v41h-38zm-191 0h38v41h-38zm-191 0h38v41h-38zm0 199h38v42h-38zm27 58h18.949c4.4961-0.16016 8.0547-3.8516 8.0508-8.3477v-57.301c0.003906-4.4961-3.5547-8.1914-8.0508-8.3516h-18.949v-126h18.949c4.4375-0.007812 8.0312-3.5938 8.0508-8.0273v-20.973h121v20.973c0.011719 4.4297 3.6016 8.0156 8.0312 8.0273h53.941c4.4297-0.011718 8.0156-3.5977 8.0273-8.0273v-20.973h121v20.973c0.023438 4.4336 3.6172 8.0195 8.0508 8.0273h18.949v126h-18.949c-4.4922 0.16016-8.0547 3.8555-8.0508 8.3516v57.301c-0.003906 4.4961 3.5586 8.1875 8.0508 8.3477h18.949v126h-18.949c-4.4336 0.011719-8.0273 3.5977-8.0508 8.0312v20.969h-121v-20.969c-0.011718-4.4297-3.5977-8.0195-8.0273-8.0312h-53.941c-4.4297 0.011719-8.0195 3.6016-8.0312 8.0312v20.969h-121v-20.969c-0.019531-4.4336-3.6133-8.0195-8.0508-8.0312h-18.949zm-27 142h38v41h-38z" fill="#083863"/>
</svg>
