<?xml version="1.0" encoding="UTF-8" standalone="no"?>
<svg xmlns="http://www.w3.org/2000/svg" xmlns:xlink="http://www.w3.org/1999/xlink" width="48" height="48">
  <defs>
    <linearGradient id="b">
      <stop offset="0" stop-opacity=".32673267"/>
      <stop offset="1" stop-opacity="0"/>
    </linearGradient>
    <linearGradient id="a" x1="99.7773" x2="153.0005" y1="15.4238" y2="248.6311" gradientUnits="userSpaceOnUse">
      <stop offset="0" stop-color="#184375"/>
      <stop offset="1" stop-color="#c8bddc"/>
    </linearGradient>
    <linearGradient xlink:href="#a" id="d" x1="99.7773" x2="153.0005" y1="15.4238" y2="248.6311" gradientTransform="translate(-54.33576 -1.050787) scale(.20069)" gradientUnits="userSpaceOnUse"/>
    <radialGradient xlink:href="#b" id="c" cx="14.287618" cy="68.872971" r="11.68987" fx="14.287618" fy="72.568001" gradientTransform="matrix(1.39926 0 0 .51326 4.365074 4.839285)" gradientUnits="userSpaceOnUse"/>
  </defs>
  <path fill="url(#c)" fill-rule="evenodd" d="M44.285715 38.714287a19.928572 9.837245 0 1 1-39.8571433 0 19.928572 9.837245 0 1 1 39.8571433 0z" color="#000" overflow="visible" style="marker:none" transform="translate(-4.539687 -7.794678) scale(1.18638)"/>
  <g color="#000">
    <path fill="url(#d)" stroke="#3f4561" stroke-linecap="round" stroke-linejoin="round" d="M22.699525.94746963c-.473175.03237556-.933088.10566207-1.397852.15884687h-.03177l-1.111928 6.0679506c-1.812354.4127375-3.517413 1.1131903-5.051331 2.0650094l-4.987791-3.5899394C8.770521 6.6961412 7.543552 7.9170049 6.465374 9.2392765l3.462862 5.0513305c-1.051422 1.606783-1.842083 3.441487-2.287395 5.369025-.000076.009111-.000062.030181 0 .031769l-6.036181.953081c-.110357.901369-.158847 1.832904-.158847 2.763936 0 .761753.021033 1.513329.095308 2.255625l6.036182 1.080159c.429297 2.096161 1.244809 4.053785 2.382703 5.782026l-3.58994 4.924254c1.028135 1.276384 2.215105 2.43848 3.494632 3.462861l5.0831-3.494631c1.776475 1.133244 3.759545 1.927892 5.909103 2.319165l.953082 6.004411c.677254.061647 1.371775.063539 2.065009.063539.978685-.000001 1.91352-.037089 2.859244-.158847l1.143697-6.131489c2.040927-.507904 3.958179-1.388998 5.62318-2.573319l4.892483 3.55817c1.26877-1.079445 2.428987-2.320188 3.431093-3.653479l-3.55817-5.146638c.963606-1.664197 1.631298-3.500366 1.969701-5.464333l6.004412-.953081c.052658-.62659.063538-1.234265.063538-1.874393 0-1.1124-.129295-2.203101-.285924-3.272246l-6.09972-1.111928c-.478008-1.76508-1.262312-3.41188-2.255625-4.892484l3.589939-4.9242529c-1.112765-1.3608547-2.382122-2.6179807-3.780556-3.6852475l-5.178408 3.55817c-1.488327-.8802276-3.089979-1.5556137-4.828945-1.9379318l-.953081-6.0361813c-.867481-.1020436-1.742101-.15884687-2.636858-.15884687-.241826 1e-8-.490706-.007609-.730696 0-.116995.00370945-.232771-.00680617-.349463 0-.031605.00184333-.063763-.00215838-.095308 0zm.826004 15.43991637c.116063-.005889.231944 0 .349463 0 3.760606 0 6.830416 3.06981 6.830416 6.830416.000001 3.760605-3.069811 6.798646-6.830416 6.798646-3.760605.000001-6.798646-3.038041-6.798646-6.798646.000001-3.643086 2.851212-6.647839 6.449183-6.830416z" overflow="visible" style="marker:none"/>
    <path fill="none" stroke="#fff" stroke-width="1.62180054" d="M36.239223 23.781593a12.727922 12.727922 0 1 1-25.455844 0 12.727922 12.727922 0 1 1 25.455844 0z" opacity=".64772728" overflow="visible" style="marker:none" transform="translate(9.38202 8.539674) scale(.6166)"/>
    <path fill="none" stroke="#fff" stroke-width=".99999923" d="m21.995808 2.1484671-.892784 5.8750572c-1.69877.3868703-4.823582 1.5700792-6.261367 2.4622467l-4.749682-3.5451442c-1.26383.9811989-1.350501 1.0477388-2.361108 2.287142l3.434196 5.0932192c-.985526 1.506083-2.169267 4.189994-2.594285 6.107942l-6.01779 1.014425c-.103441.844879-.053728 2.653173.015892 3.348948l5.748217 1.035517c.402393 1.96479 1.908227 5.127412 2.974807 6.747341l-3.635002 4.802558c.963699 1.196391 1.156572 1.30587 2.355908 2.266051l4.860631-3.561037c1.66514 1.062221 4.970289 2.354376 6.98513 2.721127l.797728 5.801092c.63481.057784 2.38853.219875 3.274984.105749l.892783-6.03888c1.913018-.476072 5.218473-1.832925 6.779125-2.943023l4.855433 3.50816c1.189254-1.011792 1.199909-1.164249 2.139211-2.41398l-3.59802-5.114311c.903215-1.5599 2.071087-4.610599 2.388282-6.45148l5.890949-.977443c.049353-.58732.051756-2.225166-.095056-3.227305l-6.001898-1.035517c-.448052-1.654459-1.985674-4.635769-2.916733-6.02358l3.814716-4.8025563c-1.043023-1.2755677-1.430835-1.4505855-2.741627-2.4509645l-5.024454 3.5980178c-1.395053-.8250608-4.176899-2.0827973-5.80688-2.4411548l-.887586-5.7482171c-.813114-.0956484-3.15904-.053175-3.62372 0z" opacity=".34659089" overflow="visible" style="marker:none"/>
    <path fill="#fff" d="M10.102903 6.2970655C8.7545689 7.3438694 8.1656464 7.9719226 7.0874684 9.2941942l3.4024586 4.9649588c-1.0514198 1.598602-2.1582995 4.166961-2.3475411 5.728553l-6.0625 1.044194c-.068973.563356-.1736359 1.852903-.1736359 1.852903l.1767767 1.5625c.42773.088335.840155.170515 1.28125.21875l.5-1.53125c.344041.028476.679653.0625 1.03125.0625.351208 0 .718458-.03383 1.0625-.0625l.46875 1.53125c.441288-.048235.884772-.130415 1.3125-.21875v-1.5625c.685757-.159623 1.332001-.387758 1.96875-.65625l.9375003 1.28125c.402351-.182094.775596-.375819 1.15625-.59375l-.5-1.5c.597233-.36225 1.161752-.795347 1.6875-1.25l1.28125.9375c.325635-.29658.641113-.611862.9375-.9375l-.9375-1.25c.454846-.525748.8565-1.089882 1.21875-1.6875l1.5.46875c.217931-.380847.443294-.754094.625-1.15625l-1.28125-.9375c.26849-.636749.464989-1.282992.625-1.96875h1.59375c.088335-.427727.139459-.871212.1875-1.3125l-1.5-.46875c.028862-.343848.0625-.711097.0625-1.0625-.000001-.351403-.034024-.687014-.0625-1.0312496l1.5-.46875c-.045547-.4198872-.105591-.8419986-.1875-1.25-1.147428.399301-2.55266 1.1531195-3.568512 1.7834709l-4.880362-3.5274588zM37.236641 17.217754c-.383781.181376-.746638.385755-1.113405.595541l.56965 1.734841c-.697094.4223-1.35473.919689-1.967878 1.450015l-1.475909-1.087512c-.380086.345899-.741772.707584-1.087511 1.087512l1.087511 1.475908c-.530326.613312-1.027552 1.270943-1.450015 1.967878l-.543756-.181252c-.047682.700283-.236379 1.361485-.517862 1.967878l.103572.077679c-.313157.74268-.564548 1.530398-.750901 2.330382h-1.475908c-.136283.085452-.270553.18506-.414291.258931-.07837.415267-.134912.817326-.181251 1.242871l1.760733.569648c-.033387.401276-.051787.807195-.051787 1.216978-.000002.409941.018401.815701.051787 1.216977l-1.760733.569648c.056018.514755.129991 1.02867.233038 1.527695l1.838412-.025893c.128118.549987.303065 1.107439.49197 1.631267.744916-.28728 1.473833-.630185 2.149129-1.035725-.411587-1.216041-.647328-2.529108-.647328-3.883969.000001-5.197933 3.292381-9.636655 7.897405-11.341191l-1.087511-.181253c-.222788-.822662-.511324-1.628591-.880367-2.382167-.010854-.022164-.014925-.055581-.025893-.07768l-.051786-.051786-.699115-.673221z" opacity=".5" overflow="visible" style="marker:none"/>
  </g>
</svg>
