<?xml version="1.0" encoding="UTF-8" standalone="no"?>
<!-- Created with Inkscape (http://www.inkscape.org/) -->

<svg
   width="8.4666672mm"
   height="8.4666662mm"
   viewBox="0 0 8.4666672 8.4666662"
   version="1.1"
   id="svg5"
   xmlns="http://www.w3.org/2000/svg"
   xmlns:svg="http://www.w3.org/2000/svg">
  <defs
     id="defs2">
    <symbol
       id="LeftArrow">
      <title
         id="title2203">Left Arrow</title>
      <path
         d="M 2.38125,9.525 8.2020833,3.7041667 H 12.170833 L 7.9375,7.9375 h 8.466667 v 3.175 H 7.9375 l 4.233333,4.233333 H 8.2020833 Z"
         style="stroke:none;stroke-width:0.264583"
         id="path2205" />
    </symbol>
    <symbol
       id="RightArrow">
      <title
         id="title2155">Right Arrow</title>
      <path
         d="m 16.66875,9.525 -5.820833,5.820833 H 6.8791667 L 11.1125,11.1125 H 2.6458333 V 7.9375 H 11.1125 L 6.8791667,3.7041667 h 3.9687503 z"
         style="stroke:none;stroke-width:0.264583"
         id="path2157" />
    </symbol>
  </defs>
  <g
     id="layer1"
     transform="translate(-23.876542,-121.80786)">
    <g
       id="g4277">
      <g
         id="use3424"
         style="fill:#000000;stroke:#000000"
         transform="matrix(0.17484907,0,0,0.36428191,23.460175,122.56206)">
        <title
           id="title4268">Left Arrow</title>
        <path
           d="M 2.38125,9.525 C 4.3215278,7.5847222 6.2618055,5.6444445 8.2020833,3.7041667 c 1.3229166,0 2.6458327,0 3.9687497,0 C 10.759722,5.1152778 9.348611,6.5263889 7.9375,7.9375 c 2.822222,0 5.644445,0 8.466667,0 0,1.0583333 0,2.116667 0,3.175 -2.822222,0 -5.644445,0 -8.466667,0 1.411111,1.411111 2.822222,2.822222 4.233333,4.233333 -1.322917,0 -2.6458331,0 -3.9687497,0 C 6.2618055,13.405555 4.3215278,11.465278 2.38125,9.525 Z"
           style="stroke:none;stroke-width:0.264583"
           id="path4270" />
      </g>
      <path
         style="color:#000000;fill:#000000;stroke-width:0.290755;stroke-linecap:round;stroke-linejoin:round;-inkscape-stroke:none;paint-order:stroke fill markers"
         d="m 26.535226,121.79296 c -0.312098,0.0653 -0.21795,0.57167 -0.232974,0.90556 0,2.38094 0,4.76187 0,7.14279 0.04569,0.49472 0.377834,0.33958 0.596005,0.36571 0.216288,0.0558 0.492917,-0.0985 0.445581,-0.51567 0,-2.51089 0,-5.02179 0,-7.53268 -0.04569,-0.49471 -0.377835,-0.33957 -0.596004,-0.36571 -0.07087,0 -0.141738,0 -0.212608,0 z m 0.232975,0.73142 c 0.171407,-0.0817 0.09288,0.2289 0.109689,0.3899 0,2.1871 0,4.37421 0,6.56134 -0.171407,0.0817 -0.09288,-0.22892 -0.109689,-0.38991 0,-2.18711 0,-4.37422 0,-6.56133 z"
         id="path4278" />
      <path
         style="fill:#000000;stroke:#000000;stroke-width:0.061633;stroke-linecap:round;stroke-linejoin:round;paint-order:stroke fill markers"
         d="m 26.877807,126.19385 c 0,-1.80419 0.0019,-2.53987 0.0042,-1.63482 0.0023,0.90504 0.0023,2.38122 -1e-6,3.28036 -0.0023,0.89916 -0.0042,0.15868 -0.0042,-1.64554 z"
         id="path2327" />
      <path
         style="fill:#000000;stroke:#000000;stroke-width:0.061633;stroke-linecap:round;stroke-linejoin:round;paint-order:stroke fill markers"
         d="m 26.78795,129.44188 c -0.01079,-0.0282 -0.01642,-1.21945 -0.01642,-3.47469 0,-3.23345 0.0016,-3.43247 0.02823,-3.44259 0.06721,-0.0256 0.07002,0.008 0.07002,0.8295 0,0.50485 -0.0058,0.78712 -0.01637,0.79358 -0.02282,0.0139 -0.02261,4.08779 2.05e-4,4.11042 0.01075,0.0106 0.01507,0.22729 0.01228,0.61607 -0.004,0.55582 -0.0064,0.60002 -0.0329,0.60508 -0.01866,0.004 -0.03432,-0.009 -0.04503,-0.0373 z"
         id="path2372" />
      <path
         style="fill:#000000;stroke:#000000;stroke-width:0.061633;stroke-linecap:round;stroke-linejoin:round;paint-order:stroke fill markers"
         d="m 26.73059,130.1986 c -0.254553,-0.0118 -0.303659,-0.0326 -0.367724,-0.15605 l -0.04165,-0.0802 -0.0044,-1.68529 -0.0044,-1.68529 h -0.736579 c -0.405118,0 -0.736096,0.006 -0.735507,0.0122 5.91e-4,0.007 0.164846,0.35199 0.365013,0.7673 l 0.363941,0.75515 -0.327003,0.004 c -0.17985,0.002 -0.332885,-10e-4 -0.340076,-0.009 -0.01369,-0.0135 -0.947891,-1.94956 -0.990413,-2.05246 l -0.02445,-0.0591 0.503496,-1.04917 0.503497,-1.04917 h 0.332712 c 0.182992,0 0.332713,0.003 0.332713,0.007 0,0.004 -0.159147,0.33821 -0.35366,0.74296 -0.194513,0.40474 -0.357414,0.74503 -0.362002,0.7562 -0.0066,0.016 0.145849,0.0203 0.730285,0.0203 h 0.738628 l 2.55e-4,-1.65237 c 2.69e-4,-1.73445 0.0018,-1.77353 0.07202,-1.87986 0.06269,-0.0949 0.104873,-0.10529 0.427412,-0.10535 0.255742,-6e-5 0.302601,0.004 0.352064,0.03 0.0662,0.0348 0.124001,0.11214 0.146839,0.19625 0.01023,0.0376 0.01637,1.47722 0.017,3.97999 l 9.55e-4,3.92095 -0.04593,0.0891 c -0.05519,0.10703 -0.154412,0.17592 -0.266491,0.18503 -0.04053,0.003 -0.169483,0.002 -0.286563,-0.004 z m 0.150033,-0.76903 c -0.0045,-0.0111 -0.0082,-0.002 -0.0082,0.0203 0,0.0223 0.0037,0.0315 0.0082,0.0203 0.0045,-0.0112 0.0045,-0.0295 0,-0.0406 z m -0.114626,-6.90177 c -0.0045,-0.0112 -0.0082,-0.002 -0.0082,0.0203 0,0.0223 0.0037,0.0315 0.0082,0.0203 0.0045,-0.0112 0.0045,-0.0295 0,-0.0406 z"
         id="path2417" />
      <path
         style="fill:#000000;stroke:#000000;stroke-width:0.061633;stroke-linecap:round;stroke-linejoin:round;paint-order:stroke fill markers"
         d="m 29.478439,121.80356 c 0.254463,0.0134 0.303423,0.0346 0.366624,0.15855 l 0.04081,0.0806 -0.0071,1.68528 -0.0071,1.68528 0.736572,0.005 c 0.405098,0.003 0.736112,-0.001 0.735567,-0.007 -0.0011,-0.007 -0.162075,-0.35323 -0.360121,-0.76956 l -0.35893,-0.75751 0.327029,-0.002 c 0.179873,-8.2e-4 0.332873,0.003 0.340012,0.0113 0.01392,0.0137 0.93451,1.9559 0.976322,2.0591 l 0.02422,0.0593 -0.510676,1.04575 -0.510684,1.04574 -0.332709,-0.002 c -0.182973,-0.001 -0.332691,-0.005 -0.332665,-0.009 1.16e-4,-0.004 0.16111,-0.33729 0.358739,-0.74056 0.197342,-0.40339 0.362458,-0.74264 0.367182,-0.75375 0.0067,-0.016 -0.145731,-0.0213 -0.730127,-0.0252 l -0.738613,-0.005 -0.01154,1.65234 c -0.01211,1.7344 -0.01391,1.77346 -0.08485,1.87933 -0.0633,0.0945 -0.105602,0.10454 -0.42814,0.10243 -0.255725,-0.002 -0.302584,-0.006 -0.35184,-0.0324 -0.06589,-0.0354 -0.12329,-0.11293 -0.145458,-0.19726 -0.0098,-0.0377 -0.0063,-1.47729 0.01019,-3.98 l 0.02582,-3.92089 0.04672,-0.0887 c 0.05609,-0.10657 0.155625,-0.17487 0.267747,-0.18325 0.04043,-0.003 0.169507,-8.9e-4 0.286542,0.006 z m -0.155283,0.768 c 0.0047,0.0112 0.0082,0.002 0.0084,-0.0202 6.25e-4,-0.0224 -0.0035,-0.0315 -0.0082,-0.0202 -0.0049,0.011 -0.0048,0.0294 -2.74e-4,0.0406 z m 0.06748,6.90238 c 0.0047,0.0112 0.0082,0.002 0.0084,-0.0202 6.24e-4,-0.0224 -0.0034,-0.0316 -0.0083,-0.0203 -0.0049,0.011 -0.0048,0.0294 -2.75e-4,0.0406 z"
         id="path2417-0" />
    </g>
  </g>
</svg>
