<?xml version="1.0" encoding="UTF-8" standalone="no"?>
<svg
        xmlns="http://www.w3.org/2000/svg"
        xmlns:sodipodi="http://sodipodi.sourceforge.net/DTD/sodipodi-0.dtd"
        xmlns:inkscape="http://www.inkscape.org/namespaces/inkscape"
        width="20"
        height="20"
        id="svg4782"
        version="1.1">
    <g>
        <path
                inkscape:connector-curvature="0"
                id="path6765"
                d="m 1.1880404,19.756098 17.6239196,0 c 0.519276,0 0.944139,-0.424864 0.944139,-0.944137 l 0,-17.6239194 c 0,-0.51927604 -0.424863,-0.94413804 -0.944139,-0.94413804 l -17.6239196,0 c -0.51927597,0 -0.94413797,0.424862 -0.94413797,0.94413804 l 0,17.6239194 c 0,0.519273 0.424862,0.944137 0.94413797,0.944137 z"
                style="fill:#ff0000;fill-opacity:1;stroke:#000000;stroke-width:0.48780486;stroke-opacity:1"/>
        <path
                inkscape:connector-curvature="0"
                id="path8"
                d="m 16.499969,8.5395295 c 0,-2.3012644 -1.618367,-4.1666539 -3.617437,-4.1666539 -1.176626,0 -2.221939,1.1241212 -2.882546,2.1271244 C 9.3393756,5.4985688 8.2940639,4.3728756 7.1174365,4.3728756 5.1183662,4.3728756 3.5,6.8959967 3.5,8.5395295 c 0,1.6435325 0.2971469,1.8903805 0.7932582,2.6027895 0,0 -0.845531,-0.957413 0.014625,0.02037 0.860156,0.977783 5.6961158,5.311887 5.6961158,5.311887 0,0 4.773015,-3.844976 5.70141,-5.33377 C 16.633804,9.6520125 16.5,9.0324839 16.5,8.5395832 c 0,-0.4929007 -3.1e-5,-5.37e-5 -3.1e-5,-5.37e-5 z"
                style="fill:#ffffff;fill-opacity:1"
                sodipodi:nodetypes="cscszczczzc"/>
        <path
                style="fill:none;stroke:#ff0000;stroke-width:1;stroke-linecap:butt;stroke-linejoin:miter;stroke-opacity:1;stroke-miterlimit:4;stroke-dasharray:none"
                d="m 10.00125,5.6115714 -0.9284191,1.9000874 2.1207221,0.040212 -2.188519,3.2044622 2.40183,-0.6008 -2.3092323,3.501662 0.9063673,2.817381"
                id="path941"
                sodipodi:nodetypes="ccccccc"/>
    </g>
</svg>
