<?xml version="1.0" encoding="UTF-8" standalone="no"?>
<svg
   xmlns="http://www.w3.org/2000/svg"
   xmlns:sodipodi="http://sodipodi.sourceforge.net/DTD/sodipodi-0.dtd"
   xmlns:inkscape="http://www.inkscape.org/namespaces/inkscape"
   width="20"
   height="20"
   version="1.1">
  <path
     inkscape:connector-curvature="0"
     id="path6765"
     d="M 1.1880404,19.756098 H 18.81196 c 0.519276,0 0.944139,-0.424864 0.944139,-0.944137 V 1.1880416 c 0,-0.51927604 -0.424863,-0.94413804 -0.944139,-0.94413804 H 1.1880404 c -0.51927597,0 -0.94413797,0.424862 -0.94413797,0.94413804 V 18.811961 c 0,0.519273 0.424862,0.944137 0.94413797,0.944137 z"
     style="fill:#ff6600;fill-opacity:1;stroke:#000000;stroke-width:0.487805;stroke-opacity:1" />
  <path
     transform="rotate(-135)"
     style="fill:#ffffff;stroke-width:0.72746003"
     d="m -12.694602,1.0680134 1.709489,0 0,1.8367297 -1.709489,0 z"
     id="rect1008" />
  <path
     transform="rotate(-135)"
     style="fill:#ffffff;stroke-width:0.72746003"
     d="m -17.038174,1.1007313 1.709489,0 0,1.8367296 -1.709489,0 z"
     id="rect1008-7" />
  <rect
     style="fill:#ffffff;stroke-width:0.72746003"
     id="rect1008-3"
     width="1.7094889"
     height="1.8367296"
     x="-14.875447"
     y="8.9995108"
     rx="0"
     ry="0"
     transform="matrix(-0.70710678,-0.70710678,0.70710678,-0.70710678,0,0)" />
  <path
     style="fill:#ffffff;stroke-width:0.72746003"
     d="m 3.7645366,17.041323 -1.2087912,-1.208791 1.298764,-1.298764 1.2087913,1.208791 z"
     id="rect1008-8"
     inkscape:connector-curvature="0" />
  <path
     style="fill:#ffffff;fill-opacity:1;stroke:#ffffff;stroke-width:2.550735;stroke-miterlimit:4;stroke-dasharray:none;stroke-opacity:1"
     id="path4994-3"
     sodipodi:type="arc"
     sodipodi:cx="-14.063121"
     sodipodi:cy="2.8869789"
     sodipodi:rx="3.8957629"
     sodipodi:ry="5.0514374"
     sodipodi:start="0"
     sodipodi:end="3.1415927"
     sodipodi:open="true"
     d="m -10.167358,2.8869789 a 3.8957629,5.0514374 0 0 1 -1.947881,4.3746731 3.8957629,5.0514374 0 0 1 -3.895763,-10e-8 3.8957629,5.0514374 0 0 1 -1.947882,-4.3746733"
     transform="matrix(-0.70710678,-0.70710678,0.70710678,-0.70710678,0,0)" />
  <path
     style="fill:#ffffff;fill-opacity:1;stroke:#ffffff;stroke-width:2.550735;stroke-miterlimit:4;stroke-dasharray:none;stroke-opacity:1"
     id="path4994-3-6"
     sodipodi:type="arc"
     sodipodi:cx="14.042346"
     sodipodi:cy="1.6063415"
     sodipodi:rx="3.8957629"
     sodipodi:ry="5.0514374"
     sodipodi:start="0"
     sodipodi:end="3.1415927"
     sodipodi:open="true"
     d="m 17.938109,1.6063415 a 3.8957629,5.0514374 0 0 1 -1.947882,4.3746731 3.8957629,5.0514374 0 0 1 -3.895763,-1e-7 3.8957629,5.0514374 0 0 1 -1.947881,-4.3746733"
     transform="matrix(0.70710678,0.70710678,-0.70710678,0.70710678,0,0)" />
</svg>
