<?xml version="1.0" encoding="UTF-8" standalone="no"?>
<!-- Generated by IcoMoon.io -->

<svg
   xmlns:dc="http://purl.org/dc/elements/1.1/"
   xmlns:cc="http://creativecommons.org/ns#"
   xmlns:rdf="http://www.w3.org/1999/02/22-rdf-syntax-ns#"
   xmlns:svg="http://www.w3.org/2000/svg"
   xmlns="http://www.w3.org/2000/svg"
   xmlns:sodipodi="http://sodipodi.sourceforge.net/DTD/sodipodi-0.dtd"
   xmlns:inkscape="http://www.inkscape.org/namespaces/inkscape"
   version="1.1"
   width="64"
   height="64"
   viewBox="0 0 64 64"
   id="svg2"
   inkscape:version="0.91 r13725"
   sodipodi:docname="target.svg">
  <metadata
     id="metadata20">
    <rdf:RDF>
      <cc:Work
         rdf:about="">
        <dc:format>image/svg+xml</dc:format>
        <dc:type
           rdf:resource="http://purl.org/dc/dcmitype/StillImage" />
        <dc:title></dc:title>
      </cc:Work>
    </rdf:RDF>
  </metadata>
  <defs
     id="defs18" />
  <sodipodi:namedview
     pagecolor="#ffffff"
     bordercolor="#666666"
     borderopacity="1"
     objecttolerance="10"
     gridtolerance="10"
     guidetolerance="10"
     inkscape:pageopacity="0"
     inkscape:pageshadow="2"
     inkscape:window-width="1855"
     inkscape:window-height="1176"
     id="namedview16"
     showgrid="false"
     inkscape:zoom="5.2149125"
     inkscape:cx="16.166597"
     inkscape:cy="69.35262"
     inkscape:window-x="65"
     inkscape:window-y="24"
     inkscape:window-maximized="1"
     inkscape:current-layer="svg2" />
  <g
     id="g4"
     transform="translate(0,-448)"
     style="stroke-width:2;stroke-miterlimit:4;stroke-dasharray:none;stroke:#000000;stroke-opacity:1" />
  <path
     style="fill:#000000;stroke:#000000;stroke-width:1.5;stroke-miterlimit:4;stroke-dasharray:none;stroke-opacity:1"
     inkscape:connector-curvature="0"
     d="m 47.872893,32 c 0,8.956795 -7.119602,16.24336 -15.874188,16.24336 -8.75323,0 -15.874189,-7.286439 -15.874189,-16.24336 0,-8.953006 7.122193,-16.240834 15.874189,-16.240834 8.75582,0 15.874188,7.286565 15.874188,16.240834 z M 31.998705,12.174025 c -10.68002,0 -19.374024,8.890888 -19.374024,19.825975 0,10.935087 8.694004,19.827239 19.374024,19.827239 10.68261,0 19.379082,-8.89354 19.379082,-19.827239 0,-10.934959 -8.696472,-19.82585 -19.379082,-19.82585 z"
     id="path6" />
  <path
     style="fill:#000000;stroke:#000000;stroke-width:1.5;stroke-miterlimit:4;stroke-dasharray:none;stroke-opacity:1"
     inkscape:connector-curvature="0"
     d="m 33.751029,27.044485 0,-26.06260299 -3.503537,0 0,26.06134099 c 0.553384,-0.202893 1.134654,-0.332178 1.752446,-0.332178 0.617793,0 1.197706,0.129285 1.751091,0.333566 z"
     id="path8" />
  <path
     style="fill:#000000;stroke:#000000;stroke-width:1.5;stroke-miterlimit:4;stroke-dasharray:none;stroke-opacity:1"
     inkscape:connector-curvature="0"
     d="m 30.246257,36.956778 0,26.06134 3.503538,0 0,-26.06134 c -0.553385,0.203019 -1.134532,0.333566 -1.752448,0.333566 -0.617915,0 -1.197828,-0.130547 -1.75109,-0.333566 z"
     id="path10" />
  <path
     style="fill:#000000;stroke:#000000;stroke-width:1.5;stroke-miterlimit:4;stroke-dasharray:none;stroke-opacity:1"
     inkscape:connector-curvature="0"
     d="m 27.154581,30.208186 -26.17269901,0 0,3.582492 26.17269901,0 c -0.199637,-0.56234 -0.325984,-1.159654 -0.325984,-1.794464 0,-0.628246 0.126347,-1.22695 0.325984,-1.788028 z"
     id="path12" />
  <path
     style="fill:#000000;stroke:#000000;stroke-width:1.50428426;stroke-miterlimit:4;stroke-dasharray:none;stroke-opacity:1"
     inkscape:connector-curvature="0"
     d="m 63.20805,30.210643 -26.361175,0 c 0.201057,0.560309 0.328301,1.156805 0.328301,1.786837 0,0.632679 -0.127244,1.230308 -0.328301,1.792003 l 26.361175,0 0,-3.578965 z"
     id="path14" />
</svg>
