<?xml version="1.0" encoding="UTF-8" standalone="no"?>
<!-- Svg Vector Icons : http://www.onlinewebfonts.com/icon -->

<svg
   xmlns:dc="http://purl.org/dc/elements/1.1/"
   xmlns:cc="http://creativecommons.org/ns#"
   xmlns:rdf="http://www.w3.org/1999/02/22-rdf-syntax-ns#"
   xmlns:svg="http://www.w3.org/2000/svg"
   xmlns="http://www.w3.org/2000/svg"
   xmlns:sodipodi="http://sodipodi.sourceforge.net/DTD/sodipodi-0.dtd"
   xmlns:inkscape="http://www.inkscape.org/namespaces/inkscape"
   version="1.1"
   x="0px"
   y="0px"
   viewBox="0 0 32 32"
   enable-background="new 0 0 1000 1000"
   xml:space="preserve"
   id="svg2"
   inkscape:version="0.91 r13725"
   sodipodi:docname="weblink.svg"
   width="32"
   height="32"><defs
     id="defs12" /><sodipodi:namedview
     pagecolor="#ffffff"
     bordercolor="#666666"
     borderopacity="1"
     objecttolerance="10"
     gridtolerance="10"
     guidetolerance="10"
     inkscape:pageopacity="0"
     inkscape:pageshadow="2"
     inkscape:window-width="1855"
     inkscape:window-height="1176"
     id="namedview10"
     showgrid="false"
     inkscape:zoom="10.680141"
     inkscape:cx="54.970216"
     inkscape:cy="38.753407"
     inkscape:window-x="65"
     inkscape:window-y="24"
     inkscape:window-maximized="1"
     inkscape:current-layer="svg2" /><metadata
     id="metadata4"> Svg Vector Icons : http://www.onlinewebfonts.com/icon <rdf:RDF><cc:Work
     rdf:about=""><dc:format>image/svg+xml</dc:format><dc:type
       rdf:resource="http://purl.org/dc/dcmitype/StillImage" /><dc:title></dc:title></cc:Work></rdf:RDF></metadata><g
     id="g6"
     transform="matrix(0.029617,0,0,0.029617,1.1103499,1.3644692)"><path
       d="m 922.4,81.4 -3.8,-3.9 C 828.5,-12.5 681,-12.5 591,77.6 L 382.2,286.3 c -90.1,90.1 -90.1,237.5 0,327.6 l 3.9,3.9 c 7.5,7.5 15.4,14.3 23.7,20.5 l 76.4,-76.4 c -8.9,-5.3 -17.4,-11.6 -25,-19.2 l -3.9,-3.8 C 408.4,490 408.4,410.4 457.3,361.4 L 666.1,152.7 c 48.9,-48.9 128.5,-48.9 177.4,0 l 3.9,3.8 c 48.9,48.9 48.9,128.5 0,177.4 L 753,428.3 c 16.4,40.5 24.2,83.7 23.5,126.7 l 146,-146 c 90,-90 90,-237.5 -0.1,-327.6 l 0,0 0,0 z M 613.9,382.2 c -7.5,-7.5 -15.5,-14.3 -23.7,-20.5 l -76.4,76.4 c 8.9,5.3 17.3,11.6 25,19.2 l 3.9,3.8 c 48.9,48.9 48.9,128.5 0,177.4 L 333.9,847.4 c -48.9,48.9 -128.5,48.9 -177.4,0 l -3.9,-3.9 c -48.9,-48.9 -48.9,-128.5 0,-177.4 l 94.5,-94.5 C 230.7,531.1 222.9,487.9 223.6,444.9 l -146,146 c -90.1,90.1 -90.1,237.5 0,327.6 l 3.9,3.9 c 90.1,90.1 237.5,90.1 327.6,0 L 617.8,713.7 c 90.1,-90.1 90.1,-237.5 0,-327.6 l -3.9,-3.9 0,0 z"
       id="path8"
       inkscape:connector-curvature="0" /></g></svg>