<?xml version="1.0" encoding="UTF-8" standalone="no"?>
<svg
   xmlns:dc="http://purl.org/dc/elements/1.1/"
   xmlns:cc="http://creativecommons.org/ns#"
   xmlns:rdf="http://www.w3.org/1999/02/22-rdf-syntax-ns#"
   xmlns:svg="http://www.w3.org/2000/svg"
   xmlns="http://www.w3.org/2000/svg"
   version="1.1"
   id="svg2"
   viewBox="0 0 44.856209 43.797714"
   height="12.360688mm"
   width="12.659419mm">
  <defs
     id="defs4">
    <radialGradient
       id="radialGradient4120"
       gradientUnits="userSpaceOnUse"
       cy="63.965"
       cx="15.116"
       gradientTransform="scale(1.644,0.60828)"
       r="12.289">
      <stop
         id="stop4116"
         offset="0" />
      <stop
         id="stop4118"
         stop-opacity="0"
         offset="1" />
    </radialGradient>
    <radialGradient
       id="radialGradient4356"
       gradientUnits="userSpaceOnUse"
       cy="10.476"
       cx="11.827"
       gradientTransform="scale(1.1795,0.84779)"
       r="32.665001">
      <stop
         id="stop4352"
         stop-color="#fff"
         offset="0" />
      <stop
         id="stop4354"
         stop-color="#fff"
         stop-opacity="0"
         offset="1" />
    </radialGradient>
    <radialGradient
       id="radialGradient293"
       gradientUnits="userSpaceOnUse"
       cy="12.142"
       cx="15.601"
       gradientTransform="scale(0.99999,1)"
       r="43.527">
      <stop
         id="stop4128"
         stop-color="#fff"
         offset="0" />
      <stop
         id="stop4130"
         stop-color="#fff"
         stop-opacity=".16495"
         offset="1" />
    </radialGradient>
    <radialGradient
       id="radialGradient377"
       gradientUnits="userSpaceOnUse"
       cy="15.716"
       cx="18.247999"
       gradientTransform="scale(0.99999,1)"
       r="29.993">
      <stop
         id="stop3964"
         stop-color="#d3e9ff"
         offset="0" />
      <stop
         id="stop4134"
         stop-color="#d3e9ff"
         offset=".15517" />
      <stop
         id="stop4346"
         stop-color="#4074ae"
         offset=".75" />
      <stop
         id="stop3966"
         stop-color="#36486c"
         offset="1" />
    </radialGradient>
    <radialGradient
       id="radialGradient636"
       fx="18.934"
       fy="17.809999"
       gradientUnits="userSpaceOnUse"
       cy="17.486"
       cx="18.634001"
       gradientTransform="matrix(1.0185,0,0,0.94748,-0.080952,0.030883)"
       r="40.693001">
      <stop
         id="stop4752"
         stop-color="#fff"
         offset="0" />
      <stop
         id="stop4758"
         stop-color="#fefefe"
         offset=".37931" />
      <stop
         id="stop4754"
         stop-color="#1d1d1d"
         offset="1" />
    </radialGradient>
  </defs>
  <metadata
     id="metadata7">
    <rdf:RDF>
      <cc:Work
         rdf:about="">
        <dc:format>image/svg+xml</dc:format>
        <dc:type
           rdf:resource="http://purl.org/dc/dcmitype/StillImage" />
        <dc:title></dc:title>
      </cc:Work>
    </rdf:RDF>
  </metadata>
  <g
     transform="translate(-235.63028,-296.61453)"
     id="layer1">
    <g
       transform="translate(233.16668,293.01953)"
       id="g3390">
      <path
         style="fill:url(#radialGradient4120)"
         id="path4112"
         d="m 45.053,38.909 a 20.203,7.4751 0 1 1 -40.406,0 20.203,7.4751 0 1 1 40.406,0 z"
         transform="matrix(1,0,0,1.2432,0,-10.272)" />
      <path
         style="fill:url(#radialGradient377);stroke:#39396c"
         d="m 43.96,23.485 c 0,10.71 -8.682,19.392 -19.39,19.392 -10.71,0 -19.391,-8.682 -19.391,-19.392 -3e-4,-10.709 8.681,-19.39 19.391,-19.39 10.708,2e-4 19.39,8.681 19.39,19.39 z"
         id="path3359" />
      <path
         style="opacity:0.42000002;fill:url(#radialGradient4356)"
         id="path4348"
         d="m 30.709,15.271 a 12.93,9.2934 0 1 1 -25.86,0 12.93,9.2934 0 1 1 25.86,0 z"
         transform="matrix(0.83594,0,0,1,9.8869,0)" />
      <path
         style="fill-opacity:0.70999995"
         d="m 18.519,14.641 0.429,-0.647 -0.643,-0.484 0.214,1.131 m -0.356,13.336 -0.572,-1.132 -1.071,-0.242 -0.572,-1.535 -1.428,0.161 -1.213,-0.888 -1.286,1.131 0,0.178 c -0.389,-0.112 -0.867,-0.127 -1.214,-0.34 l -0.286,-0.808 0,-0.889 -0.8564,0.08 c 0.0715,-0.566 0.1425,-1.131 0.2145,-1.697 l -0.5004,0 -0.4993,0.647 -0.5003,0.242 -0.7143,-0.403 -0.0715,-0.89 0.1429,-0.97 1.0716,-0.807 0.8567,0 0.1425,-0.486 1.071,0.242 0.786,0.971 0.143,-1.618 1.357,-1.131 0.499,-1.212 1,-0.404 0.571,-0.808 1.285,-0.244 0.644,-0.969 -1.929,0 1.214,-0.566 0.857,0 1.214,-0.405 0.143,-0.483 -0.429,-0.405 -0.5,-0.162 0.143,-0.484 -0.357,-0.728 -0.857,0.323 0.143,-0.646 -0.999,-0.566 -0.786,1.373 0.071,0.485 -0.785,0.324 -0.5,1.051 -0.214,-0.97 L 12.235,11.731 12.02,11.004 13.806,9.9524 14.592,9.2252 14.663,8.3364 14.235,8.0937 13.663,8.0126 13.307,8.9019 c 0,0 -0.598,0.117 -0.751,0.155 -1.961,1.8071 -5.9232,5.7081 -6.8437,13.071 0.0365,0.171 0.6673,1.161 0.6673,1.161 l 1.4995,0.889 1.4995,0.404 0.6434,0.809 0.999,0.727 0.571,-0.08 0.429,0.193 0,0.13 -0.571,1.535 -0.429,0.647 0.143,0.324 -0.357,1.211 1.285,2.345 1.285,1.132 0.572,0.807 -0.072,1.698 0.429,0.969 -0.429,1.86 c 0,0 -0.033,-0.012 0.021,0.174 0.056,0.186 2.288,1.426 2.43,1.32 0.142,-0.107 0.263,-0.201 0.263,-0.201 l -0.143,-0.403 0.571,-0.566 0.215,-0.566 0.928,-0.325 0.714,-1.778 -0.214,-0.484 0.499,-0.727 1.072,-0.243 0.571,-1.294 -0.143,-1.615 0.857,-1.213 0.143,-1.212 c -1.172,-0.582 -2.335,-1.18 -3.499,-1.779 m -3.427,-18.994 -0.358,0.8888 0.715,0 0.357,-0.8083 c 0.308,-0.2177 0.615,-0.4369 0.928,-0.6466 l 0.715,0.2428 c 0.475,0.3233 0.951,0.6466 1.428,0.9694 L 19.234,8.9829 18.448,8.6596 18.091,7.9319 16.734,7.7703 16.663,7.3659 16.02,7.528 15.734,8.0936 15.377,7.366 15.235,7.6893 15.306,8.4976 14.735,8.9829 M 26.517,5.9926 24.66,5.265 l -2.141,0.2423 -2.643,0.7271 -0.5,0.4854 1.643,1.1311 0,0.6466 -0.643,0.6466 0.857,1.6987 0.57,-0.324 0.716,-1.1316 c 1.103,-0.341 2.092,-0.7276 3.141,-1.2126 l 0.857,-2.182 m -0.785,3.3136 -0.072,0.4845 0.501,0.3231 0.855,-0.5654 -0.427,-0.485 -0.572,0.3238 -0.285,-0.081 m 2.714,3.4766 -0.286,-0.729 -0.501,0.163 0.144,0.888 0.643,-0.322 m 14.969,7.799 0,0 -0.535,0.606 c -0.328,-0.386 -0.696,-0.711 -1.07,-1.051 l -0.822,0.121 -0.75,-0.848 0,1.049 0.643,0.487 0.428,0.484 0.571,-0.646 c 0.144,0.269 0.286,0.539 0.429,0.808 l 0,0.808 -0.643,0.727 -1.179,0.809 -0.892,0.89 -0.571,-0.648 0.285,-0.727 -0.57,-0.647 -0.965,-2.061 -0.821,-0.928 -0.215,0.241 0.323,1.173 0.606,0.687 c 0.346,0.999 0.689,1.955 1.144,2.91 0.705,0 1.369,-0.075 2.07,-0.163 l 0,0.566 -0.857,2.102 -0.786,0.888 -0.642,1.376 0,2.262 0.215,0.89 -0.357,0.403 -0.787,0.486 -0.821,0.686 0.679,0.768 -0.929,0.81 0.179,0.523 -1.393,1.578 -0.928,0 -0.786,0.485 -0.5,0 0,-0.647 -0.213,-1.295 c -0.277,-0.811 -0.564,-1.617 -0.857,-2.423 0,-0.595 0.035,-1.184 0.071,-1.779 l 0.358,-0.807 -0.501,-0.971 0.036,-1.334 -0.679,-0.767 0.34,-1.111 -0.553,-0.627 -0.965,0 -0.321,-0.364 -0.964,0.607 -0.393,-0.446 -0.893,0.768 c -0.606,-0.687 -1.213,-1.374 -1.821,-2.061 l -0.713,-1.698 0.642,-0.969 -0.356,-0.404 0.784,-1.86 c 0.645,-0.802 1.318,-1.571 2,-2.343 l 1.214,-0.324 1.357,-0.161 0.928,0.243 1.321,1.332 0.465,-0.524 0.641,-0.081 1.215,0.404 0.929,0 0.642,-0.566 0.286,-0.404 -0.644,-0.404 -1.071,-0.08 c -0.298,-0.413 -0.574,-0.847 -0.927,-1.213 l -0.358,0.161 -0.143,1.052 -0.643,-0.728 -0.141,-0.809 -0.714,-0.564 -0.287,0 0.715,0.807 -0.286,0.728 -0.571,0.161 0.357,-0.727 -0.644,-0.323 -0.57,-0.646 -1.072,0.241 -0.142,0.323 -0.643,0.405 -0.357,0.889 -0.892,0.444 -0.394,-0.444 -0.427,0 0,-1.455 0.928,-0.486 0.714,0 -0.144,-0.565 -0.57,-0.566 0.963,-0.202 0.536,-0.606 0.428,-0.728 0.786,0 -0.215,-0.565 0.501,-0.323 0,0.647 1.071,0.241 1.07,-0.888 0.072,-0.405 0.928,-0.646 c -0.336,0.042 -0.672,0.072 -1,0.162 l 0,-0.728 0.357,-0.8087 -0.357,0 -0.784,0.7272 -0.215,0.4045 0.215,0.566 -0.358,0.969 -0.571,-0.323 -0.499,-0.565 -0.786,0.565 -0.286,-1.293 1.356,-0.8886 0,-0.4854 0.858,-0.5655 1.356,-0.3238 0.929,0.3238 1.713,0.3233 -0.427,0.4845 -0.929,0 0.929,0.9697 0.713,-0.8076 0.217,-0.3554 c 0,0 2.738,2.454 4.303,5.138 1.565,2.685 2.299,5.85 2.299,6.493 z M 17.305,6.9618 17.662,6.639 18.377,6.4773 c 0.489,-0.238 0.98,-0.3982 1.499,-0.5661 l -0.285,-0.485 -0.922,0.1324 -0.435,0.4342 -0.718,0.1041 -0.639,0.2998 -0.31,0.1501 -0.19,0.2538 0.928,0.1612 m -0.714,2.6674 0.714,0.4848 0.572,0 0,-0.5654 -0.714,-0.3233 -0.572,0.4039 m 12.14,2.9908 -0.143,0.97 0.785,-0.162 0.571,-0.565 -0.5,-0.485 c -0.167,-0.447 -0.36,-0.865 -0.57,-1.293 l -0.428,0 0,0.484 0.285,0.323 0,0.728"
         id="path3362" />
      <path
         style="fill:url(#radialGradient636)"
         d="m 18.317,14.439 0.429,-0.647 -0.643,-0.484 0.214,1.131 m -3.784,-5.6579 -0.358,0.8888 0.715,0 0.357,-0.8083 C 15.555,8.6438 15.862,8.4247 16.175,8.215 l 0.715,0.2428 c 0.475,0.3233 0.951,0.6466 1.427,0.9694 L 19.032,8.7811 18.246,8.4578 17.889,7.7301 16.532,7.5684 16.461,7.1641 15.818,7.3262 15.532,7.8918 15.175,7.1642 15.033,7.4875 15.104,8.2958 14.533,8.7811 m 3.427,18.994 -0.571,-1.132 -1.071,-0.242 -0.572,-1.535 -1.428,0.161 -1.213,-0.888 -1.286,1.131 0,0.178 c -0.389,-0.112 -0.867,-0.127 -1.214,-0.34 l -0.286,-0.808 0,-0.889 -0.8564,0.08 c 0.0715,-0.566 0.1424,-1.131 0.2144,-1.697 l -0.5003,0 -0.4993,0.647 -0.5003,0.241 -0.7143,-0.402 -0.0715,-0.89 0.1429,-0.97 1.0716,-0.808 0.8567,0 0.1424,-0.485 1.0711,0.242 0.786,0.971 0.143,-1.618 1.357,-1.131 0.499,-1.212 1,-0.404 0.571,-0.808 1.285,-0.244 0.644,-0.969 -1.929,0 1.214,-0.566 0.857,0 1.214,-0.405 0.143,-0.483 -0.429,-0.405 -0.5,-0.162 0.143,-0.485 -0.357,-0.727 -0.857,0.323 0.143,-0.646 -1,-0.5665 -0.785,1.3735 0.071,0.485 -0.785,0.324 -0.5,1.051 -0.214,-0.97 -1.357,-0.566 -0.215,-0.727 L 13.604,9.7505 14.389,9.0233 14.461,8.1345 14.033,7.8917 13.461,7.8107 13.105,8.7 c 0,0 -0.598,0.117 -0.751,0.1549 -1.961,1.8072 -5.9232,5.7082 -6.8437,13.071 0.0365,0.171 0.6672,1.161 0.6672,1.161 l 1.4995,0.889 1.4995,0.404 0.6433,0.809 0.9992,0.727 0.571,-0.08 0.429,0.193 0,0.13 -0.571,1.535 -0.429,0.647 0.143,0.324 -0.357,1.211 1.285,2.345 1.285,1.132 0.572,0.807 -0.072,1.698 0.429,0.969 -0.429,1.86 c 0,0 -0.033,-0.012 0.021,0.174 0.056,0.186 2.288,1.426 2.43,1.32 0.142,-0.107 0.263,-0.201 0.263,-0.201 l -0.143,-0.403 0.571,-0.566 0.215,-0.566 0.928,-0.325 0.714,-1.778 -0.214,-0.484 0.499,-0.727 1.072,-0.243 0.571,-1.294 -0.143,-1.615 0.857,-1.213 0.143,-1.212 c -1.172,-0.582 -2.335,-1.18 -3.499,-1.779 m 8.355,-21.984 -1.857,-0.7276 -2.141,0.2422 -2.643,0.7272 -0.5,0.4854 1.643,1.1311 0,0.6466 -0.643,0.6466 0.857,1.6987 0.57,-0.324 0.716,-1.1316 C 23.42,8.8444 24.409,8.4579 25.458,7.9729 L 26.315,5.7908 M 25.53,9.1045 25.458,9.589 25.959,9.9123 26.814,9.3467 26.387,8.8617 25.815,9.1855 25.53,9.1045 m 17.683,11.276 0,0 -0.535,0.606 c -0.328,-0.386 -0.696,-0.711 -1.07,-1.051 l -0.822,0.121 -0.75,-0.848 0,1.049 0.643,0.487 0.428,0.484 0.571,-0.646 c 0.144,0.269 0.286,0.539 0.429,0.808 l 0,0.808 -0.643,0.727 -1.179,0.809 -0.892,0.89 -0.571,-0.648 0.285,-0.727 -0.57,-0.647 -0.965,-2.061 -0.821,-0.928 -0.215,0.241 0.323,1.173 0.606,0.687 c 0.346,0.999 0.689,1.955 1.144,2.91 0.705,0 1.369,-0.075 2.07,-0.163 l 0,0.566 -0.857,2.102 -0.786,0.888 -0.642,1.376 0,2.262 0.215,0.89 -0.357,0.403 -0.787,0.486 -0.821,0.686 0.679,0.768 -0.929,0.81 0.179,0.523 -1.393,1.578 -0.928,0 -0.786,0.485 -0.5,0 0,-0.647 -0.213,-1.295 c -0.277,-0.811 -0.564,-1.617 -0.857,-2.423 0,-0.595 0.035,-1.184 0.071,-1.779 l 0.358,-0.807 -0.501,-0.971 0.036,-1.334 -0.679,-0.767 0.34,-1.111 -0.553,-0.627 -0.965,0 -0.321,-0.364 -0.964,0.607 -0.393,-0.446 -0.893,0.768 c -0.606,-0.687 -1.213,-1.374 -1.821,-2.061 l -0.713,-1.698 0.642,-0.969 -0.357,-0.404 0.785,-1.86 c 0.645,-0.802 1.318,-1.571 2,-2.343 l 1.214,-0.324 1.357,-0.161 0.928,0.243 1.321,1.332 0.465,-0.524 0.641,-0.081 1.215,0.404 0.928,0 0.643,-0.566 0.286,-0.404 -0.644,-0.404 -1.071,-0.08 c -0.298,-0.413 -0.574,-0.847 -0.927,-1.213 l -0.358,0.161 -0.143,1.052 -0.643,-0.728 -0.141,-0.809 -0.714,-0.564 -0.287,0 0.715,0.807 -0.286,0.728 -0.571,0.161 0.357,-0.727 -0.644,-0.323 -0.57,-0.646 -1.072,0.241 -0.142,0.323 -0.643,0.405 -0.357,0.889 -0.892,0.444 -0.394,-0.444 -0.427,0 0,-1.455 0.928,-0.486 0.714,0 -0.144,-0.565 -0.57,-0.566 0.963,-0.202 0.536,-0.606 0.428,-0.728 0.786,0 -0.215,-0.565 0.501,-0.323 0,0.646 1.071,0.242 1.07,-0.888 0.072,-0.405 0.928,-0.646 c -0.336,0.042 -0.672,0.072 -1,0.162 l 0,-0.7284 0.357,-0.8083 -0.357,0 -0.784,0.7272 -0.215,0.4045 0.215,0.566 -0.358,0.969 -0.571,-0.323 -0.499,-0.565 -0.786,0.565 -0.286,-1.293 1.356,-0.8886 0,-0.4854 0.858,-0.5655 1.356,-0.3238 0.929,0.3238 1.713,0.3233 -0.427,0.4845 -0.929,0 0.929,0.9699 0.713,-0.8078 0.217,-0.3555 c 0,0 2.738,2.4541 4.303,5.1381 1.565,2.685 2.299,5.85 2.299,6.493 z M 17.103,6.7605 17.46,6.4377 18.175,6.276 c 0.489,-0.2379 0.98,-0.3981 1.499,-0.566 l -0.285,-0.485 -0.922,0.1324 -0.435,0.4341 -0.719,0.1042 -0.638,0.2998 -0.31,0.1501 -0.19,0.2537 0.928,0.1612 m -0.714,2.6675 0.714,0.485 0.572,0 0,-0.5656 -0.714,-0.3233 -0.572,0.4039 m 12.14,2.9908 -0.143,0.97 0.785,-0.162 0.571,-0.565 -0.5,-0.485 c -0.167,-0.447 -0.36,-0.865 -0.57,-1.293 l -0.428,0 0,0.484 0.285,0.323 0,0.728 m -0.285,0.163 -0.286,-0.729 -0.501,0.163 0.144,0.888 0.643,-0.322"
         id="path3364" />
      <path
         style="fill:none;stroke:url(#radialGradient293)"
         d="m 42.975,23.486 c 0,10.165 -8.241,18.406 -18.406,18.406 C 14.404,41.892 6.163,33.651 6.163,23.486 6.1634,13.32 14.404,5.08 24.569,5.08 34.734,5.0799 42.975,13.32 42.975,23.486 Z"
         id="path3366" />
    </g>
    <g
       transform="matrix(0.23789678,0,0,0.2094504,495.79434,375.36473)"
       id="g3535">
      <path
         style="fill:#48587c"
         d="m -973.98538,-245.70824 44.39211,0.004 c 12.23898,0.001 22.1967,13.00547 22.19847,28.98907 l 4.6e-4,9.6615 c 9.4e-4,15.98196 -9.95578,28.98451 -22.19381,28.98292 l -44.39288,0 c -12.23873,-7.9e-4 -22.19675,-13.00492 -22.19804,-28.98849 l -7.7e-4,-9.66244 c -5.2e-4,-7.74249 2.30733,-15.0204 6.49951,-20.495 4.19197,-5.4743 9.76593,-8.48863 15.69495,-8.48718 z m 44.39514,48.31491 c 4.07991,1.3e-4 7.39839,-4.33348 7.39808,-9.66119 l -0.001,-9.66169 c -4e-4,-5.32781 -3.31961,-9.66238 -7.39948,-9.66301 l -44.39195,-0.007 c -1.97637,-5.3e-4 -3.83462,1.00479 -5.23174,2.82929 -1.39732,1.82477 -2.16631,4.2504 -2.16618,6.83042 l 8.4e-4,9.66367 c -2.4e-4,5.32752 3.31871,9.66174 7.39879,9.66212 l 44.39266,0.007 z"
         id="path3481" />
      <path
         style="opacity:0.1;enable-background:new"
         d="m -938.44439,-245.67 c 5.92922,6.3e-4 11.50319,3.01652 15.6957,8.49154 4.19285,5.47548 6.50212,12.75433 6.50217,20.49786 l 6.4e-4,9.66173 c 0.001,7.74317 -2.30715,15.02069 -6.49933,20.49527 -3.93217,5.13493 -9.081,8.10532 -14.59707,8.45338 l 7.7386,6.4e-4 c 5.92835,4.8e-4 11.50255,-3.0141 15.69453,-8.48837 4.19217,-5.47459 6.50064,-12.75223 6.49923,-20.49531 l -5.1e-4,-9.66102 c -3e-5,-7.74353 -2.30931,-15.02238 -6.50225,-20.49795 -4.19243,-5.47492 -9.76648,-8.49095 -15.6957,-8.49156 l -8.83601,0.0337 z"
         id="path3483" />
      <path
         id="SVGCleanerId_0"
         style="fill:#48587c"
         d="m -1069.0591,-245.71951 44.3925,0.004 c 5.9289,3.3e-4 11.5032,3.01662 15.6957,8.49153 4.1929,5.4755 6.502,12.75432 6.502,20.49783 l 7e-4,9.66118 c 0,7.74321 -2.307,15.02075 -6.4992,20.49534 -4.192,5.47428 -9.7661,8.48885 -15.6948,8.4879 l -44.3921,0 c -12.2386,-0.001 -22.1968,-13.00557 -22.198,-28.98862 l 0,-9.66225 c 0,-15.98242 9.9553,-28.98467 22.1943,-28.98244 z m 44.3957,48.31515 c 1.9764,5.2e-4 3.8344,-1.00513 5.2315,-2.82962 1.3973,-1.82477 2.1663,-4.25037 2.1662,-6.83099 l -8e-4,-9.6625 c -2e-4,-2.58118 -0.7697,-5.00757 -2.1673,-6.83272 -1.3974,-1.82489 -3.2559,-2.83041 -5.2317,-2.83088 l -44.3924,-0.007 c -4.0802,8e-5 -7.3987,4.33371 -7.3983,9.66201 l 0,9.66142 c 10e-5,5.32803 3.3191,9.6623 7.3992,9.66332 l 44.3923,0.007 z" />
      <g
         transform="matrix(-0.21118516,-0.2757876,0.21242368,-0.27740499,-999.64113,-70.277368)"
         id="g3486">
        <path
           id="SVGCleanerId_0_1_"
           style="fill:#48587c"
           d="M 482.428,152.825 377.316,257.307 c -14.038,13.955 -32.704,21.639 -52.556,21.639 -19.854,0 -38.518,-7.684 -52.557,-21.641 l -17.517,-17.412 c -14.041,-13.954 -21.77,-32.504 -21.77,-52.239 0,-19.734 7.732,-38.288 21.77,-52.241 L 359.798,30.933 c 28.978,-28.805 76.132,-28.805 105.112,0 l 17.52,17.413 c 28.979,28.804 28.979,75.675 -0.002,104.479 z m -192.706,17.414 c -4.68,4.651 -7.256,10.837 -7.256,17.414 0,6.578 2.577,12.76 7.256,17.411 l 17.52,17.414 c 4.68,4.652 10.901,7.214 17.519,7.214 6.617,0 12.84,-2.562 17.519,-7.212 L 447.393,118 c 9.66,-9.604 9.66,-25.226 -10e-4,-34.829 L 429.873,65.76 c -9.66,-9.603 -25.376,-9.603 -35.038,-0.001 l -105.113,104.48 z" />
      </g>
      <path
         style="opacity:0.1;enable-background:new"
         d="m -1033.5534,-245.65676 c 5.9295,-0.0142 11.508,2.98725 15.7086,8.45165 4.2013,5.46443 6.5217,12.73769 6.5332,20.48064 l 0.015,9.66106 c 0.012,7.74231 -2.2846,15.02643 -6.4685,20.51179 -3.9245,5.14505 -9.0688,8.12859 -14.5847,8.49059 l 7.7387,-0.019 c 5.9288,-0.0159 11.4986,-3.04307 15.6823,-8.52812 4.1845,-5.48456 6.4813,-12.76849 6.4684,-20.5117 l -0.015,-9.66086 c -0.012,-7.74348 -2.3318,-15.0159 -6.533,-20.48058 -4.2008,-5.4641 -9.7793,-8.46601 -15.7086,-8.45165 l -8.8365,0.0559 z"
         id="path3489" />
      <path
         style="fill:#789db0"
         d="m -1032.0635,-220.5939 65.47811,0.007 c 4.08636,0.001 7.39881,4.32707 7.39948,9.66301 5.7e-4,5.33633 -3.31175,9.6619 -7.39807,9.66119 l -65.47852,-0.008 c -4.0861,-4.2e-4 -7.3988,-4.32643 -7.3989,-9.6622 -7e-4,-5.33659 3.3116,-9.66218 7.3979,-9.66091 z"
         id="path3491" />
      <path
         style="opacity:0.2;fill:#ffffff;enable-background:new"
         d="m -1039.4614,-210.93301 c 4e-4,5.33607 3.3131,9.66205 7.3989,9.66221 l 13.8495,-0.091 c -4.0858,-1.9e-4 -7.3989,-4.3267 -7.3986,-9.6619 -6e-4,-4.90597 2.8004,-8.94719 6.4267,-9.56871 l -12.8783,-0.001 c -4.0866,-9.7e-4 -7.3989,4.32461 -7.3982,9.66119 z"
         id="path3493" />
      <path
         style="opacity:0.1;enable-background:new"
         d="m -973.03942,-211.03173 c 5.5e-4,5.33635 -3.31176,9.66191 -7.39808,9.66119 l 13.85352,0.10777 c 4.08632,7.1e-4 7.39864,-4.32486 7.39807,-9.66119 -6.7e-4,-5.33596 -3.31312,-9.66169 -7.39948,-9.66301 l -12.81597,-0.001 c 3.59391,0.66149 6.36135,4.68217 6.36194,9.55695 z"
         id="path3495" />
      <path
         d="m -1093.6006,-216.71814 8e-4,9.66196 c 5e-4,8.54537 2.5551,16.58674 7.1925,22.64281 4.6379,6.05654 10.7953,9.39224 17.3389,9.39289 l 44.3922,0 c 6.5587,9.4e-4 12.7252,-3.33429 17.3639,-9.39195 2.9874,-3.90151 5.1021,-8.63374 6.2332,-13.79372 l 3.50874,3.6e-4 c 1.13053,5.15979 3.24624,9.89392 6.23662,13.79907 4.63761,6.05622 10.79532,9.39177 17.33891,9.39241 l 44.39231,0 c 6.54875,0.001 12.71263,-3.33777 17.35569,-9.40143 4.64315,-6.06352 7.20022,-14.11286 7.19947,-22.66457 l -6.3e-4,-9.66173 c -7.9e-4,-8.54564 -2.55516,-16.58675 -7.19276,-22.64302 -4.63761,-6.05628 -10.79528,-9.39227 -17.33886,-9.39294 l -44.392,-0.004 c -6.55844,-10e-4 -12.72529,3.33404 -17.3642,9.39201 -3.3565,4.38327 -5.61209,9.81477 -6.60601,15.72601 l -2.76098,-4.6e-4 c -0.9908,-5.9181 -3.2457,-11.3551 -6.604,-15.74067 -4.6329,-6.05023 -10.7934,-9.38263 -17.3466,-9.38308 l -44.3925,-0.004 c -6.5482,-0.001 -12.712,3.33752 -17.3552,9.40104 -4.6431,6.06352 -7.2002,14.11331 -7.1995,22.66559 z m 51.7916,5.80295 c 3e-4,3.39631 1.0121,6.58792 2.85,8.9881 0.4149,0.54191 0.8625,1.02594 1.3344,1.45533 l -31.4171,-0.003 c -1.3486,-3.8e-4 -2.6197,-0.68978 -3.5785,-1.94184 -0.9588,-1.25208 -1.4872,-2.91211 -1.4869,-4.67373 l -8e-4,-9.66144 c -4e-4,-1.7547 0.5242,-3.40604 1.4762,-4.64936 0.9526,-1.24391 2.2171,-1.92888 3.5608,-1.92902 l 34.8009,0.004 c -1.7578,0.53195 -3.3718,1.69207 -4.6798,3.40034 -1.8445,2.40705 -2.8599,5.60778 -2.8592,9.01072 z m 9.7603,6.57941 c -1.3519,-9e-5 -2.6237,-0.68893 -3.5805,-1.93852 -0.9576,-1.25042 -1.4848,-2.91103 -1.485,-4.67653 0,-1.75886 0.5236,-3.41074 1.4744,-4.6524 0.9507,-1.24139 2.2156,-1.92471 3.5623,-1.92486 l 65.47779,0.007 c 1.35245,7.6e-4 2.62407,0.68932 3.58131,1.9394 0.95732,1.25017 1.48485,2.91113 1.48484,4.67651 1.8e-4,1.7584 -0.52358,3.41072 -1.47417,4.65211 -0.95082,1.24167 -2.21588,1.92538 -3.56239,1.92516 l -65.47858,-0.008 z m 75.21008,-6.6065 c -4.4e-4,-3.39601 -1.01253,-6.58793 -2.85025,-8.98787 -1.30211,-1.7004 -2.90993,-2.8569 -4.66117,-3.38786 l 34.74372,0.004 c 1.3487,2.8e-4 2.61967,0.68969 3.57871,1.9421 0.95887,1.2522 1.48709,2.91181 1.48719,4.67347 l 9.7e-4,9.66107 c 8e-5,1.75496 -0.52462,3.40603 -1.4767,4.64937 -0.95229,1.24361 -2.21662,1.92882 -3.56007,1.92817 l -31.46833,-0.004 c 0.4767,-0.43217 0.92803,-0.92079 1.34692,-1.46781 1.84424,-2.40682 2.85947,-5.60659 2.85901,-9.01042 z m -31.18693,-24.11723 c 3.74566,-4.8915 8.72652,-7.58461 14.02607,-7.5835 l 44.39184,0.004 c 5.29533,0.001 10.28024,2.70332 14.03753,7.60996 3.75702,4.9063 5.82682,11.41691 5.82742,18.33177 l 6.5e-4,9.66172 c 3.7e-4,6.90732 -2.06441,13.40856 -5.81475,18.30609 -3.75007,4.89802 -8.7285,7.59431 -14.01799,7.59352 l -44.3929,0 c -5.29489,-4.8e-4 -10.27998,-2.70293 -14.03717,-7.60951 -2.08546,-2.72337 -3.64479,-5.94368 -4.62366,-9.45069 l 11.65229,10e-4 c 0.0347,0.0466 0.0657,0.0956 0.0997,0.14015 1.83893,2.40146 4.28257,3.7246 6.88005,3.7251 l 44.39261,0.004 c 2.60281,2.7e-4 5.0527,-1.32712 6.89781,-3.73666 1.84533,-2.40982 2.86177,-5.60915 2.86158,-9.00815 l -10e-4,-9.66169 c -7e-5,-3.39223 -1.01348,-6.58311 -2.85268,-8.98491 -1.83919,-2.40181 -4.28293,-3.72506 -6.88006,-3.7251 l -44.39126,-0.004 c -2.60576,-7.5e-4 -5.05678,1.32513 -6.90104,3.73357 -0.48603,0.6347 -0.91061,1.328 -1.2775,2.06279 l -10.97372,-9.7e-4 c 0.89865,-4.27301 2.63318,-8.18847 5.09645,-11.40526 z m -81.04765,-7.59475 44.3927,0.004 c 5.3044,7.8e-4 10.2923,2.69954 14.045,7.60029 2.4625,3.21568 4.1979,7.12645 5.1006,11.39223 l -10.95,-0.001 c -0.3679,-0.73958 -0.7945,-1.43748 -1.2835,-2.07619 -1.8378,-2.39991 -4.2818,-3.72183 -6.8825,-3.72211 l -44.3927,-0.007 c -2.6031,-3e-5 -5.053,1.32729 -6.8981,3.7374 -1.8452,2.40952 -2.8614,5.60917 -2.8611,9.00825 l 8e-4,9.66142 c 3e-4,3.39241 1.0135,6.58321 2.8528,8.98504 1.8392,2.40184 4.2825,3.72459 6.8799,3.72545 l 44.3922,0.007 c 2.6059,2.7e-4 5.0564,-1.32566 6.9005,-3.73382 0.033,-0.0424 0.064,-0.0835 0.096,-0.12547 l 11.6806,0.001 c -0.9746,3.51925 -2.5324,6.74733 -4.6188,9.47195 -3.7454,4.89123 -8.7265,7.58465 -14.0258,7.58387 l -44.3921,0 c -5.2951,-8e-4 -10.2801,-2.70293 -14.0377,-7.61 -3.7569,-4.90625 -5.8265,-11.41656 -5.8271,-18.3314 l 0,-9.66224 c 0,-6.90739 2.0646,-13.40887 5.8149,-18.30645 3.7503,-4.8976 8.7286,-7.59292 14.0182,-7.59265 z"
         id="path3497" />
      <g
         id="g3499" />
      <g
         id="g3501" />
      <g
         id="g3503" />
      <g
         id="g3505" />
      <g
         id="g3507" />
      <g
         id="g3509" />
      <g
         id="g3511" />
      <g
         id="g3513" />
      <g
         id="g3515" />
      <g
         id="g3517" />
      <g
         id="g3519" />
      <g
         id="g3521" />
      <g
         id="g3523" />
      <g
         id="g3525" />
      <g
         id="g3527" />
    </g>
  </g>
</svg>
