<?xml version="1.0" encoding="UTF-8" standalone="no"?>
<!-- Created with Inkscape (http://www.inkscape.org/) -->

<svg
   height="48px"
   id="svg11300"
   inkscape:output_extension="org.inkscape.output.svg.inkscape"
   inkscape:version="1.1.2 (b8e25be8, 2022-02-05)"
   sodipodi:docname="zoom_out.svg"
   sodipodi:version="0.32"
   width="48px"
   version="1.1"
   xmlns:inkscape="http://www.inkscape.org/namespaces/inkscape"
   xmlns:sodipodi="http://sodipodi.sourceforge.net/DTD/sodipodi-0.dtd"
   xmlns:xlink="http://www.w3.org/1999/xlink"
   xmlns="http://www.w3.org/2000/svg"
   xmlns:svg="http://www.w3.org/2000/svg"
   xmlns:rdf="http://www.w3.org/1999/02/22-rdf-syntax-ns#"
   xmlns:cc="http://creativecommons.org/ns#"
   xmlns:dc="http://purl.org/dc/elements/1.1/">
  <metadata
     id="metadata385">
    <rdf:RDF>
      <cc:Work
         rdf:about="">
        <dc:title>Jakub Steiner</dc:title>
        <dc:description />
        <dc:subject>
          <rdf:Bag>
            <rdf:li>unsorted</rdf:li>
          </rdf:Bag>
        </dc:subject>
        <dc:publisher>
          <cc:Agent
             rdf:about="http://www.openclipart.org/">
            <dc:title>Open Clip Art Library, Source: Tango Icon Library, Source: Tango Icon Library, Source: Tango Icon Library, Source: Tango Icon Library</dc:title>
          </cc:Agent>
        </dc:publisher>
        <dc:creator>
          <cc:Agent>
            <dc:title>Jakub Steiner</dc:title>
          </cc:Agent>
        </dc:creator>
        <dc:rights>
          <cc:Agent>
            <dc:title>Jakub Steiner</dc:title>
          </cc:Agent>
        </dc:rights>
        <dc:date />
        <dc:format>image/svg+xml</dc:format>
        <dc:type
           rdf:resource="http://purl.org/dc/dcmitype/StillImage" />
        <cc:license
           rdf:resource="http://en.wikipedia.org/wiki/Public_domain" />
        <dc:language>en</dc:language>
      </cc:Work>
    </rdf:RDF>
  </metadata>
  <defs
     id="defs3">
    <inkscape:perspective
       id="perspective47"
       inkscape:persp3d-origin="24 : 16 : 1"
       inkscape:vp_x="0 : 24 : 1"
       inkscape:vp_y="0 : 1000 : 0"
       inkscape:vp_z="48 : 24 : 1"
       sodipodi:type="inkscape:persp3d" />
    <linearGradient
       id="linearGradient2846">
      <stop
         id="stop2848"
         offset="0.0000000"
         style="stop-color:#8a8a8a;stop-opacity:1.0000000;" />
      <stop
         id="stop2850"
         offset="1.0000000"
         style="stop-color:#484848;stop-opacity:1.0000000;" />
    </linearGradient>
    <linearGradient
       id="linearGradient2366">
      <stop
         id="stop2368"
         offset="0"
         style="stop-color:#ffffff;stop-opacity:1;" />
      <stop
         id="stop2374"
         offset="0.50000000"
         style="stop-color:#ffffff;stop-opacity:0.21904762;" />
      <stop
         id="stop2370"
         offset="1.0000000"
         style="stop-color:#ffffff;stop-opacity:1.0000000;" />
    </linearGradient>
    <linearGradient
       id="linearGradient4487"
       inkscape:collect="always">
      <stop
         id="stop4489"
         offset="0"
         style="stop-color:#ffffff;stop-opacity:1;" />
      <stop
         id="stop4491"
         offset="1"
         style="stop-color:#ffffff;stop-opacity:0;" />
    </linearGradient>
    <linearGradient
       id="linearGradient4477"
       inkscape:collect="always">
      <stop
         id="stop4479"
         offset="0"
         style="stop-color:#000000;stop-opacity:1;" />
      <stop
         id="stop4481"
         offset="1"
         style="stop-color:#000000;stop-opacity:0;" />
    </linearGradient>
    <linearGradient
       id="linearGradient4467">
      <stop
         id="stop4469"
         offset="0"
         style="stop-color:#ffffff;stop-opacity:1;" />
      <stop
         id="stop4471"
         offset="1.0000000"
         style="stop-color:#ffffff;stop-opacity:0.24761905;" />
    </linearGradient>
    <linearGradient
       id="linearGradient4454">
      <stop
         id="stop4456"
         offset="0.0000000"
         style="stop-color:#729fcf;stop-opacity:0.20784314;" />
      <stop
         id="stop4458"
         offset="1.0000000"
         style="stop-color:#729fcf;stop-opacity:0.67619050;" />
    </linearGradient>
    <linearGradient
       id="linearGradient4440">
      <stop
         id="stop4442"
         offset="0"
         style="stop-color:#7d7d7d;stop-opacity:1;" />
      <stop
         id="stop4448"
         offset="0.50000000"
         style="stop-color:#b1b1b1;stop-opacity:1.0000000;" />
      <stop
         id="stop4444"
         offset="1.0000000"
         style="stop-color:#686868;stop-opacity:1.0000000;" />
    </linearGradient>
    <linearGradient
       gradientTransform="matrix(1.334593,0.000000,0.000000,1.291292,-6.973842,-7.460658)"
       gradientUnits="userSpaceOnUse"
       id="linearGradient4446"
       inkscape:collect="always"
       x1="30.656250"
       x2="33.218750"
       xlink:href="#linearGradient4440"
       y1="34.000000"
       y2="31.062500" />
    <radialGradient
       cx="18.240929"
       cy="21.817987"
       fx="18.240929"
       fy="21.817987"
       gradientUnits="userSpaceOnUse"
       id="radialGradient4460"
       inkscape:collect="always"
       r="8.3085051"
       xlink:href="#linearGradient4454" />
    <radialGradient
       cx="15.414371"
       cy="13.078408"
       fx="15.414371"
       fy="13.078408"
       gradientTransform="matrix(2.592963,-7.746900e-24,-5.714443e-24,2.252104,-25.05975,-18.94100)"
       gradientUnits="userSpaceOnUse"
       id="radialGradient4473"
       inkscape:collect="always"
       r="6.6562500"
       xlink:href="#linearGradient4467" />
    <radialGradient
       cx="24.130018"
       cy="37.967922"
       fx="24.130018"
       fy="37.967922"
       gradientTransform="matrix(1.000000,0.000000,0.000000,0.237968,3.152859e-15,28.93278)"
       gradientUnits="userSpaceOnUse"
       id="radialGradient4493"
       inkscape:collect="always"
       r="16.528622"
       xlink:href="#linearGradient4487" />
    <linearGradient
       gradientUnits="userSpaceOnUse"
       id="linearGradient2372"
       inkscape:collect="always"
       x1="18.292673"
       x2="17.500893"
       xlink:href="#linearGradient2366"
       y1="13.602121"
       y2="25.743469" />
    <radialGradient
       cx="24.130018"
       cy="37.967922"
       fx="24.130018"
       fy="37.967922"
       gradientTransform="matrix(1.000000,0.000000,0.000000,0.237968,-2.471981e-16,28.93278)"
       gradientUnits="userSpaceOnUse"
       id="radialGradient2842"
       inkscape:collect="always"
       r="16.528622"
       xlink:href="#linearGradient4477" />
    <linearGradient
       gradientUnits="userSpaceOnUse"
       id="linearGradient2852"
       inkscape:collect="always"
       x1="27.366341"
       x2="31.335964"
       xlink:href="#linearGradient2846"
       y1="26.580296"
       y2="30.557772" />
  </defs>
  <sodipodi:namedview
     bordercolor="#666666"
     borderopacity="0.25490196"
     fill="#729fcf"
     id="base"
     inkscape:current-layer="layer1"
     inkscape:cx="23.06936"
     inkscape:cy="23.113554"
     inkscape:document-units="px"
     inkscape:grid-bbox="true"
     inkscape:pageopacity="0.0"
     inkscape:pageshadow="2"
     inkscape:showpageshadow="false"
     inkscape:window-height="847"
     inkscape:window-width="1312"
     inkscape:window-x="0"
     inkscape:window-y="25"
     inkscape:zoom="11.313708"
     pagecolor="#ffffff"
     showgrid="false"
     stroke="#3465a4"
     inkscape:pagecheckerboard="0"
     inkscape:snap-global="false"
     inkscape:snap-nodes="true"
     inkscape:window-maximized="0" />
  <g
     id="layer1"
     inkscape:groupmode="layer"
     inkscape:label="Layer 1">
    <g
       id="g1772">
      <path
         id="path4475"
         style="opacity:0.17112298;color:#000000;fill:url(#radialGradient2842);fill-opacity:1.0000000;fill-rule:evenodd;stroke:none;stroke-width:1.0000000;stroke-linecap:round;stroke-linejoin:miter;marker:none;marker-start:none;marker-mid:none;marker-end:none;stroke-miterlimit:10.000000;stroke-dasharray:none;stroke-dashoffset:0.0000000;stroke-opacity:1.0000000;visibility:visible;display:inline;overflow:visible;"
         transform="matrix(1.446431,0.000000,0.000000,1.519990,-10.97453,-17.75168)"
         d="M 40.658640 37.967922 A 16.528622 3.9332814 0 1 1  7.6013966,37.967922 A 16.528622 3.9332814 0 1 1  40.658640 37.967922 z"
         sodipodi:type="arc"
         sodipodi:ry="3.9332814"
         sodipodi:rx="16.528622"
         sodipodi:cy="37.967922"
         sodipodi:cx="24.130018" />
      <path
         d="M 18.627569,3.1435548 C 10.488439,3.1435548 3.8827682,9.7492259 3.8827682,17.888356 C 3.8827682,26.027486 10.488439,32.633158 18.627569,32.633158 C 22.107124,32.633158 25.178570,31.248765 27.701292,29.230511 C 27.495915,30.237392 27.623257,31.265879 28.457436,31.990436 L 39.421520,41.517846 C 40.654936,42.589175 42.508982,42.448806 43.580310,41.215389 C 44.651638,39.981971 44.511269,38.127927 43.277853,37.056599 L 32.313769,27.529188 C 31.642242,26.945909 30.820891,26.773219 30.007531,26.886466 C 31.994231,24.374044 33.372370,21.337663 33.372370,17.888356 C 33.372370,9.7492259 26.766699,3.1435548 18.627569,3.1435548 z M 18.551954,4.3697381 C 26.191413,4.3697381 31.843729,9.1586886 31.843729,17.661513 C 31.843729,26.336626 26.027039,30.953288 18.551954,30.953288 C 11.249005,30.953288 5.2601806,25.475196 5.2601806,17.661513 C 5.2601806,9.6774061 11.084819,4.3697380 18.551954,4.3697381 z "
         id="path2844"
         sodipodi:nodetypes="csscccscccscczzzz"
         style="opacity:1.0000000;color:#000000;fill:#dcdcdc;fill-opacity:1.0000000;fill-rule:evenodd;stroke:url(#linearGradient2852);stroke-width:2.0000010;stroke-linecap:round;stroke-linejoin:miter;marker:none;marker-start:none;marker-mid:none;marker-end:none;stroke-miterlimit:10.000000;stroke-dasharray:none;stroke-dashoffset:0.0000000;stroke-opacity:1.0000000;visibility:visible;display:inline;overflow:visible;" />
      <path
         d="M 18.602905,3.0803551 C 10.437465,3.0803551 3.8104408,9.7073791 3.8104408,17.872819 C 3.8104408,26.038259 10.437465,32.665283 18.602905,32.665283 C 22.093708,32.665283 25.175082,31.276416 27.705960,29.251638 C 27.499919,30.261774 27.627672,31.293585 28.464547,32.020484 L 39.464073,41.578691 C 40.701476,42.653483 42.561515,42.512661 43.636306,41.275256 C 44.711097,40.037852 44.570274,38.177814 43.332871,37.103023 L 32.333346,27.544815 C 31.659648,26.959651 30.835642,26.786402 30.019653,26.900016 C 32.012775,24.379472 33.395369,21.333276 33.395369,17.872819 C 33.395369,9.7073791 26.768345,3.0803551 18.602905,3.0803551 z M 18.527046,6.2664243 C 24.808154,6.2664245 29.905864,11.364135 29.905864,17.645243 C 29.905864,23.926351 24.808154,29.024061 18.527046,29.024061 C 12.245938,29.024061 7.1482276,23.926351 7.1482276,17.645243 C 7.1482278,11.364135 12.245938,6.2664243 18.527046,6.2664243 z "
         id="path4430"
         style="opacity:1.0000000;color:#000000;fill:#dcdcdc;fill-opacity:1.0000000;fill-rule:evenodd;stroke:none;stroke-width:1.0000004;stroke-linecap:round;stroke-linejoin:miter;marker:none;marker-start:none;marker-mid:none;marker-end:none;stroke-miterlimit:10.000000;stroke-dasharray:none;stroke-dashoffset:0.0000000;stroke-opacity:1.0000000;visibility:visible;display:inline;overflow:visible;" />
      <path
         d="M 39.507004,41.577690 C 39.028332,39.304503 40.904334,36.766268 43.091057,36.789315 C 43.091057,36.789315 32.330690,27.531204 32.330690,27.531204 C 29.385899,27.474498 28.061188,29.803820 28.553876,32.131126 L 39.507004,41.577690 z "
         id="path4438"
         sodipodi:nodetypes="ccccc"
         style="opacity:1.0000000;color:#000000;fill:url(#linearGradient4446);fill-opacity:1.0000000;fill-rule:evenodd;stroke:none;stroke-width:1.0000000;stroke-linecap:round;stroke-linejoin:miter;marker:none;marker-start:none;marker-mid:none;marker-end:none;stroke-miterlimit:10.000000;stroke-dasharray:none;stroke-dashoffset:0.0000000;stroke-opacity:1.0000000;visibility:visible;display:inline;overflow:visible;" />
      <path
         id="path4450"
         style="opacity:1.0000000;color:#000000;fill:none;fill-opacity:1.0000000;fill-rule:evenodd;stroke:url(#linearGradient2372);stroke-width:0.80273360;stroke-linecap:round;stroke-linejoin:miter;marker:none;marker-start:none;marker-mid:none;marker-end:none;stroke-miterlimit:10.000000;stroke-dasharray:none;stroke-dashoffset:0.0000000;stroke-opacity:1.0000000;visibility:visible;display:inline;overflow:visible;"
         transform="matrix(1.245743,0.000000,0.000000,1.245743,-3.425346,-6.177033)"
         d="M 28.549437 18.920233 A 11.048544 11.048544 0 1 1  6.4523487,18.920233 A 11.048544 11.048544 0 1 1  28.549437 18.920233 z"
         sodipodi:type="arc"
         sodipodi:ry="11.048544"
         sodipodi:rx="11.048544"
         sodipodi:cy="18.920233"
         sodipodi:cx="17.500893" />
      <path
         id="path4485"
         style="opacity:1.0000000;color:#000000;fill:url(#radialGradient4493);fill-opacity:1.0000000;fill-rule:evenodd;stroke:none;stroke-width:1.0000000;stroke-linecap:round;stroke-linejoin:miter;marker:none;marker-start:none;marker-mid:none;marker-end:none;stroke-miterlimit:10.000000;stroke-dasharray:none;stroke-dashoffset:0.0000000;stroke-opacity:1.0000000;visibility:visible;display:inline;overflow:visible;"
         transform="matrix(0.497764,0.000000,0.000000,0.609621,8.973526,15.61929)"
         d="M 40.658640 37.967922 A 16.528622 3.9332814 0 1 1  7.6013966,37.967922 A 16.528622 3.9332814 0 1 1  40.658640 37.967922 z"
         sodipodi:type="arc"
         sodipodi:ry="3.9332814"
         sodipodi:rx="16.528622"
         sodipodi:cy="37.967922"
         sodipodi:cx="24.130018" />
      <rect
         height="4.4404783"
         id="rect4495"
         rx="2.1366608"
         ry="1.8879365"
         style="opacity:0.43315509;color:#000000;fill:none;fill-opacity:1.0000000;fill-rule:evenodd;stroke:#ffffff;stroke-width:1.0000311;stroke-linecap:round;stroke-linejoin:miter;marker:none;marker-start:none;marker-mid:none;marker-end:none;stroke-miterlimit:10.000000;stroke-dasharray:none;stroke-dashoffset:0.0000000;stroke-opacity:1.0000000;visibility:visible;display:inline;overflow:visible;"
         transform="matrix(0.752986,0.658037,-0.648902,0.760872,0.000000,0.000000)"
         width="19.048439"
         x="40.373337"
         y="0.14086054" />
      <path
         id="path4452"
         style="color:#000000;fill:url(#radialGradient4460);fill-opacity:1.0000000;fill-rule:evenodd;stroke:#3063a3;stroke-width:0.71499395;stroke-linecap:round;stroke-linejoin:miter;stroke-miterlimit:10.000000;stroke-dashoffset:0.0000000;stroke-opacity:1.0000000;marker:none;marker-start:none;marker-mid:none;marker-end:none;visibility:visible;"
         transform="matrix(1.398614,0.000000,0.000000,1.398614,-6.224338,-8.298958)"
         d="M 25.897786 18.478292 A 8.3085051 8.3085051 0 1 1  9.2807760,18.478292 A 8.3085051 8.3085051 0 1 1  25.897786 18.478292 z"
         sodipodi:type="arc"
         sodipodi:ry="8.3085051"
         sodipodi:rx="8.3085051"
         sodipodi:cy="18.478292"
         sodipodi:cx="17.589281" />
      <path
         d="M 18.156915,7.3966938 C 12.949325,7.3966938 8.7323681,11.613651 8.7323681,16.821241 C 8.7323681,18.325216 9.1526753,19.709014 9.7795400,20.971144 C 11.031920,21.432757 12.362297,21.746827 13.774307,21.746827 C 19.945262,21.746827 24.873589,16.885190 25.254413,10.809698 C 23.523449,8.7641668 21.044374,7.3966938 18.156915,7.3966938 z "
         id="path4462"
         style="opacity:0.83422458;color:#000000;fill:url(#radialGradient4473);fill-opacity:1.0000000;fill-rule:evenodd;stroke:none;stroke-width:1.0000000;stroke-linecap:round;stroke-linejoin:miter;marker:none;marker-start:none;marker-mid:none;marker-end:none;stroke-miterlimit:10.000000;stroke-dasharray:none;stroke-dashoffset:0.0000000;stroke-opacity:1.0000000;visibility:visible;display:inline;overflow:visible;" />
    </g>
    <rect
       style="fill:#000000;fill-opacity:0.026393;stroke:#000000;stroke-width:1.00157;stroke-linejoin:bevel"
       id="rect1276"
       width="14.937632"
       height="1.767767"
       x="11.015612"
       y="17.379572" />
    <path
       style="fill:#00ccff;fill-opacity:0.026393;stroke:#000000;stroke-width:1.00157;stroke-linejoin:bevel"
       d="m 22.239721,18.424205 c -0.203789,-0.169723 -0.205567,-0.181577 -0.05259,-0.350613 0.202797,-0.224089 1.19213,-0.254721 1.368367,-0.04237 0.06052,0.07292 0.07834,0.132582 0.03961,0.132582 -0.03873,0 0.02299,0.09944 0.137167,0.220971 l 0.207592,0.220971 -0.744611,-0.0029 c -0.610559,-0.0024 -0.782584,-0.03456 -0.955532,-0.178602 z"
       id="path1956" />
    <path
       style="fill:#00ccff;fill-opacity:0.026393;stroke:#000000;stroke-width:1.00157;stroke-linejoin:bevel"
       d="m 10.799916,19.330115 c -0.223717,-0.233509 -0.237508,-0.296703 -0.237508,-1.088317 0,-0.80541 0.01032,-0.850306 0.247904,-1.077921 l 0.247905,-0.237508 h 7.414948 7.414949 l 0.247904,0.237508 c 0.239695,0.229643 0.247905,0.267182 0.247905,1.133641 0,0.822435 -0.01682,0.911939 -0.20457,1.088318 l -0.204571,0.192184 h -7.468679 -7.46868 z m 10.987813,-0.676014 c 0,-0.02202 -0.04387,-0.136312 -0.09748,-0.253984 -0.07159,-0.157114 -0.07076,-0.26388 0.0031,-0.401907 l 0.100591,-0.187957 h -5.17382 -5.173828 v 0.441942 0.441941 h 5.170718 c 2.843895,0 5.170719,-0.01802 5.170719,-0.04003 z m 3.71231,-0.401906 v -0.441942 h -0.751301 c -0.413215,0 -0.751301,0.03092 -0.751301,0.06872 0,0.0378 0.05668,0.149649 0.125964,0.248561 0.08209,0.117201 0.09796,0.224104 0.04555,0.306929 -0.148106,0.234067 -0.08658,0.259672 0.623984,0.259672 h 0.707106 z"
       id="path2034" />
    <path
       style="fill:#00ccff;fill-opacity:0.026393;stroke:#077af9;stroke-width:1.00157;stroke-linejoin:bevel;stroke-opacity:0.651822"
       d="m 10.62057,19.755203 c -0.444767,-0.39051 -0.521429,-0.655392 -0.48646,-1.680799 l 0.03055,-0.895855 0.372228,-0.347061 0.372228,-0.34706 h 7.557551 7.557552 l 0.301543,0.264758 c 0.448113,0.393449 0.520809,0.65134 0.486225,1.724898 l -0.03032,0.941087 -0.330158,0.302396 -0.330159,0.302395 h -7.599621 -7.59962 z m 13.13237,-0.817999 c -0.15034,-0.18587 -0.230925,-1.201079 -0.107175,-1.350189 0.09415,-0.113441 -0.01369,-0.130316 -0.832785,-0.130316 h -0.940939 l 0.146778,0.22401 c 0.08073,0.123206 0.161573,0.401629 0.179658,0.618719 0.02893,0.347316 0.01155,0.394708 -0.144739,0.394708 -0.09769,0 -0.177621,0.01664 -0.177621,0.03697 0,0.02033 -0.02414,0.09988 -0.05365,0.176776 -0.04704,0.122593 0.07403,0.139812 0.983095,0.139812 0.818132,0 1.017901,-0.0233 0.947379,-0.110486 z m 2.100653,0.0221 c 0,-0.04861 -0.01754,-0.08839 -0.03898,-0.08839 -0.02144,0 -0.06356,0.03977 -0.09361,0.08839 -0.03005,0.04861 -0.01251,0.08839 0.03898,0.08839 0.05148,0 0.09361,-0.03977 0.09361,-0.08839 z"
       id="path3981" />
    <path
       style="fill:#00ccff;fill-opacity:0.026393;stroke:#077af9;stroke-width:1.00157;stroke-linejoin:bevel;stroke-opacity:0.651822"
       d="m 10.909272,19.261592 c -0.18395,-0.195759 -0.218596,-0.331015 -0.244761,-0.955528 -0.02858,-0.682215 -0.01572,-0.745033 0.206731,-1.009398 l 0.23721,-0.281908 h 5.345294 5.345294 l -0.198022,0.352332 c -0.176854,0.314669 -0.18503,0.376608 -0.07648,0.579439 0.10878,0.203257 0.09998,0.266586 -0.08381,0.60303 -0.196812,0.360283 -0.199287,0.38766 -0.05949,0.657998 l 0.145866,0.282075 h -5.201775 -5.201775 z"
       id="path4020" />
    <path
       style="fill:#00ccff;fill-opacity:0.026393;stroke:#077af9;stroke-width:1.00157;stroke-linejoin:bevel;stroke-opacity:0.651822"
       d="m 11.267327,18.732576 c -0.119654,-0.314715 -0.107918,-0.953639 0.01986,-1.081422 0.07986,-0.07986 1.27808,-0.106066 4.849795,-0.106066 h 4.743729 l 0.05419,0.331456 c 0.03474,0.212516 0.0029,0.466255 -0.08883,0.707107 l -0.143018,0.37565 H 16.02829 11.353528 Z"
       id="path4059" />
    <path
       style="fill:#00ccff;fill-opacity:0.026393;stroke:#077af9;stroke-width:1.00157;stroke-linejoin:bevel;stroke-opacity:0.651822"
       d="m 16.108777,18.009285 c 0.789971,-0.01465 2.082651,-0.01465 2.872621,0 0.789971,0.01465 0.143632,0.02664 -1.43631,0.02664 -1.579942,0 -2.226282,-0.01199 -1.436311,-0.02664 z"
       id="path4098" />
    <path
       style="fill:#00ccff;fill-opacity:0.026393;stroke:#077af9;stroke-width:1.00157;stroke-linejoin:bevel;stroke-opacity:0.651822"
       d="m 13.81068,18.011478 c 0.157994,-0.01961 0.41653,-0.01961 0.574524,0 0.157994,0.01961 0.02873,0.03565 -0.287262,0.03565 -0.315988,0 -0.445256,-0.01604 -0.287262,-0.03565 z"
       id="path4800" />
    <path
       style="fill:#00ccff;fill-opacity:0.026393;stroke:#077af9;stroke-width:1.00157;stroke-linejoin:bevel;stroke-opacity:0.651822"
       d="m 11.272625,18.788335 c -0.125392,-0.234296 -0.115492,-1.007122 0.01457,-1.137181 0.07054,-0.07053 0.456144,-0.106066 1.151087,-0.106066 h 1.04502 l -0.137461,0.209792 c -0.121575,0.185546 -0.229071,0.216959 -0.930116,0.271801 -0.692586,0.05418 -0.792654,0.08283 -0.792654,0.226933 0,0.09071 0.03488,0.186483 0.07752,0.212833 0.126998,0.07849 7.151039,0.141375 7.965823,0.07132 0.735603,-0.06325 0.751885,-0.06968 0.779269,-0.307666 0.02567,-0.223062 0.0032,-0.243068 -0.273074,-0.243068 -0.235338,0 -0.323017,-0.04823 -0.401724,-0.220971 l -0.100681,-0.220971 h 0.606987 0.606987 l 0.05912,0.315163 c 0.03933,0.209643 0.009,0.446389 -0.09056,0.707107 l -0.149684,0.391943 h -4.669465 c -4.526101,0 -4.672273,-0.0052 -4.760962,-0.170966 z"
       id="path4839" />
    <path
       style="fill:#00ccff;fill-opacity:0.026393;stroke:#077af9;stroke-width:1.00157;stroke-linejoin:bevel;stroke-opacity:0.651822"
       d="m 24.137388,19.334952 c 0.03876,-0.08507 0.06694,-0.293891 0.06262,-0.464039 -0.0043,-0.170148 -0.01458,-0.605256 -0.02282,-0.966908 -0.01138,-0.499974 -0.0506,-0.684637 -0.163653,-0.770587 -0.123624,-0.09398 0.01634,-0.113512 0.830273,-0.115849 0.935011,-0.0027 0.988401,0.0072 1.189235,0.221015 0.166079,0.176783 0.218079,0.346398 0.247408,0.807008 l 0.03713,0.583181 -0.254313,-0.150226 c -0.523856,-0.309449 -1.066027,0.207566 -0.792545,0.755772 l 0.127366,0.255313 h -0.665595 c -0.601822,0 -0.658842,-0.01482 -0.595119,-0.15468 z"
       id="path4878" />
    <path
       style="fill:#00ccff;fill-opacity:0.026393;stroke:#077af9;stroke-width:1.00157;stroke-linejoin:bevel;stroke-opacity:0.651822"
       d="m 24.708083,18.048702 -0.0035,-0.512852 0.457092,0.02672 c 0.463034,0.02706 0.675833,0.200523 0.367851,0.299849 -0.370106,0.119361 -0.580557,0.262953 -0.695774,0.474727 -0.115808,0.212864 -0.122273,0.19802 -0.12563,-0.28844 z"
       id="path4917" />
    <path
       style="fill:#00ccff;fill-opacity:0.026393;stroke:#077af9;stroke-width:1.00157;stroke-linejoin:bevel;stroke-opacity:0.651822"
       d="m 22.741147,18.252195 c -0.03032,-0.206593 -0.0055,-0.265165 0.112518,-0.265165 0.100689,0 0.164478,0.08886 0.190355,0.265165 0.03032,0.206592 0.0055,0.265165 -0.112519,0.265165 -0.100689,0 -0.164478,-0.08886 -0.190354,-0.265165 z"
       id="path4956" />
    <path
       style="fill:#00ccff;fill-opacity:0.026393;stroke:#077af9;stroke-width:1.00157;stroke-linejoin:bevel;stroke-opacity:0.651822"
       d=""
       id="path4995" />
    <path
       style="fill:#00ccff;fill-opacity:0.026393;stroke:#077af9;stroke-width:1.00157;stroke-linejoin:bevel;stroke-opacity:0.651822"
       d=""
       id="path5034" />
    <path
       style="fill:#00ccff;fill-opacity:0.026393;stroke:#077af9;stroke-width:1.00157;stroke-linejoin:bevel;stroke-opacity:0.651822"
       d=""
       id="path5073" />
    <path
       style="fill:#00ccff;fill-opacity:0.026393;stroke:#077af9;stroke-width:1.00157;stroke-linejoin:bevel;stroke-opacity:0.651822"
       d="m 22.737903,17.928492 c 0.06077,-0.02452 0.160204,-0.02452 0.220971,0 0.06077,0.02452 0.01105,0.04458 -0.110485,0.04458 -0.121534,0 -0.171253,-0.02006 -0.110486,-0.04458 z"
       id="path5112" />
    <path
       style="fill:#00ccff;fill-opacity:0.026393;stroke:#077af9;stroke-width:1.00157;stroke-linejoin:bevel;stroke-opacity:0.651822"
       d="m 22.510243,18.754731 c -0.240238,-0.255722 -0.247089,-0.411956 -0.01541,-0.35137 0.09723,0.02542 0.176777,0.08136 0.176777,0.124308 0,0.143072 0.358394,0.08046 0.547412,-0.09564 0.210894,-0.196478 0.355634,-0.161704 0.274982,0.06607 -0.170732,0.482165 -0.653561,0.608122 -0.983763,0.256638 z"
       id="path5151" />
    <path
       style="fill:#00ccff;fill-opacity:0.026393;stroke:#077af9;stroke-width:1.00157;stroke-linejoin:bevel;stroke-opacity:0.651822"
       d=""
       id="path5190" />
    <path
       style="fill:#00ccff;fill-opacity:0.026393;stroke:#077af9;stroke-width:1.00157;stroke-linejoin:bevel;stroke-opacity:0.651822"
       d=""
       id="path5229" />
    <path
       style="fill:#00ccff;fill-opacity:0.026393;stroke:#077af9;stroke-width:1.00157;stroke-linejoin:bevel;stroke-opacity:0.651822"
       d="m 22.052894,17.764859 c 0,-0.07358 0.04809,-0.210793 0.106876,-0.304918 0.0873,-0.139783 0.07557,-0.232676 -0.06399,-0.507034 -0.09397,-0.184743 -0.185158,-0.365728 -0.202631,-0.402188 -0.01747,-0.03646 0.431174,-0.06629 0.996992,-0.06629 h 1.028761 l -0.232464,0.199956 c -0.224099,0.192762 -0.228639,0.215147 -0.126166,0.622105 0.05846,0.232181 0.08089,0.447555 0.04984,0.478609 -0.03105,0.03105 -0.167604,-0.05002 -0.303445,-0.180163 -0.13584,-0.130143 -0.335698,-0.236624 -0.444129,-0.236624 -0.249643,0 -0.63287,0.247007 -0.63287,0.407913 0,0.06733 -0.03977,0.122417 -0.08839,0.122417 -0.04861,0 -0.08839,-0.0602 -0.08839,-0.133782 z"
       id="path5268" />
    <path
       style="fill:#00ccff;fill-opacity:0.026393;stroke:#077af9;stroke-width:1.00157;stroke-linejoin:bevel;stroke-opacity:0.651822"
       d="m 23.663596,19.367097 c 0.05195,-0.271768 0.06719,-0.265801 -0.252677,-0.09898 -0.428601,0.223531 -0.786872,0.169548 -1.16961,-0.176232 -0.188333,-0.170148 -0.369236,-0.309359 -0.402007,-0.309359 -0.03277,0 -0.03432,0.134656 -0.0034,0.299237 0.07308,0.389554 -0.07239,0.47308 -0.306215,0.175821 -0.229342,-0.291562 -0.228721,-0.337402 0.0098,-0.723343 0.123536,-0.199884 0.206083,-0.267671 0.227974,-0.187209 0.105451,0.387599 0.116431,0.397946 0.241713,0.227769 0.117707,-0.159888 0.308928,-0.134274 0.308928,0.04138 0,0.04861 -0.04592,0.06001 -0.102045,0.02532 -0.06521,-0.0403 -0.07797,-0.02411 -0.03534,0.04486 0.03669,0.05936 0.08793,0.08669 0.113882,0.06075 0.02595,-0.02595 0.146654,0.03107 0.268234,0.126702 0.12158,0.09563 0.289876,0.173882 0.373991,0.173882 0.243173,0 0.604,-0.335378 0.643986,-0.598566 0.02228,-0.146629 0.04182,-0.07659 0.04988,0.178721 0.02208,0.700116 0.356579,0.431378 0.377823,-0.303548 l 0.01103,-0.381462 0.07577,0.486136 c 0.09686,0.621471 0.04827,0.825739 -0.241594,1.015668 l -0.234234,0.153476 z"
       id="path5307" />
    <path
       style="fill:#00ccff;fill-opacity:0.026393;stroke:#077af9;stroke-width:1.00157;stroke-linejoin:bevel;stroke-opacity:0.651822"
       d=""
       id="path5346" />
    <path
       style="fill:#00ccff;fill-opacity:0.026393;stroke:#077af9;stroke-width:1.00157;stroke-linejoin:bevel;stroke-opacity:0.651822"
       d="m 21.440157,17.562945 c -0.0033,-0.0631 -0.115362,-0.210997 -0.24905,-0.328663 l -0.243068,-0.213938 0.290037,-0.0028 c 0.332578,-0.0032 0.444814,0.170144 0.301799,0.466126 -0.05155,0.106696 -0.09643,0.142367 -0.09972,0.07927 z"
       id="path5385" />
    <path
       style="fill:#00ccff;fill-opacity:0.026393;stroke:#077af9;stroke-width:1.00157;stroke-linejoin:bevel;stroke-opacity:0.651822"
       d=""
       id="path5424" />
    <path
       style="fill:#00ccff;fill-opacity:0.026393;stroke:#077af9;stroke-width:1.00157;stroke-linejoin:bevel;stroke-opacity:0.651822"
       d="m 24.616156,18.811987 c 0,-0.08102 0.02545,-0.121869 0.05654,-0.09077 0.0311,0.0311 0.120592,-0.07165 0.198874,-0.228337 0.09003,-0.180201 0.280363,-0.348997 0.51798,-0.45937 0.385473,-0.179051 0.495652,-0.423461 0.235839,-0.523161 -0.0769,-0.02951 -0.335432,-0.05365 -0.574524,-0.05365 h -0.434713 l -0.01025,0.331457 c -0.0056,0.182301 -0.02844,0.26185 -0.05068,0.176776 -0.02223,-0.08507 -0.09717,-0.154679 -0.166524,-0.154679 -0.19509,0 -0.149838,-0.186522 0.111406,-0.459202 0.484235,-0.505433 1.606533,-0.206292 1.615837,0.43069 0.0029,0.196632 -0.371248,0.558842 -0.577218,0.558842 -0.06284,0 -0.187496,0.09312 -0.277022,0.206934 -0.148142,0.188332 -0.471311,0.411784 -0.595546,0.411784 -0.0275,0 -0.05,-0.06629 -0.05,-0.147314 z"
       id="path5463" />
    <path
       style="fill:#00ccff;fill-opacity:0.026393;stroke:#077af9;stroke-width:1.00157;stroke-linejoin:bevel;stroke-opacity:0.651822"
       d="m 25.609712,19.708822 c 0.109828,-0.171127 0.28918,-0.334538 0.39856,-0.363136 0.109381,-0.0286 0.198874,-0.118657 0.198874,-0.200133 0,-0.131458 0.409469,-0.451417 0.577703,-0.451417 0.03536,0 0.04162,0.169019 0.01391,0.375598 -0.07038,0.52472 -0.532985,0.950228 -1.033073,0.950228 h -0.355664 z"
       id="path5502" />
    <path
       style="fill:#00ccff;fill-opacity:0.026393;stroke:#077af9;stroke-width:1.00157;stroke-linejoin:bevel;stroke-opacity:0.651822"
       d="m 21.69934,19.774464 c 0,-0.0378 0.06082,-0.155547 0.135145,-0.261668 0.08819,-0.125907 0.114735,-0.278614 0.0764,-0.439511 l -0.05874,-0.246566 0.255052,0.232268 c 0.494565,0.450386 0.850792,0.533757 1.293615,0.302759 0.223466,-0.116571 0.243068,-0.113546 0.243068,0.03751 0,0.09037 0.02008,0.217277 0.04463,0.28202 0.05894,0.155447 -1.019807,0.213878 -1.288983,0.06982 -0.136567,-0.07309 -0.215573,-0.07433 -0.285416,-0.0045 -0.110544,0.110544 -0.414775,0.130976 -0.414775,0.02786 z"
       id="path5541" />
    <path
       style="fill:#00ccff;fill-opacity:0.026393;stroke:#077af9;stroke-width:1.00157;stroke-linejoin:bevel;stroke-opacity:0.651822"
       d="m 11.23507,18.820253 c -0.06966,-0.181521 -0.06986,-0.954076 -2.93e-4,-1.135354 0.0449,-0.117003 0.230994,-0.139811 1.140733,-0.139811 h 1.087082 l -0.10217,0.220281 c -0.07663,0.165215 -0.170739,0.220454 -0.376466,0.220971 -0.150863,3.79e-4 -0.518779,0.02624 -0.817592,0.05748 -0.443034,0.04631 -0.543296,0.08612 -0.543296,0.215755 0,0.08743 0.0432,0.185668 0.096,0.2183 0.11327,0.07001 8.551409,0.05898 8.66516,-0.01133 0.04272,-0.0264 0.07767,-0.145095 0.07767,-0.26376 0,-0.18392 -0.04238,-0.216164 -0.287262,-0.218532 -0.202994,-0.002 -0.334736,-0.06796 -0.449098,-0.224988 l -0.161836,-0.22221 0.64614,0.02611 c 0.611133,0.0247 0.650636,0.03894 0.729131,0.262941 0.05884,0.167904 0.04342,0.360831 -0.05298,0.662913 l -0.135976,0.426085 -4.730502,0.02286 c -4.256269,0.02057 -4.735909,0.0088 -4.784445,-0.117714 z"
       id="path5580" />
    <path
       style="fill:#00ccff;fill-opacity:0.026393;stroke:#077af9;stroke-width:1.00157;stroke-linejoin:bevel;stroke-opacity:0.651822"
       d="m 13.885182,17.7221 c 0.01009,-0.145712 -0.01165,-0.246396 -0.0483,-0.223743 -0.03665,0.02265 -0.111381,-0.057 -0.166061,-0.177012 l -0.09942,-0.218199 h 2.968571 c 2.670635,0 2.963187,0.01403 2.914921,0.139812 -0.02951,0.0769 -0.05365,0.156446 -0.05365,0.176776 0,0.02033 -0.169043,0.04333 -0.37565,0.05111 -0.309848,0.01167 -0.327022,0.02026 -0.09804,0.04907 0.230376,0.02899 0.275491,0.07168 0.265165,0.250957 l -0.01244,0.216029 -1.922446,6.2e-5 c -1.057346,3.4e-5 -1.921838,-0.02977 -1.921094,-0.06623 0.0042,-0.20402 0.216073,-0.331738 0.634429,-0.382374 0.341014,-0.04128 0.167443,-0.06014 -0.635782,-0.06908 l -1.104854,-0.01231 0.304095,0.154542 c 0.496347,0.252245 0.448054,0.375514 -0.147116,0.375514 h -0.52067 z"
       id="path5619" />
    <path
       style="fill:#00ccff;fill-opacity:0.026393;stroke:#077af9;stroke-width:1.00157;stroke-linejoin:bevel;stroke-opacity:0.651822"
       d=""
       id="path5658" />
    <path
       style="fill:#00ccff;fill-opacity:0.026393;stroke:#077af9;stroke-width:1.00157;stroke-linejoin:bevel;stroke-opacity:0.651822"
       d="m 10.997551,19.142877 c -0.232807,-0.232806 -0.258366,-0.315463 -0.258366,-0.83553 0,-0.670846 0.110994,-0.969077 0.411653,-1.106066 0.118461,-0.05397 0.64731,-0.09814 1.175221,-0.09814 0.936669,0 0.958647,0.0046 0.91047,0.188783 -0.04413,0.168763 -0.01982,0.184446 0.229246,0.14789 0.325006,-0.0477 0.357486,0.03134 0.08675,0.2111 -0.313692,0.208283 -0.118604,0.313339 0.607994,0.327406 0.820183,0.01588 0.964314,0.112184 0.617504,0.412601 -0.189725,0.164345 -0.349457,0.214822 -0.679793,0.214822 -0.237488,0 -0.456379,-0.03977 -0.486424,-0.08839 -0.03004,-0.04861 -0.0026,-0.08965 0.06108,-0.09118 0.06364,-0.0015 -0.003,-0.107081 -0.148074,-0.234544 -0.145077,-0.127462 -0.268287,-0.275361 -0.2738,-0.328663 -0.0055,-0.0533 -0.01608,-0.146631 -0.02349,-0.207398 -0.0098,-0.0808 -0.272131,-0.110485 -0.976278,-0.110485 -1.057677,0 -1.070117,0.0066 -1.070117,0.570705 0,0.160094 0.02486,0.415377 0.05524,0.567295 l 0.05524,0.276213 h 4.70572 4.70572 l 0.155028,-0.405936 c 0.114811,-0.300627 0.13437,-0.478335 0.07539,-0.68501 -0.07457,-0.261313 -0.108514,-0.280757 -0.533427,-0.305535 -0.407566,-0.02377 -0.460194,-0.0058 -0.516659,0.176777 -0.03458,0.111781 -0.187036,0.311003 -0.338797,0.442714 -0.177514,0.154062 -0.228642,0.24124 -0.143348,0.244422 0.117851,0.0044 0.117851,0.01447 0,0.09063 -0.0739,0.04776 -0.895447,0.08613 -1.856155,0.0867 -1.563716,9.28e-4 -1.750216,-0.01522 -2.010835,-0.174124 -0.157994,-0.09633 -0.287262,-0.215506 -0.287262,-0.264835 0,-0.117017 0.261104,-0.132457 2.759362,-0.163169 1.110704,-0.01365 1.20848,-0.0279 1.16393,-0.169586 -0.04632,-0.147314 -0.04257,-0.147314 0.07881,0 0.07009,0.08507 0.192667,0.15468 0.272381,0.15468 0.207992,0 0.181574,-0.330013 -0.03184,-0.397748 -0.21718,-0.06893 -0.221983,-0.150522 -0.0221,-0.375432 0.136481,-0.153568 0.237876,-0.168985 0.861787,-0.131038 0.515752,0.03137 0.653288,0.06309 0.508233,0.117211 -0.241855,0.09024 -0.262396,0.256676 -0.03168,0.256676 0.105385,0 0.188052,0.0831 0.223615,0.224798 0.03103,0.123638 0.144724,0.260329 0.25265,0.303756 0.107926,0.04343 0.14732,0.08148 0.08754,0.08456 -0.171354,0.0088 -0.486697,0.707269 -0.445639,0.98702 0.0234,0.159463 -0.0081,0.266377 -0.08742,0.296823 -0.0682,0.02617 -2.251762,0.04759 -4.852353,0.04759 h -4.728346 z m 8.845634,-1.862954 c 0,-0.200351 -0.09166,-0.226539 -0.247487,-0.07071 -0.155828,0.155828 -0.129641,0.247487 0.07071,0.247487 0.117851,0 0.176777,-0.05893 0.176777,-0.176776 z"
       id="path5697" />
    <path
       style="fill:#00ccff;fill-opacity:0.026393;stroke:#077af9;stroke-width:1.00157;stroke-linejoin:bevel;stroke-opacity:0.651822"
       d="m 12.418563,18.438098 c 0.387486,-0.03117 0.617008,-0.08303 0.552428,-0.124829 -0.178809,-0.115727 -0.126936,-0.237851 0.101028,-0.237851 0.201723,0 0.38248,0.230842 0.269447,0.344107 -0.02944,0.0295 -0.398295,0.05775 -0.819673,0.06277 l -0.766142,0.0091 z"
       id="path5736" />
    <path
       style="fill:#00ccff;fill-opacity:0.026393;stroke:#077af9;stroke-width:1.00157;stroke-linejoin:bevel;stroke-opacity:0.651822"
       d="m 23.790166,19.769934 c -0.08046,-0.0889 -0.146282,-0.243348 -0.146282,-0.343215 0,-0.172263 -0.01758,-0.175519 -0.342774,-0.06348 -0.44523,0.153394 -0.895786,0.03465 -1.188511,-0.313234 -0.229878,-0.273195 -0.378519,-0.267713 -0.23069,0.0085 0.06335,0.118375 0.04883,0.240038 -0.05193,0.434868 -0.172105,0.332814 -0.366132,0.417361 -0.545704,0.23779 -0.17206,-0.172061 -0.08304,-0.328065 0.152108,-0.266571 0.175382,0.04586 0.175803,0.0415 0.02201,-0.227264 -0.08624,-0.150713 -0.170341,-0.234315 -0.186886,-0.185781 -0.01655,0.04853 -0.155757,0.154178 -0.309359,0.234766 -0.249175,0.13073 -0.774678,0.147202 -4.875471,0.15282 -4.896613,0.0067 -5.03575,-0.0044 -5.243939,-0.419377 -0.0991,-0.197521 -0.146576,-0.672756 -0.119027,-1.191432 0.0091,-0.171809 0.100481,-0.37629 0.222733,-0.498542 0.186923,-0.186923 0.316493,-0.213563 1.320327,-0.271462 0.900724,-0.05195 1.123451,-0.09127 1.167512,-0.206087 0.03527,-0.09191 0.07612,-0.108186 0.115984,-0.04621 0.03385,0.05262 0.190804,0.161909 0.348798,0.242861 0.157994,0.08095 0.287262,0.202741 0.287262,0.270643 0,0.0679 0.14187,0.170279 0.315266,0.227505 0.182332,0.06018 0.356027,0.193509 0.411935,0.316214 0.117628,0.258166 0.301494,0.275349 0.377684,0.0353 0.03087,-0.09728 0.123318,-0.212825 0.20543,-0.25677 0.08211,-0.04395 0.838181,-0.103098 1.680155,-0.131451 1.552121,-0.05227 1.694113,-0.07346 1.694113,-0.25288 0,-0.132205 0.447034,-0.596242 0.574394,-0.596242 0.05466,0 0.177675,0.07294 0.27337,0.162096 0.09569,0.08915 0.362941,0.187995 0.593881,0.219649 0.390164,0.05348 0.425804,0.042 0.503402,-0.162096 0.0926,-0.243571 0.176852,-0.272103 0.335373,-0.113583 0.147697,0.147698 0.13244,0.230377 -0.04861,0.263437 -0.128006,0.02337 -0.104957,0.07667 0.133663,0.309029 l 0.288342,0.280784 0.138398,-0.267633 c 0.130754,-0.25285 0.128254,-0.274737 -0.04527,-0.396281 -0.205322,-0.143812 -0.2469,-0.38379 -0.0665,-0.38379 0.372779,0 0.633699,0.736956 0.409343,1.156171 -0.07268,0.135807 -0.06063,0.184391 0.05693,0.229503 0.101254,0.03885 0.204159,-0.01832 0.320543,-0.178088 0.274497,-0.376824 0.381623,-0.299509 0.347364,0.250701 -0.0294,0.472163 -0.02364,0.486257 0.198874,0.486257 0.25642,0 0.293687,-0.17389 0.146933,-0.685594 -0.09743,-0.33972 0.04762,-0.392299 0.303189,-0.109902 0.151733,0.167664 0.507237,0.251688 0.467463,0.110486 -0.04524,-0.160598 0.113231,-0.647436 0.194412,-0.597263 0.106769,0.06599 0.110558,0.646947 0.0077,1.179266 -0.04788,0.247782 -0.03872,0.479042 0.02595,0.654631 0.07875,0.213834 0.07552,0.27985 -0.01518,0.310808 -0.08593,0.02933 -0.07668,0.06745 0.03646,0.150179 0.09072,0.06634 0.129222,0.169265 0.09585,0.256238 -0.07235,0.188554 -0.175894,0.183834 -0.356989,-0.01628 z m -1.950545,-1.287258 c 0.01585,-0.108017 -0.01871,-0.139821 -0.112745,-0.103737 -0.0899,0.0345 -0.120151,0.01176 -0.08975,-0.06747 0.02522,-0.06573 0.01541,-0.168778 -0.02182,-0.229003 -0.04272,-0.06911 -0.101366,0.02323 -0.159023,0.250381 -0.06425,0.253133 -0.06351,0.342679 0.0025,0.301889 0.0601,-0.03715 0.07189,-8.04e-4 0.03279,0.101086 -0.05579,0.145393 -0.04443,0.148047 0.132076,0.03085 0.106216,-0.07052 0.203408,-0.198326 0.215983,-0.284001 z m 1.822515,0.03059 c -0.04545,-0.309684 -0.06017,-0.306932 -0.140085,0.02619 -0.04166,0.173647 -0.02434,0.243068 0.06065,0.243068 0.0823,0 0.10678,-0.08297 0.07944,-0.269263 z m -3.253883,-0.135714 c 0.09737,-0.253737 0.05691,-0.30213 -0.252599,-0.30213 -0.212124,0 -0.33432,0.05245 -0.397579,0.170651 -0.07627,0.142502 -0.05855,0.176966 0.107376,0.208934 0.389042,0.07495 0.489837,0.06057 0.542802,-0.07746 z m -7.479872,-0.125353 c -0.09246,-0.148056 -0.206124,-0.176777 -0.699581,-0.176777 -0.545666,0 -0.585768,0.01306 -0.542954,0.176777 0.04097,0.156664 0.120563,0.176776 0.699581,0.176776 0.631227,0 0.649614,-0.006 0.542954,-0.176776 z m 0.904396,-0.0442 c -0.06052,-0.07292 -0.08371,-0.132582 -0.05153,-0.132582 0.03218,0 0.0072,-0.05549 -0.05547,-0.123305 -0.06268,-0.06782 -0.143801,-0.105246 -0.180261,-0.08317 -0.03646,0.02207 -0.0669,-0.03182 -0.06765,-0.119763 -0.0011,-0.134402 -0.01463,-0.1389 -0.08461,-0.02821 -0.06049,0.09568 -0.01934,0.198403 0.150472,0.37565 0.242011,0.252605 0.483471,0.345649 0.289046,0.11138 z m -0.558339,-0.94465 c -0.02822,-0.07051 -0.04916,-0.04957 -0.0534,0.0534 -0.0038,0.09318 0.01705,0.145381 0.04642,0.11601 0.02937,-0.02937 0.03251,-0.105606 0.007,-0.169411 z m 0.357624,0.139948 c -0.02937,-0.02937 -0.105606,-0.03251 -0.169411,-0.007 -0.07051,0.02822 -0.04957,0.04916 0.0534,0.0534 0.09318,0.0038 0.14538,-0.01705 0.11601,-0.04642 z"
       id="path5775" />
    <path
       style="fill:#00ccff;fill-opacity:0.026393;stroke:#077af9;stroke-width:1.00157;stroke-linejoin:bevel;stroke-opacity:0.651822"
       d="m 24.704544,18.022385 v -0.477297 h 0.47668 c 0.353131,0 0.490584,0.03624 0.53033,0.139811 0.07936,0.206802 0.07364,0.213742 -0.176159,0.213742 -0.143501,0 -0.342675,0.112865 -0.53033,0.300521 l -0.300521,0.30052 z"
       id="path5814" />
    <path
       style="fill:#00ccff;fill-opacity:0.026393;stroke:#077af9;stroke-width:1.00157;stroke-linejoin:bevel;stroke-opacity:0.651822"
       d="m 21.272644,19.905725 c -0.06708,-0.08084 -0.43885,-0.08945 -1.532409,-0.0355 -0.794115,0.03918 -3.036425,0.05766 -4.98291,0.04108 -3.349286,-0.02854 -3.555295,-0.03963 -3.841765,-0.206942 -0.475664,-0.277803 -0.631675,-0.629641 -0.639071,-1.44125 -0.0074,-0.808985 0.152023,-1.178626 0.628152,-1.4567 0.247281,-0.14442 0.50294,-0.174827 1.676251,-0.199364 1.45397,-0.03041 1.82393,0.03303 1.917815,0.328831 0.0292,0.092 0.122004,0.167271 0.206232,0.167271 0.08423,0 0.196602,0.04346 0.24972,0.09658 0.06574,0.06574 0.149001,0.06854 0.260745,0.0088 0.09029,-0.04829 0.84034,-0.115915 1.666771,-0.150282 1.383649,-0.05754 1.51429,-0.07727 1.650237,-0.249203 0.1352,-0.170989 0.246631,-0.188587 1.322864,-0.208913 0.646375,-0.01221 1.342543,-0.04729 1.54704,-0.07795 0.361608,-0.05423 0.378174,-0.04568 0.603624,0.311458 0.210964,0.334187 0.222377,0.39661 0.126902,0.694026 -0.19731,0.614646 -0.192441,0.606094 -0.236435,0.415199 -0.07024,-0.304791 -0.33537,-0.406982 -0.401303,-0.154679 -0.03306,0.126523 -0.04229,0.121488 -0.05068,-0.02766 -0.0056,-0.100285 -0.127509,-0.294675 -0.270822,-0.431978 -0.25347,-0.24284 -0.286365,-0.249529 -1.207341,-0.245523 -0.693409,0.003 -0.965978,0.03583 -1.018543,0.122619 -0.03947,0.06518 -0.103955,0.166391 -0.143288,0.224923 -0.05007,0.07451 -0.489064,0.110165 -1.463809,0.118901 -1.576746,0.01413 -1.836737,0.05817 -1.959914,0.33201 -0.113787,0.25296 -0.420714,0.250133 -0.532606,-0.0049 -0.04834,-0.110182 -0.215361,-0.236589 -0.374512,-0.283443 -0.157995,-0.04651 -0.287263,-0.131137 -0.287263,-0.188051 0,-0.252052 -0.272966,-0.303676 -1.704606,-0.322378 -1.858438,-0.02428 -1.794253,-0.06649 -1.77619,1.168126 0.0105,0.717816 0.04375,0.926715 0.169638,1.065819 0.1465,0.161881 0.453756,0.252044 0.36369,0.106723 -0.0226,-0.03646 0.899819,-0.05643 2.049813,-0.04439 5.791379,0.06067 7.771534,0.0605 7.733656,-6.63e-4 -0.02287,-0.03693 0.0326,-0.161456 0.12327,-0.276725 l 0.164856,-0.20958 0.146137,0.254628 c 0.08037,0.140048 0.212075,0.25463 0.292666,0.25463 0.119592,0 0.135861,-0.05687 0.0885,-0.309359 -0.03192,-0.170148 -0.03273,-0.309359 -0.0018,-0.309359 0.03093,0 0.218884,0.139211 0.417663,0.309359 0.401471,0.343644 0.738027,0.394895 1.157293,0.176232 0.319863,-0.16682 0.304629,-0.172787 0.252677,0.09898 -0.04412,0.230822 -0.04396,0.230888 0.189033,0.07822 0.276688,-0.181292 0.283304,-0.224418 0.07183,-0.468249 -0.112832,-0.130095 -0.222198,-0.170148 -0.363617,-0.133166 -0.181253,0.0474 -0.194843,0.0309 -0.130897,-0.158924 0.03924,-0.116498 0.0736,-0.360919 0.07635,-0.543158 0.0027,-0.182239 0.03355,-0.331395 0.06845,-0.331457 0.0349,-6.2e-5 0.05479,-0.20893 0.0442,-0.464151 l -0.01925,-0.464039 0.298501,-0.02854 c 0.164176,-0.01569 0.343162,0.01746 0.397748,0.07368 0.0739,0.07611 0.06538,0.09765 -0.03334,0.08435 -0.321158,-0.04326 -0.36084,-0.0018 -0.213526,0.223013 l 0.144102,0.219928 0.223408,-0.175734 c 0.320397,-0.252023 1.147378,-0.24575 1.474012,0.01118 0.193096,0.151889 0.232595,0.247122 0.210794,0.508233 -0.02205,0.264087 -0.07968,0.347707 -0.323541,0.469469 -0.163191,0.08148 -0.389694,0.235503 -0.503339,0.342267 -0.150109,0.14102 -0.268062,0.178697 -0.431229,0.137745 -0.206698,-0.05188 -0.22909,-0.0283 -0.280922,0.295844 -0.04969,0.310733 -0.07586,0.341758 -0.222235,0.263422 -0.128801,-0.06893 -0.165912,-0.05844 -0.165912,0.0469 0,0.07463 0.06298,0.135693 0.139948,0.135693 0.191479,0 0.11749,0.174666 -0.162558,0.383752 -0.209802,0.15664 -0.252295,0.160867 -0.436369,0.04341 -0.138105,-0.08813 -0.297988,-0.110076 -0.495315,-0.068 -0.160259,0.03418 -0.450205,0.02645 -0.644322,-0.01716 -0.202177,-0.04543 -0.417516,-0.04634 -0.504114,-0.0021 -0.285813,0.145904 -0.707627,0.186152 -0.79884,0.07622 z m 3.834203,-1.818099 c 0.132141,-0.103942 0.334328,-0.188985 0.449307,-0.188985 0.228198,0 0.234234,-0.0083 0.1554,-0.213742 -0.03975,-0.103574 -0.177199,-0.139811 -0.53033,-0.139811 h -0.47668 l 0.0056,0.552427 c 0.004,0.396051 0.02695,0.499587 0.08102,0.365761 0.04148,-0.102666 0.183536,-0.271709 0.315676,-0.37565 z m -0.63273,0.289922 c 0.09588,-0.249873 0.05681,-0.478907 -0.0817,-0.478907 -0.09973,0 -0.129868,0.08142 -0.114517,0.309359 0.02208,0.327829 0.107242,0.401417 0.196217,0.169548 z M 24.05593,18.002055 c 0.08785,-0.14067 0.07038,-0.154154 -0.156582,-0.120844 -0.140505,0.02062 -0.255464,0.08601 -0.255464,0.145313 0,0.26107 0.242725,0.246656 0.412046,-0.02447 z m -2.418418,-0.868796 c -0.02501,-0.06518 -0.09736,-0.118501 -0.160778,-0.118501 -0.124256,0 -0.127266,0.148102 -0.0069,0.340893 0.05958,0.09545 0.08897,0.09709 0.144016,0.008 0.03804,-0.06155 0.0487,-0.165232 0.02369,-0.230408 z"
       id="path5853" />
  </g>
</svg>
