<?xml version="1.0" encoding="UTF-8"?>
<svg width="468pt" height="468pt" viewBox="-2 0 468 468.24" xmlns="http://www.w3.org/2000/svg">
 <path d="m227.2 241.17c-43.742-43.742-43.742-114.66 0-158.4 43.738-43.742 114.66-43.742 158.4 0l33.922-33.918c-40.176-41.594-99.664-58.277-155.6-43.633-55.941 14.641-99.629 58.328-114.27 114.27-14.641 55.941 2.0391 115.43 43.633 155.6z" fill="#27aae1"/>
 <path d="m385.59 82.766c43.742 43.742 43.742 114.66 0 158.4-43.742 43.738-114.66 43.738-158.4 0l-33.922 33.918c62.781 60.637 162.57 59.77 224.29-1.9492 61.715-61.719 62.582-161.51 1.9492-224.29z" fill="#3fb3e4"/>
 <path d="m227.2 82.766c-43.68 43.766-43.68 114.63 0 158.4l158.4-158.4c-43.766-43.676-114.63-43.676-158.4 0z" fill="#f1f2f2"/>
 <path d="m385.59 241.17c43.68-43.77 43.68-114.64 0-158.4l-158.4 158.4c43.766 43.676 114.63 43.676 158.4 0z" fill="#f6f6f6"/>
 <path d="m159.31 309.05 22.602 22.598 36.238-36.16c-8.9492-5.9531-17.285-12.785-24.879-20.398z" fill="#b5b4ba"/>
 <path d="m193.27 275.09c-7.6133-7.5938-14.445-15.926-20.398-24.879l-36.16 36.238 22.598 22.602z" fill="#acabb1"/>
 <path d="m159.31 309.05-145.14 145.14c18.746 18.742 49.137 18.742 67.883 0l111.2-111.2-11.344-11.336z" fill="#ff7358"/>
 <path d="m136.71 286.45-11.336-11.344-111.2 111.2c-18.742 18.746-18.742 49.137 0 67.883l145.14-145.14z" fill="#ff6243"/>
</svg>
