<?xml version="1.0" encoding="UTF-8" standalone="no"?>
<!-- Created with Inkscape (http://www.inkscape.org/) -->

<svg
   xmlns:dc="http://purl.org/dc/elements/1.1/"
   xmlns:cc="http://creativecommons.org/ns#"
   xmlns:rdf="http://www.w3.org/1999/02/22-rdf-syntax-ns#"
   xmlns:svg="http://www.w3.org/2000/svg"
   xmlns="http://www.w3.org/2000/svg"
   version="1.1"
   width="100%"
   height="100%"
   viewBox="0 0 512 512"
   id="Layer_1"
   xml:space="preserve"><metadata
     id="metadata41"><rdf:RDF><cc:Work
         rdf:about=""><dc:format>image/svg+xml</dc:format><dc:type
           rdf:resource="http://purl.org/dc/dcmitype/StillImage" /><dc:title></dc:title></cc:Work></rdf:RDF></metadata><defs
     id="defs39" /><g
     id="g3"><g
       id="g5"><linearGradient
         x1="-2.7000001e-06"
         y1="256"
         x2="512"
         y2="256"
         id="SVGID_1_"
         gradientUnits="userSpaceOnUse"><stop
           id="stop8"
           style="stop-color:#e24263;stop-opacity:1"
           offset="0" /><stop
           id="stop10"
           style="stop-color:#dd1e47;stop-opacity:1"
           offset="1" /></linearGradient><circle
         cx="256"
         cy="256"
         r="256"
         id="circle12"
         style="fill:#469329;fill-opacity:1" /><linearGradient
         x1="42.666664"
         y1="256.00052"
         x2="469.33334"
         y2="256.00052"
         id="SVGID_2_"
         gradientUnits="userSpaceOnUse"><stop
           id="stop15"
           style="stop-color:#dd1e47;stop-opacity:1"
           offset="0" /><stop
           id="stop17"
           style="stop-color:#e24263;stop-opacity:1"
           offset="1" /></linearGradient><path
         d="M 256,469.33386 C 138.369,469.33386 42.666656,373.63199 42.666656,256.00052 C 42.666656,138.3696 138.369,42.667206 256,42.667206 C 373.6362,42.667206 469.33334,138.36961 469.33334,256.00052 C 469.33334,373.63199 373.6362,469.33386 256,469.33386 z"
         id="path19"
         style="fill:#61ca38;fill-opacity:1" /></g><g
       id="g21"><path
         d="M 145.20474,321.3808 V 384 H 382.79568 V 321.3808 H 145.20474 z M 301.43088,365.20587 H 226.56741 V 340.79413 H 236.56741 V 355.20587 H 291.43088 V 340.79413 H 301.43088 V 365.20587 z"
         id="path23"
         style="opacity:0.3" /><path
         d="M 145.20474,232.69014 V 295.30988 H 382.79568 V 232.69014 H 145.20474 z M 301.43088,276.51413 H 226.56741 V 252.10507 H 236.56741 V 266.51413 H 291.43088 V 252.10507 H 301.43088 V 276.51413 z"
         id="path25"
         style="opacity:0.3" /><path
         d="M 145.20474,144 V 206.6192 H 382.79568 V 144 H 145.20474 z M 301.43088,187.82507 H 226.56741 V 163.41386 H 236.56741 V 177.82507 H 291.43088 V 163.41386 H 301.43088 V 187.82507 z"
         id="path27"
         style="opacity:0.3" /></g><g
       id="g29"><path
         d="M 137.20474,313.3808 V 376 H 374.79568 V 313.3808 H 137.20474 z M 293.43088,357.20587 H 218.56741 V 332.79413 H 228.56741 V 347.20587 H 283.43088 V 332.79413 H 293.43088 V 357.20587 z"
         id="path31"
         style="fill:#ffffff" /><path
         d="M 137.20474,224.69014 V 287.30988 H 374.79568 V 224.69014 H 137.20474 z M 293.43088,268.51413 H 218.56741 V 244.10507 H 228.56741 V 258.51413 H 283.43088 V 244.10507 H 293.43088 V 268.51413 z"
         id="path33"
         style="fill:#ffffff" /><path
         d="M 137.20474,136 V 198.6192 H 374.79568 V 136 H 137.20474 z M 293.43088,179.82507 H 218.56741 V 155.41386 H 228.56741 V 169.82507 H 283.43088 V 155.41386 H 293.43088 V 179.82507 z"
         id="path35"
         style="fill:#ffffff" /></g></g></svg>