<?xml version="1.0" encoding="UTF-8" standalone="no"?>
<!-- Created with Inkscape (http://www.inkscape.org/) -->

<svg
   xmlns:dc="http://purl.org/dc/elements/1.1/"
   xmlns:cc="http://creativecommons.org/ns#"
   xmlns:rdf="http://www.w3.org/1999/02/22-rdf-syntax-ns#"
   xmlns:svg="http://www.w3.org/2000/svg"
   xmlns="http://www.w3.org/2000/svg"
   version="1.1"
   width="100%"
   height="100%"
   viewBox="0 0 512 512"
   id="Layer_1"
   xml:space="preserve"><metadata
     id="metadata41"><rdf:RDF><cc:Work
         rdf:about=""><dc:format>image/svg+xml</dc:format><dc:type
           rdf:resource="http://purl.org/dc/dcmitype/StillImage" /><dc:title></dc:title></cc:Work></rdf:RDF></metadata><defs
     id="defs39" /><g
     id="g3"><g
       id="g5"><linearGradient
         x1="8.3000004e-06"
         y1="256"
         x2="512"
         y2="256"
         id="SVGID_1_"
         gradientUnits="userSpaceOnUse"><stop
           id="stop8"
           style="stop-color:#f67950;stop-opacity:1"
           offset="0" /><stop
           id="stop10"
           style="stop-color:#f15a29;stop-opacity:1"
           offset="1" /></linearGradient><circle
         cx="256"
         cy="256"
         r="256"
         id="circle12"
         style="fill:#91b3dd;fill-opacity:1" /><linearGradient
         x1="42.666676"
         y1="256.00052"
         x2="469.33331"
         y2="256.00052"
         id="SVGID_2_"
         gradientUnits="userSpaceOnUse"><stop
           id="stop15"
           style="stop-color:#f15a29;stop-opacity:1"
           offset="0" /><stop
           id="stop17"
           style="stop-color:#f67950;stop-opacity:1"
           offset="1" /></linearGradient><path
         d="M 256,469.33386 C 138.36908,469.33386 42.666672,373.63199 42.666672,256.00052 C 42.666672,138.3696 138.36908,42.667206 256,42.667206 C 373.63626,42.667206 469.33331,138.36961 469.33331,256.00052 C 469.33331,373.63199 373.63626,469.33386 256,469.33386 z"
         id="path19"
         style="fill:#5994db;fill-opacity:1" /></g><g
       id="g21"><path
         d="M 234.40266,271.35626 C 234.40266,287.88907 247.67892,301.34079 264.00159,301.34079 C 280.3248,301.34079 293.60107,287.88907 293.60107,271.35626 V 266.35626 H 382.23041 L 338.99893,144.00214 H 189.0016 L 145.76961,266.35626 H 234.40266 V 271.35626 z M 213.14346,211.3472 L 220.25226,204.31627 L 248.23521,232.60693 L 307.74612,172.42667 L 314.85547,179.45813 L 248.23521,246.82507 L 213.14346,211.3472 z"
         id="path23"
         style="opacity:0.3" /><path
         d="M 303.29279,276.35626 C 300.84692,296.0528 284.16266,311.34027 264.00159,311.34027 C 243.84106,311.34027 227.1568,296.0528 224.7104,276.35626 H 144.00214 V 348.98132 H 383.99838 V 276.35626 H 303.29279 z"
         id="path25"
         style="opacity:0.3" /><rect
         width="239.99625"
         height="25.017067"
         x="144.00214"
         y="358.98132"
         id="rect27"
         style="opacity:0.3" /></g><g
       id="g29"><path
         d="M 226.40266,263.35626 C 226.40266,279.88907 239.67892,293.34079 256.00159,293.34079 C 272.3248,293.34079 285.60107,279.88907 285.60107,263.35626 V 258.35626 H 374.23041 L 330.99893,136.00214 H 181.0016 L 137.76961,258.35626 H 226.40266 V 263.35626 z M 205.14346,203.3472 L 212.25226,196.31627 L 240.23521,224.60693 L 299.74612,164.42667 L 306.85547,171.45813 L 240.23521,238.82507 L 205.14346,203.3472 z"
         id="path31"
         style="fill:#ffffff" /><path
         d="M 295.29279,268.35626 C 292.84692,288.0528 276.16266,303.34027 256.00159,303.34027 C 235.84106,303.34027 219.1568,288.0528 216.7104,268.35626 H 136.00214 V 340.98132 H 375.99838 V 268.35626 H 295.29279 z"
         id="path33"
         style="fill:#ffffff" /><rect
         width="239.99625"
         height="25.017067"
         x="136.00214"
         y="350.98132"
         id="rect35"
         style="fill:#ffffff" /></g></g></svg>