<?xml version="1.0" encoding="UTF-8" standalone="no"?>
<!-- Created with Inkscape (http://www.inkscape.org/) -->

<svg
   xmlns:dc="http://purl.org/dc/elements/1.1/"
   xmlns:cc="http://creativecommons.org/ns#"
   xmlns:rdf="http://www.w3.org/1999/02/22-rdf-syntax-ns#"
   xmlns:svg="http://www.w3.org/2000/svg"
   xmlns="http://www.w3.org/2000/svg"
   xmlns:sodipodi="http://sodipodi.sourceforge.net/DTD/sodipodi-0.dtd"
   xmlns:inkscape="http://www.inkscape.org/namespaces/inkscape"
   width="39.53664"
   height="39.53664"
   id="svg4102"
   version="1.1"
   inkscape:version="0.48.4 r9939"
   sodipodi:docname="psd.svg">
  <defs
     id="defs4104">
    <inkscape:path-effect
       effect="spiro"
       id="path-effect3004-1-4-5-5-2-4-7-6"
       is_visible="true" />
    <inkscape:path-effect
       effect="spiro"
       id="path-effect5500-6-2"
       is_visible="true" />
    <inkscape:path-effect
       effect="spiro"
       id="path-effect3004-1-4-5-5-2-4-7-90-7"
       is_visible="true" />
    <inkscape:path-effect
       effect="spiro"
       id="path-effect5500-6-0-5"
       is_visible="true" />
    <inkscape:path-effect
       effect="spiro"
       id="path-effect3004-1-0-9-1-5-7-8-6-78-4"
       is_visible="true" />
    <inkscape:path-effect
       effect="spiro"
       id="path-effect3004-1-9-3-1-1-57-0-3-1-8-0"
       is_visible="true" />
    <inkscape:path-effect
       effect="spiro"
       id="path-effect3004-1-4-5-5-7-6-6-0-9-5"
       is_visible="true" />
    <inkscape:path-effect
       effect="spiro"
       id="path-effect3004-1-9-9-7-6-73-7-0-4-9-4"
       is_visible="true" />
    <inkscape:path-effect
       effect="spiro"
       id="path-effect3004-1-9-9-7-6-0-5-5-5-6-2-7"
       is_visible="true" />
    <inkscape:path-effect
       effect="spiro"
       id="path-effect3004-1-0-9-1-5-7-8-6-7-4-2"
       is_visible="true" />
    <inkscape:path-effect
       effect="spiro"
       id="path-effect3004-1-9-3-1-1-57-0-3-1-6-9-1"
       is_visible="true" />
    <inkscape:path-effect
       effect="spiro"
       id="path-effect3004-1-4-5-5-7-6-6-0-4-9-4"
       is_visible="true" />
    <inkscape:path-effect
       effect="spiro"
       id="path-effect3004-1-9-9-7-6-73-7-0-4-6-5-9"
       is_visible="true" />
    <inkscape:path-effect
       effect="spiro"
       id="path-effect3004-1-9-9-7-6-0-5-5-5-6-3-8-9"
       is_visible="true" />
    <inkscape:path-effect
       effect="spiro"
       id="path-effect3004-1-0-9-1-5-7-0-1-2-3-7"
       is_visible="true" />
    <inkscape:path-effect
       effect="spiro"
       id="path-effect3004-1-9-3-1-1-57-0-0-7-1-30-8"
       is_visible="true" />
    <inkscape:path-effect
       effect="spiro"
       id="path-effect3004-1-4-5-5-7-6-5-4-5-4-2"
       is_visible="true" />
    <inkscape:path-effect
       effect="spiro"
       id="path-effect3004-1-9-9-7-6-73-7-5-0-0-5-7"
       is_visible="true" />
    <inkscape:path-effect
       effect="spiro"
       id="path-effect3004-11-5-3-4-65-5-3-9-2-72-8"
       is_visible="true" />
    <inkscape:path-effect
       effect="spiro"
       id="path-effect3004-1-9-9-7-6-0-5-5-6-4-6-5-0"
       is_visible="true" />
    <inkscape:path-effect
       effect="spiro"
       id="path-effect3004-11-5-7-03-4-8-2"
       is_visible="true" />
    <inkscape:path-effect
       effect="spiro"
       id="path-effect3004-1-0-9-1-5-0-0"
       is_visible="true" />
    <inkscape:path-effect
       effect="spiro"
       id="path-effect3004-1-9-3-1-1-57-4-8"
       is_visible="true" />
    <inkscape:path-effect
       effect="spiro"
       id="path-effect3004-1-4-5-5-7-5-9"
       is_visible="true" />
    <inkscape:path-effect
       effect="spiro"
       id="path-effect3004-1-9-9-7-6-73-76-2"
       is_visible="true" />
    <inkscape:path-effect
       effect="spiro"
       id="path-effect3004-1-9-9-7-6-0-5-2-8"
       is_visible="true" />
    <inkscape:path-effect
       effect="spiro"
       id="path-effect3004-1-0-9-1-5-7-81-2"
       is_visible="true" />
    <inkscape:path-effect
       effect="spiro"
       id="path-effect3004-1-9-3-1-1-57-0-5-0"
       is_visible="true" />
    <inkscape:path-effect
       effect="spiro"
       id="path-effect3004-1-4-5-5-7-6-8-5"
       is_visible="true" />
    <inkscape:path-effect
       effect="spiro"
       id="path-effect3004-1-9-9-7-6-73-7-6-5"
       is_visible="true" />
    <inkscape:path-effect
       effect="spiro"
       id="path-effect3004-11-5-3-4-65-5-4-2"
       is_visible="true" />
    <inkscape:path-effect
       effect="spiro"
       id="path-effect3004-1-9-9-7-6-0-5-5-2-7"
       is_visible="true" />
    <inkscape:path-effect
       effect="spiro"
       id="path-effect3004-1-0-9-1-5-7-0-11-6"
       is_visible="true" />
    <inkscape:path-effect
       effect="spiro"
       id="path-effect3004-1-9-3-1-1-57-0-0-3-7"
       is_visible="true" />
    <inkscape:path-effect
       effect="spiro"
       id="path-effect3004-1-4-5-5-7-6-5-75-8"
       is_visible="true" />
    <inkscape:path-effect
       effect="spiro"
       id="path-effect3004-1-9-9-7-6-73-7-5-9-7"
       is_visible="true" />
    <inkscape:path-effect
       effect="spiro"
       id="path-effect3004-1-9-9-7-6-0-5-5-6-86-8"
       is_visible="true" />
    <inkscape:path-effect
       effect="spiro"
       id="path-effect3004-6-4-5-4-7-1"
       is_visible="true" />
    <inkscape:path-effect
       effect="spiro"
       id="path-effect3004-1-6-7-7-5-3-6"
       is_visible="true" />
    <inkscape:path-effect
       effect="spiro"
       id="path-effect3004-1-9-67-1-8-9-4-0"
       is_visible="true" />
    <inkscape:path-effect
       effect="spiro"
       id="path-effect3004-1-3-7-3-6-9-7-9"
       is_visible="true" />
    <inkscape:path-effect
       effect="spiro"
       id="path-effect3004-1-9-0-8-3-3-3-1-5"
       is_visible="true" />
    <inkscape:path-effect
       effect="spiro"
       id="path-effect3004-1-8-4-1-4-2-3-8"
       is_visible="true" />
    <inkscape:path-effect
       effect="spiro"
       id="path-effect3004-1-9-2-4-7-2-6-4-9"
       is_visible="true" />
    <inkscape:path-effect
       effect="spiro"
       id="path-effect3004-1-1-8-4-4-2-3-0"
       is_visible="true" />
    <inkscape:path-effect
       effect="spiro"
       id="path-effect3004-1-9-4-9-1-9-8-9-0"
       is_visible="true" />
    <inkscape:path-effect
       effect="spiro"
       id="path-effect3004-1-82-6-5-6-8-3-0"
       is_visible="true" />
    <inkscape:path-effect
       effect="spiro"
       id="path-effect3004-1-9-7-7-1-0-5-4-7"
       is_visible="true" />
    <inkscape:path-effect
       effect="spiro"
       id="path-effect3004-1-2-7-6-0-5-2-2"
       is_visible="true" />
    <inkscape:path-effect
       effect="spiro"
       id="path-effect3004-1-9-6-4-8-1-8-4-5"
       is_visible="true" />
    <inkscape:path-effect
       effect="spiro"
       id="path-effect3004-1-90-4-2-9-1-5-5"
       is_visible="true" />
    <inkscape:path-effect
       effect="spiro"
       id="path-effect3004-1-9-1-0-0-0-5-5-2"
       is_visible="true" />
    <inkscape:path-effect
       effect="spiro"
       id="path-effect3004-1-0-65-6-1-7-5-1"
       is_visible="true" />
    <inkscape:path-effect
       effect="spiro"
       id="path-effect3004-1-9-3-7-8-1-6-7-4"
       is_visible="true" />
    <inkscape:path-effect
       effect="spiro"
       id="path-effect3004-1-4-2-3-8-3-6-8"
       is_visible="true" />
    <inkscape:path-effect
       effect="spiro"
       id="path-effect3004-1-9-9-2-8-6-6-3-6"
       is_visible="true" />
    <inkscape:path-effect
       effect="spiro"
       id="path-effect3004-1-5-5-7-9-8-18-4"
       is_visible="true" />
    <inkscape:path-effect
       effect="spiro"
       id="path-effect3004-1-9-00-12-6-5-9-6-6"
       is_visible="true" />
    <inkscape:path-effect
       effect="spiro"
       id="path-effect3004-11-9-9-9-7-5-8"
       is_visible="true" />
    <marker
       inkscape:stockid="Arrow1Mend"
       orient="auto"
       refY="0"
       refX="0"
       id="Arrow1Mend"
       style="overflow:visible">
      <path
         inkscape:connector-curvature="0"
         id="path5043"
         d="M 0,0 L 5,-5 L -12.5,0 L 5,5 L 0,0 z"
         style="fill-rule:evenodd;stroke:#000000;stroke-width:1pt;marker-start:none"
         transform="matrix(-0.4,0,0,-0.4,-4,0)" />
    </marker>
    <marker
       inkscape:stockid="Arrow1Mend"
       orient="auto"
       refY="0"
       refX="0"
       id="marker6949"
       style="overflow:visible">
      <path
         inkscape:connector-curvature="0"
         id="path6951"
         d="M 0,0 L 5,-5 L -12.5,0 L 5,5 L 0,0 z"
         style="fill-rule:evenodd;stroke:#000000;stroke-width:1pt;marker-start:none"
         transform="matrix(-0.4,0,0,-0.4,-4,0)" />
    </marker>
    <marker
       inkscape:stockid="Arrow1Mend"
       orient="auto"
       refY="0"
       refX="0"
       id="marker6953"
       style="overflow:visible">
      <path
         inkscape:connector-curvature="0"
         id="path6955"
         d="M 0,0 L 5,-5 L -12.5,0 L 5,5 L 0,0 z"
         style="fill-rule:evenodd;stroke:#000000;stroke-width:1pt;marker-start:none"
         transform="matrix(-0.4,0,0,-0.4,-4,0)" />
    </marker>
    <inkscape:path-effect
       effect="spiro"
       id="path-effect22425-4-3"
       is_visible="true" />
    <inkscape:path-effect
       effect="spiro"
       id="path-effect22429-1-5"
       is_visible="true" />
    <inkscape:path-effect
       effect="spiro"
       id="path-effect22433-9-5"
       is_visible="true" />
    <marker
       inkscape:stockid="Arrow1Mend"
       orient="auto"
       refY="0"
       refX="0"
       id="Arrow1Mend-3"
       style="overflow:visible">
      <path
         inkscape:connector-curvature="0"
         id="path5043-6"
         d="M 0,0 L 5,-5 L -12.5,0 L 5,5 L 0,0 z"
         style="fill-rule:evenodd;stroke:#000000;stroke-width:1pt;marker-start:none"
         transform="matrix(-0.4,0,0,-0.4,-4,0)" />
    </marker>
    <marker
       inkscape:stockid="Arrow1Mend"
       orient="auto"
       refY="0"
       refX="0"
       id="marker7264"
       style="overflow:visible">
      <path
         inkscape:connector-curvature="0"
         id="path7266"
         d="M 0,0 L 5,-5 L -12.5,0 L 5,5 L 0,0 z"
         style="fill-rule:evenodd;stroke:#000000;stroke-width:1pt;marker-start:none"
         transform="matrix(-0.4,0,0,-0.4,-4,0)" />
    </marker>
    <marker
       inkscape:stockid="Arrow1Mend"
       orient="auto"
       refY="0"
       refX="0"
       id="marker7268"
       style="overflow:visible">
      <path
         inkscape:connector-curvature="0"
         id="path7270"
         d="M 0,0 L 5,-5 L -12.5,0 L 5,5 L 0,0 z"
         style="fill-rule:evenodd;stroke:#000000;stroke-width:1pt;marker-start:none"
         transform="matrix(-0.4,0,0,-0.4,-4,0)" />
    </marker>
    <inkscape:path-effect
       effect="spiro"
       id="path-effect23509-8-1"
       is_visible="true" />
    <inkscape:path-effect
       effect="spiro"
       id="path-effect23513-27-5"
       is_visible="true" />
    <inkscape:path-effect
       is_visible="true"
       id="path-effect3004-11-5-3-4-2-3-6-6-9-9"
       effect="spiro" />
    <inkscape:path-effect
       is_visible="true"
       id="path-effect3004-11-5-3-4-2-5-8-7-4-9-7-1-4"
       effect="spiro" />
    <inkscape:path-effect
       is_visible="true"
       id="path-effect3766-6"
       effect="spiro" />
    <inkscape:path-effect
       is_visible="true"
       id="path-effect3782-91"
       effect="spiro" />
    <inkscape:path-effect
       is_visible="true"
       id="path-effect3782-1-2"
       effect="spiro" />
    <inkscape:path-effect
       is_visible="true"
       id="path-effect3782-4-8"
       effect="spiro" />
    <inkscape:path-effect
       is_visible="true"
       id="path-effect3782-9-0"
       effect="spiro" />
    <inkscape:path-effect
       is_visible="true"
       id="path-effect3782-8-0"
       effect="spiro" />
    <inkscape:path-effect
       is_visible="true"
       id="path-effect3782-2-8"
       effect="spiro" />
    <inkscape:path-effect
       is_visible="true"
       id="path-effect3843-5-0"
       effect="spiro" />
    <inkscape:path-effect
       is_visible="true"
       id="path-effect3843-5-7-1"
       effect="spiro" />
    <inkscape:path-effect
       is_visible="true"
       id="path-effect2990-1-4"
       effect="spiro" />
    <inkscape:path-effect
       is_visible="true"
       id="path-effect2990-2-6"
       effect="spiro" />
    <inkscape:path-effect
       is_visible="true"
       id="path-effect2990-1-6-31"
       effect="spiro" />
    <inkscape:path-effect
       is_visible="true"
       id="path-effect2990-1-6-4-9"
       effect="spiro" />
    <inkscape:path-effect
       is_visible="true"
       id="path-effect2990-3"
       effect="spiro" />
  </defs>
  <sodipodi:namedview
     id="base"
     pagecolor="#ffffff"
     bordercolor="#666666"
     borderopacity="1.0"
     inkscape:pageopacity="0.0"
     inkscape:pageshadow="2"
     inkscape:zoom="5.12"
     inkscape:cx="33.378606"
     inkscape:cy="21.619838"
     inkscape:document-units="px"
     inkscape:current-layer="svg4102"
     showgrid="false"
     fit-margin-top="0"
     fit-margin-left="0"
     fit-margin-right="0"
     fit-margin-bottom="0"
     inkscape:window-width="1234"
     inkscape:window-height="711"
     inkscape:window-x="2050"
     inkscape:window-y="201"
     inkscape:window-maximized="0" />
  <metadata
     id="metadata4107">
    <rdf:RDF>
      <cc:Work
         rdf:about="">
        <dc:format>image/svg+xml</dc:format>
        <dc:type
           rdf:resource="http://purl.org/dc/dcmitype/StillImage" />
        <dc:title></dc:title>
      </cc:Work>
    </rdf:RDF>
  </metadata>
  <g
     style="display:inline"
     id="icon_2d_imager"
     transform="matrix(0,1.25,1.25,0,-710.8593,-365.52705)"
     inkscape:label="icon_2d_imager">
    <desc
       id="desc5227">2D imager IMAG</desc>
    <rect
       transform="matrix(0,1,1,0,0,0)"
       y="294.42459"
       x="570.68744"
       height="27.626362"
       width="27.626362"
       id="rect6784-3-59"
       style="fill:#ffffff;fill-opacity:1;stroke:#000000;stroke-width:3.99999952;stroke-miterlimit:4;stroke-opacity:1;stroke-dasharray:none;display:inline" />
    <path
       inkscape:connector-curvature="0"
       d="M 306.16054,576.67243 C 305.92319,576.49714 305.64219,576.40337 305.36129,576.32474 C 304.98868,576.21942 304.60789,576.15225 304.22334,576.11124 C 303.81463,576.05654 303.45964,576.12984 303.07061,576.24534 C 302.6415,576.38649 302.26354,576.63675 301.90356,576.90345 C 301.39524,577.31485 301.06125,577.87781 300.79815,578.47207 C 300.64927,578.84725 300.60958,579.2456 300.58557,579.64451 C 300.58563,579.91517 300.60957,580.18683 300.67987,580.44887 C 300.72817,580.62882 300.74887,580.66789 300.81685,580.84268 C 301.01217,581.27801 301.32808,581.63641 301.64799,581.98344 C 301.91566,582.24943 302.19019,582.51949 302.3975,582.83745 C 302.4351,582.89505 302.4667,582.95632 302.50129,583.01576 C 302.6942,583.38618 302.6877,583.79039 302.6403,584.19365 C 302.5982,584.46919 302.49553,584.72932 302.3668,584.97517 C 302.3327,585.04027 302.22525,585.23295 302.25899,585.16762 C 302.32149,585.04668 302.38832,584.92807 302.45298,584.80829 C 302.19012,585.20507 301.85916,585.54905 301.54822,585.90736 C 301.40298,586.08214 301.26763,586.26468 301.15405,586.46179 C 300.86363,586.96575 300.74633,587.11442 300.59629,587.57439 C 300.50239,587.95138 300.52239,588.3391 300.53879,588.72315 C 300.57759,589.04271 300.60769,589.37532 300.73625,589.67456 C 300.76515,589.74186 300.80205,589.80531 300.83495,589.87069 C 301.065,590.30044 301.42005,590.63793 301.76689,590.97258 C 302.00953,591.20066 302.26642,591.41725 302.54626,591.59886 C 302.68225,591.68716 302.79499,591.74612 302.93662,591.82434 C 303.31932,592.02375 303.73445,592.13842 304.15703,592.21384 C 304.56067,592.28134 304.96801,592.27964 305.3732,592.23274 C 305.71785,592.17464 306.0617,592.08623 306.36696,591.91051 C 306.43246,591.87281 306.49385,591.82821 306.5573,591.78704 C 306.81573,591.60121 307.05388,591.38423 307.25224,591.13453 C 307.37753,590.97682 307.4011,590.9275 307.50561,590.75794 C 307.80652,590.35126 307.96074,589.87808 308.18521,589.43407 C 308.21841,589.36837 308.32651,589.17589 308.28738,589.23825 C 308.21618,589.35171 308.15503,589.47117 308.08886,589.58764 C 308.23301,589.35938 308.41191,589.14567 308.67128,589.04562 C 308.81968,588.98842 308.86264,589.00192 309.01923,588.99982 C 309.44733,589.06572 309.81892,589.29991 310.17074,589.539 C 310.57354,589.83507 310.95419,590.15886 311.35581,590.45655 C 311.6631,590.67411 311.98378,590.88112 312.33437,591.02265 C 312.39847,591.04855 312.46439,591.06965 312.5294,591.09315 C 312.84194,591.20076 313.1712,591.2944 313.50564,591.26993 C 313.57534,591.26493 313.64408,591.25053 313.71331,591.24073 C 314.09968,591.16973 314.43785,590.98954 314.72263,590.72041 C 314.78213,590.66421 314.8355,590.602 314.89194,590.5428 C 315.16966,590.19103 315.38241,589.78975 315.5864,589.39281 C 315.6214,589.32471 315.6403,589.24937 315.6654,589.177 C 315.7365,588.97173 315.7386,588.95174 315.7971,588.74163 C 315.91224,588.30055 315.9358,587.84523 315.95068,587.39195 C 315.94168,586.91081 315.89018,586.43219 315.82074,585.9565 C 315.73204,585.42323 315.60234,584.89825 315.47683,584.37282 C 315.35251,583.84179 315.21022,583.31586 315.01977,582.8046 C 314.8366,582.33673 314.57954,581.9034 314.32827,581.46995 C 314.10355,581.04964 313.81738,580.67139 313.49322,580.3237 C 313.16494,579.98035 312.78284,579.69667 312.3947,579.42552 C 312.13752,579.24973 311.88061,579.07174 311.60801,578.9202 C 311.46938,578.8431 311.36271,578.79333 311.22067,578.72397 C 310.97603,578.60025 310.70896,578.53976 310.44824,578.46188 C 310.34379,578.43068 310.168,578.37478 310.06412,578.34207 C 309.67118,578.22388 309.28904,578.07165 308.91264,577.90897 C 308.66001,577.79173 308.39327,577.70967 308.13992,577.59407 C 307.9588,577.51147 307.93064,577.49127 307.75453,577.39375 C 307.49076,577.23026 307.26155,577.02065 307.01379,576.83559 C 306.82688,576.69598 306.83112,576.70346 306.63741,576.57905 C 306.40179,576.44249 306.14172,576.3463 305.87144,576.307 C 305.73,576.2865 305.63367,576.2902 305.49163,576.2887 C 305.23914,576.2937 304.98769,576.3209 304.73564,576.2937 C 304.5665,576.2751 304.53508,576.2643 304.37239,576.2295 C 304.37239,576.2295 304.06809,576.79728 304.06809,576.79728 L 304.06809,576.79728 C 304.25363,576.83568 304.43989,576.87408 304.63004,576.88078 C 304.81996,576.88778 305.00964,576.86088 305.19947,576.86198 C 305.32642,576.86162 305.44242,576.85698 305.56887,576.87348 C 305.83228,576.90758 306.08591,576.99991 306.31638,577.12986 C 306.50721,577.25077 306.50502,577.24441 306.68897,577.3815 C 306.93951,577.56823 307.17032,577.78094 307.43688,577.94615 C 307.6201,578.04938 307.63834,578.0647 307.827,578.15152 C 308.01667,578.23882 308.21347,578.30494 308.40665,578.3832 C 308.47155,578.4095 308.53513,578.4387 308.59937,578.4664 C 308.97678,578.63196 309.36169,578.78369 309.75603,578.90403 C 309.78933,578.91453 310.10782,579.01523 310.14117,579.02528 C 310.39841,579.10278 310.6637,579.15721 310.90532,579.27977 C 311.03856,579.34397 311.15978,579.40019 311.28965,579.4714 C 311.56157,579.6205 311.81659,579.79846 312.07267,579.97262 C 312.45661,580.24212 312.836,580.52278 313.15917,580.86509 C 313.48112,581.20917 313.75944,581.58703 313.98258,582.00311 C 314.23361,582.43209 314.48876,582.86219 314.66768,583.32754 C 314.85439,583.83758 314.99711,584.3609 315.1196,584.88995 C 315.24479,585.41484 315.37255,585.93981 315.45663,586.47327 C 315.52263,586.94797 315.57249,587.4258 315.575,587.9056 C 315.5578,588.35626 315.5293,588.80887 315.40912,589.24598 C 315.35642,589.42647 315.33782,589.50208 315.27305,589.67802 C 315.24685,589.74922 315.13587,589.94348 315.18905,589.88945 C 315.28205,589.79505 315.32499,589.66193 315.39783,589.55128 C 315.48673,589.41624 315.06407,590.11422 315.13217,589.9571 C 315.07767,590.0174 315.02642,590.08066 314.96877,590.13789 C 314.69739,590.40734 314.3717,590.59275 313.99519,590.66675 C 313.92869,590.67755 313.86284,590.69315 313.79577,590.69925 C 313.46905,590.72905 313.14523,590.63645 312.83928,590.53363 C 312.77548,590.51123 312.71076,590.49133 312.64789,590.46643 C 312.30075,590.32903 311.98232,590.12637 311.67872,589.91183 C 311.27492,589.6156 310.89461,589.29027 310.49193,588.99262 C 310.13042,588.74503 309.75062,588.50438 309.31168,588.42732 C 309.14506,588.42332 309.09687,588.40682 308.93653,588.46072 C 308.66482,588.55192 308.47007,588.76089 308.31731,588.99418 C 308.09742,589.37456 307.87705,589.73312 307.69395,590.128 C 307.66385,590.1929 307.63555,590.25871 307.60605,590.32396 C 307.57675,590.38896 307.47298,590.5742 307.51765,590.51869 C 307.60465,590.41076 307.66243,590.28228 307.73482,590.16407 C 307.63402,590.33639 307.61213,590.38548 307.4902,590.54612 C 307.29909,590.79792 307.06621,591.01675 306.81241,591.20413 C 306.75111,591.24623 306.69218,591.29183 306.6286,591.33027 C 306.33243,591.50942 305.99431,591.59663 305.65711,591.65883 C 305.25746,591.70903 304.85624,591.71403 304.45727,591.64883 C 304.04041,591.57813 303.63178,591.46688 303.25394,591.2722 C 303.13164,591.2049 302.98569,591.12707 302.86787,591.05193 C 302.58958,590.87444 302.33548,590.65993 302.09596,590.43379 C 301.75577,590.10125 301.40611,589.7667 301.18616,589.33821 C 301.15586,589.27361 301.12186,589.21063 301.09536,589.14436 C 300.97641,588.84618 300.94736,588.51824 300.91393,588.20225 C 300.89913,587.82248 300.88433,587.43808 300.98993,587.06822 C 301.01153,587.00702 301.03053,586.94475 301.05483,586.8845 C 301.08013,586.8216 301.17947,586.64511 301.13853,586.69914 C 301.05463,586.80982 300.99711,586.93821 300.92444,587.05655 C 300.88594,587.11925 300.99614,586.92784 301.03607,586.86599 C 301.11857,586.73823 301.21708,586.61541 301.30968,586.4951 C 301.61939,586.13585 301.95235,585.79423 302.22111,585.40192 C 302.54845,584.85587 302.93031,584.32432 303.02214,583.67964 C 303.06264,583.25768 303.05644,582.86232 302.84867,582.47916 C 302.81207,582.41916 302.77817,582.35747 302.73882,582.29921 C 302.52527,581.98272 302.25181,581.71102 301.98171,581.44374 C 301.66616,581.1015 301.35631,580.74692 301.17341,580.31252 C 301.11171,580.14532 301.08771,580.09474 301.04484,579.9229 C 300.98014,579.66389 300.96034,579.39564 300.96494,579.12939 C 300.99244,578.73416 301.03994,578.33951 301.19613,577.97111 C 301.22533,577.90971 301.32267,577.73112 301.28373,577.78684 C 301.20333,577.90179 301.13501,578.02512 301.07105,578.14997 C 301.03895,578.21257 301.14615,578.03082 301.18779,577.97411 C 301.28199,577.84585 301.36902,577.75121 301.48342,577.64036 C 301.53792,577.58756 301.59568,577.53837 301.65181,577.48737 C 302.00478,577.22104 302.37434,576.96888 302.79645,576.82495 C 303.17622,576.7076 303.52502,576.62886 303.92601,576.68008 C 304.307,576.71898 304.68482,576.78372 305.05309,576.8909 C 305.32217,576.9661 305.59763,577.05382 305.81231,577.24072 C 305.81231,577.24072 306.16048,576.67255 306.16048,576.67255 z"
       id="path4809"
       style="fill:#261748;fill-opacity:0;stroke:#000800;stroke-width:1.97683203;stroke-linecap:round;stroke-linejoin:round;stroke-miterlimit:4;stroke-opacity:1;stroke-dasharray:3.953664, 1.976832;stroke-dashoffset:0;display:inline" />
    <path
       inkscape:connector-curvature="0"
       d="M 311.67154,583.27499 C 311.35337,583.07973 311.0717,582.83328 310.77955,582.60254 C 310.41459,582.30529 310.00716,582.0662 309.60226,581.82836 C 309.21279,581.60721 308.82719,581.37938 308.42806,581.17592 C 308.10699,581.01427 307.79491,580.82802 307.45323,580.71092 C 307.38993,580.68922 307.32478,580.67352 307.26055,580.65482 C 307.01499,580.59832 306.75404,580.55602 306.51351,580.65882 C 306.37279,580.71892 306.33953,580.76461 306.22746,580.86419 C 305.98602,581.17011 305.767,581.51145 305.67802,581.89381 C 305.63552,582.07655 305.62262,582.26251 305.60962,582.44899 C 305.62132,582.83423 305.68012,583.216 305.70912,583.60029 C 305.72402,584.01938 305.51821,584.37755 305.33537,584.73852 C 305.21999,584.9872 305.11431,585.24294 305.06264,585.5135 C 305.05034,585.5779 305.03714,585.64278 305.03494,585.70834 C 305.03294,585.77194 305.04494,585.83524 305.04964,585.89869 C 305.06824,585.95559 305.08044,586.01507 305.10534,586.0695 C 305.20698,586.29096 305.40988,586.42335 305.64266,586.47622 C 305.70066,586.48942 305.76048,586.49202 305.8194,586.49992 C 306.24648,586.52532 306.62361,586.33568 306.98553,586.13312 C 307.38,585.89905 307.76539,585.64996 308.15923,585.41504 C 308.34049,585.31914 308.52723,585.23048 308.73311,585.20424 C 308.92255,585.18014 309.1129,585.21224 309.30009,585.23744 C 309.54462,585.27764 309.79705,585.31644 310.03345,585.21704 C 310.18022,585.15534 310.21607,585.11186 310.3379,585.0129 C 310.6227,584.68851 310.91033,584.25015 310.95068,583.8053 C 310.96578,583.63872 310.95368,583.59334 310.93668,583.42642 C 310.89328,583.17261 310.91838,583.2965 310.86228,583.05459 C 310.86228,583.05459 310.49556,583.58402 310.49556,583.58402 L 310.49556,583.58402 C 310.54896,583.8206 310.52596,583.699 310.56336,583.94904 C 310.57336,584.1081 310.58466,584.16142 310.5631,584.31906 C 310.5551,584.37886 310.5433,584.43837 310.5261,584.49618 C 310.4907,584.615 310.214,585.19873 310.6954,584.27768 C 310.7228,584.22518 310.6243,584.37248 310.58869,584.41989 C 310.45385,584.54311 310.33391,584.64852 310.14967,584.69195 C 309.96731,584.73495 309.7801,584.69495 309.59909,584.66965 C 309.40582,584.64275 309.20891,584.60675 309.01285,584.62715 C 308.7995,584.64935 308.60602,584.73608 308.41747,584.83306 C 308.02276,585.06579 307.63894,585.31701 307.24503,585.55136 C 306.89708,585.75123 306.53294,585.94539 306.11937,585.9285 C 306.06407,585.9225 306.008,585.9215 305.95358,585.91 C 305.73842,585.8648 305.55448,585.7448 305.46911,585.5365 C 305.44811,585.4853 305.43961,585.42976 305.42481,585.37639 C 305.42281,585.31599 305.41581,585.2554 305.41981,585.19511 C 305.44411,584.86202 305.60046,584.54032 305.73389,584.24057 C 305.92262,583.86714 306.10873,583.51074 306.08219,583.07805 C 306.05149,582.69591 305.99009,582.31537 305.99139,581.93159 C 306.00689,581.74732 306.02239,581.56372 306.07149,581.38451 C 306.08749,581.32631 306.16789,581.16674 306.12869,581.21265 C 306.06619,581.28585 305.7217,581.86791 305.97886,581.4596 C 306.07921,581.35693 306.10942,581.30943 306.23922,581.24254 C 306.46557,581.1259 306.71579,581.16594 306.95353,581.21794 C 307.01623,581.23524 307.07989,581.24944 307.14164,581.26984 C 307.48274,581.38261 307.79256,581.56979 308.11197,581.72987 C 308.5103,581.93218 308.89484,582.15916 309.2836,582.37904 C 309.68583,582.61535 310.09204,582.85105 310.45409,583.14706 C 310.7459,583.38146 311.02878,583.62707 311.33188,583.84706 C 311.33188,583.84706 311.67127,583.27517 311.67127,583.27517 z"
       id="path4811"
       style="fill:#261748;fill-opacity:0;stroke:#000800;stroke-width:1.97683203;stroke-linecap:round;stroke-linejoin:round;stroke-miterlimit:4;stroke-opacity:1;stroke-dasharray:3.953664, 1.976832;stroke-dashoffset:0;display:inline" />
  </g>
</svg>
