<?xml version="1.0" encoding="UTF-8" standalone="no"?>
<!-- Created with Inkscape (http://www.inkscape.org/) -->

<svg
   xmlns:dc="http://purl.org/dc/elements/1.1/"
   xmlns:cc="http://creativecommons.org/ns#"
   xmlns:rdf="http://www.w3.org/1999/02/22-rdf-syntax-ns#"
   xmlns:svg="http://www.w3.org/2000/svg"
   xmlns="http://www.w3.org/2000/svg"
   xmlns:sodipodi="http://sodipodi.sourceforge.net/DTD/sodipodi-0.dtd"
   xmlns:inkscape="http://www.inkscape.org/namespaces/inkscape"
   width="39.53664"
   height="39.53664"
   id="svg4102"
   version="1.1"
   inkscape:version="0.48.4 r9939"
   sodipodi:docname="attenuator.svg">
  <defs
     id="defs4104">
    <marker
       inkscape:stockid="Arrow1Mend"
       orient="auto"
       refY="0"
       refX="0"
       id="Arrow1Mend"
       style="overflow:visible">
      <path
         inkscape:connector-curvature="0"
         id="path5043"
         d="M 0,0 L 5,-5 L -12.5,0 L 5,5 L 0,0 z"
         style="fill-rule:evenodd;stroke:#000000;stroke-width:1pt;marker-start:none"
         transform="matrix(-0.4,0,0,-0.4,-4,0)" />
    </marker>
    <marker
       inkscape:stockid="Arrow1Mend"
       orient="auto"
       refY="0"
       refX="0"
       id="marker6949"
       style="overflow:visible">
      <path
         inkscape:connector-curvature="0"
         id="path6951"
         d="M 0,0 L 5,-5 L -12.5,0 L 5,5 L 0,0 z"
         style="fill-rule:evenodd;stroke:#000000;stroke-width:1pt;marker-start:none"
         transform="matrix(-0.4,0,0,-0.4,-4,0)" />
    </marker>
    <marker
       inkscape:stockid="Arrow1Mend"
       orient="auto"
       refY="0"
       refX="0"
       id="marker6953"
       style="overflow:visible">
      <path
         inkscape:connector-curvature="0"
         id="path6955"
         d="M 0,0 L 5,-5 L -12.5,0 L 5,5 L 0,0 z"
         style="fill-rule:evenodd;stroke:#000000;stroke-width:1pt;marker-start:none"
         transform="matrix(-0.4,0,0,-0.4,-4,0)" />
    </marker>
    <inkscape:path-effect
       effect="spiro"
       id="path-effect22425-4-3"
       is_visible="true" />
    <inkscape:path-effect
       effect="spiro"
       id="path-effect22429-1-5"
       is_visible="true" />
    <inkscape:path-effect
       effect="spiro"
       id="path-effect22433-9-5"
       is_visible="true" />
    <marker
       inkscape:stockid="Arrow1Mend"
       orient="auto"
       refY="0"
       refX="0"
       id="Arrow1Mend-3"
       style="overflow:visible">
      <path
         inkscape:connector-curvature="0"
         id="path5043-6"
         d="M 0,0 L 5,-5 L -12.5,0 L 5,5 L 0,0 z"
         style="fill-rule:evenodd;stroke:#000000;stroke-width:1pt;marker-start:none"
         transform="matrix(-0.4,0,0,-0.4,-4,0)" />
    </marker>
    <marker
       inkscape:stockid="Arrow1Mend"
       orient="auto"
       refY="0"
       refX="0"
       id="marker7264"
       style="overflow:visible">
      <path
         inkscape:connector-curvature="0"
         id="path7266"
         d="M 0,0 L 5,-5 L -12.5,0 L 5,5 L 0,0 z"
         style="fill-rule:evenodd;stroke:#000000;stroke-width:1pt;marker-start:none"
         transform="matrix(-0.4,0,0,-0.4,-4,0)" />
    </marker>
    <marker
       inkscape:stockid="Arrow1Mend"
       orient="auto"
       refY="0"
       refX="0"
       id="marker7268"
       style="overflow:visible">
      <path
         inkscape:connector-curvature="0"
         id="path7270"
         d="M 0,0 L 5,-5 L -12.5,0 L 5,5 L 0,0 z"
         style="fill-rule:evenodd;stroke:#000000;stroke-width:1pt;marker-start:none"
         transform="matrix(-0.4,0,0,-0.4,-4,0)" />
    </marker>
  </defs>
  <sodipodi:namedview
     id="base"
     pagecolor="#ffffff"
     bordercolor="#666666"
     borderopacity="1.0"
     inkscape:pageopacity="0.0"
     inkscape:pageshadow="2"
     inkscape:zoom="5.12"
     inkscape:cx="33.378606"
     inkscape:cy="21.619838"
     inkscape:document-units="px"
     inkscape:current-layer="svg4102"
     showgrid="false"
     fit-margin-top="0"
     fit-margin-left="0"
     fit-margin-right="0"
     fit-margin-bottom="0"
     inkscape:window-width="1234"
     inkscape:window-height="711"
     inkscape:window-x="2050"
     inkscape:window-y="201"
     inkscape:window-maximized="0" />
  <metadata
     id="metadata4107">
    <rdf:RDF>
      <cc:Work
         rdf:about="">
        <dc:format>image/svg+xml</dc:format>
        <dc:type
           rdf:resource="http://purl.org/dc/dcmitype/StillImage" />
        <dc:title></dc:title>
      </cc:Work>
    </rdf:RDF>
  </metadata>
  <g
     style="display:inline"
     id="icon_collimator"
     transform="matrix(0,1.25,1.25,0,-769.05357,-617.80877)"
     inkscape:label="icon_collimator">
    <desc
       id="desc5239">Collimator</desc>
    <rect
       transform="matrix(0,1,1,0,0,0)"
       y="496.24997"
       x="617.24286"
       height="27.626362"
       width="27.626362"
       id="rect6784-3-2"
       style="fill:#ffffff;fill-opacity:1;stroke:#000000;stroke-width:3.99999952;stroke-miterlimit:4;stroke-opacity:1;stroke-dasharray:none;display:inline" />
    <g
       transform="translate(24.812497,-29.416878)"
       id="g5549"
       style="display:inline">
      <path
         sodipodi:type="arc"
         style="fill:#261748;fill-opacity:0;stroke:#000000;stroke-width:1.66410065;stroke-miterlimit:4;stroke-opacity:1;stroke-dasharray:none;display:inline"
         id="path2988-49"
         sodipodi:cx="24.5"
         sodipodi:cy="37.5"
         sodipodi:rx="4.5"
         sodipodi:ry="11.5"
         d="M 29,37.5 C 29,43.851275 26.985281,49 24.5,49 C 22.014719,49 20,43.851275 20,37.5 C 20,31.148725 22.014719,26 24.5,26 C 26.985281,26 29,31.148725 29,37.5 z"
         transform="matrix(-0.08911298,0.71039746,0.49363837,0.02372142,469.43409,635.25832)" />
      <path
         sodipodi:type="arc"
         style="fill:#261748;fill-opacity:0;stroke:#000000;stroke-width:1.85183012;stroke-miterlimit:4;stroke-opacity:1;stroke-dasharray:none;display:inline"
         id="path2988-4"
         sodipodi:cx="24.5"
         sodipodi:cy="37.5"
         sodipodi:rx="4.5"
         sodipodi:ry="11.5"
         d="M 29,37.5 C 29,43.851275 26.985281,49 24.5,49 C 22.014719,49 20,43.851275 20,37.5 C 20,31.148725 22.014719,26 24.5,26 C 26.985281,26 29,31.148725 29,37.5 z"
         transform="matrix(-0.04572619,0.2794951,0.25329872,0.00933283,477.45207,646.36505)" />
      <path
         sodipodi:type="arc"
         style="fill:#261748;fill-opacity:0;stroke:#000000;stroke-width:1.43240047;stroke-miterlimit:4;stroke-opacity:1;stroke-dasharray:none;display:inline"
         id="path3800"
         sodipodi:cx="33.909092"
         sodipodi:cy="36.545456"
         sodipodi:rx="3.6363637"
         sodipodi:ry="10.818182"
         d="M 33.794743,25.732624 C 35.802058,25.544743 37.480504,30.233505 37.543657,36.205267 C 37.606811,42.17703 36.030756,47.170407 34.023441,47.358288 C 33.982521,47.362118 33.941582,47.363892 33.900642,47.363609"
         transform="matrix(0,0.91453704,0.52065411,0,466.74294,635.24184)"
         sodipodi:start="4.6809378"
         sodipodi:end="7.8563055"
         sodipodi:open="true" />
      <path
         style="fill:none;stroke:#000000;stroke-width:0.98841602;stroke-linecap:butt;stroke-linejoin:miter;stroke-miterlimit:4;stroke-opacity:1;stroke-dasharray:none;display:inline"
         d="M 480.0865,653.67939 L 480.1326,666.2604"
         id="path3802"
         inkscape:connector-curvature="0" />
      <path
         style="fill:none;stroke:#000000;stroke-width:0.98841602;stroke-linecap:butt;stroke-linejoin:miter;stroke-miterlimit:4;stroke-opacity:1;stroke-dasharray:none;display:inline"
         d="M 491.34097,654.03882 L 491.38707,666.61983"
         id="path3802-7"
         inkscape:connector-curvature="0" />
    </g>
  </g>
</svg>
