<?xml version="1.0" encoding="UTF-8" standalone="no"?>
<!-- Created with Inkscape (http://www.inkscape.org/) -->

<svg
   xmlns:dc="http://purl.org/dc/elements/1.1/"
   xmlns:cc="http://creativecommons.org/ns#"
   xmlns:rdf="http://www.w3.org/1999/02/22-rdf-syntax-ns#"
   xmlns:svg="http://www.w3.org/2000/svg"
   xmlns="http://www.w3.org/2000/svg"
   xmlns:sodipodi="http://sodipodi.sourceforge.net/DTD/sodipodi-0.dtd"
   xmlns:inkscape="http://www.inkscape.org/namespaces/inkscape"
   width="39.53664"
   height="39.53664"
   id="svg4102"
   version="1.1"
   inkscape:version="0.48.4 r9939"
   sodipodi:docname="collimator.svg">
  <defs
     id="defs4104">
    <marker
       inkscape:stockid="Arrow1Mend"
       orient="auto"
       refY="0"
       refX="0"
       id="Arrow1Mend"
       style="overflow:visible">
      <path
         inkscape:connector-curvature="0"
         id="path5043"
         d="M 0,0 L 5,-5 L -12.5,0 L 5,5 L 0,0 z"
         style="fill-rule:evenodd;stroke:#000000;stroke-width:1pt;marker-start:none"
         transform="matrix(-0.4,0,0,-0.4,-4,0)" />
    </marker>
    <marker
       inkscape:stockid="Arrow1Mend"
       orient="auto"
       refY="0"
       refX="0"
       id="marker6949"
       style="overflow:visible">
      <path
         inkscape:connector-curvature="0"
         id="path6951"
         d="M 0,0 L 5,-5 L -12.5,0 L 5,5 L 0,0 z"
         style="fill-rule:evenodd;stroke:#000000;stroke-width:1pt;marker-start:none"
         transform="matrix(-0.4,0,0,-0.4,-4,0)" />
    </marker>
    <marker
       inkscape:stockid="Arrow1Mend"
       orient="auto"
       refY="0"
       refX="0"
       id="marker6953"
       style="overflow:visible">
      <path
         inkscape:connector-curvature="0"
         id="path6955"
         d="M 0,0 L 5,-5 L -12.5,0 L 5,5 L 0,0 z"
         style="fill-rule:evenodd;stroke:#000000;stroke-width:1pt;marker-start:none"
         transform="matrix(-0.4,0,0,-0.4,-4,0)" />
    </marker>
    <inkscape:path-effect
       effect="spiro"
       id="path-effect22425-4-3"
       is_visible="true" />
    <inkscape:path-effect
       effect="spiro"
       id="path-effect22429-1-5"
       is_visible="true" />
    <inkscape:path-effect
       effect="spiro"
       id="path-effect22433-9-5"
       is_visible="true" />
    <marker
       inkscape:stockid="Arrow1Mend"
       orient="auto"
       refY="0"
       refX="0"
       id="Arrow1Mend-3"
       style="overflow:visible">
      <path
         inkscape:connector-curvature="0"
         id="path5043-6"
         d="M 0,0 L 5,-5 L -12.5,0 L 5,5 L 0,0 z"
         style="fill-rule:evenodd;stroke:#000000;stroke-width:1pt;marker-start:none"
         transform="matrix(-0.4,0,0,-0.4,-4,0)" />
    </marker>
    <marker
       inkscape:stockid="Arrow1Mend"
       orient="auto"
       refY="0"
       refX="0"
       id="marker7264"
       style="overflow:visible">
      <path
         inkscape:connector-curvature="0"
         id="path7266"
         d="M 0,0 L 5,-5 L -12.5,0 L 5,5 L 0,0 z"
         style="fill-rule:evenodd;stroke:#000000;stroke-width:1pt;marker-start:none"
         transform="matrix(-0.4,0,0,-0.4,-4,0)" />
    </marker>
    <marker
       inkscape:stockid="Arrow1Mend"
       orient="auto"
       refY="0"
       refX="0"
       id="marker7268"
       style="overflow:visible">
      <path
         inkscape:connector-curvature="0"
         id="path7270"
         d="M 0,0 L 5,-5 L -12.5,0 L 5,5 L 0,0 z"
         style="fill-rule:evenodd;stroke:#000000;stroke-width:1pt;marker-start:none"
         transform="matrix(-0.4,0,0,-0.4,-4,0)" />
    </marker>
  </defs>
  <sodipodi:namedview
     id="base"
     pagecolor="#ffffff"
     bordercolor="#666666"
     borderopacity="1.0"
     inkscape:pageopacity="0.0"
     inkscape:pageshadow="2"
     inkscape:zoom="5.12"
     inkscape:cx="33.378606"
     inkscape:cy="21.619838"
     inkscape:document-units="px"
     inkscape:current-layer="svg4102"
     showgrid="false"
     fit-margin-top="0"
     fit-margin-left="0"
     fit-margin-right="0"
     fit-margin-bottom="0"
     inkscape:window-width="1234"
     inkscape:window-height="711"
     inkscape:window-x="2050"
     inkscape:window-y="201"
     inkscape:window-maximized="0" />
  <metadata
     id="metadata4107">
    <rdf:RDF>
      <cc:Work
         rdf:about="">
        <dc:format>image/svg+xml</dc:format>
        <dc:type
           rdf:resource="http://purl.org/dc/dcmitype/StillImage" />
        <dc:title></dc:title>
      </cc:Work>
    </rdf:RDF>
  </metadata>
  <g
     transform="matrix(0,1.25,1.25,0,-769.69307,-664.4106)"
     style="display:inline"
     id="icon_comp_refr_lense"
     inkscape:label="icon_comp_refr_lense">
    <desc
       id="desc5241">Compound refractive lens CRL</desc>
    <rect
       transform="matrix(0,1,1,0,0,0)"
       y="533.70416"
       x="618.5661"
       height="26.761364"
       width="26.761364"
       id="rect3870"
       style="fill:#000000;fill-opacity:1;fill-rule:evenodd;stroke:none" />
    <path
       sodipodi:nodetypes="cssscssssssssssccscssscsssscssssccsscssssssssscssssssscssssssscccc"
       inkscape:connector-curvature="0"
       id="path3853"
       d="M 537.82296,619.41388 C 538.05648,619.48108 537.97104,619.5267 537.0131,619.8461 C 534.39299,620.71972 533.15227,621.88845 533.15792,623.47761 C 533.16392,625.1922 534.5387,626.43394 537.36338,627.27635 L 538.14929,627.51073 L 537.6295,627.64789 C 536.97063,627.82175 535.71786,628.31875 535.17375,628.62215 C 533.85399,629.35805 533.15649,630.36294 533.15649,631.52841 C 533.15649,633.0934 534.39095,634.27059 536.95923,635.15473 C 537.38158,635.30013 537.80499,635.41909 537.90014,635.41909 C 538.22761,635.41909 537.99994,635.53541 537.06414,635.84621 C 535.49885,636.36608 534.5681,636.87339 533.97225,637.53145 C 532.60192,639.04485 532.97749,641.04517 534.85082,642.21079 C 535.42891,642.5705 537.01305,643.24198 537.54067,643.35097 C 538.05431,643.45706 538.11829,643.56611 537.71642,643.65054 C 537.13927,643.77179 535.90419,644.24661 535.27761,644.58813 C 524.19441,652.57657 572.30325,642.87756 559.15437,644.91512 C 558.53162,644.50142 557.16027,643.90855 556.33913,643.69802 C 556.04793,643.62332 555.81695,643.55041 555.82584,643.53591 C 555.83484,643.52141 556.23487,643.38475 556.71502,643.2322 C 559.12357,642.46697 560.47248,641.35706 560.68787,639.96326 C 560.96743,638.15427 559.60412,636.70399 556.81518,635.8435 C 556.38443,635.7106 555.98794,635.57815 555.9341,635.54917 C 555.8803,635.52017 556.11819,635.41089 556.46285,635.3063 C 558.60271,634.65691 560.03351,633.72142 560.46554,632.68925 C 560.88365,631.69033 560.82392,630.90165 560.26266,630.01084 C 559.66435,629.06121 558.41772,628.299 556.56858,627.75221 L 555.73458,627.5056 L 556.50331,627.27369 C 558.54774,626.65692 559.74782,625.91063 560.33223,624.89261 C 560.81901,624.04464 560.86068,623.25713 560.46766,622.33305 C 560.02672,621.29629 558.61303,620.35585 556.56088,619.73413 C 555.8336,619.51379 555.79164,619.48859 556.032,619.41647 C 577.40248,613.503 516.40588,617.84603 537.82296,619.41347 z M 559.01789,623.75982 C 558.64484,624.07264 557.70079,624.55695 556.94571,624.82288 C 554.38243,625.72562 551.00787,626.17875 546.87682,626.17493 C 542.53566,626.17093 538.83573,625.62088 536.44733,624.62448 C 535.64741,624.29077 534.65759,623.6765 534.65759,623.51378 C 534.65759,623.25548 535.91086,622.52468 537.00714,622.14373 C 539.52297,621.26948 542.86671,620.82498 546.92748,620.82498 C 551.58595,620.82498 555.22423,621.39118 557.7601,622.51078 C 558.44853,622.81473 559.19737,623.32962 559.19737,623.49904 C 559.19737,623.55974 559.11657,623.67705 559.01789,623.75982 z M 558.88736,631.84234 C 557.67782,632.83825 554.75723,633.63732 550.81077,634.05208 C 549.27811,634.21316 544.62485,634.21241 543.04419,634.05108 C 539.83245,633.72275 537.19399,633.09004 535.68188,632.2856 C 535.11206,631.98245 534.65759,631.63252 534.65759,631.49693 C 534.65759,631.22528 536.10431,630.44247 537.30649,630.06364 C 540.01357,629.21057 543.02772,628.82522 546.97862,628.82706 C 551.2692,628.82906 555.05512,629.3888 557.40763,630.36898 C 558.24426,630.71755 559.19737,631.31828 559.19737,631.49701 C 559.19737,631.54671 559.05786,631.7022 558.88736,631.84259 z M 558.69156,639.99651 C 555.86479,641.91606 547.79349,642.77403 541.31466,641.84366 C 539.04389,641.51758 536.89287,640.93694 535.80192,640.35558 C 535.29986,640.08804 534.65759,639.61534 534.65759,639.51337 C 534.65759,639.42027 535.27954,638.94999 535.70325,638.72263 C 537.80959,637.59236 542.42997,636.80157 546.92748,636.80157 C 551.16751,636.80157 555.46999,637.48249 557.76153,638.5162 C 558.44543,638.8247 559.19737,639.34691 559.19737,639.51337 C 559.19737,639.59017 558.96975,639.8076 558.69156,639.99651 z M 546.96011,644.85313 C 556.55843,626.73376 551.75927,635.79344 546.96011,644.85313 z"
       style="fill:#ffffff;fill-opacity:1;fill-rule:evenodd;stroke:none" />
    <path
       inkscape:connector-curvature="0"
       inkscape:original-d="M 533.70418,617.67407 L 533.70418,645.32748 L 539.05645,643.54339 L 534.59622,639.97521 L 534.59622,637.29907 L 539.05645,635.51498 L 534.59622,632.83884 L 534.59622,629.27066 L 539.05645,627.48657 L 534.59622,625.70248 L 534.59622,621.24225 L 539.05645,619.45816 z"
       inkscape:path-effect="#path-effect2992"
       id="path2990"
       d="M 533.70418,617.67407 L 533.70418,645.32748 L 539.05645,643.54339 L 534.59622,639.97521 L 534.59622,637.29907 L 539.05645,635.51498 L 534.59622,632.83884 L 534.59622,629.27066 L 539.05645,627.48657 L 534.59622,625.70248 L 534.59622,621.24225 L 539.05645,619.45816 L 533.70418,617.67407"
       style="fill:#ffffff;fill-opacity:1;stroke:none" />
    <path
       inkscape:connector-curvature="0"
       inkscape:original-d="M 560.46554,617.67407 L 560.46554,645.32748 L 555.11327,643.54339 L 559.57349,639.97521 L 559.57349,637.29907 L 555.11327,635.51498 L 559.57349,632.83884 L 559.57349,629.27066 L 555.11327,627.48657 L 559.57349,625.70248 L 559.57349,621.24225 L 555.11327,619.45816 z"
       inkscape:path-effect="#path-effect2992-1"
       id="path2990-7"
       d="M 560.46554,617.67407 L 560.46554,645.32748 L 555.11327,643.54339 L 559.57349,639.97521 L 559.57349,637.29907 L 555.11327,635.51498 L 559.57349,632.83884 L 559.57349,629.27066 L 555.11327,627.48657 L 559.57349,625.70248 L 559.57349,621.24225 L 555.11327,619.45816 L 560.46554,617.67407"
       style="fill:#ffffff;fill-opacity:1;stroke:none" />
    <rect
       transform="matrix(0,1,1,0,0,0)"
       y="533.53143"
       x="617.75446"
       height="27.626362"
       width="27.626362"
       id="rect6784-3-34"
       style="fill:none;stroke:#000000;stroke-width:3.99999952;stroke-miterlimit:4;stroke-opacity:1;stroke-dasharray:none;display:inline" />
  </g>
</svg>
