<?xml version="1.0" encoding="UTF-8" standalone="no"?>
<!-- Created with Inkscape (http://www.inkscape.org/) -->

<svg
   xmlns:dc="http://purl.org/dc/elements/1.1/"
   xmlns:cc="http://creativecommons.org/ns#"
   xmlns:rdf="http://www.w3.org/1999/02/22-rdf-syntax-ns#"
   xmlns:svg="http://www.w3.org/2000/svg"
   xmlns="http://www.w3.org/2000/svg"
   xmlns:sodipodi="http://sodipodi.sourceforge.net/DTD/sodipodi-0.dtd"
   xmlns:inkscape="http://www.inkscape.org/namespaces/inkscape"
   width="138.35938"
   height="43.59375"
   id="svg4102"
   version="1.1"
   inkscape:version="0.48.4 r9939"
   sodipodi:docname="diff_pumping_stages.svg">
  <defs
     id="defs4104">
    <marker
       inkscape:stockid="Arrow1Mend"
       orient="auto"
       refY="0"
       refX="0"
       id="Arrow1Mend"
       style="overflow:visible">
      <path
         inkscape:connector-curvature="0"
         id="path5043"
         d="M 0,0 L 5,-5 L -12.5,0 L 5,5 L 0,0 z"
         style="fill-rule:evenodd;stroke:#000000;stroke-width:1pt;marker-start:none"
         transform="matrix(-0.4,0,0,-0.4,-4,0)" />
    </marker>
    <marker
       inkscape:stockid="Arrow1Mend"
       orient="auto"
       refY="0"
       refX="0"
       id="marker6949"
       style="overflow:visible">
      <path
         inkscape:connector-curvature="0"
         id="path6951"
         d="M 0,0 L 5,-5 L -12.5,0 L 5,5 L 0,0 z"
         style="fill-rule:evenodd;stroke:#000000;stroke-width:1pt;marker-start:none"
         transform="matrix(-0.4,0,0,-0.4,-4,0)" />
    </marker>
    <marker
       inkscape:stockid="Arrow1Mend"
       orient="auto"
       refY="0"
       refX="0"
       id="marker6953"
       style="overflow:visible">
      <path
         inkscape:connector-curvature="0"
         id="path6955"
         d="M 0,0 L 5,-5 L -12.5,0 L 5,5 L 0,0 z"
         style="fill-rule:evenodd;stroke:#000000;stroke-width:1pt;marker-start:none"
         transform="matrix(-0.4,0,0,-0.4,-4,0)" />
    </marker>
    <marker
       inkscape:stockid="Arrow1Mend"
       orient="auto"
       refY="0"
       refX="0"
       id="Arrow1Mend-3"
       style="overflow:visible">
      <path
         inkscape:connector-curvature="0"
         id="path5043-6"
         d="M 0,0 L 5,-5 L -12.5,0 L 5,5 L 0,0 z"
         style="fill-rule:evenodd;stroke:#000000;stroke-width:1pt;marker-start:none"
         transform="matrix(-0.4,0,0,-0.4,-4,0)" />
    </marker>
    <marker
       inkscape:stockid="Arrow1Mend"
       orient="auto"
       refY="0"
       refX="0"
       id="marker7264"
       style="overflow:visible">
      <path
         inkscape:connector-curvature="0"
         id="path7266"
         d="M 0,0 L 5,-5 L -12.5,0 L 5,5 L 0,0 z"
         style="fill-rule:evenodd;stroke:#000000;stroke-width:1pt;marker-start:none"
         transform="matrix(-0.4,0,0,-0.4,-4,0)" />
    </marker>
    <marker
       inkscape:stockid="Arrow1Mend"
       orient="auto"
       refY="0"
       refX="0"
       id="marker7268"
       style="overflow:visible">
      <path
         inkscape:connector-curvature="0"
         id="path7270"
         d="M 0,0 L 5,-5 L -12.5,0 L 5,5 L 0,0 z"
         style="fill-rule:evenodd;stroke:#000000;stroke-width:1pt;marker-start:none"
         transform="matrix(-0.4,0,0,-0.4,-4,0)" />
    </marker>
  </defs>
  <sodipodi:namedview
     id="base"
     pagecolor="#ffffff"
     bordercolor="#666666"
     borderopacity="1.0"
     inkscape:pageopacity="0.0"
     inkscape:pageshadow="2"
     inkscape:zoom="5.12"
     inkscape:cx="91.048327"
     inkscape:cy="32.404342"
     inkscape:document-units="px"
     inkscape:current-layer="svg4102"
     showgrid="false"
     fit-margin-top="0"
     fit-margin-left="0"
     fit-margin-right="0"
     fit-margin-bottom="0"
     inkscape:window-width="1234"
     inkscape:window-height="711"
     inkscape:window-x="2050"
     inkscape:window-y="201"
     inkscape:window-maximized="0" />
  <metadata
     id="metadata4107">
    <rdf:RDF>
      <cc:Work
         rdf:about="">
        <dc:format>image/svg+xml</dc:format>
        <dc:type
           rdf:resource="http://purl.org/dc/dcmitype/StillImage" />
        <dc:title></dc:title>
      </cc:Work>
    </rdf:RDF>
  </metadata>
    <g
       transform="matrix(0,1.25,1.25,0,-228.72621,-1062.9397)"
       style="display:inline"
       id="icon_diff_pumping_stages"
       inkscape:label="icon_diff_pumping_stages">
      <desc
         id="desc5205">Differential pumping stage</desc>
      <path
         style="fill:#ffffff;fill-opacity:1;stroke:#000000;stroke-width:0.7414934;stroke-linecap:butt;stroke-linejoin:round;stroke-miterlimit:4;stroke-opacity:1;stroke-dasharray:none;stroke-dashoffset:0"
         d="M 879.42218,192.70623 L 879.43118,188.41751 C 870.89776,187.47785 864.26665,180.25967 864.26665,171.47588 C 864.26665,162.05385 871.90471,154.41578 881.32675,154.41578 C 890.74879,154.41578 898.38685,162.05385 898.38685,171.47588 C 898.38685,180.25159 891.74441,187.46715 883.22232,188.41751 L 883.21332,192.70623"
         id="path19122-6"
         inkscape:connector-curvature="0"
         sodipodi:nodetypes="ccssscc" />
      <path
         style="fill:#ffffff;fill-opacity:1;stroke:#000000;stroke-width:0.7414934;stroke-linecap:butt;stroke-linejoin:round;stroke-miterlimit:4;stroke-opacity:1;stroke-dasharray:none;stroke-dashoffset:0;display:inline"
         d="M 883.22304,192.44559 C 891.74513,193.39595 898.38757,200.61151 898.38757,209.38722 C 898.38757,218.171 891.75646,225.38918 883.22304,226.32885 M 879.43189,226.32885 C 870.89847,225.38918 864.26735,218.171 864.26735,209.38722 C 864.26735,200.60344 870.89847,193.38525 879.43189,192.44559"
         id="path19122-2-0"
         inkscape:connector-curvature="0"
         sodipodi:nodetypes="csccsc" />
      <path
         style="fill:#ffffff;fill-opacity:1;stroke:#000000;stroke-width:0.7414934;stroke-linecap:butt;stroke-linejoin:round;stroke-miterlimit:4;stroke-opacity:1;stroke-dasharray:none;stroke-dashoffset:0;display:inline"
         d="M 879.41249,226.06821 L 879.42149,230.35692 C 870.88806,231.29659 864.25696,238.51477 864.25696,247.29855 C 864.25696,256.72059 871.89502,264.35865 881.31706,264.35865 C 890.73908,264.35865 898.37715,256.72059 898.37715,247.29855 C 898.37715,238.52284 891.7347,231.30729 883.21262,230.35692 L 883.20362,226.06821"
         id="path19122-8-1"
         inkscape:connector-curvature="0"
         sodipodi:nodetypes="ccssscc" />
      <rect
         transform="matrix(0,1,1,0,0,0)"
         style="fill:#000000;fill-opacity:1;stroke:#000000;stroke-width:0;stroke-linecap:butt;stroke-linejoin:round;stroke-miterlimit:4;stroke-opacity:1;stroke-dasharray:none;stroke-dashoffset:0"
         id="rect14609-6"
         width="6.0658135"
         height="2.2746799"
         x="187.39865"
         y="878.66394" />
      <rect
         transform="matrix(0,1,1,0,0,0)"
         style="fill:#000000;fill-opacity:1;stroke:#000000;stroke-width:0;stroke-linecap:butt;stroke-linejoin:round;stroke-miterlimit:4;stroke-opacity:1;stroke-dasharray:none;stroke-dashoffset:0"
         id="rect14611-5"
         width="6.0658135"
         height="2.2746799"
         x="187.39865"
         y="881.69684" />
      <rect
         transform="matrix(0,1,1,0,0,0)"
         style="fill:#000000;fill-opacity:1;stroke:#000000;stroke-width:0;stroke-linecap:butt;stroke-linejoin:round;stroke-miterlimit:4;stroke-opacity:1;stroke-dasharray:none;stroke-dashoffset:0;display:inline"
         id="rect14609-2-7"
         width="6.0658135"
         height="2.2746799"
         x="225.30998"
         y="878.66394" />
      <rect
         transform="matrix(0,1,1,0,0,0)"
         style="fill:#000000;fill-opacity:1;stroke:#000000;stroke-width:0;stroke-linecap:butt;stroke-linejoin:round;stroke-miterlimit:4;stroke-opacity:1;stroke-dasharray:none;stroke-dashoffset:0;display:inline"
         id="rect14611-7-5"
         width="6.0658135"
         height="2.2746799"
         x="225.30998"
         y="881.69684" />
    </g>
</svg>
