<?xml version="1.0" encoding="UTF-8" standalone="no"?>
<!-- Created with Inkscape (http://www.inkscape.org/) -->

<svg
   xmlns:dc="http://purl.org/dc/elements/1.1/"
   xmlns:cc="http://creativecommons.org/ns#"
   xmlns:rdf="http://www.w3.org/1999/02/22-rdf-syntax-ns#"
   xmlns:svg="http://www.w3.org/2000/svg"
   xmlns="http://www.w3.org/2000/svg"
   xmlns:sodipodi="http://sodipodi.sourceforge.net/DTD/sodipodi-0.dtd"
   xmlns:inkscape="http://www.inkscape.org/namespaces/inkscape"
   width="39.362309"
   height="38.724373"
   id="svg5963"
   version="1.1"
   inkscape:version="0.48.4 r9939"
   sodipodi:docname="icon_kmono.svg">
  <defs
     id="defs5965" />
  <sodipodi:namedview
     id="base"
     pagecolor="#ffffff"
     bordercolor="#666666"
     borderopacity="1.0"
     inkscape:pageopacity="0.0"
     inkscape:pageshadow="2"
     inkscape:zoom="15.839192"
     inkscape:cx="25.282255"
     inkscape:cy="6.9536789"
     inkscape:document-units="px"
     inkscape:current-layer="layer1"
     showgrid="false"
     fit-margin-top="0"
     fit-margin-left="0"
     fit-margin-right="0"
     fit-margin-bottom="0"
     inkscape:window-width="1855"
     inkscape:window-height="1176"
     inkscape:window-x="65"
     inkscape:window-y="24"
     inkscape:window-maximized="1" />
  <metadata
     id="metadata5968">
    <rdf:RDF>
      <cc:Work
         rdf:about="">
        <dc:format>image/svg+xml</dc:format>
        <dc:type
           rdf:resource="http://purl.org/dc/dcmitype/StillImage" />
        <dc:title></dc:title>
      </cc:Work>
    </rdf:RDF>
  </metadata>
    <g
       id="icon_mono"
       inkscape:label="icon_mono">
      <desc
         id="desc3845">K-Mono</desc>
      <rect
         y="369.53568"
         x="110.38039"
         height="33.885139"
         width="34.523071"
         id="rect6796"
         style="fill:#ffffff;fill-opacity:1;stroke:#000000;stroke-width:4.83797598;stroke-miterlimit:4;stroke-opacity:1;stroke-dasharray:none" />
      <g
         id="text4814"
         style="font-size:7.72418451px;font-style:oblique;font-variant:normal;font-weight:normal;font-stretch:normal;line-height:129.99999523%;letter-spacing:0px;word-spacing:0px;fill:#4d4d4d;fill-opacity:1;stroke:#000000;stroke-width:0;stroke-miterlimit:4;stroke-opacity:1;display:inline;font-family:Arial;-inkscape-font-specification:Arial Oblique">
        <path
           id="path3828"
           style="font-weight:bold;fill:#4d4d4d;stroke:#000000;-inkscape-font-specification:Arial Bold Oblique"
           d="m 122.06619,394.89854 c -0.11315,10e-6 -0.22127,0.0251 -0.32435,0.0754 -0.10058,0.0503 -0.19236,0.12321 -0.27533,0.21876 -0.0805,0.093 -0.15087,0.20618 -0.21121,0.33944 -0.0578,0.13075 -0.10309,0.27784 -0.13577,0.44127 l -0.44882,2.28935 -1.05227,0 0.4639,-2.39495 c 0.008,-0.0402 0.0151,-0.083 0.0226,-0.12824 0.008,-0.0478 0.0138,-0.0955 0.0189,-0.14332 0.008,-0.0478 0.0126,-0.0918 0.0151,-0.132 0.005,-0.0427 0.008,-0.0792 0.008,-0.10938 0,-0.30423 -0.15841,-0.45635 -0.47522,-0.45636 -0.11566,10e-6 -0.22378,0.0264 -0.32435,0.0792 -0.10058,0.0503 -0.19236,0.1232 -0.27533,0.21875 -0.083,0.093 -0.15464,0.20744 -0.21498,0.34321 -0.0578,0.13326 -0.10309,0.28161 -0.13578,0.44505 l -0.44504,2.27803 -1.06359,0 0.62609,-3.20961 c 0.0176,-0.0855 0.0339,-0.17475 0.049,-0.26778 0.0176,-0.0956 0.0327,-0.18481 0.0453,-0.26779 0.0151,-0.0855 0.0264,-0.1584 0.0339,-0.21875 0.0101,-0.0603 0.0163,-0.0993 0.0189,-0.11692 l 1.02587,0 c -10e-6,0.0126 -0.004,0.0465 -0.0113,0.10184 -0.008,0.0553 -0.0176,0.11943 -0.0302,0.19235 -0.0101,0.0704 -0.0214,0.14332 -0.034,0.21875 -0.0101,0.0729 -0.0201,0.13452 -0.0302,0.1848 l 0.0113,0 c 0.0779,-0.11817 0.15714,-0.22503 0.23761,-0.32058 0.083,-0.0955 0.17223,-0.176 0.26778,-0.24138 0.0981,-0.0679 0.20617,-0.11943 0.32435,-0.15463 0.12069,-0.0352 0.25647,-0.0528 0.40733,-0.0528 0.31178,1e-5 0.55819,0.0754 0.73923,0.2263 0.18103,0.14835 0.28915,0.36459 0.32436,0.64871 0.0804,-0.12572 0.16468,-0.24138 0.25269,-0.34699 0.088,-0.1056 0.1848,-0.19737 0.29041,-0.27532 0.1056,-0.0805 0.22252,-0.14206 0.35076,-0.18481 0.13074,-0.0453 0.27783,-0.0679 0.44127,-0.0679 0.34698,1e-5 0.61225,0.0918 0.79581,0.27533 0.18605,0.18355 0.27909,0.44882 0.27909,0.7958 0,0.0905 -0.009,0.19235 -0.0264,0.3055 -0.0151,0.11315 -0.0327,0.21749 -0.0528,0.31304 l -0.48276,2.46284 -1.05227,0 0.46013,-2.36478 c 0.008,-0.0377 0.0151,-0.0792 0.0226,-0.12446 0.008,-0.0478 0.0151,-0.0943 0.0226,-0.13955 0.008,-0.0478 0.0126,-0.0943 0.0151,-0.13955 0.005,-0.0452 0.008,-0.0855 0.008,-0.12069 l 0,-0.0189 c -0.008,-0.30423 -0.16596,-0.45635 -0.47522,-0.45636" />
        <path
           id="path3830"
           style="font-weight:bold;fill:#4d4d4d;stroke:#000000;-inkscape-font-specification:Arial Bold Oblique"
           d="m 128.41375,395.6868 c 0,0.40985 -0.0616,0.77946 -0.18481,1.10884 -0.12321,0.32688 -0.29418,0.60471 -0.51293,0.83352 -0.21876,0.22881 -0.47774,0.40482 -0.77694,0.52802 -0.29922,0.12069 -0.62483,0.18104 -0.97684,0.18104 -0.26904,0 -0.51294,-0.0365 -0.73169,-0.10938 -0.21875,-0.0754 -0.40607,-0.18355 -0.56196,-0.32435 -0.15589,-0.14332 -0.27659,-0.31681 -0.36207,-0.52048 -0.083,-0.20618 -0.12447,-0.44002 -0.12447,-0.70151 0,-0.38973 0.0578,-0.743 0.1735,-1.05982 0.11817,-0.3168 0.28412,-0.5871 0.49784,-0.81088 0.21373,-0.22378 0.46894,-0.39602 0.76563,-0.51671 0.2967,-0.1232 0.62357,-0.1848 0.98061,-0.18481 0.2967,1e-5 0.55819,0.0352 0.78449,0.10561 0.22629,0.0704 0.41487,0.17349 0.56574,0.30927 0.15337,0.13578 0.26903,0.30173 0.34698,0.49784 0.0779,0.19361 0.11692,0.41488 0.11692,0.6638 m -1.10884,0.0792 c -1e-5,-0.16594 -0.0189,-0.308 -0.0566,-0.42618 -0.0352,-0.11818 -0.0867,-0.21372 -0.15463,-0.28664 -0.0679,-0.0754 -0.15087,-0.13075 -0.24892,-0.16595 -0.0956,-0.0352 -0.20367,-0.0528 -0.32436,-0.0528 -0.11063,0 -0.22252,0.0138 -0.33567,0.0415 -0.11315,0.0251 -0.22127,0.0792 -0.32436,0.16218 -0.10057,0.083 -0.1936,0.20115 -0.27909,0.35453 -0.083,0.15338 -0.15338,0.35579 -0.21121,0.60722 -0.0277,0.12069 -0.0478,0.2351 -0.0603,0.34322 -0.0101,0.1056 -0.0151,0.20366 -0.0151,0.29418 0,0.18104 0.0189,0.33316 0.0566,0.45636 0.0402,0.1232 0.0956,0.22378 0.16595,0.30172 0.0704,0.0779 0.15338,0.13452 0.24893,0.16973 0.0955,0.0327 0.19989,0.049 0.31304,0.049 0.11314,0 0.22503,-0.0126 0.33567,-0.0377 0.11063,-0.0251 0.21623,-0.0779 0.31681,-0.15841 0.10057,-0.083 0.19235,-0.19989 0.27532,-0.35075 0.083,-0.15338 0.15338,-0.3583 0.21121,-0.61477 0.0277,-0.13074 0.0478,-0.25018 0.0603,-0.3583 0.0126,-0.11063 0.0214,-0.22 0.0264,-0.32813" />
        <path
           id="path3832"
           style="font-weight:bold;fill:#4d4d4d;stroke:#000000;-inkscape-font-specification:Arial Bold Oblique"
           d="m 131.44987,398.26279 0.44504,-2.24409 c 0.0101,-0.0478 0.0201,-0.10057 0.0302,-0.15841 0.0126,-0.0578 0.0239,-0.11566 0.0339,-0.17349 0.0101,-0.0578 0.0176,-0.11189 0.0226,-0.16218 0.008,-0.0528 0.0113,-0.0955 0.0113,-0.12823 -10e-6,-0.1584 -0.0478,-0.27909 -0.14332,-0.36207 -0.0956,-0.083 -0.23887,-0.12446 -0.42996,-0.12446 -0.11818,0 -0.23636,0.0251 -0.35453,0.0754 -0.11818,0.0503 -0.22881,0.12195 -0.3319,0.21498 -0.10058,0.093 -0.18984,0.20618 -0.26778,0.33944 -0.0754,0.13075 -0.12824,0.27658 -0.15841,0.4375 l -0.44504,2.28558 -1.06359,0 0.62608,-3.20961 c 0.0176,-0.0855 0.034,-0.17475 0.049,-0.26778 0.0176,-0.0956 0.0327,-0.18481 0.0453,-0.26779 0.0126,-0.0855 0.0226,-0.1584 0.0302,-0.21875 0.0101,-0.0603 0.0163,-0.0993 0.0188,-0.11692 l 1.01078,0 c 0,0.0126 -0.004,0.0465 -0.0113,0.10184 -0.005,0.0553 -0.0126,0.11943 -0.0226,0.19235 -0.008,0.0704 -0.0163,0.14332 -0.0264,0.21875 -0.0101,0.0729 -0.0201,0.13452 -0.0302,0.1848 l 0.0113,0 c 0.0754,-0.1056 0.15841,-0.20491 0.24893,-0.29795 0.093,-0.093 0.19612,-0.17475 0.30926,-0.24515 0.11315,-0.0704 0.23887,-0.12572 0.37716,-0.16595 0.1408,-0.0402 0.29795,-0.0603 0.47145,-0.0604 0.38218,1e-5 0.67008,0.0918 0.86369,0.27533 0.1936,0.18355 0.29041,0.44882 0.29041,0.7958 0,0.0453 -0.004,0.0968 -0.0113,0.15464 -0.005,0.0578 -0.0113,0.11566 -0.0189,0.17349 -0.008,0.0553 -0.0163,0.10938 -0.0264,0.16218 -0.008,0.0503 -0.0151,0.093 -0.0226,0.12823 l -0.47899,2.46284 -1.05227,0" />
        <path
           id="path3834"
           style="font-weight:bold;fill:#4d4d4d;stroke:#000000;-inkscape-font-specification:Arial Bold Oblique"
           d="m 137.85777,395.6868 c 0,0.40985 -0.0616,0.77946 -0.1848,1.10884 -0.12321,0.32688 -0.29419,0.60471 -0.51294,0.83352 -0.21875,0.22881 -0.47773,0.40482 -0.77694,0.52802 -0.29922,0.12069 -0.62483,0.18104 -0.97684,0.18104 -0.26904,0 -0.51294,-0.0365 -0.73168,-0.10938 -0.21876,-0.0754 -0.40608,-0.18355 -0.56197,-0.32435 -0.15589,-0.14332 -0.27658,-0.31681 -0.36207,-0.52048 -0.083,-0.20618 -0.12446,-0.44002 -0.12446,-0.70151 0,-0.38973 0.0578,-0.743 0.17349,-1.05982 0.11818,-0.3168 0.28412,-0.5871 0.49785,-0.81088 0.21372,-0.22378 0.46893,-0.39602 0.76563,-0.51671 0.29669,-0.1232 0.62356,-0.1848 0.98061,-0.18481 0.29669,1e-5 0.55819,0.0352 0.78448,0.10561 0.22629,0.0704 0.41487,0.17349 0.56574,0.30927 0.15337,0.13578 0.26904,0.30173 0.34699,0.49784 0.0779,0.19361 0.11691,0.41488 0.11691,0.6638 m -1.10884,0.0792 c 0,-0.16594 -0.0189,-0.308 -0.0566,-0.42618 -0.0352,-0.11818 -0.0867,-0.21372 -0.15464,-0.28664 -0.0679,-0.0754 -0.15086,-0.13075 -0.24892,-0.16595 -0.0956,-0.0352 -0.20367,-0.0528 -0.32436,-0.0528 -0.11063,0 -0.22252,0.0138 -0.33567,0.0415 -0.11315,0.0251 -0.22126,0.0792 -0.32435,0.16218 -0.10058,0.083 -0.19361,0.20115 -0.2791,0.35453 -0.083,0.15338 -0.15338,0.35579 -0.21121,0.60722 -0.0277,0.12069 -0.0478,0.2351 -0.0603,0.34322 -0.0101,0.1056 -0.0151,0.20366 -0.0151,0.29418 0,0.18104 0.0189,0.33316 0.0566,0.45636 0.0402,0.1232 0.0955,0.22378 0.16594,0.30172 0.0704,0.0779 0.15338,0.13452 0.24893,0.16973 0.0955,0.0327 0.19989,0.049 0.31304,0.049 0.11314,0 0.22503,-0.0126 0.33567,-0.0377 0.11063,-0.0251 0.21623,-0.0779 0.31681,-0.15841 0.10057,-0.083 0.19235,-0.19989 0.27533,-0.35075 0.083,-0.15338 0.15337,-0.3583 0.2112,-0.61477 0.0277,-0.13074 0.0478,-0.25018 0.0603,-0.3583 0.0126,-0.11063 0.0214,-0.22 0.0264,-0.32813" />
      </g>
      <path
         sodipodi:nodetypes="ccccccccccccc"
         inkscape:connector-curvature="0"
         id="path3007"
         d="m 115.34746,387.74772 4.64843,0 2.51267,-11.89719 11.80954,0 1.75887,11.89719 4.02027,0 0,3.69777 -6.53294,0 -2.07295,-11.97757 -6.34449,0 -2.76393,11.89719 -7.09829,-0.0804 z"
         style="fill:#808080;stroke:#000000;stroke-width:1.12554228px;stroke-linecap:butt;stroke-linejoin:miter;stroke-opacity:1" />
    </g>
</svg>
