<?xml version="1.0" encoding="UTF-8" standalone="no"?>
<!-- Created with Inkscape (http://www.inkscape.org/) -->

<svg
   xmlns:dc="http://purl.org/dc/elements/1.1/"
   xmlns:cc="http://creativecommons.org/ns#"
   xmlns:rdf="http://www.w3.org/1999/02/22-rdf-syntax-ns#"
   xmlns:svg="http://www.w3.org/2000/svg"
   xmlns="http://www.w3.org/2000/svg"
   xmlns:inkscape="http://www.inkscape.org/namespaces/inkscape"
   version="1.1"
   width="40.807205"
   height="40.807205"
   id="svg4102">
  <defs
     id="defs4104">
    <linearGradient
       id="linearGradient3783-5">
      <stop
         id="stop3785-3"
         style="stop-color:#ff8c06;stop-opacity:1"
         offset="0" />
      <stop
         id="stop3787-0"
         style="stop-color:#261748;stop-opacity:0"
         offset="1" />
    </linearGradient>
    <marker
       refX="0"
       refY="0"
       orient="auto"
       id="Arrow2Mend5"
       style="overflow:visible">
      <path
         d="M 8.7185878,4.0337352 L -2.2072895,0.01601326 L 8.7185884,-4.0017078 C 6.97309,-1.6296469 6.9831476,1.6157441 8.7185878,4.0337352 z"
         transform="scale(-0.6,-0.6)"
         id="path3846"
         style="fill:#00084f;fill-rule:evenodd;stroke:#00084f;stroke-width:0.625;stroke-linejoin:round" />
    </marker>
    <marker
       refX="0"
       refY="0"
       orient="auto"
       id="marker14635"
       style="overflow:visible">
      <path
         d="M 8.7185878,4.0337352 L -2.2072895,0.01601326 L 8.7185884,-4.0017078 C 6.97309,-1.6296469 6.9831476,1.6157441 8.7185878,4.0337352 z"
         transform="scale(-0.6,-0.6)"
         id="path14637"
         style="fill:#00084f;fill-rule:evenodd;stroke:#00084f;stroke-width:0.625;stroke-linejoin:round" />
    </marker>
    <marker
       refX="0"
       refY="0"
       orient="auto"
       id="Arrow2Mend5-3"
       style="overflow:visible">
      <path
         d="M 8.7185878,4.0337352 L -2.2072895,0.01601326 L 8.7185884,-4.0017078 C 6.97309,-1.6296469 6.9831476,1.6157441 8.7185878,4.0337352 z"
         transform="scale(-0.6,-0.6)"
         id="path3846-6"
         style="fill:#00084f;fill-rule:evenodd;stroke:#00084f;stroke-width:0.625;stroke-linejoin:round" />
    </marker>
    <marker
       refX="0"
       refY="0"
       orient="auto"
       id="Arrow2Mende"
       style="overflow:visible">
      <path
         d="M 8.7185878,4.0337352 L -2.2072895,0.01601326 L 8.7185884,-4.0017078 C 6.97309,-1.6296469 6.9831476,1.6157441 8.7185878,4.0337352 z"
         transform="scale(-0.6,-0.6)"
         id="path3891"
         style="fill:#00084f;fill-rule:evenodd;stroke:#00084f;stroke-width:0.625;stroke-linejoin:round" />
    </marker>
    <marker
       refX="0"
       refY="0"
       orient="auto"
       id="Arrow2Mendz"
       style="overflow:visible">
      <path
         d="M 8.7185878,4.0337352 L -2.2072895,0.01601326 L 8.7185884,-4.0017078 C 6.97309,-1.6296469 6.9831476,1.6157441 8.7185878,4.0337352 z"
         transform="scale(-0.6,-0.6)"
         id="path3813"
         style="fill:#00084f;fill-rule:evenodd;stroke:#00084f;stroke-width:0.625;stroke-linejoin:round" />
    </marker>
    <marker
       refX="0"
       refY="0"
       orient="auto"
       id="Arrow2Mendn"
       style="overflow:visible">
      <path
         d="M 8.7185878,4.0337352 L -2.2072895,0.01601326 L 8.7185884,-4.0017078 C 6.97309,-1.6296469 6.9831476,1.6157441 8.7185878,4.0337352 z"
         transform="scale(-0.6,-0.6)"
         id="path3816"
         style="fill:#00084f;fill-rule:evenodd;stroke:#00084f;stroke-width:0.625;stroke-linejoin:round" />
    </marker>
  </defs>
  <metadata
     id="metadata4107">
    <rdf:RDF>
      <cc:Work
         rdf:about="">
        <dc:format>image/svg+xml</dc:format>
        <dc:type
           rdf:resource="http://purl.org/dc/dcmitype/StillImage" />
        <dc:title></dc:title>
      </cc:Work>
    </rdf:RDF>
  </metadata>
    <g
       transform="matrix(0,1.25,1.25,0,-1337.5691,-226.1197)"
       id="icon_bs_det_intensity"
       style="display:inline">
      <desc
         id="desc5275">Back scatter det. BSDIM</desc>
      <path
         d="M 74,48 A 28,28 0 1 1 18,48 A 28,28 0 1 1 74,48 z"
         transform="matrix(0,0.51009005,0.51009005,0,171.71352,1062.914)"
         id="path2983-5-4"
         style="fill:#ffffff;fill-opacity:1;fill-rule:nonzero;stroke:#000000;stroke-width:8.0001564;stroke-linecap:butt;stroke-linejoin:miter;stroke-miterlimit:4;stroke-opacity:1;stroke-dasharray:none;stroke-dashoffset:0;display:inline" />
      <g
         transform="translate(-5.1365714,-72.804731)"
         id="g5052"
         style="fill:#000000;fill-opacity:1;stroke:#000800;stroke-opacity:1;display:inline">
        <path
           d="M 193.42709,1165.8783 L 209.24174,1165.8783"
           id="path3753-9"
           style="fill:#000000;fill-opacity:1;stroke:#000800;stroke-width:1.97683203;stroke-linecap:butt;stroke-linejoin:miter;stroke-miterlimit:4;stroke-opacity:1;stroke-dasharray:none;stroke-dashoffset:0" />
        <path
           d="M 195.38578,1164.8771 L 195.38478,1164.8771 C 196.57668,1164.8768 197.0879,1164.7901 197.34671,1164.6767 C 198.56658,1164.1406 198.86363,1162.7774 199.48604,1160.8327 C 200.27017,1158.3826 200.65345,1155.9843 201.31754,1155.9843 C 201.98163,1155.9843 202.36491,1158.3826 203.14903,1160.8327 C 203.77144,1162.7774 204.06849,1164.1406 205.28837,1164.6767 C 205.54717,1164.7904 206.0584,1164.8768 207.25031,1164.8771 L 207.24931,1164.8771"
           id="path2846-8"
           style="fill:#000000;fill-opacity:1;stroke:#000800;stroke-width:0.15421;stroke-linecap:butt;stroke-linejoin:miter;stroke-miterlimit:4;stroke-opacity:1;stroke-dasharray:none;display:inline" />
        <path
           d="M 201.33442,1165.8783 L 194.4155,1154.0173"
           id="path3755-8"
           style="fill:#000000;fill-opacity:1;stroke:#000800;stroke-width:0.74131203;stroke-linecap:butt;stroke-linejoin:miter;stroke-miterlimit:4;stroke-opacity:1;stroke-dasharray:none;stroke-dashoffset:0;marker-end:url(#Arrow2Mendz)" />
        <path
           d="M 201.35696,1165.9681 L 208.27587,1154.1071"
           id="path3755-4-4"
           style="fill:#000000;fill-opacity:1;stroke:#000800;stroke-width:0.74131203;stroke-linecap:butt;stroke-linejoin:miter;stroke-miterlimit:4;stroke-opacity:1;stroke-dasharray:none;stroke-dashoffset:0;marker-end:url(#Arrow2Mendn)" />
      </g>
    </g>
</svg>
