<?xml version="1.0" encoding="UTF-8" standalone="no"?>
<!-- Created with Inkscape (http://www.inkscape.org/) -->

<svg
   xmlns:dc="http://purl.org/dc/elements/1.1/"
   xmlns:cc="http://creativecommons.org/ns#"
   xmlns:rdf="http://www.w3.org/1999/02/22-rdf-syntax-ns#"
   xmlns:svg="http://www.w3.org/2000/svg"
   xmlns="http://www.w3.org/2000/svg"
   xmlns:inkscape="http://www.inkscape.org/namespaces/inkscape"
   version="1.1"
   width="40.807205"
   height="40.807205"
   id="svg4102">
  <defs
     id="defs4104">
    <linearGradient
       id="linearGradient3783-5">
      <stop
         id="stop3785-3"
         style="stop-color:#ff8c06;stop-opacity:1"
         offset="0" />
      <stop
         id="stop3787-0"
         style="stop-color:#261748;stop-opacity:0"
         offset="1" />
    </linearGradient>
    <marker
       refX="0"
       refY="0"
       orient="auto"
       id="Arrow2Mend5"
       style="overflow:visible">
      <path
         d="M 8.7185878,4.0337352 L -2.2072895,0.01601326 L 8.7185884,-4.0017078 C 6.97309,-1.6296469 6.9831476,1.6157441 8.7185878,4.0337352 z"
         transform="scale(-0.6,-0.6)"
         id="path3846"
         style="fill:#00084f;fill-rule:evenodd;stroke:#00084f;stroke-width:0.625;stroke-linejoin:round" />
    </marker>
    <marker
       refX="0"
       refY="0"
       orient="auto"
       id="marker14635"
       style="overflow:visible">
      <path
         d="M 8.7185878,4.0337352 L -2.2072895,0.01601326 L 8.7185884,-4.0017078 C 6.97309,-1.6296469 6.9831476,1.6157441 8.7185878,4.0337352 z"
         transform="scale(-0.6,-0.6)"
         id="path14637"
         style="fill:#00084f;fill-rule:evenodd;stroke:#00084f;stroke-width:0.625;stroke-linejoin:round" />
    </marker>
  </defs>
  <metadata
     id="metadata4107">
    <rdf:RDF>
      <cc:Work
         rdf:about="">
        <dc:format>image/svg+xml</dc:format>
        <dc:type
           rdf:resource="http://purl.org/dc/dcmitype/StillImage" />
        <dc:title></dc:title>
      </cc:Work>
    </rdf:RDF>
  </metadata>
    <g
       transform="matrix(0,1.25,1.25,0,-1343.0048,-192.22634)"
       id="icon_bs_det"
       style="display:inline">
      <desc
         id="desc5271">Back scatter detector BSD</desc>
      <path
         d="M 74,48 A 28,28 0 1 1 18,48 A 28,28 0 1 1 74,48 z"
         transform="matrix(0,0.51009005,0.51009005,0,144.59883,1067.2626)"
         id="path2983-5-2"
         style="fill:#ffffff;fill-opacity:1;fill-rule:nonzero;stroke:#000000;stroke-width:8.0001564;stroke-linecap:butt;stroke-linejoin:miter;stroke-miterlimit:4;stroke-opacity:1;stroke-dasharray:none;stroke-dashoffset:0;display:inline" />
      <g
         transform="translate(38.194262,-68.25291)"
         id="g4860"
         style="display:inline">
        <g
           id="g9262"
           style="stroke:#000000;stroke-opacity:1">
          <path
             d="M 131.0675,1146.7709 C 130.70338,1146.8309 130.39912,1146.8907 130.28934,1146.9506 C 130.17956,1147.0106 130.26794,1147.0704 130.51524,1147.1303 C 130.76259,1147.1903 131.16079,1147.2501 131.53365,1147.31 C 131.90651,1147.37 132.24169,1147.4298 132.39089,1147.4897 C 132.54008,1147.5497 132.49836,1147.6095 132.28417,1147.6694 C 132.07,1147.7294 131.69045,1147.7892 131.31346,1147.8491 C 130.93648,1147.9091 130.57453,1147.9689 130.38777,1148.0289 C 130.201,1148.0889 130.1956,1148.1486 130.37397,1148.2086 C 130.55232,1148.2686 130.90854,1148.3284 131.28499,1148.3883 C 131.66143,1148.4483 132.04568,1148.5081 132.2677,1148.568 C 132.48973,1148.628 132.54219,1148.6878 132.40186,1148.7477 C 132.26155,1148.8077 131.93309,1148.8675 131.56184,1148.9274 C 131.19058,1148.9874 130.78879,1149.0472 130.53426,1149.1071 C 130.27973,1149.1671 130.18086,1149.2269 130.2814,1149.2868 C 130.38195,1149.3468 130.6786,1149.4066 131.04007,1149.4665 C 131.40154,1149.5265 131.81589,1149.5863 132.09979,1149.6462 C 132.38368,1149.7062 132.52773,1149.766 132.4682,1149.826 C 132.4087,1149.886 132.14751,1149.9458 131.8003,1150.0057 C 131.45309,1150.0657 131.03129,1150.1255 130.72155,1150.1854 C 130.4118,1150.2454 130.22435,1150.3052 130.24213,1150.3651 C 130.25993,1150.4251 130.48235,1150.4849 130.81101,1150.5448 C 131.13967,1150.6048 131.56369,1150.6646 131.89545,1150.7245 C 132.22721,1150.7845 132.45575,1150.8443 132.47992,1150.9042 C 132.50412,1150.9642 132.32315,1151.024 132.01711,1151.084 C 131.71107,1151.144 131.29008,1151.2038 130.94041,1151.2637 C 130.59074,1151.3237 130.32394,1151.3835 130.25809,1151.4434 C 130.19229,1151.5034 130.32949,1151.5632 130.60911,1151.6231 C 130.88875,1151.6831 131.30151,1151.7429 131.66477,1151.8028 C 132.02803,1151.8628 132.32976,1151.9226 132.43649,1151.9825 C 132.5432,1152.0425 132.45129,1152.1023 132.20159,1152.1622 C 131.95182,1152.2222 131.55239,1152.282 131.18004,1152.342 C 130.80769,1152.402 130.47473,1152.4617 130.32848,1152.5217 C 130.18224,1152.5817 130.22754,1152.6414 130.44435,1152.7014 C 130.66115,1152.7614 131.0423,1152.8212 131.41913,1152.8811 C 131.79597,1152.9411 132.15603,1153.0009 132.34,1153.0608 C 132.52399,1153.1208 132.52578,1153.1806 132.344,1153.2405 C 132.16284,1153.3005 131.80469,1153.3603 131.42803,1153.4202 C 131.05137,1153.4802 130.66867,1153.54 130.44924,1153.5999 C 130.22982,1153.6599 130.18094,1153.7197 130.32422,1153.7796 C 130.46752,1153.8396 130.79823,1153.8994 131.17005,1153.9593 C 131.54186,1154.0193 131.94248,1154.0791 132.19464,1154.1391 C 132.4468,1154.1991 132.54216,1154.2589 132.43853,1154.3188 C 132.3349,1154.3788 132.03569,1154.4386 131.67332,1154.4985 C 131.31094,1154.5585 130.89737,1154.6183 130.61559,1154.6782 C 130.33382,1154.7382 130.19316,1154.798 130.25586,1154.8579 C 130.31856,1154.9179 130.58254,1154.9777 130.93099,1155.0376 C 131.27945,1155.0976 131.70087,1155.1574 132.00877,1155.2173 C 132.31666,1155.2773 132.50088,1155.3371 132.47988,1155.397 C 132.45888,1155.457 132.23341,1155.5168 131.90319,1155.5767 C 131.57297,1155.6367 131.14894,1155.6965 130.81871,1155.7565 C 130.48849,1155.8165 130.263,1155.8763 130.24202,1155.9362 C 130.22102,1155.9962 130.40525,1156.056 130.71314,1156.1159 C 131.02104,1156.1759 131.44246,1156.2357 131.79092,1156.2956 C 132.13937,1156.3556 132.40335,1156.4154 132.46605,1156.4753 C 132.52875,1156.5353 132.38815,1156.5951 132.10632,1156.655 C 131.82454,1156.715 131.41096,1156.7748 131.04859,1156.8348 C 130.68621,1156.8948 130.38701,1156.9546 130.28338,1157.0145 C 130.17974,1157.0745 130.27538,1157.1343 130.52726,1157.1942 C 130.77942,1157.2542 131.18004,1157.314 131.55185,1157.3739 C 131.92367,1157.4339 132.25439,1157.4937 132.39768,1157.5536 C 132.54097,1157.6136 132.49208,1157.6734 132.27267,1157.7333 C 132.05324,1157.7933 131.67053,1157.8531 131.29388,1157.913 C 130.91721,1157.973 130.55907,1158.0328 130.3779,1158.0927 C 130.19673,1158.1527 130.19853,1158.2125 130.3819,1158.2724 C 130.56587,1158.3324 130.92593,1158.3922 131.30277,1158.4522 C 131.6796,1158.5122 132.06076,1158.572 132.27755,1158.6319 C 132.49437,1158.6919 132.53967,1158.7517 132.39342,1158.8116 C 132.24717,1158.8716 131.91422,1158.9314 131.54186,1158.9913 C 131.16952,1159.0513 130.77009,1159.1111 130.52032,1159.171 C 130.27055,1159.231 130.17871,1159.2908 130.28542,1159.3507 C 130.39214,1159.4107 130.69387,1159.4705 131.05713,1159.5304 C 131.42039,1159.5904 131.83316,1159.6502 132.11279,1159.7101 C 132.39242,1159.7701 132.52968,1159.8299 132.46381,1159.8898 C 132.39801,1159.9498 132.13117,1160.0096 131.7815,1160.0696 C 131.43183,1160.1296 131.01084,1160.1893 130.70479,1160.2493 C 130.39875,1160.3093 130.21779,1160.3691 130.24198,1160.429 C 130.26618,1160.489 130.4947,1160.5488 130.82645,1160.6087 C 131.15822,1160.6687 131.58224,1160.7285 131.9109,1160.7884 C 132.23956,1160.8484 132.46199,1160.9082 132.47977,1160.9681 C 132.49757,1161.0281 132.3101,1161.0879 132.00036,1161.1478 C 131.69062,1161.2078 131.26882,1161.2676 130.9216,1161.3275 C 130.57439,1161.3875 130.31324,1161.4473 130.25371,1161.5073 C 130.19421,1161.5673 130.33821,1161.6271 130.62212,1161.687 C 130.90602,1161.747 131.32037,1161.8068 131.68184,1161.8667 C 132.04332,1161.9267 132.33995,1161.9865 132.4405,1162.0464 C 132.54105,1162.1064 132.4425,1162.1662 132.18764,1162.2261 C 131.93311,1162.2861 131.53133,1162.3459 131.16006,1162.4058 C 130.78881,1162.4658 130.46036,1162.5256 130.32004,1162.5855 C 130.17972,1162.6455 130.23214,1162.7053 130.4542,1162.7653 C 130.67622,1162.8253 131.06047,1162.885 131.43692,1162.945 C 131.81337,1163.005 132.16958,1163.0647 132.34793,1163.1247 C 132.52628,1163.1847 132.52088,1163.2445 132.33413,1163.3044 C 132.14736,1163.3644 131.78541,1163.4242 131.40843,1163.4841 C 131.03145,1163.5441 130.65189,1163.6039 130.43772,1163.6638 C 130.22353,1163.7238 130.18182,1163.7836 130.33101,1163.8435 C 130.48021,1163.9035 130.81539,1163.9633 131.18824,1164.0232 C 131.56111,1164.0832 131.95931,1164.143 132.20666,1164.2029 C 132.45401,1164.2629 132.54233,1164.3227 132.43255,1164.3827 C 132.32278,1164.4427 132.01851,1164.5024 131.6544,1164.5624"
             id="path3000-1"
             style="fill:#000000;fill-opacity:0;stroke:#000000;stroke-width:0.23797303;stroke-linecap:round;stroke-linejoin:round;stroke-miterlimit:4;stroke-opacity:1;stroke-dasharray:none;stroke-dashoffset:0" />
          <path
             d="M 131.40049,1166.1827 L 124.17715,1153.7998"
             id="path3755-9"
             style="fill:#000000;fill-opacity:0;stroke:#000000;stroke-width:1.03199995;stroke-linecap:butt;stroke-linejoin:miter;stroke-miterlimit:4;stroke-opacity:1;stroke-dasharray:none;stroke-dashoffset:0;marker-end:url(#Arrow2Mend5)" />
          <path
             d="M 131.42397,1166.2765 L 138.64732,1153.8936"
             id="path3755-4-7"
             style="fill:#000000;fill-opacity:0;stroke:#000000;stroke-width:1.03190625;stroke-linecap:butt;stroke-linejoin:miter;stroke-miterlimit:4;stroke-opacity:1;stroke-dasharray:none;stroke-dashoffset:0;marker-end:url(#Arrow2Mend5)" />
          <path
             d="M 123.14524,1166.1827 L 139.65574,1166.1827"
             id="path3753-19"
             style="fill:#000000;fill-opacity:0;stroke:#000000;stroke-width:2.06381249;stroke-linecap:butt;stroke-linejoin:miter;stroke-miterlimit:4;stroke-opacity:1;stroke-dasharray:none;stroke-dashoffset:0" />
        </g>
      </g>
    </g>
</svg>
