<?xml version="1.0" encoding="UTF-8" standalone="no"?>
<!-- Created with Inkscape (http://www.inkscape.org/) -->

<svg
   xmlns:dc="http://purl.org/dc/elements/1.1/"
   xmlns:cc="http://creativecommons.org/ns#"
   xmlns:rdf="http://www.w3.org/1999/02/22-rdf-syntax-ns#"
   xmlns:svg="http://www.w3.org/2000/svg"
   xmlns="http://www.w3.org/2000/svg"
   xmlns:sodipodi="http://sodipodi.sourceforge.net/DTD/sodipodi-0.dtd"
   xmlns:inkscape="http://www.inkscape.org/namespaces/inkscape"
   width="39.53664"
   height="39.53664"
   id="svg4102"
   version="1.1"
   inkscape:version="0.48.4 r9939"
   sodipodi:docname="pold.svg">
  <defs
     id="defs4104">
    <marker
       inkscape:stockid="Arrow1Mend"
       orient="auto"
       refY="0"
       refX="0"
       id="Arrow1Mend"
       style="overflow:visible">
      <path
         inkscape:connector-curvature="0"
         id="path5043"
         d="M 0,0 L 5,-5 L -12.5,0 L 5,5 L 0,0 z"
         style="fill-rule:evenodd;stroke:#000000;stroke-width:1pt;marker-start:none"
         transform="matrix(-0.4,0,0,-0.4,-4,0)" />
    </marker>
    <marker
       inkscape:stockid="Arrow1Mend"
       orient="auto"
       refY="0"
       refX="0"
       id="marker6949"
       style="overflow:visible">
      <path
         inkscape:connector-curvature="0"
         id="path6951"
         d="M 0,0 L 5,-5 L -12.5,0 L 5,5 L 0,0 z"
         style="fill-rule:evenodd;stroke:#000000;stroke-width:1pt;marker-start:none"
         transform="matrix(-0.4,0,0,-0.4,-4,0)" />
    </marker>
    <marker
       inkscape:stockid="Arrow1Mend"
       orient="auto"
       refY="0"
       refX="0"
       id="marker6953"
       style="overflow:visible">
      <path
         inkscape:connector-curvature="0"
         id="path6955"
         d="M 0,0 L 5,-5 L -12.5,0 L 5,5 L 0,0 z"
         style="fill-rule:evenodd;stroke:#000000;stroke-width:1pt;marker-start:none"
         transform="matrix(-0.4,0,0,-0.4,-4,0)" />
    </marker>
    <marker
       inkscape:stockid="Arrow1Mend"
       orient="auto"
       refY="0"
       refX="0"
       id="Arrow1Mend-3"
       style="overflow:visible">
      <path
         inkscape:connector-curvature="0"
         id="path5043-6"
         d="M 0,0 L 5,-5 L -12.5,0 L 5,5 L 0,0 z"
         style="fill-rule:evenodd;stroke:#000000;stroke-width:1pt;marker-start:none"
         transform="matrix(-0.4,0,0,-0.4,-4,0)" />
    </marker>
    <marker
       inkscape:stockid="Arrow1Mend"
       orient="auto"
       refY="0"
       refX="0"
       id="marker7264"
       style="overflow:visible">
      <path
         inkscape:connector-curvature="0"
         id="path7266"
         d="M 0,0 L 5,-5 L -12.5,0 L 5,5 L 0,0 z"
         style="fill-rule:evenodd;stroke:#000000;stroke-width:1pt;marker-start:none"
         transform="matrix(-0.4,0,0,-0.4,-4,0)" />
    </marker>
    <marker
       inkscape:stockid="Arrow1Mend"
       orient="auto"
       refY="0"
       refX="0"
       id="marker7268"
       style="overflow:visible">
      <path
         inkscape:connector-curvature="0"
         id="path7270"
         d="M 0,0 L 5,-5 L -12.5,0 L 5,5 L 0,0 z"
         style="fill-rule:evenodd;stroke:#000000;stroke-width:1pt;marker-start:none"
         transform="matrix(-0.4,0,0,-0.4,-4,0)" />
    </marker>
  </defs>
  <sodipodi:namedview
     id="base"
     pagecolor="#ffffff"
     bordercolor="#666666"
     borderopacity="1.0"
     inkscape:pageopacity="0.0"
     inkscape:pageshadow="2"
     inkscape:zoom="5.12"
     inkscape:cx="33.378606"
     inkscape:cy="21.619838"
     inkscape:document-units="px"
     inkscape:current-layer="svg4102"
     showgrid="false"
     fit-margin-top="0"
     fit-margin-left="0"
     fit-margin-right="0"
     fit-margin-bottom="0"
     inkscape:window-width="1234"
     inkscape:window-height="711"
     inkscape:window-x="2050"
     inkscape:window-y="201"
     inkscape:window-maximized="0" />
  <metadata
     id="metadata4107">
    <rdf:RDF>
      <cc:Work
         rdf:about="">
        <dc:format>image/svg+xml</dc:format>
        <dc:type
           rdf:resource="http://purl.org/dc/dcmitype/StillImage" />
        <dc:title></dc:title>
      </cc:Work>
    </rdf:RDF>
  </metadata>
  <g
     style="display:inline"
     id="icon_psd"
     transform="matrix(0,1.25,1.25,0,-659.69948,-316.92525)"
     inkscape:label="icon_psd">
    <desc
       id="desc5225">PSD</desc>
    <rect
       transform="matrix(0,1,1,0,0,0)"
       y="255.54315"
       x="529.75958"
       height="27.626362"
       width="27.626362"
       id="rect6784-3-3"
       style="fill:#ffffff;fill-opacity:1;stroke:#000000;stroke-width:3.99999952;stroke-miterlimit:4;stroke-opacity:1;stroke-dasharray:none;display:inline" />
    <path
       inkscape:connector-curvature="0"
       id="path5376"
       d="M 257.49534,543.31699 L 281.21733,543.31699"
       style="fill:none;stroke:#000000;stroke-width:0.74131203;stroke-linecap:round;stroke-linejoin:round;stroke-miterlimit:4;stroke-opacity:1;stroke-dasharray:none;display:inline" />
    <path
       inkscape:connector-curvature="0"
       id="path5378"
       d="M 269.35634,531.45599 L 269.35634,555.17798"
       style="fill:none;stroke:#000000;stroke-width:0.74131203;stroke-linecap:round;stroke-linejoin:round;stroke-miterlimit:4;stroke-opacity:1;stroke-dasharray:none;display:inline" />
    <path
       transform="matrix(0,0.494208,0.494208,0,253.54168,527.50233)"
       sodipodi:end="6.2918593"
       sodipodi:start="0.016280536"
       d="M 37.999205,32.097679 C 37.945258,35.410948 35.21559,38.053151 31.902321,37.999205 C 28.589052,37.945258 25.946849,35.21559 26.000795,31.902321 C 26.054742,28.589052 28.78441,25.946849 32.097679,26.000795 C 35.393141,26.054452 38.028363,28.756268 37.999774,32.052043 L 32,32 z"
       sodipodi:ry="6"
       sodipodi:rx="6"
       sodipodi:cy="32"
       sodipodi:cx="32"
       id="path5380"
       style="fill:none;stroke:#000000;stroke-width:1.5;stroke-linecap:round;stroke-linejoin:round;stroke-miterlimit:4;stroke-opacity:1;stroke-dasharray:none;display:inline"
       sodipodi:type="arc" />
    <path
       transform="matrix(0,0.494208,0.494208,0,252.95762,526.91827)"
       sodipodi:open="true"
       sodipodi:end="6.2922336"
       sodipodi:start="0.016280536"
       d="M 43.998542,33.179078 C 43.89964,39.253405 38.895249,44.097444 32.820922,43.998542 C 26.746595,43.89964 21.902556,38.895249 22.001458,32.820922 C 22.10036,26.746595 27.104751,21.902556 33.179078,22.001458 C 39.222364,22.099854 44.054238,27.05569 43.99955,33.09953"
       sodipodi:ry="11"
       sodipodi:rx="11"
       sodipodi:cy="33"
       sodipodi:cx="33"
       id="path5400"
       style="fill:none;stroke:#000000;stroke-width:1.5;stroke-linecap:round;stroke-linejoin:round;stroke-miterlimit:4;stroke-opacity:1;stroke-dasharray:none;display:inline"
       sodipodi:type="arc" />
    <path
       transform="matrix(0,0.494208,0.494208,0,252.59819,525.07623)"
       sodipodi:end="6.2918593"
       sodipodi:start="0.016280536"
       d="M 52.99788,34.260477 C 52.854022,43.095862 45.574908,50.141737 36.739523,49.99788 C 27.904138,49.854022 20.858263,42.574908 21.00212,33.739523 C 21.145978,24.904138 28.425092,17.858263 37.260477,18.00212 C 46.048377,18.145205 53.075633,25.350048 52.999398,34.138782 L 37,34 z"
       sodipodi:ry="16"
       sodipodi:rx="16"
       sodipodi:cy="34"
       sodipodi:cx="37"
       id="path5402"
       style="fill:none;stroke:#000000;stroke-width:1.5;stroke-linecap:round;stroke-linejoin:round;stroke-miterlimit:4;stroke-opacity:1;stroke-dasharray:none;display:inline"
       sodipodi:type="arc" />
  </g>
</svg>
