<?xml version="1.0" encoding="UTF-8" standalone="no"?>
<!-- Created with Inkscape (http://www.inkscape.org/) -->

<svg
   xmlns:dc="http://purl.org/dc/elements/1.1/"
   xmlns:cc="http://creativecommons.org/ns#"
   xmlns:rdf="http://www.w3.org/1999/02/22-rdf-syntax-ns#"
   xmlns:svg="http://www.w3.org/2000/svg"
   xmlns="http://www.w3.org/2000/svg"
   xmlns:sodipodi="http://sodipodi.sourceforge.net/DTD/sodipodi-0.dtd"
   xmlns:inkscape="http://www.inkscape.org/namespaces/inkscape"
   width="39.53664"
   height="39.53664"
   id="svg4102"
   version="1.1"
   inkscape:version="0.48.4 r9939"
   sodipodi:docname="2d_imager.svg">
  <defs
     id="defs4104">
    <marker
       inkscape:stockid="Arrow1Mend"
       orient="auto"
       refY="0"
       refX="0"
       id="Arrow1Mend"
       style="overflow:visible">
      <path
         inkscape:connector-curvature="0"
         id="path5043"
         d="M 0,0 L 5,-5 L -12.5,0 L 5,5 L 0,0 z"
         style="fill-rule:evenodd;stroke:#000000;stroke-width:1pt;marker-start:none"
         transform="matrix(-0.4,0,0,-0.4,-4,0)" />
    </marker>
    <marker
       inkscape:stockid="Arrow1Mend"
       orient="auto"
       refY="0"
       refX="0"
       id="marker6949"
       style="overflow:visible">
      <path
         inkscape:connector-curvature="0"
         id="path6951"
         d="M 0,0 L 5,-5 L -12.5,0 L 5,5 L 0,0 z"
         style="fill-rule:evenodd;stroke:#000000;stroke-width:1pt;marker-start:none"
         transform="matrix(-0.4,0,0,-0.4,-4,0)" />
    </marker>
    <marker
       inkscape:stockid="Arrow1Mend"
       orient="auto"
       refY="0"
       refX="0"
       id="marker6953"
       style="overflow:visible">
      <path
         inkscape:connector-curvature="0"
         id="path6955"
         d="M 0,0 L 5,-5 L -12.5,0 L 5,5 L 0,0 z"
         style="fill-rule:evenodd;stroke:#000000;stroke-width:1pt;marker-start:none"
         transform="matrix(-0.4,0,0,-0.4,-4,0)" />
    </marker>
    <marker
       inkscape:stockid="Arrow1Mend"
       orient="auto"
       refY="0"
       refX="0"
       id="Arrow1Mend-3"
       style="overflow:visible">
      <path
         inkscape:connector-curvature="0"
         id="path5043-6"
         d="M 0,0 L 5,-5 L -12.5,0 L 5,5 L 0,0 z"
         style="fill-rule:evenodd;stroke:#000000;stroke-width:1pt;marker-start:none"
         transform="matrix(-0.4,0,0,-0.4,-4,0)" />
    </marker>
    <marker
       inkscape:stockid="Arrow1Mend"
       orient="auto"
       refY="0"
       refX="0"
       id="marker7264"
       style="overflow:visible">
      <path
         inkscape:connector-curvature="0"
         id="path7266"
         d="M 0,0 L 5,-5 L -12.5,0 L 5,5 L 0,0 z"
         style="fill-rule:evenodd;stroke:#000000;stroke-width:1pt;marker-start:none"
         transform="matrix(-0.4,0,0,-0.4,-4,0)" />
    </marker>
    <marker
       inkscape:stockid="Arrow1Mend"
       orient="auto"
       refY="0"
       refX="0"
       id="marker7268"
       style="overflow:visible">
      <path
         inkscape:connector-curvature="0"
         id="path7270"
         d="M 0,0 L 5,-5 L -12.5,0 L 5,5 L 0,0 z"
         style="fill-rule:evenodd;stroke:#000000;stroke-width:1pt;marker-start:none"
         transform="matrix(-0.4,0,0,-0.4,-4,0)" />
    </marker>
  </defs>
  <sodipodi:namedview
     id="base"
     pagecolor="#ffffff"
     bordercolor="#666666"
     borderopacity="1.0"
     inkscape:pageopacity="0.0"
     inkscape:pageshadow="2"
     inkscape:zoom="5.12"
     inkscape:cx="33.378606"
     inkscape:cy="21.619838"
     inkscape:document-units="px"
     inkscape:current-layer="svg4102"
     showgrid="false"
     fit-margin-top="0"
     fit-margin-left="0"
     fit-margin-right="0"
     fit-margin-bottom="0"
     inkscape:window-width="1234"
     inkscape:window-height="711"
     inkscape:window-x="2050"
     inkscape:window-y="201"
     inkscape:window-maximized="0" />
  <metadata
     id="metadata4107">
    <rdf:RDF>
      <cc:Work
         rdf:about="">
        <dc:format>image/svg+xml</dc:format>
        <dc:type
           rdf:resource="http://purl.org/dc/dcmitype/StillImage" />
        <dc:title></dc:title>
      </cc:Work>
    </rdf:RDF>
  </metadata>
  <g
     transform="matrix(0,1.25,1.25,0,-770.01282,-446.10372)"
     style="display:inline"
     id="icon_timing_diagnostic"
     inkscape:label="icon_timing_diagnostic">
    <desc
       id="desc5231">Timing diagnostic TD</desc>
    <rect
       transform="matrix(0,1,1,0,0,0)"
       y="358.88593"
       x="618.01025"
       height="27.626362"
       width="27.626362"
       id="rect6784-3-43"
       style="fill:#ffffff;fill-opacity:1;stroke:#000000;stroke-width:3.99999952;stroke-miterlimit:4;stroke-opacity:1;stroke-dasharray:none;display:inline" />
    <g
       transform="translate(-15.092139,-16.115335)"
       id="g5193">
      <path
         sodipodi:type="arc"
         style="fill:none;stroke:#000800;stroke-width:2.18174243;stroke-linecap:round;stroke-linejoin:round;stroke-miterlimit:4;stroke-opacity:1;stroke-dasharray:none;stroke-dashoffset:0;display:inline"
         id="path2992"
         sodipodi:cx="-33"
         sodipodi:cy="27"
         sodipodi:rx="7"
         sodipodi:ry="17"
         d="M -26,27 C -26,36.388841 -29.134007,44 -33,44 C -36.865993,44 -40,36.388841 -40,27 C -40,17.611159 -36.865993,10 -33,10 C -29.134007,10 -26,17.611159 -26,27 z"
         transform="matrix(0,1.4120228,0.58142118,0,372.34869,694.5355)" />
      <path
         style="fill:none;stroke:#00084f;stroke-width:1.48262405;stroke-linecap:butt;stroke-linejoin:miter;stroke-miterlimit:4;stroke-opacity:1;stroke-dasharray:none;display:inline"
         d="M 380.13974,647.93876 L 388.04707,647.93876 L 393.97756,652.88084"
         id="path3762"
         inkscape:path-effect="#path-effect3764-9"
         inkscape:original-d="M 380.13974,647.93876 L 388.04707,647.93876 L 393.97756,652.88084"
         inkscape:connector-curvature="0" />
    </g>
  </g>
</svg>
